<svg width="286" height="244" viewBox="0 0 286 244" fill="none" xmlns="http://www.w3.org/2000/svg">
<g filter="url(#filter0_d_163_70)">
<path d="M54.9443 10H231.056C250.354 10 266 25.6486 266 44.9509V148.401C266 167.704 250.354 183.352 231.056 183.352H117.723L77.5825 212.644C72.9638 216.015 66.4756 212.715 66.4756 206.997V183.352H54.9443C35.6456 183.352 20 167.704 20 148.401V44.9509C20 25.6486 35.6456 10 54.9443 10Z" fill="white"/>
</g>
<path d="M80.5391 89.91V72.09C80.5391 70.26 80.1491 69.72 77.3591 69.72V69H87.1391V69.72C84.3191 69.72 83.9291 70.26 83.9291 72.09V89.91C83.9291 91.74 84.3191 92.28 87.1391 92.28V93H77.3591V92.28C80.1491 92.28 80.5391 91.74 80.5391 89.91ZM95.5749 86.28H96.4149C96.4149 90.96 95.4849 93.48 92.5449 93.48C90.2049 93.48 88.9749 92.07 88.9749 87.87V78.33H86.8749V77.22C89.0649 77.16 90.4449 75.54 90.7449 72.72H91.8249V77.1H95.4249V78.33H91.8849V87.09C91.8849 89.76 92.1549 91.53 93.5649 91.53C94.9149 91.53 95.5749 89.85 95.5749 86.28ZM98.8885 71.76C97.9585 71.76 97.3585 71.01 97.3585 70.11C97.3585 69.09 98.1085 68.25 99.3985 68.25C100.689 68.25 101.709 69.3 101.709 70.92C101.709 72.6 100.629 74.25 97.9585 75.06V74.28C99.6385 73.83 100.569 72.78 100.569 71.82C100.569 71.46 100.419 71.25 100.209 71.25C99.8785 71.25 99.6985 71.76 98.8885 71.76ZM108.016 93.48C106.486 93.48 105.376 92.85 104.746 92.4C104.356 92.1 104.116 92.19 103.936 92.55L103.696 93.15H103.036L102.826 86.67H103.486C103.936 90.24 105.646 92.22 107.716 92.22C109.126 92.22 109.876 91.26 109.876 89.73C109.876 88.38 109.246 87.81 106.456 85.56C103.906 83.55 103.036 82.38 103.036 80.67C103.036 78.18 104.836 76.56 107.206 76.56C108.556 76.56 109.486 77.13 110.026 77.58C110.416 77.94 110.716 77.79 110.806 77.43L110.986 76.77H111.676L111.796 82.02H111.136C110.776 79.68 109.456 77.82 107.446 77.82C106.246 77.82 105.466 78.63 105.466 79.83C105.466 81.09 106.246 81.75 108.346 83.4C111.046 85.53 112.336 86.82 112.336 89.1C112.336 92.07 110.326 93.48 108.016 93.48ZM127.067 87.63V72.09C127.067 70.26 126.647 69.72 123.857 69.72V69H133.637V69.72C130.847 69.72 130.427 70.26 130.427 72.09V86.7C130.427 91.62 128.237 93.48 125.027 93.48C121.697 93.48 120.047 91.41 120.047 89.37C120.047 88.11 120.827 87.45 121.757 87.45C122.807 87.45 123.437 88.05 123.437 88.95C123.437 89.37 123.347 89.76 123.347 90.3C123.347 91.44 123.857 92.28 124.967 92.28C126.557 92.28 127.067 90.75 127.067 87.63ZM145.512 89.61H146.202C146.112 91.89 145.392 93.48 143.412 93.48C141.702 93.48 140.682 92.34 140.682 89.55V89.01C139.992 91.83 138.402 93.48 136.242 93.48C134.112 93.48 132.912 91.89 132.912 89.94C132.912 86.16 137.262 84.48 140.682 82.95V81.21C140.682 78.63 139.842 77.73 138.372 77.73C137.202 77.73 136.362 78.33 136.362 79.32C136.362 80.01 136.782 80.4 136.782 81.09C136.782 81.9 136.272 82.47 135.312 82.47C134.232 82.47 133.662 81.72 133.662 80.61C133.662 78.39 135.822 76.53 138.852 76.53C141.762 76.53 143.562 78.18 143.562 81.42V90.27C143.562 91.74 143.862 92.1 144.342 92.1C144.972 92.1 145.452 91.5 145.512 89.61ZM137.412 91.2C138.612 91.2 139.902 90.09 140.682 87.48V83.94C138.252 85.2 135.792 86.64 135.792 89.13C135.792 90.39 136.362 91.2 137.412 91.2ZM150.128 73.62C148.988 73.62 148.178 72.84 148.178 71.79C148.178 70.71 148.988 69.93 150.128 69.93C151.238 69.93 152.048 70.71 152.048 71.79C152.048 72.84 151.238 73.62 150.128 73.62ZM151.808 76.95V89.91C151.808 91.83 152.108 92.28 153.938 92.28V93H146.798V92.28C148.628 92.28 148.928 91.83 148.928 89.91V80.67C148.928 78.66 148.898 78.24 147.158 78.96L146.888 78.27L151.298 76.5L151.808 76.95ZM155.236 93V92.28C156.976 92.28 157.276 91.83 157.276 89.91V80.67C157.276 78.66 157.276 78.24 155.476 78.99L155.176 78.3L157.576 77.34L159.616 76.5L160.186 76.95V79.71H160.276C161.626 77.85 162.976 76.56 165.016 76.56C167.146 76.56 168.316 78.09 168.316 80.91V89.91C168.316 91.83 168.586 92.28 170.296 92.28V93H163.576V92.28C165.166 92.28 165.406 91.83 165.406 89.91V81.09C165.406 79.44 164.776 78.66 163.636 78.66C162.406 78.66 161.326 79.5 160.186 80.97V89.91C160.186 91.83 160.426 92.28 162.016 92.28V93H155.236ZM181.672 86.58H182.392C181.762 91.41 179.722 93.48 176.902 93.48C173.512 93.48 171.382 90.27 171.382 85.32C171.382 80.58 173.482 76.56 177.052 76.56C180.562 76.56 182.212 79.86 182.212 84.24H174.292V84.3C174.292 88.38 175.552 91.26 178.042 91.26C179.392 91.26 180.952 90.21 181.672 86.58ZM177.052 77.82C175.252 77.82 174.502 80.01 174.322 83.01H179.332C179.332 80.13 178.822 77.82 177.052 77.82ZM201.461 85.98H191.111V83.82H201.461V85.98ZM58.1918 107V107.72C55.4018 107.72 54.9818 108.26 54.9818 110.09V131.3H53.3018L41.0618 111.71V127.91C41.0618 129.74 41.4818 130.28 44.3918 130.28V131H36.6218V130.28C39.4118 130.28 39.8018 129.74 39.8018 127.91V109.7L39.7718 109.64C38.7518 107.99 37.9418 107.72 36.6518 107.72V107H42.1418L53.7218 125.75V110.09C53.7218 108.26 53.3318 107.72 50.5418 107.72V107H58.1918ZM61.3441 111.62C60.2041 111.62 59.3941 110.84 59.3941 109.79C59.3941 108.71 60.2041 107.93 61.3441 107.93C62.4541 107.93 63.2641 108.71 63.2641 109.79C63.2641 110.84 62.4541 111.62 61.3441 111.62ZM63.0241 114.95V127.91C63.0241 129.83 63.3241 130.28 65.1541 130.28V131H58.0141V130.28C59.8441 130.28 60.1441 129.83 60.1441 127.91V118.67C60.1441 116.66 60.1141 116.24 58.3741 116.96L58.1041 116.27L62.5141 114.5L63.0241 114.95ZM72.0051 131.48C68.4951 131.48 66.4551 128.12 66.4551 123.32C66.4551 118.34 68.6451 114.56 72.5151 114.56C75.0351 114.56 76.7451 116.21 76.7451 118.46C76.7451 119.72 76.1751 120.47 75.1551 120.47C74.2251 120.47 73.7451 119.84 73.7451 119.09C73.7451 118.58 73.9551 117.98 73.9551 117.35C73.9551 116.33 73.3851 115.82 72.4851 115.82C70.3251 115.82 69.4251 118.79 69.4251 122.18C69.4251 126.08 70.6251 129.2 73.0851 129.2C74.4351 129.2 75.9651 128.18 76.5051 124.4H77.2251C76.8951 129.38 74.7051 131.48 72.0051 131.48ZM88.9326 124.58H89.6526C89.0226 129.41 86.9826 131.48 84.1626 131.48C80.7726 131.48 78.6426 128.27 78.6426 123.32C78.6426 118.58 80.7426 114.56 84.3126 114.56C87.8226 114.56 89.4726 117.86 89.4726 122.24H81.5526V122.3C81.5526 126.38 82.8126 129.26 85.3026 129.26C86.6526 129.26 88.2126 128.21 88.9326 124.58ZM84.3126 115.82C82.5126 115.82 81.7626 118.01 81.5826 121.01H86.5926C86.5926 118.13 86.0826 115.82 84.3126 115.82ZM105.902 124.28H106.742C106.742 128.96 105.812 131.48 102.872 131.48C100.532 131.48 99.3021 130.07 99.3021 125.87V116.33H97.2021V115.22C99.3921 115.16 100.772 113.54 101.072 110.72H102.152V115.1H105.752V116.33H102.212V125.09C102.212 127.76 102.482 129.53 103.892 129.53C105.242 129.53 105.902 127.85 105.902 124.28ZM114.624 131.48C110.724 131.48 108.174 128.03 108.174 123.11C108.174 118.28 110.544 114.56 114.624 114.56C118.494 114.56 121.074 118.01 121.074 122.93C121.074 127.76 118.674 131.48 114.624 131.48ZM115.074 130.16C117.204 130.16 118.044 127.34 118.044 124.7C118.044 120.62 116.814 115.88 114.174 115.88C112.044 115.88 111.174 118.7 111.174 121.34C111.174 125.42 112.434 130.16 115.074 130.16ZM149.369 118.88V127.91C149.369 129.83 149.639 130.28 151.379 130.28V131H144.749V130.28C146.249 130.28 146.489 129.83 146.489 127.91V119.03C146.489 117.41 145.889 116.66 144.809 116.66C143.729 116.66 142.769 117.41 141.719 118.82V118.88V127.91C141.719 129.83 141.959 130.28 143.459 130.28V131H137.069V130.28C138.599 130.28 138.839 129.83 138.839 127.91V119.03C138.839 117.41 138.239 116.66 137.159 116.66C136.049 116.66 135.059 117.44 133.979 118.94V127.91C133.979 129.83 134.219 130.28 135.749 130.28V131H129.059V130.28C130.829 130.28 131.099 129.83 131.099 127.91V118.67C131.099 116.66 131.099 116.27 129.329 116.99L129.029 116.33L133.409 114.5L133.979 114.95V117.71H134.069C135.209 116 136.499 114.56 138.539 114.56C140.309 114.56 141.359 115.67 141.659 117.71H141.749C142.859 116 144.149 114.56 146.189 114.56C148.289 114.56 149.369 116.12 149.369 118.88ZM162.761 124.58H163.481C162.851 129.41 160.811 131.48 157.991 131.48C154.601 131.48 152.471 128.27 152.471 123.32C152.471 118.58 154.571 114.56 158.141 114.56C161.651 114.56 163.301 117.86 163.301 122.24H155.381V122.3C155.381 126.38 156.641 129.26 159.131 129.26C160.481 129.26 162.041 128.21 162.761 124.58ZM158.141 115.82C156.341 115.82 155.591 118.01 155.411 121.01H160.421C160.421 118.13 159.911 115.82 158.141 115.82ZM175.827 124.58H176.547C175.917 129.41 173.877 131.48 171.057 131.48C167.667 131.48 165.537 128.27 165.537 123.32C165.537 118.58 167.637 114.56 171.207 114.56C174.717 114.56 176.367 117.86 176.367 122.24H168.447V122.3C168.447 126.38 169.707 129.26 172.197 129.26C173.547 129.26 175.107 128.21 175.827 124.58ZM171.207 115.82C169.407 115.82 168.657 118.01 168.477 121.01H173.487C173.487 118.13 172.977 115.82 171.207 115.82ZM186.176 124.28H187.016C187.016 128.96 186.086 131.48 183.146 131.48C180.806 131.48 179.576 130.07 179.576 125.87V116.33H177.476V115.22C179.666 115.16 181.046 113.54 181.346 110.72H182.426V115.1H186.026V116.33H182.486V125.09C182.486 127.76 182.756 129.53 184.166 129.53C185.516 129.53 186.176 127.85 186.176 124.28ZM196.728 138.02C195.318 138.02 194.238 137.18 194.238 135.95C194.238 134.96 194.898 134.42 195.738 134.42C196.488 134.42 196.878 134.87 197.208 135.32C197.568 135.86 197.838 136.01 198.288 136.01C199.068 136.01 199.698 134.84 200.238 132.77C200.328 132.23 200.238 131.06 199.998 129.92L196.278 118.07C195.678 116.21 195.138 115.82 193.818 115.82V115.1H200.838V115.82C198.858 115.82 198.858 116.21 199.398 118.07L201.918 126.89H202.068L204.558 118.07C205.068 116.21 205.068 115.82 203.118 115.82V115.1H208.068V115.82C206.868 115.82 206.328 116.21 205.788 118.07L202.008 130.82C200.778 134.93 199.548 137.93 196.728 138.02ZM210.202 109.76C209.272 109.76 208.672 109.01 208.672 108.11C208.672 107.09 209.422 106.25 210.712 106.25C212.002 106.25 213.022 107.3 213.022 108.92C213.022 110.6 211.942 112.25 209.272 113.06V112.28C210.952 111.83 211.882 110.78 211.882 109.82C211.882 109.46 211.732 109.25 211.522 109.25C211.192 109.25 211.012 109.76 210.202 109.76ZM226.211 127.61H226.901C226.811 129.89 226.091 131.48 224.111 131.48C222.401 131.48 221.381 130.34 221.381 127.55V127.01C220.691 129.83 219.101 131.48 216.941 131.48C214.811 131.48 213.611 129.89 213.611 127.94C213.611 124.16 217.961 122.48 221.381 120.95V119.21C221.381 116.63 220.541 115.73 219.071 115.73C217.901 115.73 217.061 116.33 217.061 117.32C217.061 118.01 217.481 118.4 217.481 119.09C217.481 119.9 216.971 120.47 216.011 120.47C214.931 120.47 214.361 119.72 214.361 118.61C214.361 116.39 216.521 114.53 219.551 114.53C222.461 114.53 224.261 116.18 224.261 119.42V128.27C224.261 129.74 224.561 130.1 225.041 130.1C225.671 130.1 226.151 129.5 226.211 127.61ZM218.111 129.2C219.311 129.2 220.601 128.09 221.381 125.48V121.94C218.951 123.2 216.491 124.64 216.491 127.13C216.491 128.39 217.061 129.2 218.111 129.2ZM232.444 106.7V127.91C232.444 129.83 232.714 130.28 234.544 130.28V131H227.404V130.28C229.234 130.28 229.534 129.83 229.534 127.91V110.57C229.534 108.65 229.534 108.26 227.734 109.16L227.434 108.5L231.994 106.28L232.444 106.7ZM240.705 106.7V127.91C240.705 129.83 240.975 130.28 242.805 130.28V131H235.665V130.28C237.495 130.28 237.795 129.83 237.795 127.91V110.57C237.795 108.65 237.795 108.26 235.995 109.16L235.695 108.5L240.255 106.28L240.705 106.7ZM245.067 108.38C245.067 107.06 245.637 106.4 246.657 106.4C247.647 106.4 248.247 107.06 248.247 108.38C248.247 111.59 247.197 114.95 247.107 124.85H246.237C246.147 114.95 245.067 111.59 245.067 108.38ZM246.657 131.48C245.667 131.48 244.887 130.7 244.887 129.71C244.887 128.75 245.667 127.94 246.657 127.94C247.617 127.94 248.397 128.75 248.397 129.71C248.397 130.7 247.617 131.48 246.657 131.48Z" fill="#EB5B38"/>
<defs>
<filter id="filter0_d_163_70" x="0" y="0" width="286" height="244" filterUnits="userSpaceOnUse" color-interpolation-filters="sRGB">
<feFlood flood-opacity="0" result="BackgroundImageFix"/>
<feColorMatrix in="SourceAlpha" type="matrix" values="0 0 0 0 0 0 0 0 0 0 0 0 0 0 0 0 0 0 127 0" result="hardAlpha"/>
<feOffset dy="10"/>
<feGaussianBlur stdDeviation="10"/>
<feComposite in2="hardAlpha" operator="out"/>
<feColorMatrix type="matrix" values="0 0 0 0 0 0 0 0 0 0 0 0 0 0 0 0 0 0 0.36 0"/>
<feBlend mode="normal" in2="BackgroundImageFix" result="effect1_dropShadow_163_70"/>
<feBlend mode="normal" in="SourceGraphic" in2="effect1_dropShadow_163_70" result="shape"/>
</filter>
</defs>
</svg>
