<svg width="286" height="244" viewBox="0 0 286 244" fill="none" xmlns="http://www.w3.org/2000/svg">
<g filter="url(#filter0_d_163_73)">
<path d="M231.056 10H54.9443C35.6456 10 20 25.6486 20 44.9509V148.401C20 167.704 35.6456 183.352 54.9443 183.352H168.277L208.418 212.644C213.036 216.015 219.524 212.715 219.524 206.997V183.352H231.056C250.354 183.352 266 167.704 266 148.401V44.9509C266 25.6486 250.354 10 231.056 10Z" fill="white"/>
</g>
<path d="M89.2821 82.64L96.3621 104.06C96.9921 105.89 97.6521 106.28 99.6021 106.28V107H90.4821V106.28C93.3921 106.28 93.4221 105.8 92.8821 104.03L91.4421 99.41H83.4021L81.9321 104.06C81.3621 105.8 81.3921 106.28 84.2421 106.28V107H77.4621V106.28C79.3521 106.28 80.0121 105.89 80.6121 104.06L87.6321 82.64H89.2821ZM87.3921 86.96L83.7921 98.24H91.0521L87.5121 86.96H87.3921ZM99.7629 107V106.28C101.503 106.28 101.803 105.83 101.803 103.91V94.67C101.803 92.66 101.803 92.24 100.003 92.99L99.7029 92.3L102.103 91.34L104.143 90.5L104.713 90.95V93.71H104.803C106.153 91.85 107.503 90.56 109.543 90.56C111.673 90.56 112.843 92.09 112.843 94.91V103.91C112.843 105.83 113.113 106.28 114.823 106.28V107H108.103V106.28C109.693 106.28 109.933 105.83 109.933 103.91V95.09C109.933 93.44 109.303 92.66 108.163 92.66C106.933 92.66 105.853 93.5 104.713 94.97V103.91C104.713 105.83 104.953 106.28 106.543 106.28V107H99.7629ZM116.228 107V106.28C117.968 106.28 118.268 105.83 118.268 103.91V94.67C118.268 92.66 118.268 92.24 116.468 92.99L116.168 92.3L118.568 91.34L120.608 90.5L121.178 90.95V93.71H121.268C122.618 91.85 123.968 90.56 126.008 90.56C128.138 90.56 129.308 92.09 129.308 94.91V103.91C129.308 105.83 129.578 106.28 131.288 106.28V107H124.568V106.28C126.158 106.28 126.398 105.83 126.398 103.91V95.09C126.398 93.44 125.768 92.66 124.628 92.66C123.398 92.66 122.318 93.5 121.178 94.97V103.91C121.178 105.83 121.418 106.28 123.008 106.28V107H116.228ZM133.153 114.02C131.743 114.02 130.663 113.18 130.663 111.95C130.663 110.96 131.323 110.42 132.163 110.42C132.913 110.42 133.303 110.87 133.633 111.32C133.993 111.86 134.263 112.01 134.713 112.01C135.493 112.01 136.123 110.84 136.663 108.77C136.753 108.23 136.663 107.06 136.423 105.92L132.703 94.07C132.103 92.21 131.563 91.82 130.243 91.82V91.1H137.263V91.82C135.283 91.82 135.283 92.21 135.823 94.07L138.343 102.89H138.493L140.983 94.07C141.493 92.21 141.493 91.82 139.543 91.82V91.1H144.493V91.82C143.293 91.82 142.753 92.21 142.213 94.07L138.433 106.82C137.203 110.93 135.973 113.93 133.153 114.02ZM154.528 100.58H155.248C154.618 105.41 152.578 107.48 149.758 107.48C146.368 107.48 144.238 104.27 144.238 99.32C144.238 94.58 146.338 90.56 149.908 90.56C153.418 90.56 155.068 93.86 155.068 98.24H147.148V98.3C147.148 102.38 148.408 105.26 150.898 105.26C152.248 105.26 153.808 104.21 154.528 100.58ZM149.908 91.82C148.108 91.82 147.358 94.01 147.178 97.01H152.188C152.188 94.13 151.678 91.82 149.908 91.82ZM163.755 107.48C159.855 107.48 157.305 104.03 157.305 99.11C157.305 94.28 159.675 90.56 163.755 90.56C167.625 90.56 170.205 94.01 170.205 98.93C170.205 103.76 167.805 107.48 163.755 107.48ZM164.205 106.16C166.335 106.16 167.175 103.34 167.175 100.7C167.175 96.62 165.945 91.88 163.305 91.88C161.175 91.88 160.305 94.7 160.305 97.34C160.305 101.42 161.565 106.16 164.205 106.16ZM171.569 107V106.28C173.309 106.28 173.609 105.83 173.609 103.91V94.67C173.609 92.66 173.609 92.24 171.809 92.99L171.509 92.3L173.909 91.34L175.949 90.5L176.519 90.95V93.71H176.609C177.959 91.85 179.309 90.56 181.349 90.56C183.479 90.56 184.649 92.09 184.649 94.91V103.91C184.649 105.83 184.919 106.28 186.629 106.28V107H179.909V106.28C181.499 106.28 181.739 105.83 181.739 103.91V95.09C181.739 93.44 181.109 92.66 179.969 92.66C178.739 92.66 177.659 93.5 176.519 94.97V103.91C176.519 105.83 176.759 106.28 178.349 106.28V107H171.569ZM193.388 104.6H196.868C199.988 104.6 201.398 105.5 201.398 107.78C201.398 111.11 197.798 114.08 192.758 114.08C189.548 114.08 186.758 112.91 186.758 110.45C186.758 108.74 188.018 107.6 189.908 106.76C188.678 106.28 188.138 105.44 188.138 104.42C188.138 103.04 189.098 102.05 190.448 101.21C188.978 100.22 188.138 98.51 188.138 96.44C188.138 93.08 190.298 90.59 193.748 90.59C194.888 90.59 195.878 90.86 196.718 91.37C197.918 90.68 199.208 90.38 200.138 90.38C201.008 90.38 201.248 90.8 201.248 91.28C201.248 91.85 200.888 92.3 200.168 92.3C199.028 92.3 198.218 91.7 197.348 91.82C198.548 92.84 199.238 94.4 199.238 96.35C199.238 99.77 197.078 102.14 193.718 102.14C192.788 102.14 191.948 101.96 191.228 101.63C190.628 102.11 190.238 102.59 190.238 103.19C190.238 103.97 190.478 104.6 193.388 104.6ZM193.358 91.73C191.708 91.73 191.078 93.5 191.078 95.39C191.078 97.91 191.888 100.97 194.078 100.97C195.638 100.97 196.328 99.47 196.328 97.46C196.328 94.85 195.428 91.73 193.358 91.73ZM193.478 112.28C197.288 112.28 199.718 110.39 199.718 108.71C199.718 107.54 198.908 107.27 196.778 107.27H193.058C192.218 107.27 191.498 107.21 190.898 107.06C189.878 107.87 189.158 108.77 189.158 109.73C189.158 110.99 190.328 112.28 193.478 112.28ZM202.997 84.38C202.997 83.06 203.567 82.4 204.587 82.4C205.577 82.4 206.177 83.06 206.177 84.38C206.177 87.59 205.127 90.95 205.037 100.85H204.167C204.077 90.95 202.997 87.59 202.997 84.38ZM204.587 107.48C203.597 107.48 202.817 106.7 202.817 105.71C202.817 104.75 203.597 103.94 204.587 103.94C205.547 103.94 206.327 104.75 206.327 105.71C206.327 106.7 205.547 107.48 204.587 107.48Z" fill="#EB5B38"/>
<defs>
<filter id="filter0_d_163_73" x="0" y="0" width="286" height="244" filterUnits="userSpaceOnUse" color-interpolation-filters="sRGB">
<feFlood flood-opacity="0" result="BackgroundImageFix"/>
<feColorMatrix in="SourceAlpha" type="matrix" values="0 0 0 0 0 0 0 0 0 0 0 0 0 0 0 0 0 0 127 0" result="hardAlpha"/>
<feOffset dy="10"/>
<feGaussianBlur stdDeviation="10"/>
<feComposite in2="hardAlpha" operator="out"/>
<feColorMatrix type="matrix" values="0 0 0 0 0 0 0 0 0 0 0 0 0 0 0 0 0 0 0.36 0"/>
<feBlend mode="normal" in2="BackgroundImageFix" result="effect1_dropShadow_163_73"/>
<feBlend mode="normal" in="SourceGraphic" in2="effect1_dropShadow_163_73" result="shape"/>
</filter>
</defs>
</svg>
