<svg width="1420" height="687" viewBox="0 0 1420 687" fill="none" xmlns="http://www.w3.org/2000/svg">
<rect width="1420" height="686.867" rx="17.7945" fill="#C6ED67"/>
<rect x="78" y="147" width="1264" height="485" rx="19" fill="#F5F3EE" stroke="#22C182" stroke-width="2"/>
<line x1="350.299" y1="632.639" x2="350.299" y2="146" stroke="#119762"/>
<line x1="598.403" y1="632.639" x2="598.403" y2="146" stroke="#119762"/>
<line x1="846.505" y1="632.639" x2="846.505" y2="146" stroke="#119762"/>
<line x1="1094.61" y1="632.639" x2="1094.61" y2="146" stroke="#119762"/>
<line x1="77.4062" y1="256.226" x2="1343.21" y2="256.226" stroke="#119762"/>
<line x1="77.4062" y1="331.406" x2="1343.21" y2="331.406" stroke="#119762"/>
<line x1="77.4062" y1="406.588" x2="1343.21" y2="406.588" stroke="#119762"/>
<line x1="77.4062" y1="481.773" x2="1343.21" y2="481.773" stroke="#119762"/>
<line x1="77.4062" y1="556.955" x2="1343.21" y2="556.955" stroke="#119762"/>
<path d="M146.714 304H142.668V284.589H146.714V304ZM153.29 304H149.435V284.589H154.165L162.23 298.341V284.589H166.057V304H161.574L153.29 289.784V304ZM176.141 304.355C171.192 304.355 168.103 301.895 167.857 297.712H171.876C172.149 300.036 173.789 301.129 176.25 301.129C178.519 301.129 179.886 300.309 179.886 298.724V298.614C179.886 297.165 178.847 296.482 175.074 295.771C170.345 294.896 168.513 293.092 168.513 290.057V289.893C168.513 286.476 171.466 284.234 175.84 284.234C180.187 284.234 183.221 286.394 183.549 290.412H179.531C179.312 288.417 177.945 287.432 175.758 287.432C173.571 287.432 172.504 288.417 172.504 289.784V289.838C172.504 291.069 173.079 291.834 176.906 292.49C181.554 293.283 183.878 294.951 183.878 298.204V298.368C183.878 301.977 180.734 304.355 176.141 304.355ZM193.404 304H189.386V287.897H183.863V284.589H198.9V287.897H193.404V304ZM215.237 304H211L209.523 299.844H201.704L200.228 304H196.127L203.481 284.589H207.883L215.237 304ZM205.614 288.827L202.88 296.564H208.375L205.614 288.827ZM223.678 304.355C218.347 304.355 214.82 300.282 214.82 294.595V293.994C214.82 288.28 218.566 284.234 224.252 284.234C228.982 284.234 232.071 287.05 232.646 290.987H228.545C228.053 288.881 226.549 287.596 224.198 287.596C220.862 287.596 219.031 290.194 219.031 293.994V294.595C219.031 298.423 220.972 300.965 224.307 300.965C227.615 300.965 229.256 298.915 229.31 296.4H223.87V293.228H232.728V304H229.72L229.392 301.485C228.408 303.18 226.248 304.355 223.678 304.355ZM238.973 304H235.009V284.589H243.511C247.558 284.589 250.538 286.722 250.538 290.686V291.014C250.538 293.994 248.897 295.908 246.382 296.7L251.221 304H246.683L242.281 297.111H238.973V304ZM238.973 287.925V293.775H243.101C245.015 293.775 246.382 292.928 246.382 291.014V290.686C246.382 288.745 245.015 287.925 243.101 287.925H238.973ZM270.314 304H266.076L264.6 299.844H256.781L255.305 304H251.204L258.558 284.589H262.96L270.314 304ZM260.691 288.827L257.957 296.564H263.452L260.691 288.827ZM275.556 304H271.647V284.589H277.443L282.2 298.97L286.929 284.589H292.452V304H288.624V289.182L283.703 304H280.505L275.556 289.155V304Z" fill="black"/>
<path d="M391.579 196.696C387.416 196.696 384.78 193.782 384.78 189.62V189.184C384.78 185.041 387.496 182.108 391.599 182.108C395.147 182.108 397.505 184.348 397.743 187.678H394.77C394.552 185.735 393.382 184.566 391.559 184.566C389.18 184.566 387.833 186.429 387.833 189.184V189.62C387.833 192.375 389.2 194.219 391.559 194.219C393.462 194.219 394.651 192.93 394.75 190.968H397.723C397.505 194.318 395.226 196.696 391.579 196.696ZM401.731 196.696C399.67 196.696 398.282 195.388 398.282 193.584C398.282 191.84 399.392 190.809 401.255 190.552L405.021 190.016V189.422C405.021 188.57 404.466 188.054 403.257 188.054C402.127 188.054 401.414 188.49 401.315 189.362H398.698C398.857 187.182 400.661 185.953 403.317 185.953C406.072 185.953 407.697 187.321 407.697 189.462V196.438H405.14L405.041 194.873C404.427 195.983 403.237 196.696 401.731 196.696ZM402.563 194.615C403.911 194.615 405.021 193.822 405.021 192.692V191.88L402.246 192.256C401.394 192.375 400.958 192.732 400.958 193.446C400.958 194.179 401.553 194.615 402.563 194.615ZM412.074 196.438H409.299V186.211H411.975L412.054 187.797C412.57 186.845 413.58 185.953 415.285 185.953C417.822 185.953 418.833 187.559 418.833 189.858V196.438H416.078V190.552C416.078 189.065 415.563 188.193 414.235 188.193C412.946 188.193 412.074 189.144 412.074 190.77V196.438ZM427.155 196.696C424.737 196.696 423.607 195.17 423.607 192.752V186.211H426.402V192.217C426.402 193.664 426.937 194.437 428.166 194.437C429.434 194.437 430.227 193.505 430.227 191.8V186.211H433.022V196.438H430.326L430.267 194.952C429.692 195.864 428.642 196.696 427.155 196.696ZM438.819 196.696C435.965 196.696 434.3 195.408 434.121 193.188H436.777C436.936 194.199 437.709 194.714 438.839 194.714C439.889 194.714 440.603 194.318 440.603 193.584C440.603 192.95 440.127 192.573 438.284 192.256C435.667 191.82 434.458 190.988 434.458 189.144C434.458 187.222 436.222 185.953 438.72 185.953C441.356 185.953 442.961 187.162 443.12 189.263H440.523C440.404 188.371 439.711 187.896 438.68 187.896C437.729 187.896 437.114 188.292 437.114 188.966C437.114 189.6 437.63 189.937 439.374 190.215C442.149 190.651 443.318 191.543 443.318 193.327C443.318 195.348 441.574 196.696 438.819 196.696ZM449.319 196.696C446.028 196.696 444.046 194.595 444.046 191.444V191.186C444.046 188.074 446.088 185.953 449.319 185.953C452.807 185.953 454.532 188.411 454.353 191.979H446.881C447.02 193.723 447.832 194.575 449.319 194.575C450.567 194.575 451.281 193.981 451.539 193.188H454.294C453.798 195.348 451.995 196.696 449.319 196.696ZM446.92 190.155H451.519C451.4 188.867 450.686 188.074 449.299 188.074C447.931 188.074 447.158 188.748 446.92 190.155ZM458.475 196.438H455.7V186.211H458.376L458.436 188.193C458.931 186.964 459.942 186.032 461.448 186.032C461.647 186.032 461.904 186.052 462.063 186.092V188.748C461.865 188.728 461.547 188.708 461.29 188.708C459.446 188.708 458.475 189.699 458.475 191.503V196.438ZM467.097 196.696C464.243 196.696 462.578 195.408 462.399 193.188H465.055C465.214 194.199 465.987 194.714 467.117 194.714C468.167 194.714 468.881 194.318 468.881 193.584C468.881 192.95 468.405 192.573 466.562 192.256C463.945 191.82 462.736 190.988 462.736 189.144C462.736 187.222 464.5 185.953 466.998 185.953C469.634 185.953 471.239 187.162 471.398 189.263H468.801C468.683 188.371 467.989 187.896 466.958 187.896C466.007 187.896 465.392 188.292 465.392 188.966C465.392 189.6 465.908 189.937 467.652 190.215C470.427 190.651 471.596 191.543 471.596 193.327C471.596 195.348 469.852 196.696 467.097 196.696ZM481.016 196.696C477.726 196.696 475.744 194.595 475.744 191.444V191.186C475.744 188.074 477.785 185.953 481.016 185.953C484.504 185.953 486.229 188.411 486.051 191.979H478.578C478.717 193.723 479.529 194.575 481.016 194.575C482.265 194.575 482.978 193.981 483.236 193.188H485.991C485.496 195.348 483.692 196.696 481.016 196.696ZM478.618 190.155H483.216C483.097 188.867 482.384 188.074 480.996 188.074C479.629 188.074 478.856 188.748 478.618 190.155ZM490.352 196.696C488.291 196.696 486.903 195.388 486.903 193.584C486.903 191.84 488.013 190.809 489.877 190.552L493.643 190.016V189.422C493.643 188.57 493.088 188.054 491.878 188.054C490.749 188.054 490.035 188.49 489.936 189.362H487.32C487.478 187.182 489.282 185.953 491.938 185.953C494.693 185.953 496.318 187.321 496.318 189.462V196.438H493.761L493.662 194.873C493.048 195.983 491.859 196.696 490.352 196.696ZM491.185 194.615C492.533 194.615 493.643 193.822 493.643 192.692V191.88L490.868 192.256C490.015 192.375 489.579 192.732 489.579 193.446C489.579 194.179 490.174 194.615 491.185 194.615ZM502.162 196.696C499.308 196.696 497.643 195.408 497.465 193.188H500.121C500.279 194.199 501.052 194.714 502.182 194.714C503.232 194.714 503.946 194.318 503.946 193.584C503.946 192.95 503.47 192.573 501.627 192.256C499.011 191.82 497.802 190.988 497.802 189.144C497.802 187.222 499.566 185.953 502.063 185.953C504.699 185.953 506.305 187.162 506.463 189.263H503.867C503.748 188.371 503.054 187.896 502.023 187.896C501.072 187.896 500.458 188.292 500.458 188.966C500.458 189.6 500.973 189.937 502.717 190.215C505.492 190.651 506.662 191.543 506.662 193.327C506.662 195.348 504.917 196.696 502.162 196.696ZM510.755 181.771V184.863H507.861V181.771H510.755ZM507.921 186.211H510.696V196.438H507.921V186.211ZM512.385 181.771H515.16V196.438H512.385V181.771ZM521.448 199.808H518.594L519.922 196.339L516.037 186.211H518.97L521.388 193.346L523.727 186.211H526.562L521.448 199.808ZM534.58 196.438H531.805V188.233H529.902V186.211H531.805V184.724C531.805 182.623 532.975 181.513 535.432 181.513C536.027 181.513 536.78 181.632 537.276 181.751V183.892C536.998 183.813 536.542 183.694 536.047 183.694C534.957 183.694 534.58 184.07 534.58 184.962V186.211H537.236V188.233H534.58V196.438ZM541.398 184.863H538.505V181.771H541.398V184.863ZM541.339 186.211V196.438H538.564V186.211H541.339ZM545.793 196.438H543.018V186.211H545.694L545.773 187.797C546.288 186.845 547.299 185.953 549.004 185.953C551.541 185.953 552.552 187.559 552.552 189.858V196.438H549.797V190.552C549.797 189.065 549.281 188.193 547.953 188.193C546.665 188.193 545.793 189.144 545.793 190.77V196.438ZM558.263 196.696C555.508 196.696 553.803 194.496 553.803 191.444V191.186C553.803 188.173 555.448 185.953 558.184 185.953C559.69 185.953 560.76 186.667 561.355 187.579V181.771H564.15V196.438H561.573L561.494 194.833C561.018 195.745 559.928 196.696 558.263 196.696ZM559.036 194.555C560.622 194.555 561.454 193.446 561.454 191.444V191.186C561.454 189.184 560.622 188.074 559.036 188.074C557.47 188.074 556.618 189.184 556.618 191.186V191.444C556.618 193.446 557.47 194.555 559.036 194.555ZM387.275 220.696C384.817 220.696 383.647 219.586 383.647 217.485V212.233H381.745V210.211H383.647V206.96H386.422V210.211H389.078V212.233H386.422V217.247C386.422 218.139 386.819 218.516 387.889 218.516C388.385 218.516 388.841 218.397 389.118 218.318V220.438C388.642 220.597 387.869 220.696 387.275 220.696ZM393.164 220.438H390.389V205.771H393.184V211.697C393.719 210.786 394.749 209.953 396.375 209.953C398.912 209.953 399.923 211.559 399.923 213.858V220.438H397.168V214.552C397.168 213.065 396.652 212.193 395.324 212.193C394.036 212.193 393.164 213.144 393.164 214.77V220.438ZM406.447 220.696C403.156 220.696 401.174 218.595 401.174 215.444V215.186C401.174 212.074 403.216 209.953 406.447 209.953C409.935 209.953 411.66 212.411 411.481 215.979H404.009C404.147 217.723 404.96 218.575 406.447 218.575C407.695 218.575 408.409 217.981 408.667 217.188H411.422C410.926 219.348 409.122 220.696 406.447 220.696ZM404.048 214.155H408.647C408.528 212.867 407.814 212.074 406.427 212.074C405.059 212.074 404.286 212.748 404.048 214.155ZM419.681 211.797H416.866V208.982C416.866 206.683 417.956 205.692 420.136 205.692V207.099C418.927 207.099 418.452 207.535 418.452 208.804V209.081H419.681V211.797ZM432.709 220.438H429.637L428.567 217.426H422.898L421.827 220.438H418.854L424.186 206.366H427.377L432.709 220.438ZM425.732 209.438L423.75 215.047H427.734L425.732 209.438ZM433.596 205.771H436.371V220.438H433.596V205.771ZM442.817 220.696C440.36 220.696 439.19 219.586 439.19 217.485V212.233H437.287V210.211H439.19V206.96H441.965V210.211H444.621V212.233H441.965V217.247C441.965 218.139 442.362 218.516 443.432 218.516C443.927 218.516 444.383 218.397 444.661 218.318V220.438C444.185 220.597 443.412 220.696 442.817 220.696ZM455.539 220.438H452.625V208.764H448.621V206.366H459.523V208.764H455.539V220.438ZM463.976 220.696C460.686 220.696 458.704 218.595 458.704 215.444V215.186C458.704 212.074 460.745 209.953 463.976 209.953C467.465 209.953 469.189 212.411 469.011 215.979H461.538C461.677 217.723 462.49 218.575 463.976 218.575C465.225 218.575 465.938 217.981 466.196 217.188H468.951C468.456 219.348 466.652 220.696 463.976 220.696ZM461.578 214.155H466.176C466.057 212.867 465.344 212.074 463.956 212.074C462.589 212.074 461.816 212.748 461.578 214.155ZM471.686 220.438H468.713L472.36 215.186L468.891 210.211H472.043L474.045 213.263L476.086 210.211H479.059L475.591 215.146L479.277 220.438H476.106L473.886 217.069L471.686 220.438ZM484.825 220.696C482.367 220.696 481.197 219.586 481.197 217.485V212.233H479.295V210.211H481.197V206.96H483.972V210.211H486.628V212.233H483.972V217.247C483.972 218.139 484.369 218.516 485.439 218.516C485.935 218.516 486.391 218.397 486.668 218.318V220.438C486.192 220.597 485.419 220.696 484.825 220.696ZM488.024 211.876V210.488C489.253 210.488 489.709 210.032 489.709 208.784V208.506H488.48V205.771H491.295V208.605C491.295 210.885 490.204 211.876 488.024 211.876ZM502.929 220.696C501.244 220.696 500.154 219.745 499.698 218.833L499.619 220.438H497.022V205.771H499.817V211.579C500.432 210.667 501.502 209.953 503.008 209.953C505.724 209.953 507.369 212.173 507.369 215.186V215.444C507.369 218.496 505.664 220.696 502.929 220.696ZM502.136 218.555C503.722 218.555 504.554 217.446 504.554 215.444V215.186C504.554 213.184 503.722 212.074 502.136 212.074C500.57 212.074 499.718 213.184 499.718 215.186V215.444C499.718 217.446 500.57 218.555 502.136 218.555ZM512.137 220.696C509.718 220.696 508.589 219.17 508.589 216.752V210.211H511.383V216.217C511.383 217.664 511.919 218.437 513.147 218.437C514.416 218.437 515.209 217.505 515.209 215.8V210.211H518.004V220.438H515.308L515.248 218.952C514.674 219.864 513.623 220.696 512.137 220.696ZM524.451 220.696C521.993 220.696 520.824 219.586 520.824 217.485V212.233H518.921V210.211H520.824V206.96H523.599V210.211H526.255V212.233H523.599V217.247C523.599 218.139 523.995 218.516 525.066 218.516C525.561 218.516 526.017 218.397 526.294 218.318V220.438C525.819 220.597 525.046 220.696 524.451 220.696ZM532.303 220.696C529.845 220.696 528.676 219.586 528.676 217.485V212.233H526.773V210.211H528.676V206.96H531.451V210.211H534.107V212.233H531.451V217.247C531.451 218.139 531.847 218.516 532.917 218.516C533.413 218.516 533.869 218.397 534.146 218.318V220.438C533.67 220.597 532.897 220.696 532.303 220.696ZM540.061 220.696C536.89 220.696 534.808 218.555 534.808 215.444V215.186C534.808 212.094 536.89 209.953 540.061 209.953C543.232 209.953 545.314 212.094 545.314 215.206V215.444C545.314 218.555 543.232 220.696 540.061 220.696ZM540.061 218.536C541.686 218.536 542.499 217.446 542.499 215.444V215.206C542.499 213.204 541.686 212.114 540.061 212.114C538.436 212.114 537.623 213.204 537.623 215.186V215.444C537.623 217.446 538.436 218.536 540.061 218.536ZM549.412 220.438H546.637V210.211H549.312L549.392 211.797C549.907 210.845 550.918 209.953 552.623 209.953C555.16 209.953 556.171 211.559 556.171 213.858V220.438H553.415V214.552C553.415 213.065 552.9 212.193 551.572 212.193C550.284 212.193 549.412 213.144 549.412 214.77V220.438ZM562.879 216.454H560.005V216.038C560.005 212.57 564.207 212.47 564.207 210.35V210.151C564.207 209.141 563.474 208.407 562.205 208.407C560.837 208.407 559.945 209.18 559.767 210.607H556.873C557.131 207.674 559.311 206.108 562.165 206.108C565.139 206.108 567.14 207.773 567.14 210.112V210.211C567.14 213.898 562.879 213.442 562.879 216.316V216.454ZM562.879 220.438H560.005V217.703H562.879V220.438Z" fill="black"/>
<path d="M632.253 196.438H629.181L628.111 193.426H622.442L621.372 196.438H618.399L623.73 182.366H626.922L632.253 196.438ZM625.276 185.438L623.294 191.047H627.278L625.276 185.438ZM635.915 196.438H633.14V186.211H635.816L635.876 188.193C636.371 186.964 637.382 186.032 638.888 186.032C639.087 186.032 639.344 186.052 639.503 186.092V188.748C639.305 188.728 638.988 188.708 638.73 188.708C636.887 188.708 635.915 189.699 635.915 191.503V196.438ZM645.153 196.696C641.863 196.696 639.88 194.595 639.88 191.444V191.186C639.88 188.074 641.922 185.953 645.153 185.953C648.641 185.953 650.366 188.411 650.187 191.979H642.715C642.854 193.723 643.666 194.575 645.153 194.575C646.402 194.575 647.115 193.981 647.373 193.188H650.128C649.632 195.348 647.829 196.696 645.153 196.696ZM642.754 190.155H647.353C647.234 188.867 646.52 188.074 645.133 188.074C643.765 188.074 642.992 188.748 642.754 190.155ZM659.536 196.696C657.078 196.696 655.909 195.586 655.909 193.485V188.233H654.006V186.211H655.909V182.96H658.684V186.211H661.34V188.233H658.684V193.247C658.684 194.139 659.08 194.516 660.151 194.516C660.646 194.516 661.102 194.397 661.38 194.318V196.438C660.904 196.597 660.131 196.696 659.536 196.696ZM665.425 196.438H662.65V181.771H665.445V187.697C665.98 186.786 667.011 185.953 668.636 185.953C671.173 185.953 672.184 187.559 672.184 189.858V196.438H669.429V190.552C669.429 189.065 668.914 188.193 667.586 188.193C666.297 188.193 665.425 189.144 665.425 190.77V196.438ZM678.708 196.696C675.418 196.696 673.436 194.595 673.436 191.444V191.186C673.436 188.074 675.477 185.953 678.708 185.953C682.197 185.953 683.921 188.411 683.743 191.979H676.27C676.409 193.723 677.222 194.575 678.708 194.575C679.957 194.575 680.671 193.981 680.928 193.188H683.683C683.188 195.348 681.384 196.696 678.708 196.696ZM676.31 190.155H680.908C680.789 188.867 680.076 188.074 678.688 188.074C677.321 188.074 676.548 188.748 676.31 190.155ZM687.865 196.438H685.09V186.211H687.766L687.825 188.193C688.321 186.964 689.331 186.032 690.838 186.032C691.036 186.032 691.294 186.052 691.452 186.092V188.748C691.254 188.728 690.937 188.708 690.679 188.708C688.836 188.708 687.865 189.699 687.865 191.503V196.438ZM697.102 196.696C693.812 196.696 691.83 194.595 691.83 191.444V191.186C691.83 188.074 693.871 185.953 697.102 185.953C700.591 185.953 702.315 188.411 702.137 191.979H694.664C694.803 193.723 695.616 194.575 697.102 194.575C698.351 194.575 699.065 193.981 699.322 193.188H702.077C701.582 195.348 699.778 196.696 697.102 196.696ZM694.704 190.155H699.302C699.183 188.867 698.47 188.074 697.082 188.074C695.715 188.074 694.942 188.748 694.704 190.155ZM709.741 196.696C707.68 196.696 706.293 195.388 706.293 193.584C706.293 191.84 707.403 190.809 709.266 190.552L713.032 190.016V189.422C713.032 188.57 712.477 188.054 711.268 188.054C710.138 188.054 709.424 188.49 709.325 189.362H706.709C706.867 187.182 708.671 185.953 711.327 185.953C714.082 185.953 715.708 187.321 715.708 189.462V196.438H713.151L713.052 194.873C712.437 195.983 711.248 196.696 709.741 196.696ZM710.574 194.615C711.922 194.615 713.032 193.822 713.032 192.692V191.88L710.257 192.256C709.405 192.375 708.968 192.732 708.968 193.446C708.968 194.179 709.563 194.615 710.574 194.615ZM720.085 196.438H717.31V186.211H719.986L720.065 187.797C720.58 186.845 721.591 185.953 723.296 185.953C725.833 185.953 726.844 187.559 726.844 189.858V196.438H724.088V190.552C724.088 189.065 723.573 188.193 722.245 188.193C720.957 188.193 720.085 189.144 720.085 190.77V196.438ZM732.508 199.808H729.654L730.982 196.339L727.097 186.211H730.031L732.449 193.346L734.788 186.211H737.622L732.508 199.808ZM746.493 196.696C743.302 196.696 741.379 194.575 741.379 191.444V191.186C741.379 188.054 743.302 185.953 746.493 185.953C749.169 185.953 750.953 187.499 751.25 190.056H748.515C748.336 188.887 747.761 188.114 746.453 188.114C744.927 188.114 744.194 189.224 744.194 191.186V191.444C744.194 193.426 744.927 194.536 746.453 194.536C747.761 194.536 748.356 193.743 748.534 192.593H751.27C750.953 195.15 749.169 196.696 746.493 196.696ZM755.227 196.438H752.452V181.771H755.247V187.697C755.782 186.786 756.813 185.953 758.438 185.953C760.975 185.953 761.986 187.559 761.986 189.858V196.438H759.231V190.552C759.231 189.065 758.716 188.193 757.388 188.193C756.099 188.193 755.227 189.144 755.227 190.77V196.438ZM766.607 196.696C764.546 196.696 763.159 195.388 763.159 193.584C763.159 191.84 764.269 190.809 766.132 190.552L769.898 190.016V189.422C769.898 188.57 769.343 188.054 768.134 188.054C767.004 188.054 766.29 188.49 766.191 189.362H763.575C763.733 187.182 765.537 185.953 768.193 185.953C770.948 185.953 772.574 187.321 772.574 189.462V196.438H770.017L769.918 194.873C769.303 195.983 768.114 196.696 766.607 196.696ZM767.44 194.615C768.788 194.615 769.898 193.822 769.898 192.692V191.88L767.123 192.256C766.271 192.375 765.834 192.732 765.834 193.446C765.834 194.179 766.429 194.615 767.44 194.615ZM776.951 196.438H774.176V186.211H776.852L776.911 188.193C777.406 186.964 778.417 186.032 779.924 186.032C780.122 186.032 780.38 186.052 780.538 186.092V188.748C780.34 188.728 780.023 188.708 779.765 188.708C777.922 188.708 776.951 189.699 776.951 191.503V196.438ZM784.208 196.696C782.146 196.696 780.759 195.388 780.759 193.584C780.759 191.84 781.869 190.809 783.732 190.552L787.498 190.016V189.422C787.498 188.57 786.943 188.054 785.734 188.054C784.604 188.054 783.891 188.49 783.792 189.362H781.175C781.334 187.182 783.138 185.953 785.794 185.953C788.549 185.953 790.174 187.321 790.174 189.462V196.438H787.617L787.518 194.873C786.903 195.983 785.714 196.696 784.208 196.696ZM785.04 194.615C786.388 194.615 787.498 193.822 787.498 192.692V191.88L784.723 192.256C783.871 192.375 783.435 192.732 783.435 193.446C783.435 194.179 784.029 194.615 785.04 194.615ZM796.533 196.696C793.342 196.696 791.419 194.575 791.419 191.444V191.186C791.419 188.054 793.342 185.953 796.533 185.953C799.209 185.953 800.993 187.499 801.29 190.056H798.555C798.376 188.887 797.802 188.114 796.493 188.114C794.967 188.114 794.234 189.224 794.234 191.186V191.444C794.234 193.426 794.967 194.536 796.493 194.536C797.802 194.536 798.396 193.743 798.575 192.593H801.31C800.993 195.15 799.209 196.696 796.533 196.696ZM807.095 196.696C804.637 196.696 803.467 195.586 803.467 193.485V188.233H801.565V186.211H803.467V182.96H806.242V186.211H808.898V188.233H806.242V193.247C806.242 194.139 806.639 194.516 807.709 194.516C808.205 194.516 808.661 194.397 808.938 194.318V196.438C808.462 196.597 807.689 196.696 807.095 196.696ZM814.873 196.696C811.582 196.696 809.6 194.595 809.6 191.444V191.186C809.6 188.074 811.642 185.953 814.873 185.953C818.361 185.953 820.086 188.411 819.907 191.979H812.435C812.573 193.723 813.386 194.575 814.873 194.575C816.121 194.575 816.835 193.981 817.093 193.188H819.848C819.352 195.348 817.549 196.696 814.873 196.696ZM812.474 190.155H817.073C816.954 188.867 816.24 188.074 814.853 188.074C813.485 188.074 812.712 188.748 812.474 190.155ZM824.029 196.438H821.254V186.211H823.93L823.99 188.193C824.485 186.964 825.496 186.032 827.002 186.032C827.201 186.032 827.458 186.052 827.617 186.092V188.748C827.419 188.728 827.101 188.708 826.844 188.708C825 188.708 824.029 189.699 824.029 191.503V196.438ZM671.702 205.771H674.477V220.438H671.702V205.771ZM679.001 205.771V208.863H676.107V205.771H679.001ZM676.167 210.211H678.941V220.438H676.167V210.211ZM683.406 220.438H680.631V210.211H683.307L683.386 211.777C683.882 210.845 684.892 209.953 686.478 209.953C688.004 209.953 689.055 210.587 689.55 211.876C690.264 210.687 691.394 209.953 692.88 209.953C695.318 209.953 696.349 211.519 696.349 213.898V220.438H693.574V214.433C693.574 212.926 692.999 212.173 691.869 212.173C690.621 212.173 689.887 213.105 689.887 214.869V220.438H687.112V214.453C687.112 212.966 686.597 212.173 685.447 212.173C684.199 212.173 683.406 213.065 683.406 214.869V220.438ZM700.782 205.771V208.863H697.888V205.771H700.782ZM697.948 210.211H700.723V220.438H697.948V210.211ZM707.169 220.696C704.711 220.696 703.542 219.586 703.542 217.485V212.233H701.639V210.211H703.542V206.96H706.317V210.211H708.973V212.233H706.317V217.247C706.317 218.139 706.713 218.516 707.784 218.516C708.279 218.516 708.735 218.397 709.013 218.318V220.438C708.537 220.597 707.764 220.696 707.169 220.696ZM713.277 220.696C711.215 220.696 709.828 219.388 709.828 217.584C709.828 215.84 710.938 214.809 712.801 214.552L716.567 214.016V213.422C716.567 212.57 716.012 212.054 714.803 212.054C713.673 212.054 712.96 212.49 712.861 213.362H710.244C710.403 211.182 712.206 209.953 714.862 209.953C717.618 209.953 719.243 211.321 719.243 213.462V220.438H716.686L716.587 218.873C715.972 219.983 714.783 220.696 713.277 220.696ZM714.109 218.615C715.457 218.615 716.567 217.822 716.567 216.692V215.88L713.792 216.256C712.94 216.375 712.504 216.732 712.504 217.446C712.504 218.179 713.098 218.615 714.109 218.615ZM725.389 220.696C722.931 220.696 721.762 219.586 721.762 217.485V212.233H719.859V210.211H721.762V206.96H724.537V210.211H727.193V212.233H724.537V217.247C724.537 218.139 724.933 218.516 726.003 218.516C726.499 218.516 726.955 218.397 727.232 218.318V220.438C726.757 220.597 725.984 220.696 725.389 220.696ZM731.337 205.771V208.863H728.444V205.771H731.337ZM728.503 210.211H731.278V220.438H728.503V210.211ZM737.863 220.696C734.692 220.696 732.611 218.555 732.611 215.444V215.186C732.611 212.094 734.692 209.953 737.863 209.953C741.035 209.953 743.116 212.094 743.116 215.206V215.444C743.116 218.555 741.035 220.696 737.863 220.696ZM737.863 218.536C739.489 218.536 740.301 217.446 740.301 215.444V215.206C740.301 213.204 739.489 212.114 737.863 212.114C736.238 212.114 735.425 213.204 735.425 215.186V215.444C735.425 217.446 736.238 218.536 737.863 218.536ZM747.214 220.438H744.439V210.211H747.115L747.194 211.797C747.709 210.845 748.72 209.953 750.425 209.953C752.962 209.953 753.973 211.559 753.973 213.858V220.438H751.218V214.552C751.218 213.065 750.702 212.193 749.374 212.193C748.086 212.193 747.214 213.144 747.214 214.77V220.438ZM759.823 220.696C756.969 220.696 755.304 219.408 755.125 217.188H757.781C757.94 218.199 758.713 218.714 759.843 218.714C760.893 218.714 761.607 218.318 761.607 217.584C761.607 216.95 761.131 216.573 759.288 216.256C756.671 215.82 755.462 214.988 755.462 213.144C755.462 211.222 757.226 209.953 759.724 209.953C762.36 209.953 763.965 211.162 764.124 213.263H761.527C761.408 212.371 760.715 211.896 759.684 211.896C758.733 211.896 758.118 212.292 758.118 212.966C758.118 213.6 758.634 213.937 760.378 214.215C763.153 214.651 764.322 215.543 764.322 217.327C764.322 219.348 762.578 220.696 759.823 220.696ZM770.585 216.454H767.711V216.038C767.711 212.57 771.913 212.47 771.913 210.35V210.151C771.913 209.141 771.179 208.407 769.911 208.407C768.543 208.407 767.651 209.18 767.473 210.607H764.579C764.837 207.674 767.017 206.108 769.871 206.108C772.844 206.108 774.846 207.773 774.846 210.112V210.211C774.846 213.898 770.585 213.442 770.585 216.316V216.454ZM770.585 220.438H767.711V217.703H770.585V220.438Z" fill="black"/>
<path d="M909.869 196.438H906.936V182.366H909.869V187.995H916.014V182.366H918.947V196.438H916.014V190.413H909.869V196.438ZM925.605 196.696C922.433 196.696 920.352 194.555 920.352 191.444V191.186C920.352 188.094 922.433 185.953 925.605 185.953C928.776 185.953 930.857 188.094 930.857 191.206V191.444C930.857 194.555 928.776 196.696 925.605 196.696ZM925.605 194.536C927.23 194.536 928.043 193.446 928.043 191.444V191.206C928.043 189.204 927.23 188.114 925.605 188.114C923.979 188.114 923.167 189.204 923.167 191.186V191.444C923.167 193.446 923.979 194.536 925.605 194.536ZM936.675 196.438H933.761L930.748 186.211H933.543L935.386 193.505L937.23 186.211H939.985L941.828 193.545L943.731 186.211H946.466L943.414 196.438H940.5L938.577 189.283L936.675 196.438ZM953.389 181.771V184.863H950.495V181.771H953.389ZM950.555 186.211H953.33V196.438H950.555V186.211ZM959.261 196.696C956.407 196.696 954.742 195.408 954.563 193.188H957.219C957.378 194.199 958.151 194.714 959.281 194.714C960.331 194.714 961.045 194.318 961.045 193.584C961.045 192.95 960.569 192.573 958.726 192.256C956.109 191.82 954.9 190.988 954.9 189.144C954.9 187.222 956.664 185.953 959.162 185.953C961.798 185.953 963.404 187.162 963.562 189.263H960.966C960.847 188.371 960.153 187.896 959.122 187.896C958.171 187.896 957.556 188.292 957.556 188.966C957.556 189.6 958.072 189.937 959.816 190.215C962.591 190.651 963.76 191.543 963.76 193.327C963.76 195.348 962.016 196.696 959.261 196.696ZM981.326 196.438H978.254L977.184 193.426H971.515L970.445 196.438H967.472L972.803 182.366H975.995L981.326 196.438ZM974.349 185.438L972.367 191.047H976.351L974.349 185.438ZM982.213 181.771H984.988V196.438H982.213V181.771ZM991.435 196.696C988.977 196.696 987.808 195.586 987.808 193.485V188.233H985.905V186.211H987.808V182.96H990.583V186.211H993.239V188.233H990.583V193.247C990.583 194.139 990.979 194.516 992.049 194.516C992.545 194.516 993.001 194.397 993.278 194.318V196.438C992.802 196.597 992.029 196.696 991.435 196.696ZM1004.16 196.438H1001.24V184.764H997.239V182.366H1008.14V184.764H1004.16V196.438ZM1012.59 196.696C1009.3 196.696 1007.32 194.595 1007.32 191.444V191.186C1007.32 188.074 1009.36 185.953 1012.59 185.953C1016.08 185.953 1017.81 188.411 1017.63 191.979H1010.16C1010.29 193.723 1011.11 194.575 1012.59 194.575C1013.84 194.575 1014.56 193.981 1014.81 193.188H1017.57C1017.07 195.348 1015.27 196.696 1012.59 196.696ZM1010.2 190.155H1014.79C1014.67 188.867 1013.96 188.074 1012.57 188.074C1011.21 188.074 1010.43 188.748 1010.2 190.155ZM1020.3 196.438H1017.33L1020.98 191.186L1017.51 186.211H1020.66L1022.66 189.263L1024.7 186.211H1027.68L1024.21 191.146L1027.89 196.438H1024.72L1022.5 193.069L1020.3 196.438ZM1033.44 196.696C1030.98 196.696 1029.81 195.586 1029.81 193.485V188.233H1027.91V186.211H1029.81V182.96H1032.59V186.211H1035.25V188.233H1032.59V193.247C1032.59 194.139 1032.99 194.516 1034.06 194.516C1034.55 194.516 1035.01 194.397 1035.29 194.318V196.438C1034.81 196.597 1034.04 196.696 1033.44 196.696ZM883.679 223.808H880.885V210.211H883.481L883.561 211.777C884.036 210.865 885.186 209.953 886.851 209.953C889.586 209.953 891.231 212.173 891.231 215.186V215.444C891.231 218.476 889.546 220.696 886.791 220.696C885.344 220.696 884.234 219.943 883.679 218.992V223.808ZM885.998 218.555C887.584 218.555 888.417 217.446 888.417 215.444V215.186C888.417 213.184 887.584 212.074 885.998 212.074C884.433 212.074 883.58 213.184 883.58 215.186V215.444C883.58 217.446 884.433 218.555 885.998 218.555ZM895.363 220.438H892.588V210.211H895.264L895.324 212.193C895.819 210.964 896.83 210.032 898.336 210.032C898.535 210.032 898.792 210.052 898.951 210.092V212.748C898.753 212.728 898.436 212.708 898.178 212.708C896.334 212.708 895.363 213.699 895.363 215.503V220.438ZM904.581 220.696C901.41 220.696 899.328 218.555 899.328 215.444V215.186C899.328 212.094 901.41 209.953 904.581 209.953C907.752 209.953 909.833 212.094 909.833 215.206V215.444C909.833 218.555 907.752 220.696 904.581 220.696ZM904.581 218.536C906.206 218.536 907.019 217.446 907.019 215.444V215.206C907.019 213.204 906.206 212.114 904.581 212.114C902.956 212.114 902.143 213.204 902.143 215.186V215.444C902.143 217.446 902.956 218.536 904.581 218.536ZM916.523 220.438H913.451L909.724 210.211H912.658L915.036 217.664L917.415 210.211H920.23L916.523 220.438ZM923.933 205.771V208.863H921.039V205.771H923.933ZM921.099 210.211H923.874V220.438H921.099V210.211ZM929.666 220.696C926.911 220.696 925.206 218.496 925.206 215.444V215.186C925.206 212.173 926.851 209.953 929.587 209.953C931.093 209.953 932.163 210.667 932.758 211.579V205.771H935.553V220.438H932.976L932.897 218.833C932.421 219.745 931.331 220.696 929.666 220.696ZM930.439 218.555C932.025 218.555 932.857 217.446 932.857 215.444V215.186C932.857 213.184 932.025 212.074 930.439 212.074C928.873 212.074 928.021 213.184 928.021 215.186V215.444C928.021 217.446 928.873 218.555 930.439 218.555ZM942.182 220.696C938.892 220.696 936.91 218.595 936.91 215.444V215.186C936.91 212.074 938.952 209.953 942.182 209.953C945.671 209.953 947.395 212.411 947.217 215.979H939.744C939.883 217.723 940.696 218.575 942.182 218.575C943.431 218.575 944.145 217.981 944.402 217.188H947.157C946.662 219.348 944.858 220.696 942.182 220.696ZM939.784 214.155H944.382C944.264 212.867 943.55 212.074 942.163 212.074C940.795 212.074 940.022 212.748 939.784 214.155ZM952.667 220.696C949.912 220.696 948.207 218.496 948.207 215.444V215.186C948.207 212.173 949.852 209.953 952.588 209.953C954.094 209.953 955.164 210.667 955.759 211.579V205.771H958.554V220.438H955.977L955.898 218.833C955.422 219.745 954.332 220.696 952.667 220.696ZM953.44 218.555C955.026 218.555 955.858 217.446 955.858 215.444V215.186C955.858 213.184 955.026 212.074 953.44 212.074C951.874 212.074 951.022 213.184 951.022 215.186V215.444C951.022 217.446 951.874 218.555 953.44 218.555ZM967.417 220.438H964.642V212.233H962.739V210.211H964.642V208.724C964.642 206.623 965.812 205.513 968.269 205.513C968.864 205.513 969.617 205.632 970.113 205.751V207.892C969.835 207.813 969.379 207.694 968.884 207.694C967.794 207.694 967.417 208.07 967.417 208.962V210.211H970.073V212.233H967.417V220.438ZM975.447 220.696C972.276 220.696 970.194 218.555 970.194 215.444V215.186C970.194 212.094 972.276 209.953 975.447 209.953C978.618 209.953 980.7 212.094 980.7 215.206V215.444C980.7 218.555 978.618 220.696 975.447 220.696ZM975.447 218.536C977.072 218.536 977.885 217.446 977.885 215.444V215.206C977.885 213.204 977.072 212.114 975.447 212.114C973.822 212.114 973.009 213.204 973.009 215.186V215.444C973.009 217.446 973.822 218.536 975.447 218.536ZM984.798 220.438H982.023V210.211H984.698L984.758 212.193C985.253 210.964 986.264 210.032 987.771 210.032C987.969 210.032 988.227 210.052 988.385 210.092V212.748C988.187 212.728 987.87 212.708 987.612 212.708C985.769 212.708 984.798 213.699 984.798 215.503V220.438ZM998.699 220.438H995.626L991.9 210.211H994.834L997.212 217.664L999.591 210.211H1002.41L998.699 220.438ZM1006.11 205.771V208.863H1003.21V205.771H1006.11ZM1003.27 210.211H1006.05V220.438H1003.27V210.211ZM1011.84 220.696C1009.09 220.696 1007.38 218.496 1007.38 215.444V215.186C1007.38 212.173 1009.03 209.953 1011.76 209.953C1013.27 209.953 1014.34 210.667 1014.93 211.579V205.771H1017.73V220.438H1015.15L1015.07 218.833C1014.6 219.745 1013.51 220.696 1011.84 220.696ZM1012.61 218.555C1014.2 218.555 1015.03 217.446 1015.03 215.444V215.186C1015.03 213.184 1014.2 212.074 1012.61 212.074C1011.05 212.074 1010.2 213.184 1010.2 215.186V215.444C1010.2 217.446 1011.05 218.555 1012.61 218.555ZM1024.36 220.696C1021.07 220.696 1019.09 218.595 1019.09 215.444V215.186C1019.09 212.074 1021.13 209.953 1024.36 209.953C1027.85 209.953 1029.57 212.411 1029.39 215.979H1021.92C1022.06 217.723 1022.87 218.575 1024.36 218.575C1025.61 218.575 1026.32 217.981 1026.58 217.188H1029.33C1028.84 219.348 1027.03 220.696 1024.36 220.696ZM1021.96 214.155H1026.56C1026.44 212.867 1025.73 212.074 1024.34 212.074C1022.97 212.074 1022.2 212.748 1021.96 214.155ZM1035.64 220.696C1032.46 220.696 1030.38 218.555 1030.38 215.444V215.186C1030.38 212.094 1032.46 209.953 1035.64 209.953C1038.81 209.953 1040.89 212.094 1040.89 215.206V215.444C1040.89 218.555 1038.81 220.696 1035.64 220.696ZM1035.64 218.536C1037.26 218.536 1038.07 217.446 1038.07 215.444V215.206C1038.07 213.204 1037.26 212.114 1035.64 212.114C1034.01 212.114 1033.2 213.204 1033.2 215.186V215.444C1033.2 217.446 1034.01 218.536 1035.64 218.536ZM1046.16 220.696C1043.31 220.696 1041.64 219.408 1041.46 217.188H1044.12C1044.28 218.199 1045.05 218.714 1046.18 218.714C1047.23 218.714 1047.95 218.318 1047.95 217.584C1047.95 216.95 1047.47 216.573 1045.63 216.256C1043.01 215.82 1041.8 214.988 1041.8 213.144C1041.8 211.222 1043.57 209.953 1046.06 209.953C1048.7 209.953 1050.3 211.162 1050.46 213.263H1047.87C1047.75 212.371 1047.05 211.896 1046.02 211.896C1045.07 211.896 1044.46 212.292 1044.46 212.966C1044.46 213.6 1044.97 213.937 1046.72 214.215C1049.49 214.651 1050.66 215.543 1050.66 217.327C1050.66 219.348 1048.92 220.696 1046.16 220.696ZM1056.92 216.454H1054.05V216.038C1054.05 212.57 1058.25 212.47 1058.25 210.35V210.151C1058.25 209.141 1057.52 208.407 1056.25 208.407C1054.88 208.407 1053.99 209.18 1053.81 210.607H1050.92C1051.18 207.674 1053.36 206.108 1056.21 206.108C1059.18 206.108 1061.19 207.773 1061.19 210.112V210.211C1061.19 213.898 1056.92 213.442 1056.92 216.316V216.454ZM1056.92 220.438H1054.05V217.703H1056.92V220.438Z" fill="black"/>
<path d="M1145.29 184.574H1140.08V170.501H1145.29C1149.52 170.501 1152.43 172.92 1152.43 177.32V177.756C1152.43 182.136 1149.52 184.574 1145.29 184.574ZM1142.97 172.92V182.156H1145.1C1147.73 182.156 1149.4 180.888 1149.4 177.756V177.32C1149.4 174.188 1147.73 172.92 1145.1 172.92H1142.97ZM1158.65 184.832C1155.48 184.832 1153.4 182.691 1153.4 179.579V179.322C1153.4 176.23 1155.48 174.089 1158.65 174.089C1161.82 174.089 1163.9 176.23 1163.9 179.341V179.579C1163.9 182.691 1161.82 184.832 1158.65 184.832ZM1158.65 182.671C1160.28 182.671 1161.09 181.581 1161.09 179.579V179.341C1161.09 177.34 1160.28 176.249 1158.65 176.249C1157.03 176.249 1156.21 177.34 1156.21 179.322V179.579C1156.21 181.581 1157.03 182.671 1158.65 182.671ZM1170.14 184.832C1166.85 184.832 1164.87 182.731 1164.87 179.579V179.322C1164.87 176.21 1166.91 174.089 1170.14 174.089C1173.63 174.089 1175.36 176.547 1175.18 180.115H1167.71C1167.84 181.859 1168.66 182.711 1170.14 182.711C1171.39 182.711 1172.11 182.116 1172.36 181.324H1175.12C1174.62 183.484 1172.82 184.832 1170.14 184.832ZM1167.75 178.291H1172.34C1172.22 177.003 1171.51 176.21 1170.12 176.21C1168.76 176.21 1167.98 176.884 1167.75 178.291ZM1180.48 184.832C1177.62 184.832 1175.96 183.544 1175.78 181.324H1178.43C1178.59 182.334 1179.37 182.85 1180.5 182.85C1181.55 182.85 1182.26 182.453 1182.26 181.72C1182.26 181.086 1181.78 180.709 1179.94 180.392C1177.32 179.956 1176.12 179.123 1176.12 177.28C1176.12 175.357 1177.88 174.089 1180.38 174.089C1183.01 174.089 1184.62 175.298 1184.78 177.399H1182.18C1182.06 176.507 1181.37 176.031 1180.34 176.031C1179.39 176.031 1178.77 176.428 1178.77 177.102C1178.77 177.736 1179.29 178.073 1181.03 178.35C1183.81 178.787 1184.98 179.678 1184.98 181.462C1184.98 183.484 1183.23 184.832 1180.48 184.832ZM1194.24 184.832C1191.78 184.832 1190.61 183.722 1190.61 181.621V176.368H1188.71V174.347H1190.61V171.096H1193.38V174.347H1196.04V176.368H1193.38V181.383C1193.38 182.275 1193.78 182.652 1194.85 182.652C1195.35 182.652 1195.8 182.533 1196.08 182.453V184.574C1195.6 184.733 1194.83 184.832 1194.24 184.832ZM1200.13 184.574H1197.35V169.907H1200.15V175.833C1200.68 174.921 1201.71 174.089 1203.34 174.089C1205.87 174.089 1206.88 175.694 1206.88 177.994V184.574H1204.13V178.687C1204.13 177.201 1203.61 176.329 1202.29 176.329C1201 176.329 1200.13 177.28 1200.13 178.905V184.574ZM1213.41 184.832C1210.12 184.832 1208.14 182.731 1208.14 179.579V179.322C1208.14 176.21 1210.18 174.089 1213.41 174.089C1216.9 174.089 1218.62 176.547 1218.44 180.115H1210.97C1211.11 181.859 1211.92 182.711 1213.41 182.711C1214.66 182.711 1215.37 182.116 1215.63 181.324H1218.38C1217.89 183.484 1216.08 184.832 1213.41 184.832ZM1211.01 178.291H1215.61C1215.49 177.003 1214.78 176.21 1213.39 176.21C1212.02 176.21 1211.25 176.884 1211.01 178.291ZM1225.83 187.944H1223.04V174.347H1225.63L1225.71 175.912C1226.19 175.001 1227.34 174.089 1229 174.089C1231.74 174.089 1233.38 176.309 1233.38 179.322V179.579C1233.38 182.612 1231.7 184.832 1228.94 184.832C1227.5 184.832 1226.39 184.079 1225.83 183.127V187.944ZM1228.15 182.691C1229.73 182.691 1230.57 181.581 1230.57 179.579V179.322C1230.57 177.32 1229.73 176.21 1228.15 176.21C1226.58 176.21 1225.73 177.32 1225.73 179.322V179.579C1225.73 181.581 1226.58 182.691 1228.15 182.691ZM1234.74 169.907H1237.51V184.574H1234.74V169.907ZM1242.22 184.832C1240.15 184.832 1238.77 183.524 1238.77 181.72C1238.77 179.976 1239.88 178.945 1241.74 178.687L1245.51 178.152V177.558C1245.51 176.705 1244.95 176.19 1243.74 176.19C1242.61 176.19 1241.9 176.626 1241.8 177.498H1239.18C1239.34 175.318 1241.15 174.089 1243.8 174.089C1246.56 174.089 1248.18 175.457 1248.18 177.597V184.574H1245.63L1245.53 183.008C1244.91 184.118 1243.72 184.832 1242.22 184.832ZM1243.05 182.751C1244.4 182.751 1245.51 181.958 1245.51 180.828V180.015L1242.73 180.392C1241.88 180.511 1241.44 180.868 1241.44 181.581C1241.44 182.315 1242.04 182.751 1243.05 182.751ZM1254.33 184.832C1251.87 184.832 1250.7 183.722 1250.7 181.621V176.368H1248.8V174.347H1250.7V171.096H1253.48V174.347H1256.13V176.368H1253.48V181.383C1253.48 182.275 1253.87 182.652 1254.94 182.652C1255.44 182.652 1255.89 182.533 1256.17 182.453V184.574C1255.7 184.733 1254.92 184.832 1254.33 184.832ZM1261.35 184.574H1258.57V176.368H1256.67V174.347H1258.57V172.86C1258.57 170.759 1259.74 169.649 1262.2 169.649C1262.79 169.649 1263.55 169.768 1264.04 169.887V172.028C1263.77 171.948 1263.31 171.829 1262.81 171.829C1261.72 171.829 1261.35 172.206 1261.35 173.098V174.347H1264V176.368H1261.35V184.574ZM1269.38 184.832C1266.21 184.832 1264.12 182.691 1264.12 179.579V179.322C1264.12 176.23 1266.21 174.089 1269.38 174.089C1272.55 174.089 1274.63 176.23 1274.63 179.341V179.579C1274.63 182.691 1272.55 184.832 1269.38 184.832ZM1269.38 182.671C1271 182.671 1271.82 181.581 1271.82 179.579V179.341C1271.82 177.34 1271 176.249 1269.38 176.249C1267.75 176.249 1266.94 177.34 1266.94 179.322V179.579C1266.94 181.581 1267.75 182.671 1269.38 182.671ZM1278.73 184.574H1275.95V174.347H1278.63L1278.69 176.329C1279.18 175.1 1280.19 174.168 1281.7 174.168C1281.9 174.168 1282.16 174.188 1282.32 174.228V176.884C1282.12 176.864 1281.8 176.844 1281.54 176.844C1279.7 176.844 1278.73 177.835 1278.73 179.639V184.574ZM1286.17 184.574H1283.4V174.347H1286.07L1286.15 175.912C1286.65 174.981 1287.66 174.089 1289.25 174.089C1290.77 174.089 1291.82 174.723 1292.32 176.012C1293.03 174.822 1294.16 174.089 1295.65 174.089C1298.09 174.089 1299.12 175.655 1299.12 178.033V184.574H1296.34V178.568C1296.34 177.062 1295.77 176.309 1294.64 176.309C1293.39 176.309 1292.65 177.24 1292.65 179.005V184.574H1289.88V178.588C1289.88 177.102 1289.36 176.309 1288.21 176.309C1286.97 176.309 1286.17 177.201 1286.17 179.005V184.574ZM1116.69 211.944H1113.9V198.347H1116.49L1116.57 199.912C1117.05 199.001 1118.2 198.089 1119.86 198.089C1122.6 198.089 1124.24 200.309 1124.24 203.322V203.579C1124.24 206.612 1122.56 208.832 1119.8 208.832C1118.36 208.832 1117.25 208.079 1116.69 207.127V211.944ZM1119.01 206.691C1120.6 206.691 1121.43 205.581 1121.43 203.579V203.322C1121.43 201.32 1120.6 200.21 1119.01 200.21C1117.45 200.21 1116.59 201.32 1116.59 203.322V203.579C1116.59 205.581 1117.45 206.691 1119.01 206.691ZM1128.38 208.574H1125.6V198.347H1128.28L1128.34 200.329C1128.83 199.1 1129.84 198.168 1131.35 198.168C1131.55 198.168 1131.8 198.188 1131.96 198.228V200.884C1131.77 200.864 1131.45 200.844 1131.19 200.844C1129.35 200.844 1128.38 201.835 1128.38 203.639V208.574ZM1137.59 208.832C1134.42 208.832 1132.34 206.691 1132.34 203.579V203.322C1132.34 200.23 1134.42 198.089 1137.59 198.089C1140.76 198.089 1142.85 200.23 1142.85 203.341V203.579C1142.85 206.691 1140.76 208.832 1137.59 208.832ZM1137.59 206.671C1139.22 206.671 1140.03 205.581 1140.03 203.579V203.341C1140.03 201.34 1139.22 200.249 1137.59 200.249C1135.97 200.249 1135.16 201.34 1135.16 203.322V203.579C1135.16 205.581 1135.97 206.671 1137.59 206.671ZM1149.54 208.574H1146.46L1142.74 198.347H1145.67L1148.05 205.799L1150.43 198.347H1153.24L1149.54 208.574ZM1156.95 193.907V196.999H1154.05V193.907H1156.95ZM1154.11 198.347H1156.89V208.574H1154.11V198.347ZM1162.68 208.832C1159.92 208.832 1158.22 206.632 1158.22 203.579V203.322C1158.22 200.309 1159.86 198.089 1162.6 198.089C1164.11 198.089 1165.18 198.802 1165.77 199.714V193.907H1168.57V208.574H1165.99L1165.91 206.969C1165.43 207.88 1164.34 208.832 1162.68 208.832ZM1163.45 206.691C1165.04 206.691 1165.87 205.581 1165.87 203.579V203.322C1165.87 201.32 1165.04 200.21 1163.45 200.21C1161.89 200.21 1161.03 201.32 1161.03 203.322V203.579C1161.03 205.581 1161.89 206.691 1163.45 206.691ZM1175.19 208.832C1171.9 208.832 1169.92 206.731 1169.92 203.579V203.322C1169.92 200.21 1171.96 198.089 1175.19 198.089C1178.68 198.089 1180.41 200.547 1180.23 204.115H1172.76C1172.9 205.859 1173.71 206.711 1175.19 206.711C1176.44 206.711 1177.16 206.116 1177.41 205.324H1180.17C1179.67 207.484 1177.87 208.832 1175.19 208.832ZM1172.8 202.291H1177.39C1177.28 201.003 1176.56 200.21 1175.18 200.21C1173.81 200.21 1173.03 200.884 1172.8 202.291ZM1187.83 208.832C1185.77 208.832 1184.39 207.524 1184.39 205.72C1184.39 203.976 1185.5 202.945 1187.36 202.687L1191.12 202.152V201.558C1191.12 200.705 1190.57 200.19 1189.36 200.19C1188.23 200.19 1187.52 200.626 1187.42 201.498H1184.8C1184.96 199.318 1186.76 198.089 1189.42 198.089C1192.17 198.089 1193.8 199.457 1193.8 201.597V208.574H1191.24L1191.14 207.008C1190.53 208.118 1189.34 208.832 1187.83 208.832ZM1188.67 206.751C1190.01 206.751 1191.12 205.958 1191.12 204.828V204.015L1188.35 204.392C1187.5 204.511 1187.06 204.868 1187.06 205.581C1187.06 206.315 1187.66 206.751 1188.67 206.751ZM1198.87 208.832C1196.45 208.832 1195.32 207.306 1195.32 204.888V198.347H1198.12V204.352C1198.12 205.799 1198.65 206.572 1199.88 206.572C1201.15 206.572 1201.94 205.641 1201.94 203.936V198.347H1204.74V208.574H1202.04L1201.98 207.088C1201.41 207.999 1200.36 208.832 1198.87 208.832ZM1211.19 208.832C1208.73 208.832 1207.56 207.722 1207.56 205.621V200.368H1205.66V198.347H1207.56V195.096H1210.33V198.347H1212.99V200.368H1210.33V205.383C1210.33 206.275 1210.73 206.652 1211.8 206.652C1212.3 206.652 1212.75 206.533 1213.03 206.453V208.574C1212.55 208.733 1211.78 208.832 1211.19 208.832ZM1218.94 208.832C1215.77 208.832 1213.69 206.691 1213.69 203.579V203.322C1213.69 200.23 1215.77 198.089 1218.94 198.089C1222.12 198.089 1224.2 200.23 1224.2 203.341V203.579C1224.2 206.691 1222.12 208.832 1218.94 208.832ZM1218.94 206.671C1220.57 206.671 1221.38 205.581 1221.38 203.579V203.341C1221.38 201.34 1220.57 200.249 1218.94 200.249C1217.32 200.249 1216.51 201.34 1216.51 203.322V203.579C1216.51 205.581 1217.32 206.671 1218.94 206.671ZM1231.7 203.857H1225.5V201.577H1231.7V203.857ZM1238.09 212.201C1235.08 212.201 1233.45 210.913 1233.25 209.05H1236.23C1236.34 209.823 1236.96 210.219 1238.27 210.219C1239.83 210.219 1240.57 209.427 1240.57 208.099V206.691C1240.03 207.643 1238.96 208.396 1237.47 208.396C1234.72 208.396 1233.01 206.176 1233.01 203.341V203.123C1233.01 200.309 1234.68 198.089 1237.39 198.089C1239.08 198.089 1240.21 199.001 1240.7 199.912L1240.78 198.347H1243.36V207.781C1243.36 210.616 1241.5 212.201 1238.09 212.201ZM1238.25 206.255C1239.83 206.255 1240.67 205.145 1240.67 203.341V203.123C1240.67 201.32 1239.83 200.21 1238.25 200.21C1236.68 200.21 1235.83 201.32 1235.83 203.123V203.341C1235.83 205.145 1236.68 206.255 1238.25 206.255ZM1249.99 208.832C1246.7 208.832 1244.72 206.731 1244.72 203.579V203.322C1244.72 200.21 1246.76 198.089 1249.99 198.089C1253.48 198.089 1255.2 200.547 1255.02 204.115H1247.55C1247.69 205.859 1248.5 206.711 1249.99 206.711C1251.24 206.711 1251.95 206.116 1252.21 205.324H1254.97C1254.47 207.484 1252.67 208.832 1249.99 208.832ZM1247.59 202.291H1252.19C1252.07 201.003 1251.36 200.21 1249.97 200.21C1248.6 200.21 1247.83 200.884 1247.59 202.291ZM1259.15 208.574H1256.37V198.347H1259.05L1259.13 199.932C1259.64 198.981 1260.65 198.089 1262.36 198.089C1264.89 198.089 1265.91 199.694 1265.91 201.994V208.574H1263.15V202.687C1263.15 201.201 1262.64 200.329 1261.31 200.329C1260.02 200.329 1259.15 201.28 1259.15 202.905V208.574ZM1272.43 208.832C1269.14 208.832 1267.16 206.731 1267.16 203.579V203.322C1267.16 200.21 1269.2 198.089 1272.43 198.089C1275.92 198.089 1277.64 200.547 1277.46 204.115H1269.99C1270.13 205.859 1270.94 206.711 1272.43 206.711C1273.68 206.711 1274.39 206.116 1274.65 205.324H1277.4C1276.91 207.484 1275.11 208.832 1272.43 208.832ZM1270.03 202.291H1274.63C1274.51 201.003 1273.8 200.21 1272.41 200.21C1271.04 200.21 1270.27 200.884 1270.03 202.291ZM1281.59 208.574H1278.81V198.347H1281.49L1281.55 200.329C1282.04 199.1 1283.05 198.168 1284.56 198.168C1284.76 198.168 1285.02 198.188 1285.17 198.228V200.884C1284.98 200.864 1284.66 200.844 1284.4 200.844C1282.56 200.844 1281.59 201.835 1281.59 203.639V208.574ZM1288.84 208.832C1286.78 208.832 1285.39 207.524 1285.39 205.72C1285.39 203.976 1286.5 202.945 1288.37 202.687L1292.13 202.152V201.558C1292.13 200.705 1291.58 200.19 1290.37 200.19C1289.24 200.19 1288.53 200.626 1288.43 201.498H1285.81C1285.97 199.318 1287.77 198.089 1290.43 198.089C1293.18 198.089 1294.81 199.457 1294.81 201.597V208.574H1292.25L1292.15 207.008C1291.54 208.118 1290.35 208.832 1288.84 208.832ZM1289.68 206.751C1291.02 206.751 1292.13 205.958 1292.13 204.828V204.015L1289.36 204.392C1288.51 204.511 1288.07 204.868 1288.07 205.581C1288.07 206.315 1288.67 206.751 1289.68 206.751ZM1300.96 208.832C1298.5 208.832 1297.33 207.722 1297.33 205.621V200.368H1295.43V198.347H1297.33V195.096H1300.1V198.347H1302.76V200.368H1300.1V205.383C1300.1 206.275 1300.5 206.652 1301.57 206.652C1302.07 206.652 1302.52 206.533 1302.8 206.453V208.574C1302.32 208.733 1301.55 208.832 1300.96 208.832ZM1308.73 208.832C1305.44 208.832 1303.46 206.731 1303.46 203.579V203.322C1303.46 200.21 1305.5 198.089 1308.73 198.089C1312.22 198.089 1313.95 200.547 1313.77 204.115H1306.3C1306.43 205.859 1307.25 206.711 1308.73 206.711C1309.98 206.711 1310.7 206.116 1310.95 205.324H1313.71C1313.21 207.484 1311.41 208.832 1308.73 208.832ZM1306.34 202.291H1310.93C1310.82 201.003 1310.1 200.21 1308.71 200.21C1307.35 200.21 1306.57 200.884 1306.34 202.291ZM1319.22 208.832C1316.46 208.832 1314.76 206.632 1314.76 203.579V203.322C1314.76 200.309 1316.4 198.089 1319.14 198.089C1320.65 198.089 1321.72 198.802 1322.31 199.714V193.907H1325.11V208.574H1322.53L1322.45 206.969C1321.97 207.88 1320.88 208.832 1319.22 208.832ZM1319.99 206.691C1321.58 206.691 1322.41 205.581 1322.41 203.579V203.322C1322.41 201.32 1321.58 200.21 1319.99 200.21C1318.43 200.21 1317.57 201.32 1317.57 203.322V203.579C1317.57 205.581 1318.43 206.691 1319.99 206.691ZM1193.8 232.574H1190.72L1189.65 229.561H1183.99L1182.91 232.574H1179.94L1185.27 218.501H1188.46L1193.8 232.574ZM1186.82 221.574L1184.84 227.183H1188.82L1186.82 221.574ZM1194.68 217.907H1197.46V232.574H1194.68V217.907ZM1203.9 232.832C1201.45 232.832 1200.28 231.722 1200.28 229.621V224.368H1198.37V222.347H1200.28V219.096H1203.05V222.347H1205.71V224.368H1203.05V229.383C1203.05 230.275 1203.45 230.652 1204.52 230.652C1205.01 230.652 1205.47 230.533 1205.75 230.453V232.574C1205.27 232.733 1204.5 232.832 1203.9 232.832ZM1216.63 232.574H1213.71V220.9H1209.71V218.501H1220.61V220.9H1216.63V232.574ZM1225.06 232.832C1221.77 232.832 1219.79 230.731 1219.79 227.579V227.322C1219.79 224.21 1221.83 222.089 1225.06 222.089C1228.55 222.089 1230.28 224.547 1230.1 228.115H1222.63C1222.76 229.859 1223.58 230.711 1225.06 230.711C1226.31 230.711 1227.03 230.116 1227.28 229.324H1230.04C1229.54 231.484 1227.74 232.832 1225.06 232.832ZM1222.67 226.291H1227.26C1227.14 225.003 1226.43 224.21 1225.04 224.21C1223.68 224.21 1222.9 224.884 1222.67 226.291ZM1232.77 232.574H1229.8L1233.45 227.322L1229.98 222.347H1233.13L1235.13 225.399L1237.17 222.347H1240.15L1236.68 227.282L1240.36 232.574H1237.19L1234.97 229.205L1232.77 232.574ZM1245.91 232.832C1243.45 232.832 1242.28 231.722 1242.28 229.621V224.368H1240.38V222.347H1242.28V219.096H1245.06V222.347H1247.72V224.368H1245.06V229.383C1245.06 230.275 1245.46 230.652 1246.53 230.652C1247.02 230.652 1247.48 230.533 1247.76 230.453V232.574C1247.28 232.733 1246.51 232.832 1245.91 232.832ZM1254.38 228.59H1251.5V228.174C1251.5 224.705 1255.71 224.606 1255.71 222.485V222.287C1255.71 221.276 1254.97 220.543 1253.7 220.543C1252.34 220.543 1251.44 221.316 1251.27 222.743H1248.37C1248.63 219.81 1250.81 218.244 1253.66 218.244C1256.64 218.244 1258.64 219.909 1258.64 222.248V222.347C1258.64 226.033 1254.38 225.577 1254.38 228.451V228.59ZM1254.38 232.574H1251.5V229.839H1254.38V232.574Z" fill="black"/>
<path d="M165.164 378.736H161.146V362.634H155.623V359.325H170.66V362.634H165.164V378.736ZM176.393 378.736H172.347V359.325H176.393V367.09H184.869V359.325H188.915V378.736H184.869V370.425H176.393V378.736ZM195.418 378.736H191.454V359.325H199.956C204.002 359.325 206.982 361.458 206.982 365.422V365.75C206.982 368.73 205.342 370.644 202.827 371.437L207.666 378.736H203.128L198.726 371.847H195.418V378.736ZM195.418 362.661V368.511H199.546C201.46 368.511 202.827 367.664 202.827 365.75V365.422C202.827 363.481 201.46 362.661 199.546 362.661H195.418ZM223.066 378.736H208.932V359.325H222.875V362.634H212.923V367.199H221.972V370.48H212.923V375.428H223.066V378.736ZM243.035 378.736H238.798L237.321 374.581H229.502L228.026 378.736H223.925L231.279 359.325H235.681L243.035 378.736ZM233.412 363.563L230.678 371.3H236.173L233.412 363.563ZM251.558 378.736H244.368V359.325H251.558C257.381 359.325 261.4 362.661 261.4 368.73V369.332C261.4 375.374 257.381 378.736 251.558 378.736ZM248.359 362.661V375.401H251.285C254.921 375.401 257.217 373.651 257.217 369.332V368.73C257.217 364.411 254.921 362.661 251.285 362.661H248.359ZM270.486 379.092C265.538 379.092 262.448 376.631 262.202 372.448H266.221C266.495 374.772 268.135 375.866 270.595 375.866C272.865 375.866 274.232 375.046 274.232 373.46V373.35C274.232 371.902 273.193 371.218 269.42 370.507C264.69 369.632 262.858 367.828 262.858 364.793V364.629C262.858 361.212 265.811 358.97 270.185 358.97C274.532 358.97 277.567 361.13 277.895 365.149H273.876C273.657 363.153 272.29 362.169 270.103 362.169C267.916 362.169 266.85 363.153 266.85 364.52V364.575C266.85 365.805 267.424 366.57 271.252 367.227C275.899 368.019 278.223 369.687 278.223 372.94V373.104C278.223 376.713 275.079 379.092 270.486 379.092Z" fill="black"/>
<path d="M169.596 454.362H165.578V438.259H160.055V434.951H175.092V438.259H169.596V454.362ZM185.254 454.362H180.634L175.576 434.951H179.759L183.067 449.359L186.758 434.951H190.996L194.604 449.441L197.967 434.951H201.931L196.819 454.362H192.363L188.808 440.392L185.254 454.362ZM207.519 454.362H203.473V434.951H207.519V454.362ZM218.906 454.362H214.888V438.259H209.365V434.951H224.402V438.259H218.906V454.362ZM234.836 454.362H230.817V438.259H225.294V434.951H240.331V438.259H234.836V454.362ZM256.153 454.362H242.018V434.951H255.962V438.259H246.01V442.825H255.059V446.106H246.01V451.054H256.153V454.362ZM262.179 454.362H258.215V434.951H266.717C270.764 434.951 273.744 437.084 273.744 441.048V441.376C273.744 444.356 272.103 446.27 269.588 447.063L274.427 454.362H269.889L265.487 447.473H262.179V454.362ZM262.179 438.287V444.137H266.307C268.221 444.137 269.588 443.29 269.588 441.376V441.048C269.588 439.107 268.221 438.287 266.307 438.287H262.179Z" fill="black"/>
<path d="M151.484 529.096H147.492V509.685H160.779V512.993H151.484V517.996H159.849V521.277H151.484V529.096ZM178.258 529.096H174.021L172.544 524.94H164.725L163.249 529.096H159.148L166.502 509.685H170.904L178.258 529.096ZM168.635 513.922L165.901 521.659H171.396L168.635 513.922ZM187.219 529.451C181.478 529.451 177.842 525.432 177.842 519.691V519.09C177.842 513.376 181.587 509.329 187.246 509.329C192.14 509.329 195.393 512.419 195.721 517.012H191.621C191.32 514.333 189.707 512.72 187.192 512.72C183.911 512.72 182.052 515.289 182.052 519.09V519.691C182.052 523.491 183.938 526.034 187.192 526.034C189.816 526.034 191.457 524.257 191.593 521.55H195.694C195.393 526.17 192.249 529.451 187.219 529.451ZM211.577 529.096H197.443V509.685H211.386V512.993H201.434V517.559H210.484V520.839H201.434V525.788H211.577V529.096ZM222.661 529.096H213.639V509.685H222.06C225.942 509.685 228.512 511.298 228.512 514.633V514.934C228.512 516.547 227.609 518.078 225.914 518.871C228.074 519.582 229.332 521.304 229.332 523.382V523.655C229.332 527.018 226.543 529.096 222.661 529.096ZM217.549 512.938V517.668H221.677C223.673 517.668 224.465 516.902 224.465 515.371V515.098C224.465 513.594 223.563 512.938 221.649 512.938H217.549ZM217.549 520.894V525.842H222.251C224.165 525.842 225.258 524.967 225.258 523.518V523.218C225.258 521.714 224.274 520.894 222.278 520.894H217.549ZM239.869 529.451C234.045 529.451 230.382 525.378 230.382 519.691V519.09C230.382 513.403 234.045 509.329 239.869 509.329C245.692 509.329 249.328 513.403 249.328 519.09V519.691C249.328 525.378 245.692 529.451 239.869 529.451ZM239.869 526.061C243.259 526.061 245.145 523.573 245.145 519.691V519.09C245.145 515.18 243.259 512.692 239.869 512.692C236.479 512.692 234.592 515.18 234.592 519.09V519.691C234.592 523.573 236.506 526.061 239.869 526.061ZM260.177 529.451C254.353 529.451 250.69 525.378 250.69 519.691V519.09C250.69 513.403 254.353 509.329 260.177 509.329C266 509.329 269.636 513.403 269.636 519.09V519.691C269.636 525.378 266 529.451 260.177 529.451ZM260.177 526.061C263.567 526.061 265.453 523.573 265.453 519.691V519.09C265.453 515.18 263.567 512.692 260.177 512.692C256.787 512.692 254.9 515.18 254.9 519.09V519.691C254.9 523.573 256.814 526.061 260.177 526.061ZM275.646 529.096H271.599V509.685H275.646V517.941L282.836 509.685H287.511L280.074 517.996L287.784 529.096H283.164L277.395 520.675L275.646 522.589V529.096Z" fill="black"/>
<path d="M170.648 604.726H158.919V585.315H162.965V601.418H170.648V604.726ZM177.003 604.726H172.957V585.315H177.003V604.726ZM183.579 604.726H179.725V585.315H184.454L192.519 599.066V585.315H196.347V604.726H191.863L183.579 590.509V604.726ZM202.931 604.726H198.884V585.315H202.931V593.571L210.121 585.315H214.796L207.36 593.626L215.069 604.726H210.449L204.68 596.305L202.931 598.219V604.726ZM230.47 604.726H216.336V585.315H230.279V588.623H220.327V593.188H229.376V596.469H220.327V601.418H230.47V604.726ZM239.722 604.726H232.532V585.315H239.722C245.545 585.315 249.564 588.65 249.564 594.719V595.321C249.564 601.363 245.545 604.726 239.722 604.726ZM236.524 588.65V601.39H239.449C243.085 601.39 245.381 599.64 245.381 595.321V594.719C245.381 590.4 243.085 588.65 239.449 588.65H236.524ZM255.743 604.726H251.696V585.315H255.743V604.726ZM262.319 604.726H258.464V585.315H263.193L271.258 599.066V585.315H275.086V604.726H270.602L262.319 590.509V604.726Z" fill="black"/>
<path d="M474.975 388.619C480.13 388.619 485.074 386.571 488.719 382.926C492.364 379.281 494.412 374.337 494.412 369.182C494.412 364.028 492.364 359.084 488.719 355.439C485.074 351.794 480.13 349.746 474.975 349.746C469.821 349.746 464.877 351.794 461.232 355.439C457.587 359.084 455.539 364.028 455.539 369.182C455.539 374.337 457.587 379.281 461.232 382.926C464.877 386.571 469.821 388.619 474.975 388.619ZM483.555 365.614L473.837 375.332C473.123 376.046 471.969 376.046 471.263 375.332L466.404 370.473C465.69 369.759 465.69 368.605 466.404 367.899C467.117 367.193 468.271 367.186 468.977 367.899L472.546 371.468L480.973 363.033C481.687 362.319 482.841 362.319 483.547 363.033C484.253 363.746 484.261 364.9 483.547 365.606L483.555 365.614Z" fill="#53EA4D"/>
<path d="M970.553 388.619C975.707 388.619 980.651 386.571 984.296 382.926C987.941 379.281 989.989 374.337 989.989 369.182C989.989 364.028 987.941 359.084 984.296 355.439C980.651 351.794 975.707 349.746 970.553 349.746C965.398 349.746 960.454 351.794 956.809 355.439C953.164 359.084 951.116 364.028 951.116 369.182C951.116 374.337 953.164 379.281 956.809 382.926C960.454 386.571 965.398 388.619 970.553 388.619ZM979.132 365.614L969.414 375.332C968.7 376.046 967.546 376.046 966.84 375.332L961.981 370.473C961.267 369.759 961.267 368.605 961.981 367.899C962.694 367.193 963.849 367.186 964.555 367.899L968.123 371.468L976.55 363.033C977.264 362.319 978.418 362.319 979.124 363.033C979.83 363.746 979.838 364.9 979.124 365.606L979.132 365.614Z" fill="#53EA4D"/>
<path d="M970.553 538.982C975.707 538.982 980.651 536.934 984.296 533.289C987.941 529.644 989.989 524.701 989.989 519.546C989.989 514.391 987.941 509.447 984.296 505.802C980.651 502.157 975.707 500.109 970.553 500.109C965.398 500.109 960.454 502.157 956.809 505.802C953.164 509.447 951.116 514.391 951.116 519.546C951.116 524.701 953.164 529.644 956.809 533.289C960.454 536.934 965.398 538.982 970.553 538.982ZM979.132 515.977L969.414 525.695C968.7 526.409 967.546 526.409 966.84 525.695L961.981 520.836C961.267 520.123 961.267 518.969 961.981 518.263C962.694 517.557 963.849 517.549 964.555 518.263L968.123 521.831L976.55 513.396C977.264 512.682 978.418 512.682 979.124 513.396C979.83 514.11 979.838 515.264 979.124 515.97L979.132 515.977Z" fill="#53EA4D"/>
<path d="M1218.78 538.982C1223.94 538.982 1228.88 536.934 1232.53 533.289C1236.17 529.644 1238.22 524.701 1238.22 519.546C1238.22 514.391 1236.17 509.447 1232.53 505.802C1228.88 502.157 1223.94 500.109 1218.78 500.109C1213.63 500.109 1208.69 502.157 1205.04 505.802C1201.4 509.447 1199.35 514.391 1199.35 519.546C1199.35 524.701 1201.4 529.644 1205.04 533.289C1208.69 536.934 1213.63 538.982 1218.78 538.982ZM1227.36 515.977L1217.65 525.695C1216.93 526.409 1215.78 526.409 1215.07 525.695L1210.21 520.836C1209.5 520.123 1209.5 518.969 1210.21 518.263C1210.93 517.557 1212.08 517.549 1212.79 518.263L1216.36 521.831L1224.78 513.396C1225.5 512.682 1226.65 512.682 1227.36 513.396C1228.06 514.11 1228.07 515.264 1227.36 515.97L1227.36 515.977Z" fill="#53EA4D"/>
<path d="M474.975 614.609C480.13 614.609 485.074 612.561 488.719 608.916C492.364 605.271 494.412 600.327 494.412 595.173C494.412 590.018 492.364 585.074 488.719 581.429C485.074 577.784 480.13 575.736 474.975 575.736C469.821 575.736 464.877 577.784 461.232 581.429C457.587 585.074 455.539 590.018 455.539 595.173C455.539 600.327 457.587 605.271 461.232 608.916C464.877 612.561 469.821 614.609 474.975 614.609ZM483.555 591.604L473.837 601.322C473.123 602.036 471.969 602.036 471.263 601.322L466.404 596.463C465.69 595.75 465.69 594.596 466.404 593.89C467.117 593.183 468.271 593.176 468.977 593.89L472.546 597.458L480.973 589.023C481.687 588.309 482.841 588.309 483.547 589.023C484.253 589.737 484.261 590.891 483.547 591.597L483.555 591.604Z" fill="#53EA4D"/>
<path d="M474.975 314.772C480.13 314.772 485.074 312.724 488.719 309.079C492.364 305.434 494.412 300.491 494.412 295.336C494.412 290.181 492.364 285.237 488.719 281.592C485.074 277.947 480.13 275.899 474.975 275.899C469.821 275.899 464.877 277.947 461.232 281.592C457.587 285.237 455.539 290.181 455.539 295.336C455.539 300.491 457.587 305.434 461.232 309.079C464.877 312.724 469.821 314.772 474.975 314.772ZM468.826 289.186C469.539 288.472 470.693 288.472 471.399 289.186L474.968 292.754L478.536 289.186C479.25 288.472 480.404 288.472 481.11 289.186C481.816 289.9 481.824 291.054 481.11 291.76L477.542 295.328L481.11 298.897C481.824 299.61 481.824 300.764 481.11 301.47C480.396 302.176 479.242 302.184 478.536 301.47L474.968 297.902L471.399 301.47C470.686 302.184 469.532 302.184 468.826 301.47C468.12 300.757 468.112 299.603 468.826 298.897L472.394 295.328L468.826 291.76C468.112 291.046 468.112 289.892 468.826 289.186Z" fill="#F45446"/>
<path d="M723.209 314.772C728.364 314.772 733.307 312.724 736.952 309.079C740.597 305.434 742.645 300.491 742.645 295.336C742.645 290.181 740.597 285.237 736.952 281.592C733.307 277.947 728.364 275.899 723.209 275.899C718.054 275.899 713.11 277.947 709.465 281.592C705.82 285.237 703.772 290.181 703.772 295.336C703.772 300.491 705.82 305.434 709.465 309.079C713.11 312.724 718.054 314.772 723.209 314.772ZM717.059 289.186C717.773 288.472 718.927 288.472 719.633 289.186L723.201 292.754L726.77 289.186C727.483 288.472 728.637 288.472 729.343 289.186C730.049 289.9 730.057 291.054 729.343 291.76L725.775 295.328L729.343 298.897C730.057 299.61 730.057 300.764 729.343 301.47C728.63 302.176 727.476 302.184 726.77 301.47L723.201 297.902L719.633 301.47C718.919 302.184 717.765 302.184 717.059 301.47C716.353 300.757 716.345 299.603 717.059 298.897L720.627 295.328L717.059 291.76C716.345 291.046 716.345 289.892 717.059 289.186Z" fill="#F45446"/>
<path d="M1218.78 314.772C1223.94 314.772 1228.88 312.724 1232.53 309.079C1236.17 305.434 1238.22 300.491 1238.22 295.336C1238.22 290.181 1236.17 285.237 1232.53 281.592C1228.88 277.947 1223.94 275.899 1218.78 275.899C1213.63 275.899 1208.69 277.947 1205.04 281.592C1201.4 285.237 1199.35 290.181 1199.35 295.336C1199.35 300.491 1201.4 305.434 1205.04 309.079C1208.69 312.724 1213.63 314.772 1218.78 314.772ZM1212.64 289.186C1213.35 288.472 1214.5 288.472 1215.21 289.186L1218.78 292.754L1222.35 289.186C1223.06 288.472 1224.21 288.472 1224.92 289.186C1225.63 289.9 1225.63 291.054 1224.92 291.76L1221.35 295.328L1224.92 298.897C1225.63 299.61 1225.63 300.764 1224.92 301.47C1224.21 302.176 1223.05 302.184 1222.35 301.47L1218.78 297.902L1215.21 301.47C1214.5 302.184 1213.34 302.184 1212.64 301.47C1211.93 300.757 1211.92 299.603 1212.64 298.897L1216.2 295.328L1212.64 291.76C1211.92 291.046 1211.92 289.892 1212.64 289.186Z" fill="#F45446"/>
<path d="M723.209 389.509C728.364 389.509 733.307 387.462 736.952 383.817C740.597 380.172 742.645 375.228 742.645 370.073C742.645 364.918 740.597 359.975 736.952 356.329C733.307 352.684 728.364 350.637 723.209 350.637C718.054 350.637 713.11 352.684 709.465 356.329C705.82 359.975 703.772 364.918 703.772 370.073C703.772 375.228 705.82 380.172 709.465 383.817C713.11 387.462 718.054 389.509 723.209 389.509ZM717.059 363.923C717.773 363.21 718.927 363.21 719.633 363.923L723.201 367.492L726.77 363.923C727.483 363.21 728.637 363.21 729.343 363.923C730.049 364.637 730.057 365.791 729.343 366.497L725.775 370.065L729.343 373.634C730.057 374.348 730.057 375.502 729.343 376.208C728.63 376.914 727.476 376.921 726.77 376.208L723.201 372.639L719.633 376.208C718.919 376.921 717.765 376.921 717.059 376.208C716.353 375.494 716.345 374.34 717.059 373.634L720.627 370.065L717.059 366.497C716.345 365.783 716.345 364.629 717.059 363.923Z" fill="#F45446"/>
<path d="M1218.78 389.509C1223.94 389.509 1228.88 387.462 1232.53 383.817C1236.17 380.172 1238.22 375.228 1238.22 370.073C1238.22 364.918 1236.17 359.975 1232.53 356.329C1228.88 352.684 1223.94 350.637 1218.78 350.637C1213.63 350.637 1208.69 352.684 1205.04 356.329C1201.4 359.975 1199.35 364.918 1199.35 370.073C1199.35 375.228 1201.4 380.172 1205.04 383.817C1208.69 387.462 1213.63 389.509 1218.78 389.509ZM1212.64 363.923C1213.35 363.21 1214.5 363.21 1215.21 363.923L1218.78 367.492L1222.35 363.923C1223.06 363.21 1224.21 363.21 1224.92 363.923C1225.63 364.637 1225.63 365.791 1224.92 366.497L1221.35 370.065L1224.92 373.634C1225.63 374.348 1225.63 375.502 1224.92 376.208C1224.21 376.914 1223.05 376.921 1222.35 376.208L1218.78 372.639L1215.21 376.208C1214.5 376.921 1213.34 376.921 1212.64 376.208C1211.93 375.494 1211.92 374.34 1212.64 373.634L1216.2 370.065L1212.64 366.497C1211.92 365.783 1211.92 364.629 1212.64 363.923Z" fill="#F45446"/>
<path d="M723.209 464.246C728.364 464.246 733.307 462.198 736.952 458.553C740.597 454.908 742.645 449.964 742.645 444.809C742.645 439.655 740.597 434.711 736.952 431.066C733.307 427.421 728.364 425.373 723.209 425.373C718.054 425.373 713.11 427.421 709.465 431.066C705.82 434.711 703.772 439.655 703.772 444.809C703.772 449.964 705.82 454.908 709.465 458.553C713.11 462.198 718.054 464.246 723.209 464.246ZM717.059 438.66C717.773 437.946 718.927 437.946 719.633 438.66L723.201 442.228L726.77 438.66C727.483 437.946 728.637 437.946 729.343 438.66C730.049 439.373 730.057 440.527 729.343 441.233L725.775 444.802L729.343 448.37C730.057 449.084 730.057 450.238 729.343 450.944C728.63 451.65 727.476 451.658 726.77 450.944L723.201 447.376L719.633 450.944C718.919 451.658 717.765 451.658 717.059 450.944C716.353 450.23 716.345 449.076 717.059 448.37L720.627 444.802L717.059 441.233C716.345 440.52 716.345 439.366 717.059 438.66Z" fill="#F45446"/>
<path d="M1218.78 464.246C1223.94 464.246 1228.88 462.198 1232.53 458.553C1236.17 454.908 1238.22 449.964 1238.22 444.809C1238.22 439.655 1236.17 434.711 1232.53 431.066C1228.88 427.421 1223.94 425.373 1218.78 425.373C1213.63 425.373 1208.69 427.421 1205.04 431.066C1201.4 434.711 1199.35 439.655 1199.35 444.809C1199.35 449.964 1201.4 454.908 1205.04 458.553C1208.69 462.198 1213.63 464.246 1218.78 464.246ZM1212.64 438.66C1213.35 437.946 1214.5 437.946 1215.21 438.66L1218.78 442.228L1222.35 438.66C1223.06 437.946 1224.21 437.946 1224.92 438.66C1225.63 439.373 1225.63 440.527 1224.92 441.233L1221.35 444.802L1224.92 448.37C1225.63 449.084 1225.63 450.238 1224.92 450.944C1224.21 451.65 1223.05 451.658 1222.35 450.944L1218.78 447.376L1215.21 450.944C1214.5 451.658 1213.34 451.658 1212.64 450.944C1211.93 450.23 1211.92 449.076 1212.64 448.37L1216.2 444.802L1212.64 441.233C1211.92 440.52 1211.92 439.366 1212.64 438.66Z" fill="#F45446"/>
<path d="M1218.78 614.609C1223.94 614.609 1228.88 612.561 1232.53 608.916C1236.17 605.271 1238.22 600.327 1238.22 595.173C1238.22 590.018 1236.17 585.074 1232.53 581.429C1228.88 577.784 1223.94 575.736 1218.78 575.736C1213.63 575.736 1208.69 577.784 1205.04 581.429C1201.4 585.074 1199.35 590.018 1199.35 595.173C1199.35 600.327 1201.4 605.271 1205.04 608.916C1208.69 612.561 1213.63 614.609 1218.78 614.609ZM1212.64 589.023C1213.35 588.309 1214.5 588.309 1215.21 589.023L1218.78 592.591L1222.35 589.023C1223.06 588.309 1224.21 588.309 1224.92 589.023C1225.63 589.737 1225.63 590.891 1224.92 591.597L1221.35 595.165L1224.92 598.733C1225.63 599.447 1225.63 600.601 1224.92 601.307C1224.21 602.013 1223.05 602.021 1222.35 601.307L1218.78 597.739L1215.21 601.307C1214.5 602.021 1213.34 602.021 1212.64 601.307C1211.93 600.594 1211.92 599.44 1212.64 598.733L1216.2 595.165L1212.64 591.597C1211.92 590.883 1211.92 589.729 1212.64 589.023Z" fill="#F45446"/>
<path d="M723.209 538.982C728.364 538.982 733.307 536.934 736.952 533.289C740.597 529.644 742.645 524.701 742.645 519.546C742.645 514.391 740.597 509.447 736.952 505.802C733.307 502.157 728.364 500.109 723.209 500.109C718.054 500.109 713.11 502.157 709.465 505.802C705.82 509.447 703.772 514.391 703.772 519.546C703.772 524.701 705.82 529.644 709.465 533.289C713.11 536.934 718.054 538.982 723.209 538.982ZM717.059 513.396C717.773 512.682 718.927 512.682 719.633 513.396L723.201 516.964L726.77 513.396C727.483 512.682 728.637 512.682 729.343 513.396C730.049 514.11 730.057 515.264 729.343 515.97L725.775 519.538L729.343 523.106C730.057 523.82 730.057 524.974 729.343 525.68C728.63 526.386 727.476 526.394 726.77 525.68L723.201 522.112L719.633 525.68C718.919 526.394 717.765 526.394 717.059 525.68C716.353 524.967 716.345 523.813 717.059 523.106L720.627 519.538L717.059 515.97C716.345 515.256 716.345 514.102 717.059 513.396Z" fill="#F45446"/>
<path d="M970.553 463.356C975.707 463.356 980.651 461.308 984.296 457.663C987.941 454.018 989.989 449.075 989.989 443.92C989.989 438.765 987.941 433.821 984.296 430.176C980.651 426.531 975.707 424.483 970.553 424.483C965.398 424.483 960.454 426.531 956.809 430.176C953.164 433.821 951.116 438.765 951.116 443.92C951.116 449.075 953.164 454.018 956.809 457.663C960.454 461.308 965.398 463.356 970.553 463.356ZM964.403 437.77C965.116 437.056 966.27 437.056 966.977 437.77L970.545 441.338L974.113 437.77C974.827 437.056 975.981 437.056 976.687 437.77C977.393 438.484 977.401 439.638 976.687 440.344L973.119 443.912L976.687 447.481C977.401 448.194 977.401 449.348 976.687 450.054C975.973 450.76 974.819 450.768 974.113 450.054L970.545 446.486L966.977 450.054C966.263 450.768 965.109 450.768 964.403 450.054C963.697 449.341 963.689 448.187 964.403 447.481L967.971 443.912L964.403 440.344C963.689 439.63 963.689 438.476 964.403 437.77Z" fill="#F45446"/>
<path d="M970.553 614.609C975.707 614.609 980.651 612.561 984.296 608.916C987.941 605.271 989.989 600.327 989.989 595.173C989.989 590.018 987.941 585.074 984.296 581.429C980.651 577.784 975.707 575.736 970.553 575.736C965.398 575.736 960.454 577.784 956.809 581.429C953.164 585.074 951.116 590.018 951.116 595.173C951.116 600.327 953.164 605.271 956.809 608.916C960.454 612.561 965.398 614.609 970.553 614.609ZM964.403 589.023C965.116 588.309 966.27 588.309 966.977 589.023L970.545 592.591L974.113 589.023C974.827 588.309 975.981 588.309 976.687 589.023C977.393 589.737 977.401 590.891 976.687 591.597L973.119 595.165L976.687 598.733C977.401 599.447 977.401 600.601 976.687 601.307C975.973 602.013 974.819 602.021 974.113 601.307L970.545 597.739L966.977 601.307C966.263 602.021 965.109 602.021 964.403 601.307C963.697 600.594 963.689 599.44 964.403 598.733L967.971 595.165L964.403 591.597C963.689 590.883 963.689 589.729 964.403 589.023Z" fill="#F45446"/>
<path d="M474.975 538.982C480.13 538.982 485.074 536.934 488.719 533.289C492.364 529.644 494.412 524.701 494.412 519.546C494.412 514.391 492.364 509.447 488.719 505.802C485.074 502.157 480.13 500.109 474.975 500.109C469.821 500.109 464.877 502.157 461.232 505.802C457.587 509.447 455.539 514.391 455.539 519.546C455.539 524.701 457.587 529.644 461.232 533.289C464.877 536.934 469.821 538.982 474.975 538.982ZM468.826 513.396C469.539 512.682 470.693 512.682 471.399 513.396L474.968 516.964L478.536 513.396C479.25 512.682 480.404 512.682 481.11 513.396C481.816 514.11 481.824 515.264 481.11 515.97L477.542 519.538L481.11 523.106C481.824 523.82 481.824 524.974 481.11 525.68C480.396 526.386 479.242 526.394 478.536 525.68L474.968 522.112L471.399 525.68C470.686 526.394 469.532 526.394 468.826 525.68C468.12 524.967 468.112 523.813 468.826 523.106L472.394 519.538L468.826 515.97C468.112 515.256 468.112 514.102 468.826 513.396Z" fill="#F45446"/>
<path fill-rule="evenodd" clip-rule="evenodd" d="M984.294 309.079C980.649 312.724 975.705 314.772 970.551 314.772C965.396 314.772 960.452 312.724 956.807 309.079C953.162 305.434 951.114 300.491 951.114 295.336C951.114 290.181 953.162 285.237 956.807 281.592C960.452 277.947 965.396 275.899 970.551 275.899C975.705 275.899 980.649 277.947 984.294 281.592C987.939 285.237 989.987 290.181 989.987 295.336C989.987 300.491 987.939 305.434 984.294 309.079ZM970.996 287.51C970.688 286.976 969.917 286.976 969.609 287.51L962.674 299.521C962.366 300.055 962.752 300.722 963.368 300.722H977.237C977.854 300.722 978.239 300.055 977.931 299.521L970.996 287.51Z" fill="#FAA754"/>
<path fill-rule="evenodd" clip-rule="evenodd" d="M488.718 458.553C485.073 462.198 480.129 464.246 474.974 464.246C469.82 464.246 464.876 462.198 461.231 458.553C457.586 454.908 455.538 449.964 455.538 444.809C455.538 439.655 457.586 434.711 461.231 431.066C464.876 427.421 469.82 425.373 474.974 425.373C480.129 425.373 485.073 427.421 488.718 431.066C492.363 434.711 494.411 439.655 494.411 444.809C494.411 449.964 492.363 454.908 488.718 458.553ZM475.42 436.984C475.112 436.451 474.341 436.451 474.033 436.984L467.099 448.996C466.79 449.53 467.176 450.197 467.792 450.197H481.661C482.278 450.197 482.663 449.53 482.355 448.996L475.42 436.984Z" fill="#FAA754"/>
<path d="M660.907 602.295H657.769V591.106C656.936 591.768 655.911 592.237 654.736 592.451V589.696C656.317 589.376 657.598 588.543 658.601 587.134H660.907V602.295ZM662.772 605.946V604.43C664.096 604.43 664.587 603.96 664.587 602.594V602.295H663.263V599.348H666.296V602.402C666.296 604.879 665.121 605.946 662.772 605.946ZM673.061 602.573C669.26 602.573 667.36 599.476 667.36 594.928V594.501C667.36 589.974 669.26 586.856 673.061 586.856C676.99 586.856 678.784 589.974 678.784 594.501V594.928C678.784 599.476 676.99 602.573 673.061 602.573ZM673.061 600.031C675.026 600.031 675.538 598.43 675.538 594.992V594.48C675.538 591.02 675.026 589.397 673.061 589.397C671.225 589.397 670.605 591.02 670.605 594.48V594.992C670.605 598.43 671.225 600.031 673.061 600.031ZM685.878 602.573C682.077 602.573 680.177 599.476 680.177 594.928V594.501C680.177 589.974 682.077 586.856 685.878 586.856C689.807 586.856 691.601 589.974 691.601 594.501V594.928C691.601 599.476 689.807 602.573 685.878 602.573ZM685.878 600.031C687.843 600.031 688.355 598.43 688.355 594.992V594.48C688.355 591.02 687.843 589.397 685.878 589.397C684.042 589.397 683.422 591.02 683.422 594.48V594.992C683.422 598.43 684.042 600.031 685.878 600.031ZM698.695 602.573C694.894 602.573 692.994 599.476 692.994 594.928V594.501C692.994 589.974 694.894 586.856 698.695 586.856C702.624 586.856 704.418 589.974 704.418 594.501V594.928C704.418 599.476 702.624 602.573 698.695 602.573ZM698.695 600.031C700.66 600.031 701.172 598.43 701.172 594.992V594.48C701.172 591.02 700.66 589.397 698.695 589.397C696.859 589.397 696.239 591.02 696.239 594.48V594.992C696.239 598.43 696.859 600.031 698.695 600.031ZM714.645 602.573C711.207 602.573 709.136 600.288 709.136 596.914V596.636C709.136 593.262 711.207 590.999 714.645 590.999C717.528 590.999 719.449 592.665 719.77 595.419H716.823C716.631 594.159 716.012 593.327 714.602 593.327C712.958 593.327 712.168 594.522 712.168 596.636V596.914C712.168 599.049 712.958 600.245 714.602 600.245C716.012 600.245 716.652 599.391 716.844 598.152H719.791C719.449 600.907 717.528 602.573 714.645 602.573ZM724.055 602.295H721.065V586.493H724.076V592.878C724.653 591.896 725.763 590.999 727.514 590.999C730.247 590.999 731.336 592.729 731.336 595.206V602.295H728.368V595.953C728.368 594.351 727.813 593.412 726.382 593.412C724.994 593.412 724.055 594.437 724.055 596.188V602.295ZM736.315 602.573C734.094 602.573 732.599 601.163 732.599 599.22C732.599 597.341 733.795 596.231 735.802 595.953L739.859 595.376V594.736C739.859 593.818 739.261 593.262 737.959 593.262C736.742 593.262 735.973 593.732 735.866 594.672H733.048C733.218 592.323 735.162 590.999 738.023 590.999C740.991 590.999 742.742 592.472 742.742 594.779V602.295H739.987L739.881 600.608C739.219 601.804 737.937 602.573 736.315 602.573ZM737.211 600.33C738.663 600.33 739.859 599.476 739.859 598.259V597.384L736.87 597.789C735.952 597.917 735.482 598.302 735.482 599.071C735.482 599.861 736.122 600.33 737.211 600.33ZM747.457 602.295H744.468V591.277H747.351L747.415 593.412C747.949 592.088 749.038 591.084 750.66 591.084C750.874 591.084 751.152 591.106 751.322 591.148V594.01C751.109 593.988 750.767 593.967 750.49 593.967C748.504 593.967 747.457 595.035 747.457 596.978V602.295ZM755.276 602.573C753.055 602.573 751.56 601.163 751.56 599.22C751.56 597.341 752.756 596.231 754.763 595.953L758.82 595.376V594.736C758.82 593.818 758.223 593.262 756.92 593.262C755.703 593.262 754.934 593.732 754.827 594.672H752.009C752.18 592.323 754.123 590.999 756.984 590.999C759.952 590.999 761.703 592.472 761.703 594.779V602.295H758.949L758.842 600.608C758.18 601.804 756.899 602.573 755.276 602.573ZM756.173 600.33C757.625 600.33 758.82 599.476 758.82 598.259V597.384L755.831 597.789C754.913 597.917 754.443 598.302 754.443 599.071C754.443 599.861 755.084 600.33 756.173 600.33ZM768.554 602.573C765.116 602.573 763.045 600.288 763.045 596.914V596.636C763.045 593.262 765.116 590.999 768.554 590.999C771.437 590.999 773.358 592.665 773.679 595.419H770.732C770.54 594.159 769.921 593.327 768.511 593.327C766.867 593.327 766.077 594.522 766.077 596.636V596.914C766.077 599.049 766.867 600.245 768.511 600.245C769.921 600.245 770.561 599.391 770.753 598.152H773.7C773.358 600.907 771.437 602.573 768.554 602.573ZM779.932 602.573C777.284 602.573 776.024 601.377 776.024 599.113V593.455H773.974V591.277H776.024V587.775H779.014V591.277H781.875V593.455H779.014V598.857C779.014 599.818 779.441 600.224 780.594 600.224C781.128 600.224 781.619 600.096 781.918 600.01V602.295C781.405 602.466 780.573 602.573 779.932 602.573ZM788.311 602.573C784.767 602.573 782.631 600.309 782.631 596.914V596.636C782.631 593.284 784.831 590.999 788.311 590.999C792.07 590.999 793.927 593.647 793.735 597.49H785.685C785.834 599.37 786.71 600.288 788.311 600.288C789.657 600.288 790.425 599.647 790.703 598.793H793.671C793.137 601.12 791.194 602.573 788.311 602.573ZM785.728 595.526H790.682C790.554 594.138 789.785 593.284 788.29 593.284C786.817 593.284 785.984 594.01 785.728 595.526ZM798.176 602.295H795.186V591.277H798.069L798.133 593.412C798.667 592.088 799.756 591.084 801.379 591.084C801.592 591.084 801.87 591.106 802.041 591.148V594.01C801.827 593.988 801.486 593.967 801.208 593.967C799.222 593.967 798.176 595.035 798.176 596.978V602.295Z" fill="black"/>
<path d="M95.192 99.624C84.824 99.624 78.44 92.472 78.44 82.44V81.48C78.44 71.448 85.064 64.296 95.24 64.296C104.072 64.296 109.928 69.816 110.408 78.12H102.248C101.912 73.56 99.224 70.968 95.096 70.968C89.768 70.968 86.84 75.192 86.84 81.48V82.44C86.84 88.728 89.816 92.904 95.144 92.904C99.272 92.904 102.008 90.216 102.2 85.464H110.36C109.928 93.96 104.264 99.624 95.192 99.624ZM125.275 99.624C117.451 99.624 112.267 94.344 112.267 86.808V86.328C112.267 78.84 117.451 73.56 125.275 73.56C133.147 73.56 138.283 78.84 138.283 86.328V86.808C138.283 94.344 133.147 99.624 125.275 99.624ZM125.275 93.768C128.923 93.768 130.507 91.368 130.507 86.808V86.328C130.507 81.816 128.923 79.416 125.275 79.416C121.675 79.416 120.043 81.816 120.043 86.328V86.808C120.043 91.368 121.675 93.768 125.275 93.768ZM148.965 99H141.285V74.184H148.629L148.821 77.976C149.973 75.768 152.421 73.56 156.261 73.56C159.957 73.56 162.501 75.048 163.749 78.168C165.477 75.288 168.165 73.56 171.765 73.56C177.861 73.56 180.261 77.496 180.261 83.256V99H172.581V84.696C172.581 81.288 171.285 79.656 168.885 79.656C166.197 79.656 164.613 81.576 164.613 85.656V99H156.933V84.744C156.933 81.384 155.781 79.656 153.333 79.656C150.693 79.656 148.965 81.48 148.965 85.608V99ZM191.605 107.16H183.877V74.184H191.029L191.269 78.12C192.325 75.816 195.013 73.56 198.949 73.56C205.669 73.56 209.701 79.032 209.701 86.328V86.808C209.701 94.152 205.669 99.624 198.997 99.624C195.541 99.624 192.901 97.896 191.605 95.592V107.16ZM196.645 93.816C200.197 93.816 201.925 91.368 201.925 86.808V86.328C201.925 81.72 200.197 79.32 196.645 79.32C193.093 79.32 191.365 81.72 191.365 86.328V86.808C191.365 91.368 193.093 93.816 196.645 93.816ZM224.976 99.624C216.864 99.624 211.872 94.584 211.872 86.808V86.328C211.872 78.696 217.008 73.56 224.976 73.56C233.616 73.56 237.936 79.608 237.408 88.344H219.504C219.84 92.136 221.616 93.96 224.928 93.96C227.664 93.96 229.2 92.616 229.728 91.032H237.264C236.064 96.264 231.6 99.624 224.976 99.624ZM219.6 83.88H229.68C229.488 81.048 227.952 79.224 224.88 79.224C221.808 79.224 220.128 80.664 219.6 83.88ZM251.577 99.624C245.289 99.624 242.409 96.84 242.409 91.512V79.704H237.897V74.184H242.409V66.264H250.089V74.184H256.329V79.704H250.089V90.984C250.089 92.952 251.049 93.768 253.449 93.768C254.601 93.768 255.561 93.528 256.425 93.288V99C255.129 99.384 253.209 99.624 251.577 99.624ZM267.119 63.48V71.208H259.151V63.48H267.119ZM259.295 74.184H266.975V99H259.295V74.184ZM282.715 99.624C276.427 99.624 273.547 96.84 273.547 91.512V79.704H269.035V74.184H273.547V66.264H281.227V74.184H287.467V79.704H281.227V90.984C281.227 92.952 282.187 93.768 284.587 93.768C285.739 93.768 286.699 93.528 287.563 93.288V99C286.267 99.384 284.347 99.624 282.715 99.624ZM301.969 99.624C294.145 99.624 288.961 94.344 288.961 86.808V86.328C288.961 78.84 294.145 73.56 301.969 73.56C309.841 73.56 314.977 78.84 314.977 86.328V86.808C314.977 94.344 309.841 99.624 301.969 99.624ZM301.969 93.768C305.617 93.768 307.201 91.368 307.201 86.808V86.328C307.201 81.816 305.617 79.416 301.969 79.416C298.369 79.416 296.737 81.816 296.737 86.328V86.808C296.737 91.368 298.369 93.768 301.969 93.768ZM325.659 99H317.979V74.184H325.323L325.467 79.032C326.619 76.152 328.971 73.752 332.715 73.752C333.243 73.752 333.819 73.8 334.251 73.896V81.24C333.723 81.192 332.955 81.144 332.235 81.144C327.771 81.144 325.659 83.352 325.659 87.432V99ZM376.928 99H368.432L366.08 92.232H353.024L350.672 99H342.464L355.28 64.92H364.112L376.928 99ZM359.552 73.32L355.232 85.896H363.92L359.552 73.32ZM386.499 99H378.819V74.184H386.163L386.355 77.976C387.555 75.768 390.003 73.56 394.179 73.56C400.467 73.56 402.819 77.544 402.819 83.064V99H395.139V85.032C395.139 81.672 394.083 79.704 391.155 79.704C388.371 79.704 386.499 81.72 386.499 85.368V99ZM413.564 99.624C408.764 99.624 405.404 96.456 405.404 92.088C405.404 87.816 408.14 85.272 412.892 84.696L421.532 83.544V81.96C421.532 80.136 420.332 79.032 417.836 79.032C415.34 79.032 413.9 80.04 413.708 81.912H406.412C406.7 76.632 411.212 73.56 417.98 73.56C424.796 73.56 429.02 76.824 429.02 82.008V99H421.82L421.58 95.304C420.092 97.992 417.308 99.624 413.564 99.624ZM416.252 94.2C419.132 94.2 421.532 92.52 421.532 89.976V88.2L415.676 88.968C413.756 89.208 412.844 90.12 412.844 91.608C412.844 93.24 414.044 94.2 416.252 94.2ZM432.598 63.48H440.278V99H432.598V63.48ZM456.209 107.16H448.289L451.553 98.712L442.145 74.184H450.257L455.585 90.456L460.769 74.184H468.593L456.209 107.16ZM479.784 99.624C472.488 99.624 468.408 96.408 468.024 91.032H475.32C475.608 93.144 477.288 94.344 479.832 94.344C482.136 94.344 483.528 93.432 483.528 91.992C483.528 90.648 482.712 89.832 478.296 89.064C471.672 88.008 468.744 85.896 468.744 81.432C468.744 76.68 473.112 73.56 479.544 73.56C486.216 73.56 490.2 76.584 490.584 81.72H483.432C483.24 79.8 481.704 78.792 479.448 78.792C477.336 78.792 476.088 79.656 476.088 81C476.088 82.344 477.096 83.064 481.32 83.688C488.328 84.696 491.064 87.048 491.064 91.272C491.064 96.264 486.744 99.624 479.784 99.624ZM501.637 63.48V71.208H493.669V63.48H501.637ZM493.813 74.184H501.493V99H493.813V74.184ZM515.984 99.624C508.688 99.624 504.608 96.408 504.224 91.032H511.52C511.808 93.144 513.488 94.344 516.032 94.344C518.336 94.344 519.728 93.432 519.728 91.992C519.728 90.648 518.912 89.832 514.496 89.064C507.872 88.008 504.944 85.896 504.944 81.432C504.944 76.68 509.312 73.56 515.744 73.56C522.416 73.56 526.4 76.584 526.784 81.72H519.632C519.44 79.8 517.904 78.792 515.648 78.792C513.536 78.792 512.288 79.656 512.288 81C512.288 82.344 513.296 83.064 517.52 83.688C524.528 84.696 527.264 87.048 527.264 91.272C527.264 96.264 522.944 99.624 515.984 99.624Z" fill="#EB5B38"/>
</svg>
