<svg width="1419" height="818" viewBox="0 0 1419 818" fill="none" xmlns="http://www.w3.org/2000/svg">
<rect width="1419" height="818" rx="11.212" fill="white"/>
<rect x="969.141" y="306.317" width="170.422" height="98.6656" rx="10" fill="#A29CFF"/>
<path d="M994.534 360.817H992.809V350.167H997.144C999.289 350.167 1000.79 351.277 1000.79 353.347V353.587C1000.79 355.657 999.289 356.767 997.144 356.767H994.534V360.817ZM994.534 351.637V355.297H997.009C998.209 355.297 999.004 354.757 999.004 353.587V353.347C999.004 352.177 998.209 351.637 997.009 351.637H994.534ZM1004.9 361.012C1002.59 361.012 1001.09 359.422 1001.09 357.067V356.842C1001.09 354.487 1002.59 352.912 1004.9 352.912C1007.22 352.912 1008.72 354.487 1008.72 356.842V357.067C1008.72 359.422 1007.22 361.012 1004.9 361.012ZM1004.9 359.677C1006.31 359.677 1007.04 358.732 1007.04 357.067V356.842C1007.04 355.177 1006.31 354.247 1004.9 354.247C1003.5 354.247 1002.77 355.177 1002.77 356.842V357.067C1002.77 358.732 1003.5 359.677 1004.9 359.677ZM1012.73 361.012C1010.74 361.012 1009.49 360.067 1009.34 358.417H1010.93C1011.07 359.332 1011.73 359.767 1012.75 359.767C1013.68 359.767 1014.31 359.392 1014.31 358.702C1014.31 358.087 1013.87 357.787 1012.4 357.517C1010.53 357.202 1009.61 356.602 1009.61 355.222C1009.61 353.842 1010.86 352.912 1012.63 352.912C1014.49 352.912 1015.64 353.797 1015.79 355.327H1014.22C1014.1 354.547 1013.5 354.127 1012.61 354.127C1011.76 354.127 1011.2 354.502 1011.2 355.132C1011.2 355.732 1011.64 356.017 1013.05 356.242C1015 356.557 1015.94 357.202 1015.94 358.552C1015.94 360.022 1014.67 361.012 1012.73 361.012ZM1020.24 361.012C1018.54 361.012 1017.7 360.232 1017.7 358.732V354.337H1016.2V353.092H1017.7V350.677H1019.35V353.092H1021.45V354.337H1019.35V358.552C1019.35 359.317 1019.64 359.662 1020.55 359.662C1020.88 359.662 1021.27 359.587 1021.5 359.512V360.832C1021.15 360.937 1020.63 361.012 1020.24 361.012ZM1029.22 361.012C1026.67 361.012 1024.98 359.722 1024.86 357.442H1026.6C1026.75 358.927 1027.83 359.557 1029.3 359.557C1030.63 359.557 1031.59 359.032 1031.59 357.967V357.892C1031.59 356.977 1030.95 356.512 1028.79 356.122C1026.16 355.657 1025.23 354.682 1025.23 353.092V352.987C1025.23 351.247 1026.75 349.972 1029.07 349.972C1031.31 349.972 1032.93 351.082 1033.14 353.257H1031.38C1031.23 352.027 1030.36 351.412 1029.04 351.412C1027.72 351.412 1026.94 352.012 1026.94 352.942V353.017C1026.94 353.842 1027.39 354.307 1029.51 354.667C1032.06 355.102 1033.32 355.987 1033.32 357.727V357.847C1033.32 359.692 1031.74 361.012 1029.22 361.012ZM1037.98 361.012C1035.58 361.012 1034.16 359.407 1034.16 357.067V356.842C1034.16 354.502 1035.61 352.912 1037.98 352.912C1040.52 352.912 1041.75 354.682 1041.63 357.322H1035.85C1035.93 358.867 1036.68 359.692 1037.98 359.692C1039.06 359.692 1039.71 359.182 1039.93 358.402H1041.58C1041.21 360.022 1039.92 361.012 1037.98 361.012ZM1035.88 356.137H1039.93C1039.81 354.937 1039.18 354.217 1037.97 354.217C1036.77 354.217 1036.06 354.877 1035.88 356.137ZM1045.97 361.012C1044.28 361.012 1043.44 360.232 1043.44 358.732V354.337H1041.94V353.092H1043.44V350.677H1045.09V353.092H1047.19V354.337H1045.09V358.552C1045.09 359.317 1045.37 359.662 1046.29 359.662C1046.62 359.662 1047.01 359.587 1047.23 359.512V360.832C1046.89 360.937 1046.36 361.012 1045.97 361.012ZM1051.68 361.012C1049.99 361.012 1049.15 360.232 1049.15 358.732V354.337H1047.65V353.092H1049.15V350.677H1050.8V353.092H1052.9V354.337H1050.8V358.552C1050.8 359.317 1051.08 359.662 1052 359.662C1052.33 359.662 1052.72 359.587 1052.94 359.512V360.832C1052.6 360.937 1052.07 361.012 1051.68 361.012ZM1055.74 349.717V351.967H1054.02V349.717H1055.74ZM1054.05 353.092H1055.7V360.817H1054.05V353.092ZM1058.83 360.817H1057.18V353.092H1058.77L1058.83 354.322C1059.23 353.557 1060.04 352.912 1061.29 352.912C1063.16 352.912 1063.96 354.082 1063.96 355.837V360.817H1062.32V356.242C1062.32 354.982 1061.86 354.277 1060.73 354.277C1059.59 354.277 1058.83 355.117 1058.83 356.497V360.817ZM1068.78 363.562C1066.65 363.562 1065.45 362.617 1065.29 361.267H1067.09C1067.18 361.942 1067.76 362.317 1068.87 362.317C1070.15 362.317 1070.91 361.687 1070.91 360.472V359.332C1070.51 360.082 1069.64 360.697 1068.44 360.697C1066.38 360.697 1065.09 359.077 1065.09 356.947V356.647C1065.09 354.502 1066.37 352.912 1068.39 352.912C1069.71 352.912 1070.6 353.632 1070.99 354.367L1071.03 353.092H1072.56V360.322C1072.56 362.317 1071.23 363.562 1068.78 363.562ZM1068.84 359.377C1070.21 359.377 1070.97 358.417 1070.97 356.947V356.647C1070.97 355.147 1070.22 354.217 1068.84 354.217C1067.51 354.217 1066.77 355.147 1066.77 356.647V356.947C1066.77 358.417 1067.52 359.377 1068.84 359.377ZM1077.06 361.012C1075.07 361.012 1073.82 360.067 1073.67 358.417H1075.26C1075.4 359.332 1076.06 359.767 1077.08 359.767C1078.01 359.767 1078.64 359.392 1078.64 358.702C1078.64 358.087 1078.2 357.787 1076.73 357.517C1074.86 357.202 1073.94 356.602 1073.94 355.222C1073.94 353.842 1075.19 352.912 1076.96 352.912C1078.82 352.912 1079.97 353.797 1080.12 355.327H1078.55C1078.43 354.547 1077.83 354.127 1076.94 354.127C1076.09 354.127 1075.53 354.502 1075.53 355.132C1075.53 355.732 1075.97 356.017 1077.38 356.242C1079.33 356.557 1080.27 357.202 1080.27 358.552C1080.27 360.022 1079 361.012 1077.06 361.012ZM1085.83 360.817H1084.1V350.167H1088.44C1090.58 350.167 1092.08 351.277 1092.08 353.347V353.587C1092.08 355.657 1090.58 356.767 1088.44 356.767H1085.83V360.817ZM1085.83 351.637V355.297H1088.3C1089.5 355.297 1090.3 354.757 1090.3 353.587V353.347C1090.3 352.177 1089.5 351.637 1088.3 351.637H1085.83ZM1094.9 361.012C1093.31 361.012 1092.31 360.052 1092.31 358.732C1092.31 357.502 1093.06 356.692 1094.38 356.512L1097.42 356.062V355.507C1097.42 354.652 1096.84 354.202 1095.86 354.202C1094.9 354.202 1094.26 354.637 1094.18 355.417H1092.61C1092.74 353.827 1094 352.912 1095.89 352.912C1097.89 352.912 1099.01 353.962 1099.01 355.567V360.817H1097.5L1097.44 359.617C1096.96 360.487 1096.01 361.012 1094.9 361.012ZM1095.28 359.707C1096.43 359.707 1097.42 358.987 1097.42 357.982V357.277L1094.95 357.622C1094.24 357.727 1093.91 358.057 1093.91 358.657C1093.91 359.302 1094.41 359.707 1095.28 359.707ZM1103.85 363.562C1101.72 363.562 1100.52 362.617 1100.35 361.267H1102.15C1102.24 361.942 1102.83 362.317 1103.94 362.317C1105.21 362.317 1105.98 361.687 1105.98 360.472V359.332C1105.57 360.082 1104.7 360.697 1103.5 360.697C1101.45 360.697 1100.16 359.077 1100.16 356.947V356.647C1100.16 354.502 1101.43 352.912 1103.46 352.912C1104.78 352.912 1105.66 353.632 1106.05 354.367L1106.1 353.092H1107.63V360.322C1107.63 362.317 1106.29 363.562 1103.85 363.562ZM1103.91 359.377C1105.27 359.377 1106.04 358.417 1106.04 356.947V356.647C1106.04 355.147 1105.29 354.217 1103.91 354.217C1102.57 354.217 1101.84 355.147 1101.84 356.647V356.947C1101.84 358.417 1102.59 359.377 1103.91 359.377ZM1112.63 361.012C1110.23 361.012 1108.81 359.407 1108.81 357.067V356.842C1108.81 354.502 1110.26 352.912 1112.63 352.912C1115.17 352.912 1116.4 354.682 1116.28 357.322H1110.5C1110.58 358.867 1111.33 359.692 1112.63 359.692C1113.71 359.692 1114.36 359.182 1114.58 358.402H1116.23C1115.86 360.022 1114.57 361.012 1112.63 361.012ZM1110.53 356.137H1114.58C1114.46 354.937 1113.83 354.217 1112.62 354.217C1111.42 354.217 1110.71 354.877 1110.53 356.137Z" fill="black" fill-opacity="0.8"/>
<rect x="1195.62" y="452.632" width="170.422" height="98.6656" rx="10" fill="#A29CFF"/>
<path d="M1266.25 507.327C1263.7 507.327 1262 506.037 1261.88 503.757H1263.62C1263.77 505.242 1264.85 505.872 1266.32 505.872C1267.66 505.872 1268.62 505.347 1268.62 504.282V504.207C1268.62 503.292 1267.97 502.827 1265.81 502.437C1263.19 501.972 1262.26 500.997 1262.26 499.407V499.302C1262.26 497.562 1263.77 496.287 1266.1 496.287C1268.33 496.287 1269.95 497.397 1270.16 499.572H1268.41C1268.26 498.342 1267.39 497.727 1266.07 497.727C1264.75 497.727 1263.97 498.327 1263.97 499.257V499.332C1263.97 500.157 1264.42 500.622 1266.53 500.982C1269.08 501.417 1270.34 502.302 1270.34 504.042V504.162C1270.34 506.007 1268.77 507.327 1266.25 507.327ZM1273.13 507.132H1271.48V496.032H1273.15V500.592C1273.57 499.827 1274.36 499.227 1275.59 499.227C1277.47 499.227 1278.26 500.397 1278.26 502.152V507.132H1276.63V502.557C1276.63 501.297 1276.16 500.592 1275.04 500.592C1273.9 500.592 1273.13 501.432 1273.13 502.812V507.132ZM1281.95 507.327C1280.36 507.327 1279.35 506.367 1279.35 505.047C1279.35 503.817 1280.1 503.007 1281.42 502.827L1284.47 502.377V501.822C1284.47 500.967 1283.88 500.517 1282.91 500.517C1281.95 500.517 1281.3 500.952 1281.23 501.732H1279.65C1279.79 500.142 1281.05 499.227 1282.94 499.227C1284.93 499.227 1286.06 500.277 1286.06 501.882V507.132H1284.54L1284.48 505.932C1284 506.802 1283.06 507.327 1281.95 507.327ZM1282.32 506.022C1283.48 506.022 1284.47 505.302 1284.47 504.297V503.592L1281.99 503.937C1281.29 504.042 1280.96 504.372 1280.96 504.972C1280.96 505.617 1281.45 506.022 1282.32 506.022ZM1289.15 507.132H1287.5V499.407H1289.09L1289.14 500.907C1289.56 499.917 1290.37 499.257 1291.48 499.257C1291.6 499.257 1291.76 499.272 1291.9 499.302V500.907C1291.75 500.892 1291.57 500.877 1291.39 500.877C1289.99 500.877 1289.15 501.672 1289.15 503.202V507.132ZM1296.09 507.327C1293.69 507.327 1292.26 505.722 1292.26 503.382V503.157C1292.26 500.817 1293.72 499.227 1296.09 499.227C1298.62 499.227 1299.85 500.997 1299.73 503.637H1293.96C1294.03 505.182 1294.78 506.007 1296.09 506.007C1297.17 506.007 1297.81 505.497 1298.04 504.717H1299.69C1299.31 506.337 1298.02 507.327 1296.09 507.327ZM1293.99 502.452H1298.04C1297.92 501.252 1297.29 500.532 1296.07 500.532C1294.87 500.532 1294.17 501.192 1293.99 502.452Z" fill="black" fill-opacity="0.8"/>
<rect x="289.694" y="598.95" width="170.422" height="98.6656" rx="10" fill="#A29CFF"/>
<path d="M330.609 641.95H328.884V631.3H333.369C335.514 631.3 337.014 632.41 337.014 634.48V634.72C337.014 636.4 336.039 637.435 334.509 637.765L337.239 641.95H335.244L332.664 637.9H330.609V641.95ZM330.609 632.77V636.43H333.234C334.434 636.43 335.229 635.89 335.229 634.72V634.48C335.229 633.31 334.434 632.77 333.234 632.77H330.609ZM341.398 642.145C338.998 642.145 337.573 640.54 337.573 638.2V637.975C337.573 635.635 339.028 634.045 341.398 634.045C343.933 634.045 345.163 635.815 345.043 638.455H339.268C339.343 640 340.093 640.825 341.398 640.825C342.478 640.825 343.123 640.315 343.348 639.535H344.998C344.623 641.155 343.333 642.145 341.398 642.145ZM339.298 637.27H343.348C343.228 636.07 342.598 635.35 341.383 635.35C340.183 635.35 339.478 636.01 339.298 637.27ZM349.388 642.145C347.693 642.145 346.853 641.365 346.853 639.865V635.47H345.353V634.225H346.853V631.81H348.503V634.225H350.603V635.47H348.503V639.685C348.503 640.45 348.788 640.795 349.703 640.795C350.033 640.795 350.423 640.72 350.648 640.645V641.965C350.303 642.07 349.778 642.145 349.388 642.145ZM354.362 642.145C352.562 642.145 351.692 641.005 351.692 639.19V634.225H353.357V638.875C353.357 640.06 353.792 640.765 354.902 640.765C356.042 640.765 356.717 639.895 356.717 638.515V634.225H358.382V641.95H356.777L356.747 640.78C356.297 641.53 355.472 642.145 354.362 642.145ZM361.513 641.95H359.863V634.225H361.453L361.498 635.725C361.918 634.735 362.728 634.075 363.838 634.075C363.958 634.075 364.123 634.09 364.258 634.12V635.725C364.108 635.71 363.928 635.695 363.748 635.695C362.353 635.695 361.513 636.49 361.513 638.02V641.95ZM366.9 641.95H365.25V634.225H366.84L366.9 635.455C367.305 634.69 368.115 634.045 369.36 634.045C371.235 634.045 372.03 635.215 372.03 636.97V641.95H370.395V637.375C370.395 636.115 369.93 635.41 368.805 635.41C367.665 635.41 366.9 636.25 366.9 637.63V641.95ZM379.457 642.145C377.762 642.145 376.922 641.365 376.922 639.865V635.47H375.422V634.225H376.922V631.81H378.572V634.225H380.672V635.47H378.572V639.685C378.572 640.45 378.857 640.795 379.772 640.795C380.102 640.795 380.492 640.72 380.717 640.645V641.965C380.372 642.07 379.847 642.145 379.457 642.145ZM385.155 642.145C382.845 642.145 381.345 640.555 381.345 638.2V637.975C381.345 635.62 382.845 634.045 385.155 634.045C387.48 634.045 388.98 635.62 388.98 637.975V638.2C388.98 640.555 387.48 642.145 385.155 642.145ZM385.155 640.81C386.565 640.81 387.3 639.865 387.3 638.2V637.975C387.3 636.31 386.565 635.38 385.155 635.38C383.76 635.38 383.025 636.31 383.025 637.975V638.2C383.025 639.865 383.76 640.81 385.155 640.81ZM394.584 641.95H392.859V631.3H397.194C399.339 631.3 400.839 632.41 400.839 634.48V634.72C400.839 636.79 399.339 637.9 397.194 637.9H394.584V641.95ZM394.584 632.77V636.43H397.059C398.259 636.43 399.054 635.89 399.054 634.72V634.48C399.054 633.31 398.259 632.77 397.059 632.77H394.584ZM404.948 642.145C402.638 642.145 401.138 640.555 401.138 638.2V637.975C401.138 635.62 402.638 634.045 404.948 634.045C407.273 634.045 408.773 635.62 408.773 637.975V638.2C408.773 640.555 407.273 642.145 404.948 642.145ZM404.948 640.81C406.358 640.81 407.093 639.865 407.093 638.2V637.975C407.093 636.31 406.358 635.38 404.948 635.38C403.553 635.38 402.818 636.31 402.818 637.975V638.2C402.818 639.865 403.553 640.81 404.948 640.81ZM412.784 642.145C410.789 642.145 409.544 641.2 409.394 639.55H410.984C411.119 640.465 411.779 640.9 412.799 640.9C413.729 640.9 414.359 640.525 414.359 639.835C414.359 639.22 413.924 638.92 412.454 638.65C410.579 638.335 409.664 637.735 409.664 636.355C409.664 634.975 410.909 634.045 412.679 634.045C414.539 634.045 415.694 634.93 415.844 636.46H414.269C414.149 635.68 413.549 635.26 412.664 635.26C411.809 635.26 411.254 635.635 411.254 636.265C411.254 636.865 411.689 637.15 413.099 637.375C415.049 637.69 415.994 638.335 415.994 639.685C415.994 641.155 414.719 642.145 412.784 642.145ZM420.288 642.145C418.593 642.145 417.753 641.365 417.753 639.865V635.47H416.253V634.225H417.753V631.81H419.403V634.225H421.503V635.47H419.403V639.685C419.403 640.45 419.688 640.795 420.603 640.795C420.933 640.795 421.323 640.72 421.548 640.645V641.965C421.203 642.07 420.678 642.145 420.288 642.145ZM333.536 665.145C330.986 665.145 329.291 663.855 329.171 661.575H330.911C331.061 663.06 332.141 663.69 333.611 663.69C334.946 663.69 335.906 663.165 335.906 662.1V662.025C335.906 661.11 335.261 660.645 333.101 660.255C330.476 659.79 329.546 658.815 329.546 657.225V657.12C329.546 655.38 331.061 654.105 333.386 654.105C335.621 654.105 337.241 655.215 337.451 657.39H335.696C335.546 656.16 334.676 655.545 333.356 655.545C332.036 655.545 331.256 656.145 331.256 657.075V657.15C331.256 657.975 331.706 658.44 333.821 658.8C336.371 659.235 337.631 660.12 337.631 661.86V661.98C337.631 663.825 336.056 665.145 333.536 665.145ZM342.295 665.145C339.895 665.145 338.47 663.54 338.47 661.2V660.975C338.47 658.635 339.925 657.045 342.295 657.045C344.83 657.045 346.06 658.815 345.94 661.455H340.165C340.24 663 340.99 663.825 342.295 663.825C343.375 663.825 344.02 663.315 344.245 662.535H345.895C345.52 664.155 344.23 665.145 342.295 665.145ZM340.195 660.27H344.245C344.125 659.07 343.495 658.35 342.28 658.35C341.08 658.35 340.375 659.01 340.195 660.27ZM350.286 665.145C348.591 665.145 347.751 664.365 347.751 662.865V658.47H346.251V657.225H347.751V654.81H349.401V657.225H351.501V658.47H349.401V662.685C349.401 663.45 349.686 663.795 350.601 663.795C350.931 663.795 351.321 663.72 351.546 663.645V664.965C351.201 665.07 350.676 665.145 350.286 665.145ZM355.995 665.145C354.3 665.145 353.46 664.365 353.46 662.865V658.47H351.96V657.225H353.46V654.81H355.11V657.225H357.21V658.47H355.11V662.685C355.11 663.45 355.395 663.795 356.31 663.795C356.64 663.795 357.03 663.72 357.255 663.645V664.965C356.91 665.07 356.385 665.145 355.995 665.145ZM360.053 653.85V656.1H358.328V653.85H360.053ZM358.358 657.225H360.008V664.95H358.358V657.225ZM363.139 664.95H361.489V657.225H363.079L363.139 658.455C363.544 657.69 364.354 657.045 365.599 657.045C367.474 657.045 368.269 658.215 368.269 659.97V664.95H366.634V660.375C366.634 659.115 366.169 658.41 365.044 658.41C363.904 658.41 363.139 659.25 363.139 660.63V664.95ZM373.093 667.695C370.963 667.695 369.763 666.75 369.598 665.4H371.398C371.488 666.075 372.073 666.45 373.183 666.45C374.458 666.45 375.223 665.82 375.223 664.605V663.465C374.818 664.215 373.948 664.83 372.748 664.83C370.693 664.83 369.403 663.21 369.403 661.08V660.78C369.403 658.635 370.678 657.045 372.703 657.045C374.023 657.045 374.908 657.765 375.298 658.5L375.343 657.225H376.873V664.455C376.873 666.45 375.538 667.695 373.093 667.695ZM373.153 663.51C374.518 663.51 375.283 662.55 375.283 661.08V660.78C375.283 659.28 374.533 658.35 373.153 658.35C371.818 658.35 371.083 659.28 371.083 660.78V661.08C371.083 662.55 371.833 663.51 373.153 663.51ZM381.371 665.145C379.376 665.145 378.131 664.2 377.981 662.55H379.571C379.706 663.465 380.366 663.9 381.386 663.9C382.316 663.9 382.946 663.525 382.946 662.835C382.946 662.22 382.511 661.92 381.041 661.65C379.166 661.335 378.251 660.735 378.251 659.355C378.251 657.975 379.496 657.045 381.266 657.045C383.126 657.045 384.281 657.93 384.431 659.46H382.856C382.736 658.68 382.136 658.26 381.251 658.26C380.396 658.26 379.841 658.635 379.841 659.265C379.841 659.865 380.276 660.15 381.686 660.375C383.636 660.69 384.581 661.335 384.581 662.685C384.581 664.155 383.306 665.145 381.371 665.145ZM390.139 664.95H388.414V654.3H392.749C394.894 654.3 396.394 655.41 396.394 657.48V657.72C396.394 659.79 394.894 660.9 392.749 660.9H390.139V664.95ZM390.139 655.77V659.43H392.614C393.814 659.43 394.609 658.89 394.609 657.72V657.48C394.609 656.31 393.814 655.77 392.614 655.77H390.139ZM399.213 665.145C397.623 665.145 396.618 664.185 396.618 662.865C396.618 661.635 397.368 660.825 398.688 660.645L401.733 660.195V659.64C401.733 658.785 401.148 658.335 400.173 658.335C399.213 658.335 398.568 658.77 398.493 659.55H396.918C397.053 657.96 398.313 657.045 400.203 657.045C402.198 657.045 403.323 658.095 403.323 659.7V664.95H401.808L401.748 663.75C401.268 664.62 400.323 665.145 399.213 665.145ZM399.588 663.84C400.743 663.84 401.733 663.12 401.733 662.115V661.41L399.258 661.755C398.553 661.86 398.223 662.19 398.223 662.79C398.223 663.435 398.718 663.84 399.588 663.84ZM408.156 667.695C406.026 667.695 404.826 666.75 404.661 665.4H406.461C406.551 666.075 407.136 666.45 408.246 666.45C409.521 666.45 410.286 665.82 410.286 664.605V663.465C409.881 664.215 409.011 664.83 407.811 664.83C405.756 664.83 404.466 663.21 404.466 661.08V660.78C404.466 658.635 405.741 657.045 407.766 657.045C409.086 657.045 409.971 657.765 410.361 658.5L410.406 657.225H411.936V664.455C411.936 666.45 410.601 667.695 408.156 667.695ZM408.216 663.51C409.581 663.51 410.346 662.55 410.346 661.08V660.78C410.346 659.28 409.596 658.35 408.216 658.35C406.881 658.35 406.146 659.28 406.146 660.78V661.08C406.146 662.55 406.896 663.51 408.216 663.51ZM416.945 665.145C414.545 665.145 413.12 663.54 413.12 661.2V660.975C413.12 658.635 414.575 657.045 416.945 657.045C419.48 657.045 420.71 658.815 420.59 661.455H414.815C414.89 663 415.64 663.825 416.945 663.825C418.025 663.825 418.67 663.315 418.895 662.535H420.545C420.17 664.155 418.88 665.145 416.945 665.145ZM414.845 660.27H418.895C418.775 659.07 418.145 658.35 416.93 658.35C415.73 658.35 415.025 659.01 414.845 660.27Z" fill="black" fill-opacity="0.8"/>
<rect x="516.177" y="598.95" width="170.422" height="98.6656" rx="10" fill="#A29CFF"/>
<path d="M563.945 653.45H562.19V644.255H559.055V642.8H567.095V644.255H563.945V653.45ZM570.091 656H568.396L569.386 653.405L566.416 645.725H568.171L570.256 651.59L572.266 645.725H573.961L570.091 656ZM576.457 656H574.792V645.725H576.337L576.382 647C576.757 646.265 577.657 645.545 578.977 645.545C581.002 645.545 582.277 647.165 582.277 649.475V649.7C582.277 652.01 580.972 653.645 578.932 653.645C577.732 653.645 576.877 653.015 576.457 652.28V656ZM578.527 652.31C579.847 652.31 580.597 651.365 580.597 649.7V649.475C580.597 647.81 579.847 646.85 578.527 646.85C577.147 646.85 576.397 647.81 576.397 649.475V649.7C576.397 651.365 577.147 652.31 578.527 652.31ZM586.985 653.645C584.585 653.645 583.16 652.04 583.16 649.7V649.475C583.16 647.135 584.615 645.545 586.985 645.545C589.52 645.545 590.75 647.315 590.63 649.955H584.855C584.93 651.5 585.68 652.325 586.985 652.325C588.065 652.325 588.71 651.815 588.935 651.035H590.585C590.21 652.655 588.92 653.645 586.985 653.645ZM584.885 648.77H588.935C588.815 647.57 588.185 646.85 586.97 646.85C585.77 646.85 585.065 647.51 584.885 648.77ZM603.874 653.45H602.029L601.084 650.855H596.509L595.549 653.45H593.779L597.874 642.8H599.779L603.874 653.45ZM598.804 644.66L597.049 649.4H600.544L598.804 644.66ZM604.718 642.35H606.368V653.45H604.718V642.35ZM611.253 653.645C609.558 653.645 608.718 652.865 608.718 651.365V646.97H607.218V645.725H608.718V643.31H610.368V645.725H612.468V646.97H610.368V651.185C610.368 651.95 610.653 652.295 611.568 652.295C611.898 652.295 612.288 652.22 612.513 652.145V653.465C612.168 653.57 611.643 653.645 611.253 653.645ZM620.615 653.45H618.86V644.255H615.725V642.8H623.765V644.255H620.615V653.45ZM626.963 653.645C624.563 653.645 623.138 652.04 623.138 649.7V649.475C623.138 647.135 624.593 645.545 626.963 645.545C629.498 645.545 630.728 647.315 630.608 649.955H624.833C624.908 651.5 625.658 652.325 626.963 652.325C628.043 652.325 628.688 651.815 628.913 651.035H630.563C630.188 652.655 628.898 653.645 626.963 653.645ZM624.863 648.77H628.913C628.793 647.57 628.163 646.85 626.948 646.85C625.748 646.85 625.043 647.51 624.863 648.77ZM632.411 653.45H630.611L633.401 649.49L630.746 645.725H632.651L634.406 648.305L636.176 645.725H637.976L635.321 649.445L638.141 653.45H636.236L634.301 650.63L632.411 653.45ZM642.332 653.645C640.637 653.645 639.797 652.865 639.797 651.365V646.97H638.297V645.725H639.797V643.31H641.447V645.725H643.547V646.97H641.447V651.185C641.447 651.95 641.732 652.295 642.647 652.295C642.977 652.295 643.367 652.22 643.592 652.145V653.465C643.247 653.57 642.722 653.645 642.332 653.645Z" fill="black" fill-opacity="0.8"/>
<rect x="742.659" y="598.95" width="170.422" height="98.6656" rx="10" fill="#A29CFF"/>
<path d="M768.771 642.145C765.756 642.145 763.791 639.97 763.791 636.805V636.445C763.791 633.31 765.771 631.105 768.786 631.105C771.351 631.105 773.076 632.725 773.286 635.17H771.516C771.306 633.565 770.286 632.605 768.771 632.605C766.776 632.605 765.591 634.18 765.591 636.445V636.805C765.591 639.07 766.791 640.63 768.771 640.63C770.391 640.63 771.426 639.55 771.501 637.93H773.286C773.121 640.36 771.426 642.145 768.771 642.145ZM774.384 630.85H776.034V641.95H774.384V630.85ZM779.21 630.85V633.1H777.485V630.85H779.21ZM777.515 634.225H779.165V641.95H777.515V634.225ZM784.066 642.145C781.726 642.145 780.346 640.54 780.346 638.2V637.975C780.346 635.635 781.726 634.045 784.081 634.045C786.016 634.045 787.291 635.185 787.501 636.97H785.881C785.716 635.995 785.146 635.38 784.051 635.38C782.716 635.38 782.026 636.31 782.026 637.975V638.2C782.026 639.865 782.716 640.81 784.051 640.81C785.146 640.81 785.731 640.165 785.896 639.19H787.531C787.276 641.005 786.001 642.145 784.066 642.145ZM791.026 638.335L790.261 639.1V641.95H788.611V630.85H790.261V637.315L793.291 634.225H795.286L792.211 637.315L795.391 641.95H793.501L791.026 638.335ZM803.645 641.95H800.78L798.035 631.3H800.66L802.295 638.77L804.17 631.3H806.765L808.595 638.83L810.26 631.3H812.735L809.96 641.95H807.185L805.415 634.765L803.645 641.95ZM815.416 641.95H813.016V634.195H815.311L815.356 635.71C815.716 634.81 816.451 634.06 817.621 634.06C817.786 634.06 817.966 634.075 818.101 634.105V636.4C817.936 636.385 817.696 636.37 817.471 636.37C816.076 636.37 815.416 637.06 815.416 638.335V641.95ZM821.375 630.85V633.265H818.885V630.85H821.375ZM818.93 634.195H821.33V641.95H818.93V634.195ZM826.308 642.145C824.343 642.145 823.443 641.275 823.443 639.61V635.92H822.033V634.195H823.443V631.72H825.843V634.195H827.793V635.92H825.843V639.445C825.843 640.06 826.143 640.315 826.893 640.315C827.253 640.315 827.553 640.24 827.823 640.165V641.95C827.418 642.07 826.818 642.145 826.308 642.145ZM832.415 642.145C829.88 642.145 828.32 640.57 828.32 638.14V637.99C828.32 635.605 829.925 634 832.415 634C835.115 634 836.465 635.89 836.3 638.62H830.705C830.81 639.805 831.365 640.375 832.4 640.375C833.255 640.375 833.735 639.955 833.9 639.46H836.255C835.88 641.095 834.485 642.145 832.415 642.145ZM830.735 637.225H833.885C833.825 636.34 833.345 635.77 832.385 635.77C831.425 635.77 830.9 636.22 830.735 637.225ZM849.944 641.95H847.289L846.554 639.835H842.474L841.739 641.95H839.174L843.179 631.3H845.939L849.944 641.95ZM844.514 633.925L843.164 637.855H845.879L844.514 633.925ZM850.595 630.85H852.995V641.95H850.595V630.85ZM858.003 642.145C856.038 642.145 855.138 641.275 855.138 639.61V635.92H853.728V634.195H855.138V631.72H857.538V634.195H859.488V635.92H857.538V639.445C857.538 640.06 857.838 640.315 858.588 640.315C858.948 640.315 859.248 640.24 859.518 640.165V641.95C859.113 642.07 858.513 642.145 858.003 642.145ZM868.017 641.95H865.482V633.355H862.542V631.3H870.942V633.355H868.017V641.95ZM874.488 642.145C871.953 642.145 870.393 640.57 870.393 638.14V637.99C870.393 635.605 871.998 634 874.488 634C877.188 634 878.538 635.89 878.373 638.62H872.778C872.883 639.805 873.438 640.375 874.473 640.375C875.328 640.375 875.808 639.955 875.973 639.46H878.328C877.953 641.095 876.558 642.145 874.488 642.145ZM872.808 637.225H875.958C875.898 636.34 875.418 635.77 874.458 635.77C873.498 635.77 872.973 636.22 872.808 637.225ZM880.651 641.95H878.101L880.861 637.975L878.236 634.195H880.951L882.316 636.31L883.696 634.195H886.246L883.636 637.945L886.411 641.95H883.696L882.181 639.61L880.651 641.95ZM890.737 642.145C888.772 642.145 887.872 641.275 887.872 639.61V635.92H886.462V634.195H887.872V631.72H890.272V634.195H892.222V635.92H890.272V639.445C890.272 640.06 890.572 640.315 891.322 640.315C891.682 640.315 891.982 640.24 892.252 640.165V641.95C891.847 642.07 891.247 642.145 890.737 642.145ZM809.483 665.145C808.238 665.145 807.428 664.425 807.113 663.705L807.038 664.95H804.803V653.85H807.218V658.215C807.653 657.525 808.448 657 809.558 657C811.643 657 812.873 658.725 812.873 660.99V661.14C812.873 663.45 811.583 665.145 809.483 665.145ZM808.793 663.33C809.903 663.33 810.443 662.565 810.443 661.14V660.99C810.443 659.55 809.903 658.8 808.793 658.8C807.683 658.8 807.143 659.55 807.143 660.99V661.14C807.143 662.565 807.683 663.33 808.793 663.33ZM816.477 665.145C814.617 665.145 813.777 663.975 813.777 662.13V657.195H816.192V661.665C816.192 662.7 816.567 663.225 817.377 663.225C818.217 663.225 818.772 662.625 818.772 661.41V657.195H821.187V664.95H818.877L818.817 663.84C818.397 664.5 817.602 665.145 816.477 665.145ZM826.167 665.145C824.202 665.145 823.302 664.275 823.302 662.61V658.92H821.892V657.195H823.302V654.72H825.702V657.195H827.652V658.92H825.702V662.445C825.702 663.06 826.002 663.315 826.752 663.315C827.112 663.315 827.412 663.24 827.682 663.165V664.95C827.277 665.07 826.677 665.145 826.167 665.145ZM832.36 665.145C830.395 665.145 829.495 664.275 829.495 662.61V658.92H828.085V657.195H829.495V654.72H831.895V657.195H833.845V658.92H831.895V662.445C831.895 663.06 832.195 663.315 832.945 663.315C833.305 663.315 833.605 663.24 833.875 663.165V664.95C833.47 665.07 832.87 665.145 832.36 665.145ZM838.437 665.145C835.992 665.145 834.372 663.495 834.372 661.14V660.99C834.372 658.65 835.992 657 838.437 657C840.897 657 842.502 658.65 842.502 660.99V661.14C842.502 663.495 840.897 665.145 838.437 665.145ZM838.437 663.315C839.577 663.315 840.072 662.565 840.072 661.14V660.99C840.072 659.58 839.577 658.83 838.437 658.83C837.312 658.83 836.802 659.58 836.802 660.99V661.14C836.802 662.565 837.312 663.315 838.437 663.315ZM845.9 664.95H843.5V657.195H845.795L845.855 658.38C846.23 657.69 846.995 657 848.3 657C850.265 657 851 658.245 851 659.97V664.95H848.6V660.585C848.6 659.535 848.27 658.92 847.355 658.92C846.485 658.92 845.9 659.55 845.9 660.69V664.95Z" fill="black" fill-opacity="0.8"/>
<rect x="969.141" y="598.95" width="170.422" height="98.6656" rx="10" fill="#A29CFF"/>
<path d="M1001.63 653.45H999.788L998.843 650.855H994.268L993.308 653.45H991.538L995.633 642.8H997.538L1001.63 653.45ZM996.563 644.66L994.808 649.4H998.303L996.563 644.66ZM1005.26 653.645C1003.23 653.645 1001.93 652.01 1001.93 649.7V649.475C1001.93 647.18 1003.19 645.545 1005.23 645.545C1006.46 645.545 1007.3 646.13 1007.75 646.85V642.35H1009.4V653.45H1007.87L1007.82 652.16C1007.45 652.895 1006.58 653.645 1005.26 653.645ZM1005.68 652.31C1007.06 652.31 1007.81 651.365 1007.81 649.7V649.475C1007.81 647.81 1007.04 646.85 1005.68 646.85C1004.36 646.85 1003.61 647.81 1003.61 649.475V649.7C1003.61 651.35 1004.34 652.31 1005.68 652.31ZM1014.93 653.45H1013.1L1010.24 645.725H1011.98L1014.05 651.77L1016.09 645.725H1017.78L1014.93 653.45ZM1020.5 653.645C1018.91 653.645 1017.9 652.685 1017.9 651.365C1017.9 650.135 1018.65 649.325 1019.97 649.145L1023.02 648.695V648.14C1023.02 647.285 1022.43 646.835 1021.46 646.835C1020.5 646.835 1019.85 647.27 1019.78 648.05H1018.2C1018.34 646.46 1019.6 645.545 1021.49 645.545C1023.48 645.545 1024.61 646.595 1024.61 648.2V653.45H1023.09L1023.03 652.25C1022.55 653.12 1021.61 653.645 1020.5 653.645ZM1020.87 652.34C1022.03 652.34 1023.02 651.62 1023.02 650.615V649.91L1020.54 650.255C1019.84 650.36 1019.51 650.69 1019.51 651.29C1019.51 651.935 1020 652.34 1020.87 652.34ZM1027.7 653.45H1026.05V645.725H1027.64L1027.7 646.955C1028.1 646.19 1028.91 645.545 1030.16 645.545C1032.03 645.545 1032.83 646.715 1032.83 648.47V653.45H1031.19V648.875C1031.19 647.615 1030.73 646.91 1029.6 646.91C1028.46 646.91 1027.7 647.75 1027.7 649.13V653.45ZM1037.68 653.645C1035.34 653.645 1033.96 652.04 1033.96 649.7V649.475C1033.96 647.135 1035.34 645.545 1037.7 645.545C1039.63 645.545 1040.91 646.685 1041.12 648.47H1039.5C1039.33 647.495 1038.76 646.88 1037.67 646.88C1036.33 646.88 1035.64 647.81 1035.64 649.475V649.7C1035.64 651.365 1036.33 652.31 1037.67 652.31C1038.76 652.31 1039.35 651.665 1039.51 650.69H1041.15C1040.89 652.505 1039.62 653.645 1037.68 653.645ZM1045.72 653.645C1043.32 653.645 1041.9 652.04 1041.9 649.7V649.475C1041.9 647.135 1043.35 645.545 1045.72 645.545C1048.26 645.545 1049.49 647.315 1049.37 649.955H1043.59C1043.67 651.5 1044.42 652.325 1045.72 652.325C1046.8 652.325 1047.45 651.815 1047.67 651.035H1049.32C1048.95 652.655 1047.66 653.645 1045.72 653.645ZM1043.62 648.77H1047.67C1047.55 647.57 1046.92 646.85 1045.71 646.85C1044.51 646.85 1043.8 647.51 1043.62 648.77ZM1053.57 653.645C1051.55 653.645 1050.24 652.01 1050.24 649.7V649.475C1050.24 647.18 1051.5 645.545 1053.54 645.545C1054.77 645.545 1055.61 646.13 1056.06 646.85V642.35H1057.71V653.45H1056.18L1056.14 652.16C1055.76 652.895 1054.89 653.645 1053.57 653.645ZM1053.99 652.31C1055.37 652.31 1056.12 651.365 1056.12 649.7V649.475C1056.12 647.81 1055.36 646.85 1053.99 646.85C1052.67 646.85 1051.92 647.81 1051.92 649.475V649.7C1051.92 651.35 1052.66 652.31 1053.99 652.31ZM1065.82 653.645C1063.27 653.645 1061.58 652.355 1061.46 650.075H1063.2C1063.35 651.56 1064.43 652.19 1065.9 652.19C1067.23 652.19 1068.19 651.665 1068.19 650.6V650.525C1068.19 649.61 1067.55 649.145 1065.39 648.755C1062.76 648.29 1061.83 647.315 1061.83 645.725V645.62C1061.83 643.88 1063.35 642.605 1065.67 642.605C1067.91 642.605 1069.53 643.715 1069.74 645.89H1067.98C1067.83 644.66 1066.96 644.045 1065.64 644.045C1064.32 644.045 1063.54 644.645 1063.54 645.575V645.65C1063.54 646.475 1063.99 646.94 1066.11 647.3C1068.66 647.735 1069.92 648.62 1069.92 650.36V650.48C1069.92 652.325 1068.34 653.645 1065.82 653.645ZM1074.58 653.645C1072.18 653.645 1070.76 652.04 1070.76 649.7V649.475C1070.76 647.135 1072.21 645.545 1074.58 645.545C1077.12 645.545 1078.35 647.315 1078.23 649.955H1072.45C1072.53 651.5 1073.28 652.325 1074.58 652.325C1075.66 652.325 1076.31 651.815 1076.53 651.035H1078.18C1077.81 652.655 1076.52 653.645 1074.58 653.645ZM1072.48 648.77H1076.53C1076.41 647.57 1075.78 646.85 1074.57 646.85C1073.37 646.85 1072.66 647.51 1072.48 648.77ZM1082.57 653.645C1080.88 653.645 1080.04 652.865 1080.04 651.365V646.97H1078.54V645.725H1080.04V643.31H1081.69V645.725H1083.79V646.97H1081.69V651.185C1081.69 651.95 1081.97 652.295 1082.89 652.295C1083.22 652.295 1083.61 652.22 1083.83 652.145V653.465C1083.49 653.57 1082.96 653.645 1082.57 653.645ZM1088.28 653.645C1086.58 653.645 1085.74 652.865 1085.74 651.365V646.97H1084.24V645.725H1085.74V643.31H1087.39V645.725H1089.49V646.97H1087.39V651.185C1087.39 651.95 1087.68 652.295 1088.59 652.295C1088.92 652.295 1089.31 652.22 1089.54 652.145V653.465C1089.19 653.57 1088.67 653.645 1088.28 653.645ZM1092.34 642.35V644.6H1090.61V642.35H1092.34ZM1090.64 645.725H1092.29V653.45H1090.64V645.725ZM1095.42 653.45H1093.77V645.725H1095.36L1095.42 646.955C1095.83 646.19 1096.64 645.545 1097.88 645.545C1099.76 645.545 1100.55 646.715 1100.55 648.47V653.45H1098.92V648.875C1098.92 647.615 1098.45 646.91 1097.33 646.91C1096.19 646.91 1095.42 647.75 1095.42 649.13V653.45ZM1105.38 656.195C1103.25 656.195 1102.05 655.25 1101.88 653.9H1103.68C1103.77 654.575 1104.36 654.95 1105.47 654.95C1106.74 654.95 1107.51 654.32 1107.51 653.105V651.965C1107.1 652.715 1106.23 653.33 1105.03 653.33C1102.98 653.33 1101.69 651.71 1101.69 649.58V649.28C1101.69 647.135 1102.96 645.545 1104.99 645.545C1106.31 645.545 1107.19 646.265 1107.58 647L1107.63 645.725H1109.16V652.955C1109.16 654.95 1107.82 656.195 1105.38 656.195ZM1105.44 652.01C1106.8 652.01 1107.57 651.05 1107.57 649.58V649.28C1107.57 647.78 1106.82 646.85 1105.44 646.85C1104.1 646.85 1103.37 647.78 1103.37 649.28V649.58C1103.37 651.05 1104.12 652.01 1105.44 652.01ZM1113.66 653.645C1111.66 653.645 1110.42 652.7 1110.27 651.05H1111.86C1111.99 651.965 1112.65 652.4 1113.67 652.4C1114.6 652.4 1115.23 652.025 1115.23 651.335C1115.23 650.72 1114.8 650.42 1113.33 650.15C1111.45 649.835 1110.54 649.235 1110.54 647.855C1110.54 646.475 1111.78 645.545 1113.55 645.545C1115.41 645.545 1116.57 646.43 1116.72 647.96H1115.14C1115.02 647.18 1114.42 646.76 1113.54 646.76C1112.68 646.76 1112.13 647.135 1112.13 647.765C1112.13 648.365 1112.56 648.65 1113.97 648.875C1115.92 649.19 1116.87 649.835 1116.87 651.185C1116.87 652.655 1115.59 653.645 1113.66 653.645Z" fill="black" fill-opacity="0.8"/>
<circle cx="101.333" cy="209.333" r="49.3328" fill="#EE7152"/>
<path d="M89.098 214.695C86.548 214.695 84.853 213.405 84.733 211.125H86.473C86.623 212.61 87.703 213.24 89.173 213.24C90.508 213.24 91.468 212.715 91.468 211.65V211.575C91.468 210.66 90.823 210.195 88.663 209.805C86.038 209.34 85.108 208.365 85.108 206.775V206.67C85.108 204.93 86.623 203.655 88.948 203.655C91.183 203.655 92.803 204.765 93.013 206.94H91.258C91.108 205.71 90.238 205.095 88.918 205.095C87.598 205.095 86.818 205.695 86.818 206.625V206.7C86.818 207.525 87.268 207.99 89.383 208.35C91.933 208.785 93.193 209.67 93.193 211.41V211.53C93.193 213.375 91.618 214.695 89.098 214.695ZM97.5022 214.695C95.8072 214.695 94.9672 213.915 94.9672 212.415V208.02H93.4672V206.775H94.9672V204.36H96.6172V206.775H98.7172V208.02H96.6172V212.235C96.6172 213 96.9022 213.345 97.8172 213.345C98.1472 213.345 98.5372 213.27 98.7622 213.195V214.515C98.4172 214.62 97.8922 214.695 97.5022 214.695ZM102.086 214.695C100.496 214.695 99.4912 213.735 99.4912 212.415C99.4912 211.185 100.241 210.375 101.561 210.195L104.606 209.745V209.19C104.606 208.335 104.021 207.885 103.046 207.885C102.086 207.885 101.441 208.32 101.366 209.1H99.7912C99.9262 207.51 101.186 206.595 103.076 206.595C105.071 206.595 106.196 207.645 106.196 209.25V214.5H104.681L104.621 213.3C104.141 214.17 103.196 214.695 102.086 214.695ZM102.461 213.39C103.616 213.39 104.606 212.67 104.606 211.665V210.96L102.131 211.305C101.426 211.41 101.096 211.74 101.096 212.34C101.096 212.985 101.591 213.39 102.461 213.39ZM109.29 214.5H107.64V206.775H109.23L109.275 208.275C109.695 207.285 110.505 206.625 111.615 206.625C111.735 206.625 111.9 206.64 112.035 206.67V208.275C111.885 208.26 111.705 208.245 111.525 208.245C110.13 208.245 109.29 209.04 109.29 210.57V214.5ZM116.695 214.695C115 214.695 114.16 213.915 114.16 212.415V208.02H112.66V206.775H114.16V204.36H115.81V206.775H117.91V208.02H115.81V212.235C115.81 213 116.095 213.345 117.01 213.345C117.34 213.345 117.73 213.27 117.955 213.195V214.515C117.61 214.62 117.085 214.695 116.695 214.695Z" fill="black" fill-opacity="0.8"/>
<path d="M251.817 161.757C254.16 159.414 257.959 159.414 260.302 161.757L303.635 205.09C305.978 207.433 305.978 211.232 303.635 213.575L260.302 256.908C257.959 259.251 254.16 259.251 251.817 256.908L208.484 213.575C206.141 211.232 206.141 207.433 208.484 205.09L251.817 161.757Z" fill="#22C182"/>
<path d="M241.955 205.117C240.254 205.117 239.372 204.181 239.372 202.561V198.61H240.425V202.534C240.425 203.632 240.929 204.199 241.955 204.199C242.972 204.199 243.494 203.632 243.494 202.525V198.61H244.538V202.552C244.538 204.163 243.665 205.117 241.955 205.117ZM246.451 206.53H245.452V200.365H246.379L246.406 201.13C246.631 200.689 247.171 200.257 247.963 200.257C249.178 200.257 249.943 201.229 249.943 202.615V202.75C249.943 204.136 249.16 205.117 247.936 205.117C247.216 205.117 246.703 204.739 246.451 204.298V206.53ZM247.693 204.316C248.485 204.316 248.935 203.749 248.935 202.75V202.615C248.935 201.616 248.485 201.04 247.693 201.04C246.865 201.04 246.415 201.616 246.415 202.615V202.75C246.415 203.749 246.865 204.316 247.693 204.316ZM250.652 198.34H251.642V205H250.652V198.34ZM254.637 205.117C253.251 205.117 252.351 204.163 252.351 202.75V202.615C252.351 201.202 253.251 200.257 254.637 200.257C256.032 200.257 256.932 201.202 256.932 202.615V202.75C256.932 204.163 256.032 205.117 254.637 205.117ZM254.637 204.316C255.483 204.316 255.924 203.749 255.924 202.75V202.615C255.924 201.616 255.483 201.058 254.637 201.058C253.8 201.058 253.359 201.616 253.359 202.615V202.75C253.359 203.749 253.8 204.316 254.637 204.316ZM258.976 205.117C258.022 205.117 257.419 204.541 257.419 203.749C257.419 203.011 257.869 202.525 258.661 202.417L260.488 202.147V201.814C260.488 201.301 260.137 201.031 259.552 201.031C258.976 201.031 258.589 201.292 258.544 201.76H257.599C257.68 200.806 258.436 200.257 259.57 200.257C260.767 200.257 261.442 200.887 261.442 201.85V205H260.533L260.497 204.28C260.209 204.802 259.642 205.117 258.976 205.117ZM259.201 204.334C259.894 204.334 260.488 203.902 260.488 203.299V202.876L259.003 203.083C258.58 203.146 258.382 203.344 258.382 203.704C258.382 204.091 258.679 204.334 259.201 204.334ZM264.126 205.117C262.911 205.117 262.128 204.136 262.128 202.75V202.615C262.128 201.238 262.884 200.257 264.108 200.257C264.846 200.257 265.35 200.608 265.62 201.04V198.34H266.61V205H265.692L265.665 204.226C265.44 204.667 264.918 205.117 264.126 205.117ZM264.378 204.316C265.206 204.316 265.656 203.749 265.656 202.75V202.615C265.656 201.616 265.197 201.04 264.378 201.04C263.586 201.04 263.136 201.616 263.136 202.615V202.75C263.136 203.74 263.577 204.316 264.378 204.316ZM270.421 205.117C269.467 205.117 268.864 204.541 268.864 203.749C268.864 203.011 269.314 202.525 270.106 202.417L271.933 202.147V201.814C271.933 201.301 271.582 201.031 270.997 201.031C270.421 201.031 270.034 201.292 269.989 201.76H269.044C269.125 200.806 269.881 200.257 271.015 200.257C272.212 200.257 272.887 200.887 272.887 201.85V205H271.978L271.942 204.28C271.654 204.802 271.087 205.117 270.421 205.117ZM270.646 204.334C271.339 204.334 271.933 203.902 271.933 203.299V202.876L270.448 203.083C270.025 203.146 269.827 203.344 269.827 203.704C269.827 204.091 270.124 204.334 270.646 204.334ZM243.54 220.53H242.541V214.365H243.468L243.495 215.13C243.72 214.689 244.26 214.257 245.052 214.257C246.267 214.257 247.032 215.229 247.032 216.615V216.75C247.032 218.136 246.249 219.117 245.025 219.117C244.305 219.117 243.792 218.739 243.54 218.298V220.53ZM244.782 218.316C245.574 218.316 246.024 217.749 246.024 216.75V216.615C246.024 215.616 245.574 215.04 244.782 215.04C243.954 215.04 243.504 215.616 243.504 216.615V216.75C243.504 217.749 243.954 218.316 244.782 218.316ZM248.732 219H247.742V212.34H248.741V215.076C248.993 214.617 249.47 214.257 250.208 214.257C251.333 214.257 251.81 214.959 251.81 216.012V219H250.829V216.255C250.829 215.499 250.55 215.076 249.875 215.076C249.191 215.076 248.732 215.58 248.732 216.408V219ZM254.776 219.117C253.39 219.117 252.49 218.163 252.49 216.75V216.615C252.49 215.202 253.39 214.257 254.776 214.257C256.171 214.257 257.071 215.202 257.071 216.615V216.75C257.071 218.163 256.171 219.117 254.776 219.117ZM254.776 218.316C255.622 218.316 256.063 217.749 256.063 216.75V216.615C256.063 215.616 255.622 215.058 254.776 215.058C253.939 215.058 253.498 215.616 253.498 216.615V216.75C253.498 217.749 253.939 218.316 254.776 218.316ZM259.685 219.117C258.668 219.117 258.164 218.649 258.164 217.749V215.112H257.264V214.365H258.164V212.916H259.154V214.365H260.414V215.112H259.154V217.641C259.154 218.1 259.325 218.307 259.874 218.307C260.072 218.307 260.306 218.262 260.441 218.217V219.009C260.234 219.072 259.919 219.117 259.685 219.117ZM263.104 219.117C261.718 219.117 260.818 218.163 260.818 216.75V216.615C260.818 215.202 261.718 214.257 263.104 214.257C264.499 214.257 265.399 215.202 265.399 216.615V216.75C265.399 218.163 264.499 219.117 263.104 219.117ZM263.104 218.316C263.95 218.316 264.391 217.749 264.391 216.75V216.615C264.391 215.616 263.95 215.058 263.104 215.058C262.267 215.058 261.826 215.616 261.826 216.615V216.75C261.826 217.749 262.267 218.316 263.104 218.316ZM267.965 217.2H266.912V217.047C266.912 215.472 268.829 215.481 268.829 214.374V214.284C268.829 213.717 268.397 213.348 267.74 213.348C267.02 213.348 266.543 213.735 266.453 214.5H265.409C265.535 213.168 266.498 212.493 267.731 212.493C269.018 212.493 269.882 213.258 269.882 214.275V214.338C269.882 215.994 267.965 215.841 267.965 217.119V217.2ZM267.983 219H266.903V217.875H267.983V219Z" fill="black" fill-opacity="0.8"/>
<rect x="361.451" y="160" width="170.422" height="98.6656" rx="10" fill="#A29CFF"/>
<path d="M405.824 214.695C402.809 214.695 400.844 212.52 400.844 209.355V208.995C400.844 205.86 402.824 203.655 405.839 203.655C408.404 203.655 410.129 205.275 410.339 207.72H408.569C408.359 206.115 407.339 205.155 405.824 205.155C403.829 205.155 402.644 206.73 402.644 208.995V209.355C402.644 211.62 403.844 213.18 405.824 213.18C407.444 213.18 408.479 212.1 408.554 210.48H410.339C410.174 212.91 408.479 214.695 405.824 214.695ZM411.437 203.4H413.087V214.5H411.437V203.4ZM416.263 203.4V205.65H414.538V203.4H416.263ZM414.568 206.775H416.218V214.5H414.568V206.775ZM421.119 214.695C418.779 214.695 417.399 213.09 417.399 210.75V210.525C417.399 208.185 418.779 206.595 421.134 206.595C423.069 206.595 424.344 207.735 424.554 209.52H422.934C422.769 208.545 422.199 207.93 421.104 207.93C419.769 207.93 419.079 208.86 419.079 210.525V210.75C419.079 212.415 419.769 213.36 421.104 213.36C422.199 213.36 422.784 212.715 422.949 211.74H424.584C424.329 213.555 423.054 214.695 421.119 214.695ZM428.079 210.885L427.314 211.65V214.5H425.664V203.4H427.314V209.865L430.344 206.775H432.339L429.264 209.865L432.444 214.5H430.554L428.079 210.885ZM440.067 212.94H438.132V210.015H435.402V208.14H438.132V205.215H440.067V208.14H442.797V210.015H440.067V212.94ZM450.877 214.695C449.632 214.695 448.822 213.975 448.507 213.255L448.432 214.5H446.197V203.4H448.612V207.765C449.047 207.075 449.842 206.55 450.952 206.55C453.037 206.55 454.267 208.275 454.267 210.54V210.69C454.267 213 452.977 214.695 450.877 214.695ZM450.187 212.88C451.297 212.88 451.837 212.115 451.837 210.69V210.54C451.837 209.1 451.297 208.35 450.187 208.35C449.077 208.35 448.537 209.1 448.537 210.54V210.69C448.537 212.115 449.077 212.88 450.187 212.88ZM457.871 214.695C456.011 214.695 455.171 213.525 455.171 211.68V206.745H457.586V211.215C457.586 212.25 457.961 212.775 458.771 212.775C459.611 212.775 460.166 212.175 460.166 210.96V206.745H462.581V214.5H460.271L460.211 213.39C459.791 214.05 458.996 214.695 457.871 214.695ZM467.561 214.695C465.596 214.695 464.696 213.825 464.696 212.16V208.47H463.286V206.745H464.696V204.27H467.096V206.745H469.046V208.47H467.096V211.995C467.096 212.61 467.396 212.865 468.146 212.865C468.506 212.865 468.806 212.79 469.076 212.715V214.5C468.671 214.62 468.071 214.695 467.561 214.695ZM473.753 214.695C471.788 214.695 470.888 213.825 470.888 212.16V208.47H469.478V206.745H470.888V204.27H473.288V206.745H475.238V208.47H473.288V211.995C473.288 212.61 473.588 212.865 474.338 212.865C474.698 212.865 474.998 212.79 475.268 212.715V214.5C474.863 214.62 474.263 214.695 473.753 214.695ZM479.83 214.695C477.385 214.695 475.765 213.045 475.765 210.69V210.54C475.765 208.2 477.385 206.55 479.83 206.55C482.29 206.55 483.895 208.2 483.895 210.54V210.69C483.895 213.045 482.29 214.695 479.83 214.695ZM479.83 212.865C480.97 212.865 481.465 212.115 481.465 210.69V210.54C481.465 209.13 480.97 208.38 479.83 208.38C478.705 208.38 478.195 209.13 478.195 210.54V210.69C478.195 212.115 478.705 212.865 479.83 212.865ZM487.293 214.5H484.893V206.745H487.188L487.248 207.93C487.623 207.24 488.388 206.55 489.693 206.55C491.658 206.55 492.393 207.795 492.393 209.52V214.5H489.993V210.135C489.993 209.085 489.663 208.47 488.748 208.47C487.878 208.47 487.293 209.1 487.293 210.24V214.5Z" fill="black" fill-opacity="0.8"/>
<rect x="587.934" y="160" width="170.422" height="98.6656" rx="10" fill="#A29CFF"/>
<path d="M624.346 203H622.621V192.35H626.956C629.101 192.35 630.601 193.46 630.601 195.53V195.77C630.601 197.84 629.101 198.95 626.956 198.95H624.346V203ZM624.346 193.82V197.48H626.821C628.021 197.48 628.816 196.94 628.816 195.77V195.53C628.816 194.36 628.021 193.82 626.821 193.82H624.346ZM633.304 203H631.654V191.9H633.319V196.46C633.739 195.695 634.534 195.095 635.764 195.095C637.639 195.095 638.434 196.265 638.434 198.02V203H636.799V198.425C636.799 197.165 636.334 196.46 635.209 196.46C634.069 196.46 633.304 197.3 633.304 198.68V203ZM643.377 203.195C641.067 203.195 639.567 201.605 639.567 199.25V199.025C639.567 196.67 641.067 195.095 643.377 195.095C645.702 195.095 647.202 196.67 647.202 199.025V199.25C647.202 201.605 645.702 203.195 643.377 203.195ZM643.377 201.86C644.787 201.86 645.522 200.915 645.522 199.25V199.025C645.522 197.36 644.787 196.43 643.377 196.43C641.982 196.43 641.247 197.36 641.247 199.025V199.25C641.247 200.915 641.982 201.86 643.377 201.86ZM651.559 203.195C649.864 203.195 649.024 202.415 649.024 200.915V196.52H647.524V195.275H649.024V192.86H650.674V195.275H652.774V196.52H650.674V200.735C650.674 201.5 650.959 201.845 651.874 201.845C652.204 201.845 652.594 201.77 652.819 201.695V203.015C652.474 203.12 651.949 203.195 651.559 203.195ZM657.256 203.195C654.946 203.195 653.446 201.605 653.446 199.25V199.025C653.446 196.67 654.946 195.095 657.256 195.095C659.581 195.095 661.081 196.67 661.081 199.025V199.25C661.081 201.605 659.581 203.195 657.256 203.195ZM657.256 201.86C658.666 201.86 659.401 200.915 659.401 199.25V199.025C659.401 197.36 658.666 196.43 657.256 196.43C655.861 196.43 655.126 197.36 655.126 199.025V199.25C655.126 200.915 655.861 201.86 657.256 201.86ZM667.901 203.195C665.906 203.195 664.661 202.25 664.511 200.6H666.101C666.236 201.515 666.896 201.95 667.916 201.95C668.846 201.95 669.476 201.575 669.476 200.885C669.476 200.27 669.041 199.97 667.571 199.7C665.696 199.385 664.781 198.785 664.781 197.405C664.781 196.025 666.026 195.095 667.796 195.095C669.656 195.095 670.811 195.98 670.961 197.51H669.386C669.266 196.73 668.666 196.31 667.781 196.31C666.926 196.31 666.371 196.685 666.371 197.315C666.371 197.915 666.806 198.2 668.216 198.425C670.166 198.74 671.111 199.385 671.111 200.735C671.111 202.205 669.836 203.195 667.901 203.195ZM675.629 203.195C673.229 203.195 671.804 201.59 671.804 199.25V199.025C671.804 196.685 673.259 195.095 675.629 195.095C678.164 195.095 679.394 196.865 679.274 199.505H673.499C673.574 201.05 674.324 201.875 675.629 201.875C676.709 201.875 677.354 201.365 677.579 200.585H679.229C678.854 202.205 677.564 203.195 675.629 203.195ZM673.529 198.32H677.579C677.459 197.12 676.829 196.4 675.614 196.4C674.414 196.4 673.709 197.06 673.529 198.32ZM680.45 191.9H682.1V203H680.45V191.9ZM687.106 203.195C684.706 203.195 683.281 201.59 683.281 199.25V199.025C683.281 196.685 684.736 195.095 687.106 195.095C689.641 195.095 690.871 196.865 690.751 199.505H684.976C685.051 201.05 685.801 201.875 687.106 201.875C688.186 201.875 688.831 201.365 689.056 200.585H690.706C690.331 202.205 689.041 203.195 687.106 203.195ZM685.006 198.32H689.056C688.936 197.12 688.306 196.4 687.091 196.4C685.891 196.4 685.186 197.06 685.006 198.32ZM695.346 203.195C693.006 203.195 691.626 201.59 691.626 199.25V199.025C691.626 196.685 693.006 195.095 695.361 195.095C697.296 195.095 698.571 196.235 698.781 198.02H697.161C696.996 197.045 696.426 196.43 695.331 196.43C693.996 196.43 693.306 197.36 693.306 199.025V199.25C693.306 200.915 693.996 201.86 695.331 201.86C696.426 201.86 697.011 201.215 697.176 200.24H698.811C698.556 202.055 697.281 203.195 695.346 203.195ZM703.164 203.195C701.469 203.195 700.629 202.415 700.629 200.915V196.52H699.129V195.275H700.629V192.86H702.279V195.275H704.379V196.52H702.279V200.735C702.279 201.5 702.564 201.845 703.479 201.845C703.809 201.845 704.199 201.77 704.424 201.695V203.015C704.079 203.12 703.554 203.195 703.164 203.195ZM707.222 191.9V194.15H705.497V191.9H707.222ZM705.527 195.275H707.177V203H705.527V195.275ZM712.168 203.195C709.858 203.195 708.358 201.605 708.358 199.25V199.025C708.358 196.67 709.858 195.095 712.168 195.095C714.493 195.095 715.993 196.67 715.993 199.025V199.25C715.993 201.605 714.493 203.195 712.168 203.195ZM712.168 201.86C713.578 201.86 714.313 200.915 714.313 199.25V199.025C714.313 197.36 713.578 196.43 712.168 196.43C710.773 196.43 710.038 197.36 710.038 199.025V199.25C710.038 200.915 710.773 201.86 712.168 201.86ZM718.829 203H717.179V195.275H718.769L718.829 196.505C719.234 195.74 720.044 195.095 721.289 195.095C723.164 195.095 723.959 196.265 723.959 198.02V203H722.324V198.425C722.324 197.165 721.859 196.46 720.734 196.46C719.594 196.46 718.829 197.3 718.829 198.68V203ZM658.831 228.55H657.166V218.275H658.711L658.756 219.55C659.131 218.815 660.031 218.095 661.351 218.095C663.376 218.095 664.651 219.715 664.651 222.025V222.25C664.651 224.56 663.346 226.195 661.306 226.195C660.106 226.195 659.251 225.565 658.831 224.83V228.55ZM660.901 224.86C662.221 224.86 662.971 223.915 662.971 222.25V222.025C662.971 220.36 662.221 219.4 660.901 219.4C659.521 219.4 658.771 220.36 658.771 222.025V222.25C658.771 223.915 659.521 224.86 660.901 224.86ZM668.055 226.195C666.465 226.195 665.46 225.235 665.46 223.915C665.46 222.685 666.21 221.875 667.53 221.695L670.575 221.245V220.69C670.575 219.835 669.99 219.385 669.015 219.385C668.055 219.385 667.41 219.82 667.335 220.6H665.76C665.895 219.01 667.155 218.095 669.045 218.095C671.04 218.095 672.165 219.145 672.165 220.75V226H670.65L670.59 224.8C670.11 225.67 669.165 226.195 668.055 226.195ZM668.43 224.89C669.585 224.89 670.575 224.17 670.575 223.165V222.46L668.1 222.805C667.395 222.91 667.065 223.24 667.065 223.84C667.065 224.485 667.56 224.89 668.43 224.89ZM676.999 228.745C674.869 228.745 673.669 227.8 673.504 226.45H675.304C675.394 227.125 675.979 227.5 677.089 227.5C678.364 227.5 679.129 226.87 679.129 225.655V224.515C678.724 225.265 677.854 225.88 676.654 225.88C674.599 225.88 673.309 224.26 673.309 222.13V221.83C673.309 219.685 674.584 218.095 676.609 218.095C677.929 218.095 678.814 218.815 679.204 219.55L679.249 218.275H680.779V225.505C680.779 227.5 679.444 228.745 676.999 228.745ZM677.059 224.56C678.424 224.56 679.189 223.6 679.189 222.13V221.83C679.189 220.33 678.439 219.4 677.059 219.4C675.724 219.4 674.989 220.33 674.989 221.83V222.13C674.989 223.6 675.739 224.56 677.059 224.56ZM685.787 226.195C683.387 226.195 681.962 224.59 681.962 222.25V222.025C681.962 219.685 683.417 218.095 685.787 218.095C688.322 218.095 689.552 219.865 689.432 222.505H683.657C683.732 224.05 684.482 224.875 685.787 224.875C686.867 224.875 687.512 224.365 687.737 223.585H689.387C689.012 225.205 687.722 226.195 685.787 226.195ZM683.687 221.32H687.737C687.617 220.12 686.987 219.4 685.772 219.4C684.572 219.4 683.867 220.06 683.687 221.32Z" fill="black" fill-opacity="0.8"/>
<path d="M859.506 161.757C861.849 159.414 865.648 159.414 867.991 161.757L911.324 205.09C913.667 207.433 913.667 211.232 911.324 213.575L867.991 256.908C865.648 259.251 861.849 259.251 859.506 256.908L816.173 213.575C813.83 211.232 813.83 207.433 816.173 205.09L859.506 161.757Z" fill="#22C182"/>
<path d="M851.934 205H849.702V198.61H851.934C853.806 198.61 855.093 199.699 855.093 201.697V201.913C855.093 203.893 853.815 205 851.934 205ZM850.746 199.492V204.118H851.862C853.176 204.118 854.013 203.443 854.013 201.913V201.697C854.013 200.176 853.185 199.492 851.844 199.492H850.746ZM856.842 198.34V199.69H855.807V198.34H856.842ZM855.825 200.365H856.815V205H855.825V200.365ZM859.521 205.117C858.306 205.117 857.523 204.136 857.523 202.75V202.615C857.523 201.238 858.279 200.257 859.503 200.257C860.241 200.257 860.745 200.608 861.015 201.04V198.34H862.005V205H861.087L861.06 204.226C860.835 204.667 860.313 205.117 859.521 205.117ZM859.773 204.316C860.601 204.316 861.051 203.749 861.051 202.75V202.615C861.051 201.616 860.592 201.04 859.773 201.04C858.981 201.04 858.531 201.616 858.531 202.615V202.75C858.531 203.74 858.972 204.316 859.773 204.316ZM866.284 206.53H865.267L865.861 204.973L864.079 200.365H865.132L866.383 203.884L867.589 200.365H868.606L866.284 206.53ZM870.991 205.117C869.605 205.117 868.705 204.163 868.705 202.75V202.615C868.705 201.202 869.605 200.257 870.991 200.257C872.386 200.257 873.286 201.202 873.286 202.615V202.75C873.286 204.163 872.386 205.117 870.991 205.117ZM870.991 204.316C871.837 204.316 872.278 203.749 872.278 202.75V202.615C872.278 201.616 871.837 201.058 870.991 201.058C870.154 201.058 869.713 201.616 869.713 202.615V202.75C869.713 203.749 870.154 204.316 870.991 204.316ZM875.529 205.117C874.449 205.117 873.927 204.433 873.927 203.344V200.365H874.926V203.155C874.926 203.866 875.187 204.289 875.853 204.289C876.537 204.289 876.942 203.767 876.942 202.939V200.365H877.941V205H876.978L876.96 204.298C876.69 204.748 876.195 205.117 875.529 205.117ZM845.845 219.117C844.441 219.117 843.613 218.154 843.613 216.75V216.615C843.613 215.211 844.441 214.257 845.854 214.257C847.015 214.257 847.78 214.941 847.906 216.012H846.934C846.835 215.427 846.493 215.058 845.836 215.058C845.035 215.058 844.621 215.616 844.621 216.615V216.75C844.621 217.749 845.035 218.316 845.836 218.316C846.493 218.316 846.844 217.929 846.943 217.344H847.924C847.771 218.433 847.006 219.117 845.845 219.117ZM849.562 219H848.572V212.34H849.571V215.076C849.823 214.617 850.3 214.257 851.038 214.257C852.163 214.257 852.64 214.959 852.64 216.012V219H851.659V216.255C851.659 215.499 851.38 215.076 850.705 215.076C850.021 215.076 849.562 215.58 849.562 216.408V219ZM855.606 219.117C854.22 219.117 853.32 218.163 853.32 216.75V216.615C853.32 215.202 854.22 214.257 855.606 214.257C857.001 214.257 857.901 215.202 857.901 216.615V216.75C857.901 218.163 857.001 219.117 855.606 219.117ZM855.606 218.316C856.452 218.316 856.893 217.749 856.893 216.75V216.615C856.893 215.616 856.452 215.058 855.606 215.058C854.769 215.058 854.328 215.616 854.328 216.615V216.75C854.328 217.749 854.769 218.316 855.606 218.316ZM860.719 219.117C859.333 219.117 858.433 218.163 858.433 216.75V216.615C858.433 215.202 859.333 214.257 860.719 214.257C862.114 214.257 863.014 215.202 863.014 216.615V216.75C863.014 218.163 862.114 219.117 860.719 219.117ZM860.719 218.316C861.565 218.316 862.006 217.749 862.006 216.75V216.615C862.006 215.616 861.565 215.058 860.719 215.058C859.882 215.058 859.441 215.616 859.441 216.615V216.75C859.441 217.749 859.882 218.316 860.719 218.316ZM865.421 219.117C864.224 219.117 863.477 218.55 863.387 217.56H864.341C864.422 218.109 864.818 218.37 865.43 218.37C865.988 218.37 866.366 218.145 866.366 217.731C866.366 217.362 866.105 217.182 865.223 217.02C864.098 216.831 863.549 216.471 863.549 215.643C863.549 214.815 864.296 214.257 865.358 214.257C866.474 214.257 867.167 214.788 867.257 215.706H866.312C866.24 215.238 865.88 214.986 865.349 214.986C864.836 214.986 864.503 215.211 864.503 215.589C864.503 215.949 864.764 216.12 865.61 216.255C866.78 216.444 867.347 216.831 867.347 217.641C867.347 218.523 866.582 219.117 865.421 219.117ZM870.057 219.117C868.617 219.117 867.762 218.154 867.762 216.75V216.615C867.762 215.211 868.635 214.257 870.057 214.257C871.578 214.257 872.316 215.319 872.244 216.903H868.779C868.824 217.83 869.274 218.325 870.057 218.325C870.705 218.325 871.092 218.019 871.227 217.551H872.217C871.992 218.523 871.218 219.117 870.057 219.117ZM868.797 216.192H871.227C871.155 215.472 870.777 215.04 870.048 215.04C869.328 215.04 868.905 215.436 868.797 216.192ZM875.538 212.34V213.69H874.503V212.34H875.538ZM874.521 214.365H875.511V219H874.521V214.365ZM878.424 219.117C877.407 219.117 876.903 218.649 876.903 217.749V215.112H876.003V214.365H876.903V212.916H877.893V214.365H879.153V215.112H877.893V217.641C877.893 218.1 878.064 218.307 878.613 218.307C878.811 218.307 879.045 218.262 879.18 218.217V219.009C878.973 219.072 878.658 219.117 878.424 219.117ZM882.092 217.2H881.039V217.047C881.039 215.472 882.956 215.481 882.956 214.374V214.284C882.956 213.717 882.524 213.348 881.867 213.348C881.147 213.348 880.67 213.735 880.58 214.5H879.536C879.662 213.168 880.625 212.493 881.858 212.493C883.145 212.493 884.009 213.258 884.009 214.275V214.338C884.009 215.994 882.092 215.841 882.092 217.119V217.2ZM882.11 219H881.03V217.875H882.11V219Z" fill="black" fill-opacity="0.8"/>
<rect x="969.141" y="160" width="170.422" height="98.6656" rx="10" fill="#A29CFF"/>
<path d="M1021.09 214.5H1019.35V203.85H1026.32V205.305H1021.09V208.515H1025.83V209.97H1021.09V214.5ZM1029.14 203.4V205.65H1027.41V203.4H1029.14ZM1027.44 206.775H1029.09V214.5H1027.44V206.775ZM1030.58 203.4H1032.23V214.5H1030.58V203.4ZM1037.11 214.695C1035.42 214.695 1034.58 213.915 1034.58 212.415V208.02H1033.08V206.775H1034.58V204.36H1036.23V206.775H1038.33V208.02H1036.23V212.235C1036.23 213 1036.51 213.345 1037.43 213.345C1037.76 213.345 1038.15 213.27 1038.37 213.195V214.515C1038.03 214.62 1037.5 214.695 1037.11 214.695ZM1042.82 214.695C1040.42 214.695 1039 213.09 1039 210.75V210.525C1039 208.185 1040.45 206.595 1042.82 206.595C1045.36 206.595 1046.59 208.365 1046.47 211.005H1040.69C1040.77 212.55 1041.52 213.375 1042.82 213.375C1043.9 213.375 1044.55 212.865 1044.77 212.085H1046.42C1046.05 213.705 1044.76 214.695 1042.82 214.695ZM1040.72 209.82H1044.77C1044.65 208.62 1044.02 207.9 1042.81 207.9C1041.61 207.9 1040.9 208.56 1040.72 209.82ZM1049.29 214.5H1047.64V206.775H1049.23L1049.28 208.275C1049.7 207.285 1050.51 206.625 1051.62 206.625C1051.74 206.625 1051.9 206.64 1052.04 206.67V208.275C1051.89 208.26 1051.71 208.245 1051.53 208.245C1050.13 208.245 1049.29 209.04 1049.29 210.57V214.5ZM1057.05 216H1055.52L1059.39 203.4H1060.92L1057.05 216ZM1072.44 214.5H1065.02V203.85H1072.35V205.305H1066.76V208.335H1071.89V209.79H1066.76V213.045H1072.44V214.5ZM1076.42 214.695C1074.4 214.695 1073.09 213.06 1073.09 210.75V210.525C1073.09 208.23 1074.35 206.595 1076.39 206.595C1077.62 206.595 1078.46 207.18 1078.91 207.9V203.4H1080.56V214.5H1079.03L1078.99 213.21C1078.61 213.945 1077.74 214.695 1076.42 214.695ZM1076.84 213.36C1078.22 213.36 1078.97 212.415 1078.97 210.75V210.525C1078.97 208.86 1078.21 207.9 1076.84 207.9C1075.52 207.9 1074.77 208.86 1074.77 210.525V210.75C1074.77 212.4 1075.51 213.36 1076.84 213.36ZM1083.74 203.4V205.65H1082.01V203.4H1083.74ZM1082.04 206.775H1083.69V214.5H1082.04V206.775ZM1088.55 214.695C1086.86 214.695 1086.02 213.915 1086.02 212.415V208.02H1084.52V206.775H1086.02V204.36H1087.67V206.775H1089.77V208.02H1087.67V212.235C1087.67 213 1087.95 213.345 1088.87 213.345C1089.2 213.345 1089.59 213.27 1089.81 213.195V214.515C1089.47 214.62 1088.94 214.695 1088.55 214.695Z" fill="black" fill-opacity="0.8"/>
<path d="M1050.11 454.389C1052.45 452.046 1056.25 452.046 1058.59 454.389L1101.93 497.722C1104.27 500.065 1104.27 503.864 1101.93 506.207L1058.59 549.54C1056.25 551.883 1052.45 551.883 1050.11 549.54L1006.78 506.207C1004.43 503.864 1004.43 500.065 1006.78 497.722L1050.11 454.389Z" fill="#22C182"/>
<path d="M1042.54 490.966H1040.31V484.576H1042.54C1044.41 484.576 1045.7 485.665 1045.7 487.663V487.879C1045.7 489.859 1044.42 490.966 1042.54 490.966ZM1041.35 485.458V490.084H1042.47C1043.78 490.084 1044.62 489.409 1044.62 487.879V487.663C1044.62 486.142 1043.79 485.458 1042.45 485.458H1041.35ZM1047.45 484.306V485.656H1046.41V484.306H1047.45ZM1046.43 486.331H1047.42V490.966H1046.43V486.331ZM1050.12 491.083C1048.91 491.083 1048.13 490.102 1048.13 488.716V488.581C1048.13 487.204 1048.88 486.223 1050.11 486.223C1050.84 486.223 1051.35 486.574 1051.62 487.006V484.306H1052.61V490.966H1051.69L1051.66 490.192C1051.44 490.633 1050.92 491.083 1050.12 491.083ZM1050.38 490.282C1051.2 490.282 1051.65 489.715 1051.65 488.716V488.581C1051.65 487.582 1051.2 487.006 1050.38 487.006C1049.58 487.006 1049.13 487.582 1049.13 488.581V488.716C1049.13 489.706 1049.58 490.282 1050.38 490.282ZM1056.89 492.496H1055.87L1056.46 490.939L1054.68 486.331H1055.74L1056.99 489.85L1058.19 486.331H1059.21L1056.89 492.496ZM1061.59 491.083C1060.21 491.083 1059.31 490.129 1059.31 488.716V488.581C1059.31 487.168 1060.21 486.223 1061.59 486.223C1062.99 486.223 1063.89 487.168 1063.89 488.581V488.716C1063.89 490.129 1062.99 491.083 1061.59 491.083ZM1061.59 490.282C1062.44 490.282 1062.88 489.715 1062.88 488.716V488.581C1062.88 487.582 1062.44 487.024 1061.59 487.024C1060.76 487.024 1060.32 487.582 1060.32 488.581V488.716C1060.32 489.715 1060.76 490.282 1061.59 490.282ZM1066.13 491.083C1065.05 491.083 1064.53 490.399 1064.53 489.31V486.331H1065.53V489.121C1065.53 489.832 1065.79 490.255 1066.46 490.255C1067.14 490.255 1067.55 489.733 1067.55 488.905V486.331H1068.54V490.966H1067.58L1067.56 490.264C1067.29 490.714 1066.8 491.083 1066.13 491.083ZM1042.12 505.083C1041.17 505.083 1040.56 504.507 1040.56 503.715C1040.56 502.977 1041.01 502.491 1041.81 502.383L1043.63 502.113V501.78C1043.63 501.267 1043.28 500.997 1042.7 500.997C1042.12 500.997 1041.73 501.258 1041.69 501.726H1040.74C1040.82 500.772 1041.58 500.223 1042.71 500.223C1043.91 500.223 1044.59 500.853 1044.59 501.816V504.966H1043.68L1043.64 504.246C1043.35 504.768 1042.79 505.083 1042.12 505.083ZM1042.35 504.3C1043.04 504.3 1043.63 503.868 1043.63 503.265V502.842L1042.15 503.049C1041.72 503.112 1041.53 503.31 1041.53 503.67C1041.53 504.057 1041.82 504.3 1042.35 504.3ZM1047.27 505.083C1046.06 505.083 1045.27 504.102 1045.27 502.716V502.581C1045.27 501.204 1046.03 500.223 1047.25 500.223C1047.99 500.223 1048.49 500.574 1048.76 501.006V498.306H1049.75V504.966H1048.84L1048.81 504.192C1048.58 504.633 1048.06 505.083 1047.27 505.083ZM1047.52 504.282C1048.35 504.282 1048.8 503.715 1048.8 502.716V502.581C1048.8 501.582 1048.34 501.006 1047.52 501.006C1046.73 501.006 1046.28 501.582 1046.28 502.581V502.716C1046.28 503.706 1046.72 504.282 1047.52 504.282ZM1052.46 505.083C1051.25 505.083 1050.46 504.102 1050.46 502.716V502.581C1050.46 501.204 1051.22 500.223 1052.44 500.223C1053.18 500.223 1053.69 500.574 1053.96 501.006V498.306H1054.95V504.966H1054.03L1054 504.192C1053.78 504.633 1053.25 505.083 1052.46 505.083ZM1052.71 504.282C1053.54 504.282 1053.99 503.715 1053.99 502.716V502.581C1053.99 501.582 1053.53 501.006 1052.71 501.006C1051.92 501.006 1051.47 501.582 1051.47 502.581V502.716C1051.47 503.706 1051.91 504.282 1052.71 504.282ZM1063.08 504.966H1061.97L1061.4 503.409H1058.66L1058.08 504.966H1057.02L1059.48 498.576H1060.62L1063.08 504.966ZM1060.04 499.692L1058.98 502.536H1061.08L1060.04 499.692ZM1063.58 498.306H1064.57V504.966H1063.58V498.306ZM1067.51 505.083C1066.49 505.083 1065.98 504.615 1065.98 503.715V501.078H1065.08V500.331H1065.98V498.882H1066.97V500.331H1068.23V501.078H1066.97V503.607C1066.97 504.066 1067.15 504.273 1067.69 504.273C1067.89 504.273 1068.13 504.228 1068.26 504.183V504.975C1068.05 505.038 1067.74 505.083 1067.51 505.083ZM1046.51 518.966H1045.46V513.449H1043.58V512.576H1048.4V513.449H1046.51V518.966ZM1050.32 519.083C1048.88 519.083 1048.02 518.12 1048.02 516.716V516.581C1048.02 515.177 1048.9 514.223 1050.32 514.223C1051.84 514.223 1052.58 515.285 1052.51 516.869H1049.04C1049.09 517.796 1049.54 518.291 1050.32 518.291C1050.97 518.291 1051.35 517.985 1051.49 517.517H1052.48C1052.25 518.489 1051.48 519.083 1050.32 519.083ZM1049.06 516.158H1051.49C1051.42 515.438 1051.04 515.006 1050.31 515.006C1049.59 515.006 1049.17 515.402 1049.06 516.158ZM1053.59 518.966H1052.51L1054.18 516.59L1052.59 514.331H1053.73L1054.79 515.879L1055.85 514.331H1056.93L1055.33 516.563L1057.03 518.966H1055.88L1054.72 517.274L1053.59 518.966ZM1059.54 519.083C1058.52 519.083 1058.02 518.615 1058.02 517.715V515.078H1057.12V514.331H1058.02V512.882H1059.01V514.331H1060.27V515.078H1059.01V517.607C1059.01 518.066 1059.18 518.273 1059.73 518.273C1059.93 518.273 1060.16 518.228 1060.3 518.183V518.975C1060.09 519.038 1059.78 519.083 1059.54 519.083ZM1063.21 517.166H1062.16V517.013C1062.16 515.438 1064.07 515.447 1064.07 514.34V514.25C1064.07 513.683 1063.64 513.314 1062.98 513.314C1062.26 513.314 1061.79 513.701 1061.7 514.466H1060.65C1060.78 513.134 1061.74 512.459 1062.98 512.459C1064.26 512.459 1065.13 513.224 1065.13 514.241V514.304C1065.13 515.96 1063.21 515.807 1063.21 517.085V517.166ZM1063.23 518.966H1062.15V517.841H1063.23V518.966Z" fill="black" fill-opacity="0.8"/>
<path d="M197.592 209.728C197.811 209.51 197.811 209.155 197.592 208.936L194.025 205.368C193.806 205.149 193.451 205.149 193.232 205.368C193.013 205.587 193.013 205.942 193.232 206.161L196.403 209.332L193.232 212.503C193.013 212.722 193.013 213.077 193.232 213.296C193.451 213.515 193.806 213.515 194.025 213.296L197.592 209.728ZM160.757 209.893H197.196V208.771H160.757V209.893Z" fill="black"/>
<path d="M352.316 209.728C352.535 209.51 352.535 209.155 352.316 208.936L348.748 205.368C348.529 205.149 348.174 205.149 347.955 205.368C347.736 205.587 347.736 205.942 347.955 206.161L351.127 209.332L347.955 212.503C347.736 212.722 347.736 213.077 347.955 213.296C348.174 213.515 348.529 213.515 348.748 213.296L352.316 209.728ZM315.48 209.893H351.919V208.771H315.48V209.893Z" fill="black"/>
<path d="M578.799 209.728C579.018 209.51 579.018 209.155 578.799 208.936L575.232 205.368C575.013 205.149 574.658 205.149 574.439 205.368C574.22 205.587 574.22 205.942 574.439 206.161L577.61 209.332L574.439 212.503C574.22 212.722 574.22 213.077 574.439 213.296C574.658 213.515 575.013 213.515 575.232 213.296L578.799 209.728ZM541.964 209.893H578.403V208.771H541.964V209.893Z" fill="black"/>
<path d="M990.84 502.362C991.059 502.143 991.059 501.788 990.84 501.569L987.273 498.002C987.054 497.783 986.699 497.783 986.48 498.002C986.261 498.221 986.261 498.576 986.48 498.795L989.651 501.966L986.48 505.137C986.261 505.356 986.261 505.711 986.48 505.93C986.699 506.149 987.054 506.149 987.273 505.93L990.84 502.362ZM373.784 502.526L990.444 502.526L990.444 501.405L373.784 501.405L373.784 502.526Z" fill="black"/>
<path d="M805.283 209.728C805.502 209.51 805.502 209.155 805.283 208.936L801.715 205.368C801.496 205.149 801.141 205.149 800.922 205.368C800.703 205.587 800.703 205.942 800.922 206.161L804.093 209.332L800.922 212.503C800.703 212.722 800.703 213.077 800.922 213.296C801.141 213.515 801.496 213.515 801.715 213.296L805.283 209.728ZM768.447 209.893H804.886V208.771H768.447V209.893Z" fill="black"/>
<path d="M960.007 209.728C960.226 209.51 960.226 209.155 960.007 208.936L956.44 205.368C956.221 205.149 955.866 205.149 955.647 205.368C955.428 205.587 955.428 205.942 955.647 206.161L958.818 209.332L955.647 212.503C955.428 212.722 955.428 213.077 955.647 213.296C955.866 213.515 956.221 213.515 956.44 213.296L960.007 209.728ZM923.172 209.893H959.611V208.771H923.172V209.893Z" fill="black"/>
<path d="M1179.2 502.362C1179.42 502.143 1179.42 501.788 1179.2 501.569L1175.63 498.002C1175.42 497.783 1175.06 497.783 1174.84 498.002C1174.62 498.221 1174.62 498.576 1174.84 498.795L1178.01 501.966L1174.84 505.137C1174.62 505.356 1174.62 505.711 1174.84 505.93C1175.06 506.149 1175.42 506.149 1175.63 505.93L1179.2 502.362ZM1120.5 502.526L1178.81 502.526L1178.81 501.405L1120.5 501.405L1120.5 502.526Z" fill="black"/>
<path d="M922.776 648.679C922.557 648.46 922.557 648.105 922.776 647.886L926.344 644.318C926.563 644.099 926.917 644.099 927.136 644.318C927.355 644.537 927.355 644.892 927.136 645.111L923.965 648.282L927.136 651.453C927.355 651.672 927.355 652.027 927.136 652.246C926.917 652.465 926.563 652.465 926.344 652.246L922.776 648.679ZM959.611 648.843H923.172V647.722H959.611V648.843Z" fill="black"/>
<path d="M696.294 648.679C696.076 648.46 696.076 648.105 696.294 647.886L699.862 644.318C700.081 644.099 700.436 644.099 700.655 644.318C700.874 644.537 700.874 644.892 700.655 645.111L697.484 648.282L700.655 651.453C700.874 651.672 700.874 652.027 700.655 652.246C700.436 652.465 700.081 652.465 699.862 652.246L696.294 648.679ZM733.13 648.843H696.691V647.722H733.13V648.843Z" fill="black"/>
<path d="M469.811 648.679C469.592 648.46 469.592 648.105 469.811 647.886L473.379 644.318C473.598 644.099 473.953 644.099 474.172 644.318C474.39 644.537 474.39 644.892 474.172 645.111L471 648.282L474.172 651.453C474.39 651.672 474.39 652.027 474.172 652.246C473.953 652.465 473.598 652.465 473.379 652.246L469.811 648.679ZM506.646 648.843H470.208V647.722H506.646V648.843Z" fill="black"/>
<path d="M1053.96 301.108C1054.18 301.327 1054.53 301.327 1054.75 301.108L1058.32 297.54C1058.54 297.321 1058.54 296.966 1058.32 296.747C1058.1 296.528 1057.74 296.528 1057.52 296.747L1054.35 299.919L1051.18 296.747C1050.96 296.528 1050.61 296.528 1050.39 296.747C1050.17 296.966 1050.17 297.321 1050.39 297.54L1053.96 301.108ZM1053.79 264.272V300.711H1054.91V264.272H1053.79Z" fill="black"/>
<path d="M672.748 263.875C672.967 263.656 673.322 263.656 673.541 263.875L677.109 267.442C677.327 267.661 677.327 268.016 677.109 268.235C676.89 268.454 676.535 268.454 676.316 268.235L673.145 265.064L669.973 268.235C669.754 268.454 669.399 268.454 669.18 268.235C668.962 268.016 668.962 267.661 669.18 267.442L672.748 263.875ZM672.584 300.71V264.271H673.705V300.71H672.584Z" fill="black"/>
<path d="M1053.96 447.423C1054.18 447.642 1054.53 447.642 1054.75 447.423L1058.32 443.856C1058.54 443.637 1058.54 443.282 1058.32 443.063C1058.1 442.844 1057.74 442.844 1057.52 443.063L1054.35 446.234L1051.18 443.063C1050.96 442.844 1050.61 442.844 1050.39 443.063C1050.17 443.282 1050.17 443.637 1050.39 443.856L1053.96 447.423ZM1053.79 410.588V447.027H1054.91V410.588H1053.79Z" fill="black"/>
<path d="M1053.96 593.741C1054.18 593.96 1054.53 593.96 1054.75 593.741L1058.32 590.173C1058.54 589.954 1058.54 589.599 1058.32 589.38C1058.1 589.161 1057.74 589.161 1057.52 589.38L1054.35 592.551L1051.18 589.38C1050.96 589.161 1050.61 589.161 1050.39 589.38C1050.17 589.599 1050.17 589.954 1050.39 590.173L1053.96 593.741ZM1053.79 556.905V593.344H1054.91V556.905H1053.79Z" fill="black"/>
<line x1="673.145" y1="300.149" x2="863.748" y2="300.149" stroke="black" stroke-width="1.1212"/>
<line x1="864.31" y1="264.272" x2="864.31" y2="300.711" stroke="black" stroke-width="1.1212"/>
<line x1="374.346" y1="593.343" x2="374.346" y2="501.965" stroke="black" stroke-width="1.1212"/>
<path d="M937.842 199.712H936.736V197.52L934.354 192.945H935.564L937.308 196.462L939.052 192.945H940.224L937.842 197.52V199.712ZM942.185 199.836C940.66 199.836 939.755 198.816 939.755 197.329V197.186C939.755 195.7 940.679 194.69 942.185 194.69C943.795 194.69 944.577 195.814 944.501 197.491H940.832C940.879 198.473 941.356 198.997 942.185 198.997C942.871 198.997 943.281 198.673 943.424 198.178H944.472C944.234 199.207 943.414 199.836 942.185 199.836ZM940.851 196.738H943.424C943.348 195.976 942.947 195.519 942.175 195.519C941.413 195.519 940.965 195.938 940.851 196.738ZM947.042 199.836C945.775 199.836 944.984 199.235 944.888 198.187H945.899C945.984 198.768 946.404 199.045 947.052 199.045C947.643 199.045 948.043 198.807 948.043 198.368C948.043 197.977 947.767 197.787 946.833 197.615C945.641 197.415 945.06 197.034 945.06 196.157C945.06 195.28 945.851 194.69 946.976 194.69C948.157 194.69 948.891 195.252 948.986 196.224H947.986C947.91 195.728 947.528 195.461 946.966 195.461C946.423 195.461 946.07 195.7 946.07 196.1C946.07 196.481 946.347 196.662 947.242 196.805C948.481 197.005 949.082 197.415 949.082 198.273C949.082 199.207 948.272 199.836 947.042 199.836Z" fill="black"/>
<path d="M1146.39 494.587H1145.28V492.395L1142.9 487.82H1144.11L1145.85 491.337L1147.6 487.82H1148.77L1146.39 492.395V494.587ZM1150.73 494.711C1149.2 494.711 1148.3 493.691 1148.3 492.204V492.061C1148.3 490.575 1149.22 489.565 1150.73 489.565C1152.34 489.565 1153.12 490.689 1153.05 492.366H1149.38C1149.42 493.348 1149.9 493.872 1150.73 493.872C1151.42 493.872 1151.83 493.548 1151.97 493.053H1153.02C1152.78 494.082 1151.96 494.711 1150.73 494.711ZM1149.4 491.613H1151.97C1151.89 490.851 1151.49 490.394 1150.72 490.394C1149.96 490.394 1149.51 490.813 1149.4 491.613ZM1155.59 494.711C1154.32 494.711 1153.53 494.11 1153.43 493.062H1154.44C1154.53 493.643 1154.95 493.92 1155.6 493.92C1156.19 493.92 1156.59 493.682 1156.59 493.243C1156.59 492.852 1156.31 492.662 1155.38 492.49C1154.19 492.29 1153.6 491.909 1153.6 491.032C1153.6 490.155 1154.4 489.565 1155.52 489.565C1156.7 489.565 1157.44 490.127 1157.53 491.099H1156.53C1156.45 490.603 1156.07 490.336 1155.51 490.336C1154.97 490.336 1154.62 490.575 1154.62 490.975C1154.62 491.356 1154.89 491.537 1155.79 491.68C1157.03 491.88 1157.63 492.29 1157.63 493.148C1157.63 494.082 1156.82 494.711 1155.59 494.711Z" fill="black"/>
<path d="M764.367 316.317H763.29V309.551H764.615L767.788 314.745V309.551H768.856V316.317H767.607L764.367 310.99V316.317ZM772.078 316.441C770.61 316.441 769.657 315.431 769.657 313.935V313.792C769.657 312.296 770.61 311.295 772.078 311.295C773.555 311.295 774.508 312.296 774.508 313.792V313.935C774.508 315.431 773.555 316.441 772.078 316.441ZM772.078 315.593C772.974 315.593 773.441 314.993 773.441 313.935V313.792C773.441 312.734 772.974 312.143 772.078 312.143C771.191 312.143 770.724 312.734 770.724 313.792V313.935C770.724 314.993 771.191 315.593 772.078 315.593Z" fill="black"/>
<path d="M1062.05 578.115H1060.97V571.349H1062.29L1065.47 576.543V571.349H1066.53V578.115H1065.29L1062.05 572.788V578.115ZM1069.76 578.239C1068.29 578.239 1067.34 577.229 1067.34 575.733V575.59C1067.34 574.093 1068.29 573.093 1069.76 573.093C1071.23 573.093 1072.19 574.093 1072.19 575.59V575.733C1072.19 577.229 1071.23 578.239 1069.76 578.239ZM1069.76 577.391C1070.65 577.391 1071.12 576.791 1071.12 575.733V575.59C1071.12 574.532 1070.65 573.941 1069.76 573.941C1068.87 573.941 1068.4 574.532 1068.4 575.59V575.733C1068.4 576.791 1068.87 577.391 1069.76 577.391Z" fill="black"/>
<path d="M568.535 740.386H563.888V724.725H568.535V727.111H566.83V738H568.535V740.386ZM579.116 738H576.084V727.721H572.568V725.263H582.614V727.721H579.116V738ZM586.818 738.233C583.894 738.233 581.957 736.26 581.957 733.443V733.264C581.957 730.466 583.894 728.492 586.818 728.492C589.76 728.492 591.68 730.466 591.68 733.264V733.443C591.68 736.26 589.76 738.233 586.818 738.233ZM586.818 736.045C588.182 736.045 588.774 735.148 588.774 733.443V733.264C588.774 731.578 588.182 730.681 586.818 730.681C585.473 730.681 584.863 731.578 584.863 733.264V733.443C584.863 735.148 585.473 736.045 586.818 736.045ZM597.43 738.233C594.506 738.233 592.568 736.26 592.568 733.443V733.264C592.568 730.466 594.506 728.492 597.43 728.492C600.372 728.492 602.291 730.466 602.291 733.264V733.443C602.291 736.26 600.372 738.233 597.43 738.233ZM597.43 736.045C598.793 736.045 599.385 735.148 599.385 733.443V733.264C599.385 731.578 598.793 730.681 597.43 730.681C596.084 730.681 595.475 731.578 595.475 733.264V733.443C595.475 735.148 596.084 736.045 597.43 736.045ZM609.276 738H606.406V728.725H609.151L609.223 730.143C609.653 729.317 610.568 728.492 612.003 728.492C613.384 728.492 614.335 729.048 614.802 730.214C615.447 729.138 616.452 728.492 617.797 728.492C620.076 728.492 620.973 729.963 620.973 732.116V738H618.102V732.654C618.102 731.38 617.618 730.771 616.721 730.771C615.716 730.771 615.125 731.488 615.125 733.013V738H612.254V732.672C612.254 731.416 611.824 730.771 610.909 730.771C609.922 730.771 609.276 731.452 609.276 732.995V738ZM625.069 738.233C623.275 738.233 622.019 737.049 622.019 735.417C622.019 733.82 623.042 732.869 624.818 732.654L628.047 732.224V731.632C628.047 730.95 627.598 730.537 626.666 730.537C625.733 730.537 625.195 730.914 625.123 731.614H622.396C622.504 729.64 624.19 728.492 626.719 728.492C629.267 728.492 630.845 729.712 630.845 731.65V738H628.155L628.065 736.619C627.509 737.623 626.468 738.233 625.069 738.233ZM626.074 736.206C627.15 736.206 628.047 735.578 628.047 734.627V733.964L625.858 734.251C625.141 734.34 624.8 734.681 624.8 735.237C624.8 735.847 625.248 736.206 626.074 736.206ZM635.125 738H632.254V728.725H634.999L635.071 730.143C635.519 729.317 636.434 728.492 637.995 728.492C640.345 728.492 641.224 729.981 641.224 732.044V738H638.354V732.78C638.354 731.524 637.959 730.788 636.865 730.788C635.824 730.788 635.125 731.542 635.125 732.905V738ZM646.652 741.05H643.692L644.911 737.892L641.395 728.725H644.427L646.418 734.807L648.356 728.725H651.28L646.652 741.05ZM658.98 738.233C656.254 738.233 654.729 737.031 654.585 735.022H657.312C657.42 735.811 658.048 736.26 658.998 736.26C659.859 736.26 660.38 735.919 660.38 735.381C660.38 734.879 660.075 734.574 658.424 734.287C655.949 733.892 654.854 733.103 654.854 731.434C654.854 729.658 656.487 728.492 658.891 728.492C661.384 728.492 662.873 729.622 663.017 731.542H660.344C660.272 730.824 659.698 730.448 658.855 730.448C658.065 730.448 657.599 730.771 657.599 731.273C657.599 731.775 657.976 732.044 659.554 732.277C662.174 732.654 663.196 733.533 663.196 735.112C663.196 736.977 661.582 738.233 658.98 738.233ZM668.499 738.233C666.149 738.233 665.073 737.193 665.073 735.201V730.788H663.387V728.725H665.073V725.765H667.943V728.725H670.275V730.788H667.943V735.004C667.943 735.74 668.302 736.045 669.199 736.045C669.63 736.045 669.988 735.955 670.311 735.865V738C669.827 738.144 669.109 738.233 668.499 738.233ZM675.803 738.233C672.771 738.233 670.906 736.35 670.906 733.443V733.264C670.906 730.412 672.825 728.492 675.803 728.492C679.032 728.492 680.647 730.753 680.449 734.017H673.758C673.883 735.435 674.547 736.116 675.785 736.116C676.808 736.116 677.382 735.614 677.579 735.022H680.395C679.947 736.977 678.279 738.233 675.803 738.233ZM673.794 732.349H677.561C677.489 731.291 676.915 730.609 675.767 730.609C674.619 730.609 673.991 731.147 673.794 732.349ZM684.553 741.05H681.665V728.725H684.338L684.427 730.196C684.822 729.335 685.826 728.492 687.298 728.492C689.809 728.492 691.316 730.537 691.316 733.264V733.443C691.316 736.188 689.809 738.233 687.315 738.233C686.024 738.233 685.037 737.587 684.553 736.726V741.05ZM686.436 736.063C687.764 736.063 688.41 735.148 688.41 733.443V733.264C688.41 731.542 687.764 730.645 686.436 730.645C685.109 730.645 684.463 731.542 684.463 733.264V733.443C684.463 735.148 685.109 736.063 686.436 736.063ZM696.259 738.233C693.532 738.233 692.008 737.031 691.864 735.022H694.591C694.699 735.811 695.326 736.26 696.277 736.26C697.138 736.26 697.659 735.919 697.659 735.381C697.659 734.879 697.354 734.574 695.703 734.287C693.228 733.892 692.133 733.103 692.133 731.434C692.133 729.658 693.766 728.492 696.17 728.492C698.663 728.492 700.152 729.622 700.296 731.542H697.623C697.551 730.824 696.977 730.448 696.134 730.448C695.344 730.448 694.878 730.771 694.878 731.273C694.878 731.775 695.255 732.044 696.833 732.277C699.452 732.654 700.475 733.533 700.475 735.112C700.475 736.977 698.86 738.233 696.259 738.233ZM708.406 738H705.536V730.788H703.849V728.725H705.536V727.524C705.536 725.532 706.612 724.492 708.962 724.492C709.554 724.492 710.272 724.599 710.756 724.725V726.86C710.487 726.788 710.11 726.68 709.662 726.68C708.747 726.68 708.406 726.985 708.406 727.721V728.725H710.72V730.788H708.406V738ZM715.704 738.233C712.78 738.233 710.843 736.26 710.843 733.443V733.264C710.843 730.466 712.78 728.492 715.704 728.492C718.646 728.492 720.566 730.466 720.566 733.264V733.443C720.566 736.26 718.646 738.233 715.704 738.233ZM715.704 736.045C717.068 736.045 717.66 735.148 717.66 733.443V733.264C717.66 731.578 717.068 730.681 715.704 730.681C714.359 730.681 713.749 731.578 713.749 733.264V733.443C713.749 735.148 714.359 736.045 715.704 736.045ZM724.63 738H721.759V728.725H724.504L724.558 730.537C724.988 729.461 725.867 728.564 727.267 728.564C727.464 728.564 727.679 728.582 727.841 728.618V731.362C727.643 731.345 727.356 731.327 727.087 731.327C725.419 731.327 724.63 732.152 724.63 733.677V738ZM735.754 738.233C733.027 738.233 731.502 737.031 731.359 735.022H734.085C734.193 735.811 734.821 736.26 735.772 736.26C736.633 736.26 737.153 735.919 737.153 735.381C737.153 734.879 736.848 734.574 735.198 734.287C732.722 733.892 731.628 733.103 731.628 731.434C731.628 729.658 733.26 728.492 735.664 728.492C738.158 728.492 739.647 729.622 739.79 731.542H737.117C737.045 730.824 736.471 730.448 735.628 730.448C734.839 730.448 734.372 730.771 734.372 731.273C734.372 731.775 734.749 732.044 736.328 732.277C738.947 732.654 739.969 733.533 739.969 735.112C739.969 736.977 738.355 738.233 735.754 738.233ZM745.538 738.233C742.507 738.233 740.641 736.35 740.641 733.443V733.264C740.641 730.412 742.561 728.492 745.538 728.492C748.768 728.492 750.382 730.753 750.185 734.017H743.493C743.619 735.435 744.283 736.116 745.521 736.116C746.543 736.116 747.117 735.614 747.314 735.022H750.131C749.682 736.977 748.014 738.233 745.538 738.233ZM743.529 732.349H747.297C747.225 731.291 746.651 730.609 745.503 730.609C744.355 730.609 743.727 731.147 743.529 732.349ZM755.552 738.233C753.202 738.233 752.125 737.193 752.125 735.201V730.788H750.439V728.725H752.125V725.765H754.996V728.725H757.328V730.788H754.996V735.004C754.996 735.74 755.354 736.045 756.251 736.045C756.682 736.045 757.041 735.955 757.363 735.865V738C756.879 738.144 756.162 738.233 755.552 738.233ZM762.957 738.233C760.607 738.233 759.531 737.193 759.531 735.201V730.788H757.845V728.725H759.531V725.765H762.401V728.725H764.733V730.788H762.401V735.004C762.401 735.74 762.76 736.045 763.657 736.045C764.088 736.045 764.446 735.955 764.769 735.865V738C764.285 738.144 763.567 738.233 762.957 738.233ZM768.838 724.725V727.613H765.86V724.725H768.838ZM765.914 728.725H768.784V738H765.914V728.725ZM773.142 738H770.271V728.725H773.016L773.088 730.143C773.536 729.317 774.451 728.492 776.012 728.492C778.362 728.492 779.241 729.981 779.241 732.044V738H776.371V732.78C776.371 731.524 775.976 730.788 774.882 730.788C773.841 730.788 773.142 731.542 773.142 732.905V738ZM785.122 741.283C782.36 741.283 780.781 740.099 780.637 738.341H783.58C783.687 738.969 784.189 739.31 785.248 739.31C786.522 739.31 787.114 738.7 787.114 737.641V736.26C786.629 737.121 785.66 737.749 784.369 737.749C781.857 737.749 780.35 735.704 780.35 733.21V733.031C780.35 730.537 781.857 728.492 784.369 728.492C785.84 728.492 786.844 729.335 787.239 730.196L787.329 728.725H790.002V737.282C790.002 739.884 788.172 741.283 785.122 741.283ZM785.23 735.578C786.557 735.578 787.203 734.681 787.203 733.192V733.031C787.203 731.542 786.557 730.645 785.23 730.645C783.902 730.645 783.257 731.542 783.257 733.031V733.192C783.257 734.681 783.902 735.578 785.23 735.578ZM806.597 738H803.421L802.542 735.471H797.663L796.784 738H793.716L798.506 725.263H801.807L806.597 738ZM800.103 728.403L798.488 733.103H801.735L800.103 728.403ZM807.375 724.725H810.245V738H807.375V724.725ZM816.235 738.233C813.885 738.233 812.808 737.193 812.808 735.201V730.788H811.122V728.725H812.808V725.765H815.678V728.725H818.011V730.788H815.678V735.004C815.678 735.74 816.037 736.045 816.934 736.045C817.365 736.045 817.724 735.955 818.046 735.865V738C817.562 738.144 816.845 738.233 816.235 738.233ZM828.211 738H825.18V727.721H821.664V725.263H831.71V727.721H828.211V738ZM835.95 738.233C832.918 738.233 831.052 736.35 831.052 733.443V733.264C831.052 730.412 832.972 728.492 835.95 728.492C839.179 728.492 840.793 730.753 840.596 734.017H833.905C834.03 735.435 834.694 736.116 835.932 736.116C836.954 736.116 837.528 735.614 837.726 735.022H840.542C840.094 736.977 838.425 738.233 835.95 738.233ZM833.941 732.349H837.708C837.636 731.291 837.062 730.609 835.914 730.609C834.766 730.609 834.138 731.147 833.941 732.349ZM843.32 738H840.27L843.571 733.246L840.432 728.725H843.679L845.311 731.255L846.962 728.725H850.011L846.89 733.21L850.209 738H846.962L845.15 735.201L843.32 738ZM855.383 738.233C853.033 738.233 851.957 737.193 851.957 735.201V730.788H850.271V728.725H851.957V725.765H854.827V728.725H857.159V730.788H854.827V735.004C854.827 735.74 855.186 736.045 856.083 736.045C856.514 736.045 856.872 735.955 857.195 735.865V738C856.711 738.144 855.993 738.233 855.383 738.233ZM865.979 740.386H861.333V738H863.037V727.111H861.333V724.725H865.979V740.386Z" fill="#EB5B38"/>
<line x1="373.783" y1="732.374" x2="560.463" y2="732.374" stroke="#EB5B38" stroke-width="1.1212"/>
<line x1="374.344" y1="710.51" x2="374.344" y2="732.934" stroke="#EB5B38" stroke-width="1.1212"/>
<line x1="1053.79" y1="710.51" x2="1053.79" y2="732.934" stroke="#EB5B38" stroke-width="1.1212"/>
<line x1="866.552" y1="732.373" x2="1053.23" y2="732.373" stroke="#EB5B38" stroke-width="1.1212"/>
<path d="M70.192 101.624C59.824 101.624 53.44 94.472 53.44 84.44V83.48C53.44 73.448 60.064 66.296 70.24 66.296C79.072 66.296 84.928 71.816 85.408 80.12H77.248C76.912 75.56 74.224 72.968 70.096 72.968C64.768 72.968 61.84 77.192 61.84 83.48V84.44C61.84 90.728 64.816 94.904 70.144 94.904C74.272 94.904 77.008 92.216 77.2 87.464H85.36C84.928 95.96 79.264 101.624 70.192 101.624ZM96.5309 101.624C90.5789 101.624 87.8909 97.88 87.8909 91.976V76.184H95.6189V90.488C95.6189 93.8 96.8189 95.48 99.4109 95.48C102.099 95.48 103.875 93.56 103.875 89.672V76.184H111.603V101H104.211L104.019 97.448C102.675 99.56 100.131 101.624 96.5309 101.624ZM123.074 101H115.394V76.184H122.738L122.882 81.032C124.034 78.152 126.386 75.752 130.13 75.752C130.658 75.752 131.234 75.8 131.666 75.896V83.24C131.138 83.192 130.37 83.144 129.65 83.144C125.186 83.144 123.074 85.352 123.074 89.432V101ZM141.807 101H134.127V76.184H141.471L141.615 81.032C142.767 78.152 145.119 75.752 148.863 75.752C149.391 75.752 149.967 75.8 150.399 75.896V83.24C149.871 83.192 149.103 83.144 148.383 83.144C143.919 83.144 141.807 85.352 141.807 89.432V101ZM164.398 101.624C156.286 101.624 151.294 96.584 151.294 88.808V88.328C151.294 80.696 156.43 75.56 164.398 75.56C173.038 75.56 177.358 81.608 176.83 90.344H158.926C159.262 94.136 161.038 95.96 164.35 95.96C167.086 95.96 168.622 94.616 169.15 93.032H176.686C175.486 98.264 171.022 101.624 164.398 101.624ZM159.022 85.88H169.102C168.91 83.048 167.374 81.224 164.302 81.224C161.23 81.224 159.55 82.664 159.022 85.88ZM187.57 101H179.89V76.184H187.234L187.426 79.976C188.626 77.768 191.074 75.56 195.25 75.56C201.538 75.56 203.89 79.544 203.89 85.064V101H196.21V87.032C196.21 83.672 195.154 81.704 192.226 81.704C189.442 81.704 187.57 83.72 187.57 87.368V101ZM219.013 101.624C212.725 101.624 209.845 98.84 209.845 93.512V81.704H205.333V76.184H209.845V68.264H217.525V76.184H223.765V81.704H217.525V92.984C217.525 94.952 218.485 95.768 220.885 95.768C222.037 95.768 222.997 95.528 223.861 95.288V101C222.565 101.384 220.645 101.624 219.013 101.624ZM248.947 101.624C239.251 101.624 234.307 96.68 234.307 87.608V66.92H242.419V87.512C242.419 92.168 244.339 94.808 248.947 94.808C253.507 94.808 255.523 92.264 255.523 87.464V66.92H263.587V87.608C263.587 96.632 258.643 101.624 248.947 101.624ZM277.199 101.624C269.903 101.624 265.823 98.408 265.439 93.032H272.735C273.023 95.144 274.703 96.344 277.247 96.344C279.551 96.344 280.943 95.432 280.943 93.992C280.943 92.648 280.127 91.832 275.711 91.064C269.087 90.008 266.159 87.896 266.159 83.432C266.159 78.68 270.527 75.56 276.959 75.56C283.631 75.56 287.615 78.584 287.999 83.72H280.847C280.655 81.8 279.119 80.792 276.863 80.792C274.751 80.792 273.503 81.656 273.503 83C273.503 84.344 274.511 85.064 278.735 85.688C285.743 86.696 288.479 89.048 288.479 93.272C288.479 98.264 284.159 101.624 277.199 101.624ZM303.188 101.624C295.076 101.624 290.084 96.584 290.084 88.808V88.328C290.084 80.696 295.22 75.56 303.188 75.56C311.828 75.56 316.148 81.608 315.62 90.344H297.716C298.052 94.136 299.828 95.96 303.14 95.96C305.876 95.96 307.412 94.616 307.94 93.032H315.476C314.276 98.264 309.812 101.624 303.188 101.624ZM297.812 85.88H307.892C307.7 83.048 306.164 81.224 303.092 81.224C300.02 81.224 298.34 82.664 297.812 85.88ZM326.36 101H318.68V76.184H326.024L326.168 81.032C327.32 78.152 329.672 75.752 333.416 75.752C333.944 75.752 334.52 75.8 334.952 75.896V83.24C334.424 83.192 333.656 83.144 332.936 83.144C328.472 83.144 326.36 85.352 326.36 89.432V101ZM353.197 101H345.181V66.92H369.181V73.496H353.197V81.272H367.405V87.8H353.197V101ZM371.973 65.48H379.653V101H371.973V65.48ZM395.632 101.624C387.808 101.624 382.624 96.344 382.624 88.808V88.328C382.624 80.84 387.808 75.56 395.632 75.56C403.504 75.56 408.64 80.84 408.64 88.328V88.808C408.64 96.344 403.504 101.624 395.632 101.624ZM395.632 95.768C399.28 95.768 400.864 93.368 400.864 88.808V88.328C400.864 83.816 399.28 81.416 395.632 81.416C392.032 81.416 390.4 83.816 390.4 88.328V88.808C390.4 93.368 392.032 95.768 395.632 95.768ZM423.394 101H415.33L408.082 76.184H415.81L419.89 92.984L423.874 76.184H431.41L435.442 93.08L439.618 76.184H447.154L439.858 101H431.794L427.57 84.536L423.394 101Z" fill="#EB5B38"/>
</svg>
