<svg width="1128" height="740" viewBox="0 0 1128 740" fill="none" xmlns="http://www.w3.org/2000/svg">
<line x1="298.696" y1="142.696" x2="298.696" y2="723.304" stroke="#22C182" stroke-width="3.39271" stroke-linecap="round" stroke-dasharray="11.87 11.87"/>
<line x1="834.696" y1="142.696" x2="834.696" y2="723.304" stroke="#22C182" stroke-width="3.39271" stroke-linecap="round" stroke-dasharray="11.87 11.87"/>
<rect x="29.1213" y="432.105" width="381.458" height="381.458" rx="6.98178" transform="rotate(-45 29.1213 432.105)" stroke="#EB5B38" stroke-width="3"/>
<rect x="565.121" y="432.105" width="381.458" height="381.458" rx="6.98178" transform="rotate(-45 565.121 432.105)" stroke="#EB5B38" stroke-width="3"/>
<path d="M146.8 401.48V453.32C146.8 458.024 144.88 461 139.216 461H131.44V393.8H139.216C144.88 393.8 146.8 396.776 146.8 401.48ZM141.04 401.96C141.04 399.752 140.464 399.176 139.12 399.176H137.2V455.624H139.12C140.464 455.624 141.04 455.048 141.04 452.84V401.96ZM149.721 403.4V394.76H155.097V403.4H149.721ZM149.721 461V406.28H155.097V461H149.721ZM172.275 442.952V453.896C172.275 458.6 169.395 461.576 164.883 461.576C160.467 461.576 157.683 458.6 157.683 453.896V441.704H163.059V453.512C163.059 455.72 163.635 456.584 164.979 456.584C166.323 456.584 166.899 455.72 166.899 453.512V442.952C166.899 439.304 164.787 436.424 163.251 434.312L162.099 432.776C160.179 430.184 157.683 426.728 157.683 421.64V413.384C157.683 408.68 160.563 405.704 165.075 405.704C169.491 405.704 172.275 408.68 172.275 413.384V422.984H166.899V413.768C166.899 411.56 166.323 410.696 164.979 410.696C163.635 410.696 163.059 411.56 163.059 413.768V421.64C163.059 425.288 165.075 428.072 166.707 430.28L167.859 431.816C169.683 434.408 172.275 438.056 172.275 442.952ZM184.062 413.768C184.062 411.56 183.486 410.696 182.142 410.696C180.798 410.696 180.222 411.56 180.222 413.768V453.512C180.222 455.72 180.798 456.584 182.142 456.584C183.486 456.584 184.062 455.72 184.062 453.512V437.672H189.438V453.896C189.438 458.6 186.654 461.576 182.238 461.576C177.726 461.576 174.846 458.6 174.846 453.896V413.384C174.846 408.68 177.726 405.704 182.238 405.704C186.654 405.704 189.438 408.68 189.438 413.384V427.112H184.062V413.768ZM206.876 413.384V453.896C206.876 458.6 204.092 461.576 199.676 461.576C195.164 461.576 192.284 458.6 192.284 453.896V413.384C192.284 408.68 195.164 405.704 199.676 405.704C204.092 405.704 206.876 408.68 206.876 413.384ZM201.5 413.768C201.5 411.56 200.924 410.696 199.58 410.696C198.236 410.696 197.66 411.56 197.66 413.768V453.512C197.66 455.72 198.236 456.584 199.58 456.584C200.924 456.584 201.5 455.72 201.5 453.512V413.768ZM213.468 461L208.476 406.28H214.14L216.348 443.432L216.828 456.872H217.02L217.5 443.432L219.708 406.28H224.7L220.38 461H213.468ZM235.531 439.592H240.907V453.896C240.907 458.6 238.123 461.576 233.707 461.576C229.195 461.576 226.315 458.6 226.315 453.896V413.384C226.315 408.68 229.195 405.704 233.707 405.704C238.123 405.704 240.907 408.68 240.907 413.384V434.504H231.691V453.512C231.691 455.72 232.267 456.584 233.611 456.584C234.955 456.584 235.531 455.72 235.531 453.512V439.592ZM235.531 413.768C235.531 411.56 234.955 410.696 233.611 410.696C232.267 410.696 231.691 411.56 231.691 413.768V429.512H235.531V413.768ZM252.969 413.768C252.969 411.56 252.393 410.696 251.049 410.696C249.705 410.696 249.129 411.56 249.129 413.768V461H243.753V406.28H249.129V409.448H249.321C249.993 407.048 251.529 405.704 253.737 405.704C256.713 405.704 258.345 408.008 258.345 412.904V428.744H252.969V413.768Z" fill="#22C182"/>
<path d="M376.8 401.48V453.32C376.8 458.024 374.88 461 369.216 461H361.44V393.8H369.216C374.88 393.8 376.8 396.776 376.8 401.48ZM371.04 401.96C371.04 399.752 370.464 399.176 369.12 399.176H367.2V455.624H369.12C370.464 455.624 371.04 455.048 371.04 452.84V401.96ZM388.937 439.592H394.313V453.896C394.313 458.6 391.529 461.576 387.113 461.576C382.601 461.576 379.721 458.6 379.721 453.896V413.384C379.721 408.68 382.601 405.704 387.113 405.704C391.529 405.704 394.313 408.68 394.313 413.384V434.504H385.097V453.512C385.097 455.72 385.673 456.584 387.017 456.584C388.361 456.584 388.937 455.72 388.937 453.512V439.592ZM388.937 413.768C388.937 411.56 388.361 410.696 387.017 410.696C385.673 410.696 385.097 411.56 385.097 413.768V429.512H388.937V413.768ZM396.391 411.272V406.28H398.311V398.888C398.311 393.416 400.423 390.92 404.839 390.92H407.527V395.72C404.359 395.72 403.687 396.392 403.687 398.6V406.28H407.527V411.272H403.687V461H398.311V411.272H396.391ZM409.447 403.4V394.76H414.823V403.4H409.447ZM409.447 461V406.28H414.823V461H409.447ZM426.906 413.768C426.906 411.56 426.33 410.696 424.986 410.696C423.642 410.696 423.066 411.56 423.066 413.768V461H417.69V406.28H423.066V409.448H423.258C423.93 407.048 425.466 405.704 427.674 405.704C430.65 405.704 432.282 408.008 432.282 412.904V461H426.906V413.768ZM444.344 439.592H449.72V453.896C449.72 458.6 446.936 461.576 442.52 461.576C438.008 461.576 435.128 458.6 435.128 453.896V413.384C435.128 408.68 438.008 405.704 442.52 405.704C446.936 405.704 449.72 408.68 449.72 413.384V434.504H440.504V453.512C440.504 455.72 441.08 456.584 442.424 456.584C443.768 456.584 444.344 455.72 444.344 453.512V439.592ZM444.344 413.768C444.344 411.56 443.768 410.696 442.424 410.696C441.08 410.696 440.504 411.56 440.504 413.768V429.512H444.344V413.768Z" fill="#22C182"/>
<path d="M692.8 401.48V453.32C692.8 458.024 690.88 461 685.216 461H677.44V393.8H685.216C690.88 393.8 692.8 396.776 692.8 401.48ZM687.04 401.96C687.04 399.752 686.464 399.176 685.12 399.176H683.2V455.624H685.12C686.464 455.624 687.04 455.048 687.04 452.84V401.96ZM704.937 439.592H710.313V453.896C710.313 458.6 707.529 461.576 703.113 461.576C698.601 461.576 695.721 458.6 695.721 453.896V413.384C695.721 408.68 698.601 405.704 703.113 405.704C707.529 405.704 710.313 408.68 710.313 413.384V434.504H701.097V453.512C701.097 455.72 701.673 456.584 703.017 456.584C704.361 456.584 704.937 455.72 704.937 453.512V439.592ZM704.937 413.768C704.937 411.56 704.361 410.696 703.017 410.696C701.673 410.696 701.097 411.56 701.097 413.768V429.512H704.937V413.768ZM716.905 461L711.913 406.28H717.577L719.785 443.432L720.265 456.872H720.457L720.937 443.432L723.145 406.28H728.137L723.817 461H716.905ZM738.969 439.592H744.345V453.896C744.345 458.6 741.561 461.576 737.145 461.576C732.633 461.576 729.753 458.6 729.753 453.896V413.384C729.753 408.68 732.633 405.704 737.145 405.704C741.561 405.704 744.345 408.68 744.345 413.384V434.504H735.129V453.512C735.129 455.72 735.705 456.584 737.049 456.584C738.393 456.584 738.969 455.72 738.969 453.512V439.592ZM738.969 413.768C738.969 411.56 738.393 410.696 737.049 410.696C735.705 410.696 735.129 411.56 735.129 413.768V429.512H738.969V413.768ZM747.19 461V390.92H752.566V461H747.19ZM770.032 413.384V453.896C770.032 458.6 767.248 461.576 762.832 461.576C758.32 461.576 755.44 458.6 755.44 453.896V413.384C755.44 408.68 758.32 405.704 762.832 405.704C767.248 405.704 770.032 408.68 770.032 413.384ZM764.656 413.768C764.656 411.56 764.08 410.696 762.736 410.696C761.392 410.696 760.816 411.56 760.816 413.768V453.512C760.816 455.72 761.392 456.584 762.736 456.584C764.08 456.584 764.656 455.72 764.656 453.512V413.768ZM772.878 406.28H778.254V409.448H778.446C779.118 407.048 780.654 405.704 782.862 405.704C785.838 405.704 787.47 408.104 787.47 412.904V454.184C787.47 458.984 785.838 461.576 782.766 461.576C780.654 461.576 779.118 460.232 778.446 457.832H778.254V473.48H772.878V406.28ZM782.094 453.512V413.768C782.094 411.56 781.518 410.696 780.174 410.696C778.83 410.696 778.254 411.56 778.254 413.768V453.512C778.254 455.72 778.83 456.584 780.174 456.584C781.518 456.584 782.094 455.72 782.094 453.512Z" fill="#22C182"/>
<path d="M911.8 401.48V453.32C911.8 458.024 909.88 461 904.216 461H896.44V393.8H904.216C909.88 393.8 911.8 396.776 911.8 401.48ZM906.04 401.96C906.04 399.752 905.464 399.176 904.12 399.176H902.2V455.624H904.12C905.464 455.624 906.04 455.048 906.04 452.84V401.96ZM923.937 439.592H929.313V453.896C929.313 458.6 926.529 461.576 922.113 461.576C917.601 461.576 914.721 458.6 914.721 453.896V413.384C914.721 408.68 917.601 405.704 922.113 405.704C926.529 405.704 929.313 408.68 929.313 413.384V434.504H920.097V453.512C920.097 455.72 920.673 456.584 922.017 456.584C923.361 456.584 923.937 455.72 923.937 453.512V439.592ZM923.937 413.768C923.937 411.56 923.361 410.696 922.017 410.696C920.673 410.696 920.097 411.56 920.097 413.768V429.512H923.937V413.768ZM932.159 461V390.92H937.535V461H932.159ZM940.409 403.4V394.76H945.785V403.4H940.409ZM940.409 461V406.28H945.785V461H940.409ZM952.499 461L947.507 406.28H953.171L955.379 443.432L955.859 456.872H956.051L956.531 443.432L958.739 406.28H963.731L959.411 461H952.499ZM974.562 439.592H979.938V453.896C979.938 458.6 977.154 461.576 972.738 461.576C968.226 461.576 965.346 458.6 965.346 453.896V413.384C965.346 408.68 968.226 405.704 972.738 405.704C977.154 405.704 979.938 408.68 979.938 413.384V434.504H970.722V453.512C970.722 455.72 971.298 456.584 972.642 456.584C973.986 456.584 974.562 455.72 974.562 453.512V439.592ZM974.562 413.768C974.562 411.56 973.986 410.696 972.642 410.696C971.298 410.696 970.722 411.56 970.722 413.768V429.512H974.562V413.768ZM992 413.768C992 411.56 991.424 410.696 990.08 410.696C988.736 410.696 988.16 411.56 988.16 413.768V461H982.784V406.28H988.16V409.448H988.352C989.024 407.048 990.56 405.704 992.768 405.704C995.744 405.704 997.376 408.008 997.376 412.904V428.744H992V413.768Z" fill="#22C182"/>
<path d="M72.9822 683.34C71.9022 683.34 70.9022 682.66 70.9022 681.3C70.9022 679.9 71.9022 679.24 72.9822 679.24C74.0822 679.24 75.0822 679.9 75.0822 681.3C75.0822 682.66 74.0822 683.34 72.9822 683.34ZM95.48 687.26C91.36 687.26 88.74 684.32 88.74 680.14V679.66C88.74 675.46 91.36 672.54 95.48 672.54C99.62 672.54 102.24 675.46 102.24 679.66V680.14C102.24 684.32 99.62 687.26 95.48 687.26ZM95.48 685.26C98.24 685.26 99.82 683.24 99.82 680.14V679.66C99.82 676.56 98.24 674.54 95.48 674.54C92.74 674.54 91.14 676.56 91.14 679.66V680.14C91.14 683.24 92.76 685.26 95.48 685.26ZM109.6 687.26C107.86 687.26 106.7 686.28 106.2 685.3L106.14 687H104.08V672.2H106.3V678.22C106.9 677.24 108.02 676.46 109.66 676.46C112.36 676.46 114.06 678.64 114.06 681.7V682C114.06 685.08 112.3 687.26 109.6 687.26ZM109.06 685.48C110.82 685.48 111.82 684.2 111.82 682V681.7C111.82 679.48 110.82 678.2 109.06 678.2C107.22 678.2 106.22 679.48 106.22 681.7V682C106.22 684.22 107.22 685.48 109.06 685.48ZM119.624 687.26C116.964 687.26 115.304 686 115.104 683.8H117.224C117.404 685.02 118.284 685.6 119.644 685.6C120.884 685.6 121.724 685.1 121.724 684.18C121.724 683.36 121.144 682.96 119.184 682.6C116.684 682.18 115.464 681.38 115.464 679.54C115.464 677.7 117.124 676.46 119.484 676.46C121.964 676.46 123.504 677.64 123.704 679.68H121.604C121.444 678.64 120.644 678.08 119.464 678.08C118.324 678.08 117.584 678.58 117.584 679.42C117.584 680.22 118.164 680.6 120.044 680.9C122.644 681.32 123.904 682.18 123.904 683.98C123.904 685.94 122.204 687.26 119.624 687.26ZM130.148 687.26C126.948 687.26 125.048 685.12 125.048 682V681.7C125.048 678.58 126.988 676.46 130.148 676.46C133.528 676.46 135.168 678.82 135.008 682.34H127.308C127.408 684.4 128.408 685.5 130.148 685.5C131.588 685.5 132.448 684.82 132.748 683.78H134.948C134.448 685.94 132.728 687.26 130.148 687.26ZM127.348 680.76H132.748C132.588 679.16 131.748 678.2 130.128 678.2C128.528 678.2 127.588 679.08 127.348 680.76ZM138.995 687H136.795V676.7H138.915L138.975 678.7C139.535 677.38 140.615 676.5 142.095 676.5C142.255 676.5 142.475 676.52 142.655 676.56V678.7C142.455 678.68 142.215 678.66 141.975 678.66C140.115 678.66 138.995 679.72 138.995 681.76V687ZM149.676 687H147.236L143.416 676.7H145.736L148.496 684.76L151.216 676.7H153.476L149.676 687ZM157.315 687.26C155.195 687.26 153.855 685.98 153.855 684.22C153.855 682.58 154.855 681.5 156.615 681.26L160.675 680.66V679.92C160.675 678.78 159.895 678.18 158.595 678.18C157.315 678.18 156.455 678.76 156.355 679.8H154.255C154.435 677.68 156.115 676.46 158.635 676.46C161.295 676.46 162.795 677.86 162.795 680V687H160.775L160.695 685.4C160.055 686.56 158.795 687.26 157.315 687.26ZM157.815 685.52C159.355 685.52 160.675 684.56 160.675 683.22V682.28L157.375 682.74C156.435 682.88 155.995 683.32 155.995 684.12C155.995 684.98 156.655 685.52 157.815 685.52ZM169.225 687.26C166.965 687.26 165.845 686.22 165.845 684.22V678.36H163.845V676.7H165.845V673.48H168.045V676.7H170.845V678.36H168.045V683.98C168.045 685 168.425 685.46 169.645 685.46C170.085 685.46 170.605 685.36 170.905 685.26V687.02C170.445 687.16 169.745 687.26 169.225 687.26ZM174.856 672.2V675.2H172.556V672.2H174.856ZM172.596 676.7H174.796V687H172.596V676.7ZM181.671 687.26C178.591 687.26 176.591 685.14 176.591 682V681.7C176.591 678.56 178.591 676.46 181.671 676.46C184.771 676.46 186.771 678.56 186.771 681.7V682C186.771 685.14 184.771 687.26 181.671 687.26ZM181.671 685.48C183.551 685.48 184.531 684.22 184.531 682V681.7C184.531 679.48 183.551 678.24 181.671 678.24C179.811 678.24 178.831 679.48 178.831 681.7V682C178.831 684.22 179.811 685.48 181.671 685.48ZM190.773 687H188.573V676.7H190.693L190.773 678.34C191.313 677.32 192.393 676.46 194.053 676.46C196.553 676.46 197.613 678.02 197.613 680.36V687H195.433V680.9C195.433 679.22 194.813 678.28 193.313 678.28C191.793 678.28 190.773 679.4 190.773 681.24V687ZM72.9822 707.34C71.9022 707.34 70.9022 706.66 70.9022 705.3C70.9022 703.9 71.9022 703.24 72.9822 703.24C74.0822 703.24 75.0822 703.9 75.0822 705.3C75.0822 706.66 74.0822 707.34 72.9822 707.34ZM95.38 711.26C91.36 711.26 88.74 708.36 88.74 704.14V703.66C88.74 699.48 91.38 696.54 95.4 696.54C98.82 696.54 101.12 698.7 101.4 701.96H99.04C98.76 699.82 97.4 698.54 95.38 698.54C92.72 698.54 91.14 700.64 91.14 703.66V704.14C91.14 707.16 92.74 709.24 95.38 709.24C97.54 709.24 98.92 707.8 99.02 705.64H101.4C101.18 708.88 98.92 711.26 95.38 711.26ZM107.764 711.26C104.684 711.26 102.684 709.14 102.684 706V705.7C102.684 702.56 104.684 700.46 107.764 700.46C110.864 700.46 112.864 702.56 112.864 705.7V706C112.864 709.14 110.864 711.26 107.764 711.26ZM107.764 709.48C109.644 709.48 110.624 708.22 110.624 706V705.7C110.624 703.48 109.644 702.24 107.764 702.24C105.904 702.24 104.924 703.48 104.924 705.7V706C104.924 708.22 105.904 709.48 107.764 709.48ZM116.866 711H114.666V700.7H116.786L116.846 702.3C117.366 701.32 118.406 700.46 120.026 700.46C121.566 700.46 122.626 701.16 123.106 702.46C123.826 701.2 124.986 700.46 126.506 700.46C128.866 700.46 129.946 701.98 129.946 704.36V711H127.746V704.8C127.746 703.1 127.126 702.28 125.766 702.28C124.286 702.28 123.426 703.38 123.426 705.28V711H121.226V704.82C121.226 703.14 120.626 702.28 119.266 702.28C117.786 702.28 116.866 703.36 116.866 705.3V711ZM134.308 714.4H132.088V700.7H134.148L134.208 702.4C134.708 701.42 135.908 700.46 137.668 700.46C140.368 700.46 142.068 702.62 142.068 705.7V706C142.068 709.08 140.328 711.26 137.608 711.26C136.008 711.26 134.868 710.42 134.308 709.44V714.4ZM137.068 709.48C138.828 709.48 139.828 708.22 139.828 706V705.7C139.828 703.48 138.828 702.2 137.068 702.2C135.228 702.2 134.228 703.48 134.228 705.7V706C134.228 708.22 135.228 709.48 137.068 709.48ZM148.566 711.26C145.366 711.26 143.466 709.12 143.466 706V705.7C143.466 702.58 145.406 700.46 148.566 700.46C151.946 700.46 153.586 702.82 153.426 706.34H145.726C145.826 708.4 146.826 709.5 148.566 709.5C150.006 709.5 150.866 708.82 151.166 707.78H153.366C152.866 709.94 151.146 711.26 148.566 711.26ZM145.766 704.76H151.166C151.006 703.16 150.166 702.2 148.546 702.2C146.946 702.2 146.006 703.08 145.766 704.76ZM159.44 711.26C157.18 711.26 156.06 710.22 156.06 708.22V702.36H154.06V700.7H156.06V697.48H158.26V700.7H161.06V702.36H158.26V707.98C158.26 709 158.64 709.46 159.86 709.46C160.3 709.46 160.82 709.36 161.12 709.26V711.02C160.66 711.16 159.96 711.26 159.44 711.26ZM165.071 696.2V699.2H162.771V696.2H165.071ZM162.811 700.7H165.011V711H162.811V700.7ZM171.705 711.26C169.445 711.26 168.325 710.22 168.325 708.22V702.36H166.325V700.7H168.325V697.48H170.525V700.7H173.325V702.36H170.525V707.98C170.525 709 170.905 709.46 172.125 709.46C172.565 709.46 173.085 709.36 173.385 709.26V711.02C172.925 711.16 172.225 711.26 171.705 711.26ZM179.522 711.26C176.442 711.26 174.442 709.14 174.442 706V705.7C174.442 702.56 176.442 700.46 179.522 700.46C182.622 700.46 184.622 702.56 184.622 705.7V706C184.622 709.14 182.622 711.26 179.522 711.26ZM179.522 709.48C181.402 709.48 182.382 708.22 182.382 706V705.7C182.382 703.48 181.402 702.24 179.522 702.24C177.662 702.24 176.682 703.48 176.682 705.7V706C176.682 708.22 177.662 709.48 179.522 709.48ZM188.624 711H186.424V700.7H188.544L188.604 702.7C189.164 701.38 190.244 700.5 191.724 700.5C191.884 700.5 192.104 700.52 192.284 700.56V702.7C192.084 702.68 191.844 702.66 191.604 702.66C189.744 702.66 188.624 703.72 188.624 705.76V711ZM210.059 711H207.599L206.339 707.54H200.239L198.959 711H196.599L202.059 696.8H204.599L210.059 711ZM203.299 699.28L200.959 705.6H205.619L203.299 699.28ZM213.605 711H211.405V700.7H213.525L213.605 702.34C214.145 701.32 215.225 700.46 216.885 700.46C219.385 700.46 220.445 702.02 220.445 704.36V711H218.265V704.9C218.265 703.22 217.645 702.28 216.145 702.28C214.625 702.28 213.605 703.4 213.605 705.24V711ZM225.577 711.26C223.457 711.26 222.117 709.98 222.117 708.22C222.117 706.58 223.117 705.5 224.877 705.26L228.937 704.66V703.92C228.937 702.78 228.157 702.18 226.857 702.18C225.577 702.18 224.717 702.76 224.617 703.8H222.517C222.697 701.68 224.377 700.46 226.897 700.46C229.557 700.46 231.057 701.86 231.057 704V711H229.037L228.957 709.4C228.317 710.56 227.057 711.26 225.577 711.26ZM226.077 709.52C227.617 709.52 228.937 708.56 228.937 707.22V706.28L225.637 706.74C224.697 706.88 224.257 707.32 224.257 708.12C224.257 708.98 224.917 709.52 226.077 709.52ZM233.202 696.2H235.402V711H233.202V696.2ZM241.636 714.4H239.376L240.696 710.94L236.736 700.7H239.076L241.856 708.52L244.536 700.7H246.796L241.636 714.4ZM251.694 711.26C249.034 711.26 247.374 710 247.174 707.8H249.294C249.474 709.02 250.354 709.6 251.714 709.6C252.954 709.6 253.794 709.1 253.794 708.18C253.794 707.36 253.214 706.96 251.254 706.6C248.754 706.18 247.534 705.38 247.534 703.54C247.534 701.7 249.194 700.46 251.554 700.46C254.034 700.46 255.574 701.64 255.774 703.68H253.674C253.514 702.64 252.714 702.08 251.534 702.08C250.394 702.08 249.654 702.58 249.654 703.42C249.654 704.22 250.234 704.6 252.114 704.9C254.714 705.32 255.974 706.18 255.974 707.98C255.974 709.94 254.274 711.26 251.694 711.26ZM259.973 696.2V699.2H257.673V696.2H259.973ZM257.713 700.7H259.913V711H257.713V700.7ZM266.128 711.26C263.468 711.26 261.808 710 261.608 707.8H263.728C263.908 709.02 264.788 709.6 266.148 709.6C267.388 709.6 268.228 709.1 268.228 708.18C268.228 707.36 267.648 706.96 265.688 706.6C263.188 706.18 261.968 705.38 261.968 703.54C261.968 701.7 263.628 700.46 265.988 700.46C268.468 700.46 270.008 701.64 270.208 703.68H268.108C267.948 702.64 267.148 702.08 265.968 702.08C264.828 702.08 264.088 702.58 264.088 703.42C264.088 704.22 264.668 704.6 266.548 704.9C269.148 705.32 270.408 706.18 270.408 707.98C270.408 709.94 268.708 711.26 266.128 711.26ZM72.9822 731.34C71.9022 731.34 70.9022 730.66 70.9022 729.3C70.9022 727.9 71.9022 727.24 72.9822 727.24C74.0822 727.24 75.0822 727.9 75.0822 729.3C75.0822 730.66 74.0822 731.34 72.9822 731.34ZM94.16 735H89.2V720.8H94.16C98.32 720.8 101.18 723.22 101.18 727.66V728.14C101.18 732.54 98.34 735 94.16 735ZM91.52 722.76V733.04H94C96.92 733.04 98.78 731.54 98.78 728.14V727.66C98.78 724.28 96.94 722.76 93.96 722.76H91.52ZM105.83 735.26C103.71 735.26 102.37 733.98 102.37 732.22C102.37 730.58 103.37 729.5 105.13 729.26L109.19 728.66V727.92C109.19 726.78 108.41 726.18 107.11 726.18C105.83 726.18 104.97 726.76 104.87 727.8H102.77C102.95 725.68 104.63 724.46 107.15 724.46C109.81 724.46 111.31 725.86 111.31 728V735H109.29L109.21 733.4C108.57 734.56 107.31 735.26 105.83 735.26ZM106.33 733.52C107.87 733.52 109.19 732.56 109.19 731.22V730.28L105.89 730.74C104.95 730.88 104.51 731.32 104.51 732.12C104.51 732.98 105.17 733.52 106.33 733.52ZM117.741 735.26C115.481 735.26 114.361 734.22 114.361 732.22V726.36H112.361V724.7H114.361V721.48H116.561V724.7H119.361V726.36H116.561V731.98C116.561 733 116.941 733.46 118.161 733.46C118.601 733.46 119.121 733.36 119.421 733.26V735.02C118.961 735.16 118.261 735.26 117.741 735.26ZM124.073 735.26C121.953 735.26 120.613 733.98 120.613 732.22C120.613 730.58 121.613 729.5 123.373 729.26L127.433 728.66V727.92C127.433 726.78 126.653 726.18 125.353 726.18C124.073 726.18 123.213 726.76 123.113 727.8H121.013C121.193 725.68 122.873 724.46 125.393 724.46C128.053 724.46 129.553 725.86 129.553 728V735H127.533L127.453 733.4C126.813 734.56 125.553 735.26 124.073 735.26ZM124.573 733.52C126.113 733.52 127.433 732.56 127.433 731.22V730.28L124.133 730.74C123.193 730.88 122.753 731.32 122.753 732.12C122.753 732.98 123.413 733.52 124.573 733.52ZM141.689 735.26C137.669 735.26 135.049 732.36 135.049 728.14V727.66C135.049 723.48 137.689 720.54 141.709 720.54C145.129 720.54 147.429 722.7 147.709 725.96H145.349C145.069 723.82 143.709 722.54 141.689 722.54C139.029 722.54 137.449 724.64 137.449 727.66V728.14C137.449 731.16 139.049 733.24 141.689 733.24C143.849 733.24 145.229 731.8 145.329 729.64H147.709C147.489 732.88 145.229 735.26 141.689 735.26ZM154.073 735.26C150.993 735.26 148.993 733.14 148.993 730V729.7C148.993 726.56 150.993 724.46 154.073 724.46C157.173 724.46 159.173 726.56 159.173 729.7V730C159.173 733.14 157.173 735.26 154.073 735.26ZM154.073 733.48C155.953 733.48 156.933 732.22 156.933 730V729.7C156.933 727.48 155.953 726.24 154.073 726.24C152.213 726.24 151.233 727.48 151.233 729.7V730C151.233 732.22 152.213 733.48 154.073 733.48ZM160.975 720.2H163.175V735H160.975V720.2ZM165.389 720.2H167.589V735H165.389V720.2ZM174.484 735.26C171.284 735.26 169.384 733.12 169.384 730V729.7C169.384 726.58 171.324 724.46 174.484 724.46C177.864 724.46 179.504 726.82 179.344 730.34H171.644C171.744 732.4 172.744 733.5 174.484 733.5C175.924 733.5 176.784 732.82 177.084 731.78H179.284C178.784 733.94 177.064 735.26 174.484 735.26ZM171.684 728.76H177.084C176.924 727.16 176.084 726.2 174.464 726.2C172.864 726.2 171.924 727.08 171.684 728.76ZM185.691 735.26C182.571 735.26 180.731 733.12 180.731 730V729.7C180.731 726.58 182.571 724.46 185.711 724.46C188.291 724.46 189.991 725.98 190.271 728.36H188.111C187.891 727.06 187.131 726.24 185.671 726.24C183.891 726.24 182.971 727.48 182.971 729.7V730C182.971 732.22 183.891 733.48 185.671 733.48C187.131 733.48 187.911 732.62 188.131 731.32H190.311C189.971 733.74 188.271 735.26 185.691 735.26ZM196.334 735.26C194.074 735.26 192.954 734.22 192.954 732.22V726.36H190.954V724.7H192.954V721.48H195.154V724.7H197.954V726.36H195.154V731.98C195.154 733 195.534 733.46 196.754 733.46C197.194 733.46 197.714 733.36 198.014 733.26V735.02C197.554 735.16 196.854 735.26 196.334 735.26ZM201.965 720.2V723.2H199.665V720.2H201.965ZM199.705 724.7H201.905V735H199.705V724.7ZM208.78 735.26C205.7 735.26 203.7 733.14 203.7 730V729.7C203.7 726.56 205.7 724.46 208.78 724.46C211.88 724.46 213.88 726.56 213.88 729.7V730C213.88 733.14 211.88 735.26 208.78 735.26ZM208.78 733.48C210.66 733.48 211.64 732.22 211.64 730V729.7C211.64 727.48 210.66 726.24 208.78 726.24C206.92 726.24 205.94 727.48 205.94 729.7V730C205.94 732.22 206.92 733.48 208.78 733.48ZM217.882 735H215.682V724.7H217.802L217.882 726.34C218.422 725.32 219.502 724.46 221.162 724.46C223.662 724.46 224.722 726.02 224.722 728.36V735H222.542V728.9C222.542 727.22 221.922 726.28 220.422 726.28C218.902 726.28 217.882 727.4 217.882 729.24V735Z" fill="black"/>
<path d="M372.982 683.34C371.902 683.34 370.902 682.66 370.902 681.3C370.902 679.9 371.902 679.24 372.982 679.24C374.082 679.24 375.082 679.9 375.082 681.3C375.082 682.66 374.082 683.34 372.982 683.34ZM394.88 687.26C391.1 687.26 389.14 685.18 389.14 681.58V672.8H391.48V681.52C391.48 683.96 392.6 685.22 394.88 685.22C397.14 685.22 398.3 683.96 398.3 681.5V672.8H400.62V681.56C400.62 685.14 398.68 687.26 394.88 687.26ZM406.577 687.26C403.917 687.26 402.257 686 402.057 683.8H404.177C404.357 685.02 405.237 685.6 406.597 685.6C407.837 685.6 408.677 685.1 408.677 684.18C408.677 683.36 408.097 682.96 406.137 682.6C403.637 682.18 402.417 681.38 402.417 679.54C402.417 677.7 404.077 676.46 406.437 676.46C408.917 676.46 410.457 677.64 410.657 679.68H408.557C408.397 678.64 407.597 678.08 406.417 678.08C405.277 678.08 404.537 678.58 404.537 679.42C404.537 680.22 405.117 680.6 406.997 680.9C409.597 681.32 410.857 682.18 410.857 683.98C410.857 685.94 409.157 687.26 406.577 687.26ZM417.101 687.26C413.901 687.26 412.001 685.12 412.001 682V681.7C412.001 678.58 413.941 676.46 417.101 676.46C420.481 676.46 422.121 678.82 421.961 682.34H414.261C414.361 684.4 415.361 685.5 417.101 685.5C418.541 685.5 419.401 684.82 419.701 683.78H421.901C421.401 685.94 419.681 687.26 417.101 687.26ZM414.301 680.76H419.701C419.541 679.16 418.701 678.2 417.081 678.2C415.481 678.2 414.541 679.08 414.301 680.76ZM425.948 687H423.748V676.7H425.868L425.928 678.7C426.488 677.38 427.568 676.5 429.048 676.5C429.208 676.5 429.428 676.52 429.608 676.56V678.7C429.408 678.68 429.168 678.66 428.928 678.66C427.068 678.66 425.948 679.72 425.948 681.76V687ZM437.204 687H434.884V672.8H444.184V674.74H437.204V679.02H443.524V680.96H437.204V687ZM445.897 672.2H448.097V687H445.897V672.2ZM454.971 687.26C451.891 687.26 449.891 685.14 449.891 682V681.7C449.891 678.56 451.891 676.46 454.971 676.46C458.071 676.46 460.071 678.56 460.071 681.7V682C460.071 685.14 458.071 687.26 454.971 687.26ZM454.971 685.48C456.851 685.48 457.831 684.22 457.831 682V681.7C457.831 679.48 456.851 678.24 454.971 678.24C453.111 678.24 452.131 679.48 452.131 681.7V682C452.131 684.22 453.111 685.48 454.971 685.48ZM465.887 687H463.567L460.467 676.7H462.687L464.827 684.54L466.967 676.7H469.147L471.327 684.6L473.487 676.7H475.667L472.547 687H470.227L468.047 679.34L465.887 687ZM372.982 707.34C371.902 707.34 370.902 706.66 370.902 705.3C370.902 703.9 371.902 703.24 372.982 703.24C374.082 703.24 375.082 703.9 375.082 705.3C375.082 706.66 374.082 707.34 372.982 707.34ZM391.5 711H389.2V696.8H394.98C397.84 696.8 399.84 698.28 399.84 701.04V701.36C399.84 704.12 397.84 705.6 394.98 705.6H391.5V711ZM391.5 698.76V703.64H394.8C396.4 703.64 397.46 702.92 397.46 701.36V701.04C397.46 699.48 396.4 698.76 394.8 698.76H391.5ZM405.558 711.26C402.358 711.26 400.458 709.12 400.458 706V705.7C400.458 702.58 402.398 700.46 405.558 700.46C408.938 700.46 410.578 702.82 410.418 706.34H402.718C402.818 708.4 403.818 709.5 405.558 709.5C406.998 709.5 407.858 708.82 408.158 707.78H410.358C409.858 709.94 408.138 711.26 405.558 711.26ZM402.758 704.76H408.158C407.998 703.16 407.158 702.2 405.538 702.2C403.938 702.2 402.998 703.08 402.758 704.76ZM414.405 711H412.205V700.7H414.325L414.385 702.7C414.945 701.38 416.025 700.5 417.505 700.5C417.665 700.5 417.885 700.52 418.065 700.56V702.7C417.865 702.68 417.625 702.66 417.385 702.66C415.525 702.66 414.405 703.72 414.405 705.76V711ZM423.257 711.26C420.597 711.26 418.937 710 418.737 707.8H420.857C421.037 709.02 421.917 709.6 423.277 709.6C424.517 709.6 425.357 709.1 425.357 708.18C425.357 707.36 424.777 706.96 422.817 706.6C420.317 706.18 419.097 705.38 419.097 703.54C419.097 701.7 420.757 700.46 423.117 700.46C425.597 700.46 427.137 701.64 427.337 703.68H425.237C425.077 702.64 424.277 702.08 423.097 702.08C421.957 702.08 421.217 702.58 421.217 703.42C421.217 704.22 421.797 704.6 423.677 704.9C426.277 705.32 427.537 706.18 427.537 707.98C427.537 709.94 425.837 711.26 423.257 711.26ZM433.76 711.26C430.68 711.26 428.68 709.14 428.68 706V705.7C428.68 702.56 430.68 700.46 433.76 700.46C436.86 700.46 438.86 702.56 438.86 705.7V706C438.86 709.14 436.86 711.26 433.76 711.26ZM433.76 709.48C435.64 709.48 436.62 708.22 436.62 706V705.7C436.62 703.48 435.64 702.24 433.76 702.24C431.9 702.24 430.92 703.48 430.92 705.7V706C430.92 708.22 431.9 709.48 433.76 709.48ZM442.863 711H440.663V700.7H442.783L442.863 702.34C443.403 701.32 444.483 700.46 446.143 700.46C448.643 700.46 449.703 702.02 449.703 704.36V711H447.523V704.9C447.523 703.22 446.903 702.28 445.403 702.28C443.883 702.28 442.863 703.4 442.863 705.24V711ZM454.834 711.26C452.714 711.26 451.374 709.98 451.374 708.22C451.374 706.58 452.374 705.5 454.134 705.26L458.194 704.66V703.92C458.194 702.78 457.414 702.18 456.114 702.18C454.834 702.18 453.974 702.76 453.874 703.8H451.774C451.954 701.68 453.634 700.46 456.154 700.46C458.814 700.46 460.314 701.86 460.314 704V711H458.294L458.214 709.4C457.574 710.56 456.314 711.26 454.834 711.26ZM455.334 709.52C456.874 709.52 458.194 708.56 458.194 707.22V706.28L454.894 706.74C453.954 706.88 453.514 707.32 453.514 708.12C453.514 708.98 454.174 709.52 455.334 709.52ZM372.982 731.34C371.902 731.34 370.902 730.66 370.902 729.3C370.902 727.9 371.902 727.24 372.982 727.24C374.082 727.24 375.082 727.9 375.082 729.3C375.082 730.66 374.082 731.34 372.982 731.34ZM393.42 735.26C390.24 735.26 388.6 733.44 388.6 730.78V730H390.9V730.74C390.9 732.32 391.66 733.22 393.38 733.22C395.1 733.22 395.9 732.34 395.9 730.44V720.8H398.22V730.34C398.22 733.4 396.46 735.26 393.42 735.26ZM405.069 735.26C401.989 735.26 399.989 733.14 399.989 730V729.7C399.989 726.56 401.989 724.46 405.069 724.46C408.169 724.46 410.169 726.56 410.169 729.7V730C410.169 733.14 408.169 735.26 405.069 735.26ZM405.069 733.48C406.949 733.48 407.929 732.22 407.929 730V729.7C407.929 727.48 406.949 726.24 405.069 726.24C403.209 726.24 402.229 727.48 402.229 729.7V730C402.229 732.22 403.209 733.48 405.069 733.48ZM415.373 735.26C412.973 735.26 411.813 733.74 411.813 731.32V724.7H414.033V730.9C414.033 732.48 414.613 733.42 416.093 733.42C417.613 733.42 418.513 732.26 418.513 730.42V724.7H420.733V735H418.593L418.553 733.44C417.953 734.44 416.853 735.26 415.373 735.26ZM425.128 735H422.928V724.7H425.048L425.108 726.7C425.668 725.38 426.748 724.5 428.228 724.5C428.388 724.5 428.608 724.52 428.788 724.56V726.7C428.588 726.68 428.348 726.66 428.108 726.66C426.248 726.66 425.128 727.72 425.128 729.76V735ZM432.53 735H430.33V724.7H432.45L432.53 726.34C433.07 725.32 434.15 724.46 435.81 724.46C438.31 724.46 439.37 726.02 439.37 728.36V735H437.19V728.9C437.19 727.22 436.57 726.28 435.07 726.28C433.55 726.28 432.53 727.4 432.53 729.24V735ZM446.202 735.26C443.002 735.26 441.102 733.12 441.102 730V729.7C441.102 726.58 443.042 724.46 446.202 724.46C449.582 724.46 451.222 726.82 451.062 730.34H443.362C443.462 732.4 444.462 733.5 446.202 733.5C447.642 733.5 448.502 732.82 448.802 731.78H451.002C450.502 733.94 448.782 735.26 446.202 735.26ZM443.402 728.76H448.802C448.642 727.16 447.802 726.2 446.182 726.2C444.582 726.2 443.642 727.08 443.402 728.76ZM456.343 738.4H454.083L455.403 734.94L451.443 724.7H453.783L456.563 732.52L459.243 724.7H461.503L456.343 738.4ZM468.921 735H466.641V720.8H470.061L474.041 732.12L478.001 720.8H481.301V735H479.061V723.5L474.981 735H473.021L468.921 723.48V735ZM486.592 735.26C484.472 735.26 483.132 733.98 483.132 732.22C483.132 730.58 484.132 729.5 485.892 729.26L489.952 728.66V727.92C489.952 726.78 489.172 726.18 487.872 726.18C486.592 726.18 485.732 726.76 485.632 727.8H483.532C483.712 725.68 485.392 724.46 487.912 724.46C490.572 724.46 492.072 725.86 492.072 728V735H490.052L489.972 733.4C489.332 734.56 488.072 735.26 486.592 735.26ZM487.092 733.52C488.632 733.52 489.952 732.56 489.952 731.22V730.28L486.652 730.74C485.712 730.88 485.272 731.32 485.272 732.12C485.272 732.98 485.932 733.52 487.092 733.52ZM496.437 738.4H494.217V724.7H496.277L496.337 726.4C496.837 725.42 498.037 724.46 499.797 724.46C502.497 724.46 504.197 726.62 504.197 729.7V730C504.197 733.08 502.457 735.26 499.737 735.26C498.137 735.26 496.997 734.42 496.437 733.44V738.4ZM499.197 733.48C500.957 733.48 501.957 732.22 501.957 730V729.7C501.957 727.48 500.957 726.2 499.197 726.2C497.357 726.2 496.357 727.48 496.357 729.7V730C496.357 732.22 497.357 733.48 499.197 733.48Z" fill="black"/>
<path d="M605.982 683.34C604.902 683.34 603.902 682.66 603.902 681.3C603.902 679.9 604.902 679.24 605.982 679.24C607.082 679.24 608.082 679.9 608.082 681.3C608.082 682.66 607.082 683.34 605.982 683.34ZM630.48 687H622.2V672.8H624.54V685.06H630.48V687ZM636.546 687.26C633.466 687.26 631.466 685.14 631.466 682V681.7C631.466 678.56 633.466 676.46 636.546 676.46C639.646 676.46 641.646 678.56 641.646 681.7V682C641.646 685.14 639.646 687.26 636.546 687.26ZM636.546 685.48C638.426 685.48 639.406 684.22 639.406 682V681.7C639.406 679.48 638.426 678.24 636.546 678.24C634.686 678.24 633.706 679.48 633.706 681.7V682C633.706 684.22 634.686 685.48 636.546 685.48ZM647.461 687H645.141L642.041 676.7H644.261L646.401 684.54L648.541 676.7H650.721L652.901 684.6L655.061 676.7H657.241L654.121 687H651.801L649.621 679.34L647.461 687ZM664.764 682.1H658.564V680.2H664.764V682.1ZM670.283 687H668.083V678.36H666.083V676.7H668.083V674.98C668.083 672.98 669.203 671.94 671.463 671.94C671.983 671.94 672.683 672.06 673.143 672.18V673.92C672.843 673.84 672.323 673.72 671.883 673.72C670.663 673.72 670.283 674.2 670.283 675.22V676.7H673.083V678.36H670.283V687ZM676.803 675.2H674.503V672.2H676.803V675.2ZM676.743 676.7V687H674.543V676.7H676.743ZM688.287 687H685.587L681.787 672.8H684.207L687.007 684.1L690.027 672.8H692.547L695.527 684.12L698.307 672.8H700.627L696.807 687H694.207L691.247 675.92L688.287 687ZM704.223 672.2V675.2H701.923V672.2H704.223ZM701.963 676.7H704.163V687H701.963V676.7ZM708.558 687H706.358V676.7H708.478L708.538 678.7C709.098 677.38 710.178 676.5 711.658 676.5C711.818 676.5 712.038 676.52 712.218 676.56V678.7C712.018 678.68 711.778 678.66 711.538 678.66C709.678 678.66 708.558 679.72 708.558 681.76V687ZM718.03 687.26C714.83 687.26 712.93 685.12 712.93 682V681.7C712.93 678.58 714.87 676.46 718.03 676.46C721.41 676.46 723.05 678.82 722.89 682.34H715.19C715.29 684.4 716.29 685.5 718.03 685.5C719.47 685.5 720.33 684.82 720.63 683.78H722.83C722.33 685.94 720.61 687.26 718.03 687.26ZM715.23 680.76H720.63C720.47 679.16 719.63 678.2 718.01 678.2C716.41 678.2 715.47 679.08 715.23 680.76ZM727.725 687H725.525V678.36H723.525V676.7H725.525V674.98C725.525 672.98 726.645 671.94 728.905 671.94C729.425 671.94 730.125 672.06 730.585 672.18V673.92C730.285 673.84 729.765 673.72 729.325 673.72C728.105 673.72 727.725 674.2 727.725 675.22V676.7H730.525V678.36H727.725V687ZM734.183 687H731.983V676.7H734.103L734.163 678.7C734.723 677.38 735.803 676.5 737.283 676.5C737.443 676.5 737.663 676.52 737.843 676.56V678.7C737.643 678.68 737.403 678.66 737.163 678.66C735.303 678.66 734.183 679.72 734.183 681.76V687ZM741.936 687.26C739.816 687.26 738.476 685.98 738.476 684.22C738.476 682.58 739.476 681.5 741.236 681.26L745.296 680.66V679.92C745.296 678.78 744.516 678.18 743.216 678.18C741.936 678.18 741.076 678.76 740.976 679.8H738.876C739.056 677.68 740.736 676.46 743.256 676.46C745.916 676.46 747.416 677.86 747.416 680V687H745.396L745.316 685.4C744.676 686.56 743.416 687.26 741.936 687.26ZM742.436 685.52C743.976 685.52 745.296 684.56 745.296 683.22V682.28L741.996 682.74C741.056 682.88 740.616 683.32 740.616 684.12C740.616 684.98 741.276 685.52 742.436 685.52ZM751.761 687H749.561V676.7H751.681L751.741 678.3C752.261 677.32 753.301 676.46 754.921 676.46C756.461 676.46 757.521 677.16 758.001 678.46C758.721 677.2 759.881 676.46 761.401 676.46C763.761 676.46 764.841 677.98 764.841 680.36V687H762.641V680.8C762.641 679.1 762.021 678.28 760.661 678.28C759.181 678.28 758.321 679.38 758.321 681.28V687H756.121V680.82C756.121 679.14 755.521 678.28 754.161 678.28C752.681 678.28 751.761 679.36 751.761 681.3V687ZM771.683 687.26C768.483 687.26 766.583 685.12 766.583 682V681.7C766.583 678.58 768.523 676.46 771.683 676.46C775.063 676.46 776.703 678.82 776.543 682.34H768.843C768.943 684.4 769.943 685.5 771.683 685.5C773.123 685.5 773.983 684.82 774.283 683.78H776.483C775.983 685.94 774.263 687.26 771.683 687.26ZM768.883 680.76H774.283C774.123 679.16 773.283 678.2 771.663 678.2C770.063 678.2 769.123 679.08 768.883 680.76ZM605.982 707.34C604.902 707.34 603.902 706.66 603.902 705.3C603.902 703.9 604.902 703.24 605.982 703.24C607.082 703.24 608.082 703.9 608.082 705.3C608.082 706.66 607.082 707.34 605.982 707.34ZM627.88 711.26C624.1 711.26 622.14 709.18 622.14 705.58V696.8H624.48V705.52C624.48 707.96 625.6 709.22 627.88 709.22C630.14 709.22 631.3 707.96 631.3 705.5V696.8H633.62V705.56C633.62 709.14 631.68 711.26 627.88 711.26ZM639.577 711.26C636.917 711.26 635.257 710 635.057 707.8H637.177C637.357 709.02 638.237 709.6 639.597 709.6C640.837 709.6 641.677 709.1 641.677 708.18C641.677 707.36 641.097 706.96 639.137 706.6C636.637 706.18 635.417 705.38 635.417 703.54C635.417 701.7 637.077 700.46 639.437 700.46C641.917 700.46 643.457 701.64 643.657 703.68H641.557C641.397 702.64 640.597 702.08 639.417 702.08C638.277 702.08 637.537 702.58 637.537 703.42C637.537 704.22 638.117 704.6 639.997 704.9C642.597 705.32 643.857 706.18 643.857 707.98C643.857 709.94 642.157 711.26 639.577 711.26ZM650.101 711.26C646.901 711.26 645.001 709.12 645.001 706V705.7C645.001 702.58 646.941 700.46 650.101 700.46C653.481 700.46 655.121 702.82 654.961 706.34H647.261C647.361 708.4 648.361 709.5 650.101 709.5C651.541 709.5 652.401 708.82 652.701 707.78H654.901C654.401 709.94 652.681 711.26 650.101 711.26ZM647.301 704.76H652.701C652.541 703.16 651.701 702.2 650.081 702.2C648.481 702.2 647.541 703.08 647.301 704.76ZM658.948 711H656.748V700.7H658.868L658.928 702.7C659.488 701.38 660.568 700.5 662.048 700.5C662.208 700.5 662.428 700.52 662.608 700.56V702.7C662.408 702.68 662.168 702.66 661.928 702.66C660.068 702.66 658.948 703.72 658.948 705.76V711ZM670.204 711H667.884V696.8H677.184V698.74H670.204V703.02H676.524V704.96H670.204V711ZM682.952 711.26C679.752 711.26 677.852 709.12 677.852 706V705.7C677.852 702.58 679.792 700.46 682.952 700.46C686.332 700.46 687.972 702.82 687.812 706.34H680.112C680.212 708.4 681.212 709.5 682.952 709.5C684.392 709.5 685.252 708.82 685.552 707.78H687.752C687.252 709.94 685.532 711.26 682.952 711.26ZM680.152 704.76H685.552C685.392 703.16 684.552 702.2 682.932 702.2C681.332 702.2 680.392 703.08 680.152 704.76ZM694.3 711.26C691.1 711.26 689.2 709.12 689.2 706V705.7C689.2 702.58 691.14 700.46 694.3 700.46C697.68 700.46 699.32 702.82 699.16 706.34H691.46C691.56 708.4 692.56 709.5 694.3 709.5C695.74 709.5 696.6 708.82 696.9 707.78H699.1C698.6 709.94 696.88 711.26 694.3 711.26ZM691.5 704.76H696.9C696.74 703.16 695.9 702.2 694.28 702.2C692.68 702.2 691.74 703.08 691.5 704.76ZM704.988 711.26C702.288 711.26 700.548 709.08 700.548 706V705.7C700.548 702.64 702.228 700.46 704.948 700.46C706.588 700.46 707.708 701.24 708.308 702.2V696.2H710.508V711H708.468L708.408 709.28C707.908 710.26 706.748 711.26 704.988 711.26ZM705.548 709.48C707.388 709.48 708.388 708.22 708.388 706V705.7C708.388 703.48 707.368 702.2 705.548 702.2C703.788 702.2 702.788 703.48 702.788 705.7V706C702.788 708.2 703.768 709.48 705.548 709.48ZM718.245 711.26C716.505 711.26 715.345 710.28 714.845 709.3L714.785 711H712.725V696.2H714.945V702.22C715.545 701.24 716.665 700.46 718.305 700.46C721.005 700.46 722.705 702.64 722.705 705.7V706C722.705 709.08 720.945 711.26 718.245 711.26ZM717.705 709.48C719.465 709.48 720.465 708.2 720.465 706V705.7C720.465 703.48 719.465 702.2 717.705 702.2C715.865 702.2 714.865 703.48 714.865 705.7V706C714.865 708.22 715.865 709.48 717.705 709.48ZM727.463 711.26C725.343 711.26 724.003 709.98 724.003 708.22C724.003 706.58 725.003 705.5 726.763 705.26L730.823 704.66V703.92C730.823 702.78 730.043 702.18 728.743 702.18C727.463 702.18 726.603 702.76 726.503 703.8H724.403C724.583 701.68 726.263 700.46 728.783 700.46C731.443 700.46 732.943 701.86 732.943 704V711H730.923L730.843 709.4C730.203 710.56 728.943 711.26 727.463 711.26ZM727.963 709.52C729.503 709.52 730.823 708.56 730.823 707.22V706.28L727.523 706.74C726.583 706.88 726.143 707.32 726.143 708.12C726.143 708.98 726.803 709.52 727.963 709.52ZM739.648 711.26C736.528 711.26 734.688 709.12 734.688 706V705.7C734.688 702.58 736.528 700.46 739.668 700.46C742.248 700.46 743.948 701.98 744.228 704.36H742.068C741.848 703.06 741.088 702.24 739.628 702.24C737.848 702.24 736.928 703.48 736.928 705.7V706C736.928 708.22 737.848 709.48 739.628 709.48C741.088 709.48 741.868 708.62 742.088 707.32H744.268C743.928 709.74 742.228 711.26 739.648 711.26ZM749.148 706.18L748.128 707.2V711H745.928V696.2H748.128V704.82L752.168 700.7H754.828L750.728 704.82L754.968 711H752.448L749.148 706.18Z" fill="black"/>
<path d="M878.982 683.34C877.902 683.34 876.902 682.66 876.902 681.3C876.902 679.9 877.902 679.24 878.982 679.24C880.082 679.24 881.082 679.9 881.082 681.3C881.082 682.66 880.082 683.34 878.982 683.34ZM897.54 687H895.2V672.8H897.54V678.72H904.52V672.8H906.86V687H904.52V680.68H897.54V687ZM911.423 672.2V675.2H909.123V672.2H911.423ZM909.163 676.7H911.363V687H909.163V676.7ZM918.077 690.66C915.237 690.66 913.637 689.4 913.417 687.6H915.817C915.937 688.5 916.717 689 918.197 689C919.897 689 920.917 688.16 920.917 686.54V685.02C920.377 686.02 919.217 686.84 917.617 686.84C914.877 686.84 913.157 684.68 913.157 681.84V681.44C913.157 678.58 914.857 676.46 917.557 676.46C919.317 676.46 920.497 677.42 921.017 678.4L921.077 676.7H923.117V686.34C923.117 689 921.337 690.66 918.077 690.66ZM918.157 685.08C919.977 685.08 920.997 683.8 920.997 681.84V681.44C920.997 679.44 919.997 678.2 918.157 678.2C916.377 678.2 915.397 679.44 915.397 681.44V681.84C915.397 683.8 916.397 685.08 918.157 685.08ZM927.515 687H925.315V672.2H927.535V678.28C928.095 677.26 929.155 676.46 930.795 676.46C933.295 676.46 934.355 678.02 934.355 680.36V687H932.175V680.9C932.175 679.22 931.555 678.28 930.055 678.28C928.535 678.28 927.515 679.4 927.515 681.24V687ZM942.667 682.1H936.467V680.2H942.667V682.1ZM948.186 687H945.986V678.36H943.986V676.7H945.986V674.98C945.986 672.98 947.106 671.94 949.366 671.94C949.886 671.94 950.586 672.06 951.046 672.18V673.92C950.746 673.84 950.226 673.72 949.786 673.72C948.566 673.72 948.186 674.2 948.186 675.22V676.7H950.986V678.36H948.186V687ZM954.706 675.2H952.406V672.2H954.706V675.2ZM954.646 676.7V687H952.446V676.7H954.646ZM966.189 687H963.489L959.689 672.8H962.109L964.909 684.1L967.929 672.8H970.449L973.429 684.12L976.209 672.8H978.529L974.709 687H972.109L969.149 675.92L966.189 687ZM982.126 672.2V675.2H979.826V672.2H982.126ZM979.866 676.7H982.066V687H979.866V676.7ZM986.46 687H984.26V676.7H986.38L986.44 678.7C987 677.38 988.08 676.5 989.56 676.5C989.72 676.5 989.94 676.52 990.12 676.56V678.7C989.92 678.68 989.68 678.66 989.44 678.66C987.58 678.66 986.46 679.72 986.46 681.76V687ZM995.933 687.26C992.733 687.26 990.833 685.12 990.833 682V681.7C990.833 678.58 992.773 676.46 995.933 676.46C999.313 676.46 1000.95 678.82 1000.79 682.34H993.093C993.193 684.4 994.193 685.5 995.933 685.5C997.373 685.5 998.233 684.82 998.533 683.78H1000.73C1000.23 685.94 998.513 687.26 995.933 687.26ZM993.133 680.76H998.533C998.373 679.16 997.533 678.2 995.913 678.2C994.313 678.2 993.373 679.08 993.133 680.76ZM1005.63 687H1003.43V678.36H1001.43V676.7H1003.43V674.98C1003.43 672.98 1004.55 671.94 1006.81 671.94C1007.33 671.94 1008.03 672.06 1008.49 672.18V673.92C1008.19 673.84 1007.67 673.72 1007.23 673.72C1006.01 673.72 1005.63 674.2 1005.63 675.22V676.7H1008.43V678.36H1005.63V687ZM1012.09 687H1009.89V676.7H1012.01L1012.07 678.7C1012.63 677.38 1013.71 676.5 1015.19 676.5C1015.35 676.5 1015.57 676.52 1015.75 676.56V678.7C1015.55 678.68 1015.31 678.66 1015.07 678.66C1013.21 678.66 1012.09 679.72 1012.09 681.76V687ZM1019.84 687.26C1017.72 687.26 1016.38 685.98 1016.38 684.22C1016.38 682.58 1017.38 681.5 1019.14 681.26L1023.2 680.66V679.92C1023.2 678.78 1022.42 678.18 1021.12 678.18C1019.84 678.18 1018.98 678.76 1018.88 679.8H1016.78C1016.96 677.68 1018.64 676.46 1021.16 676.46C1023.82 676.46 1025.32 677.86 1025.32 680V687H1023.3L1023.22 685.4C1022.58 686.56 1021.32 687.26 1019.84 687.26ZM1020.34 685.52C1021.88 685.52 1023.2 684.56 1023.2 683.22V682.28L1019.9 682.74C1018.96 682.88 1018.52 683.32 1018.52 684.12C1018.52 684.98 1019.18 685.52 1020.34 685.52ZM1029.66 687H1027.46V676.7H1029.58L1029.64 678.3C1030.16 677.32 1031.2 676.46 1032.82 676.46C1034.36 676.46 1035.42 677.16 1035.9 678.46C1036.62 677.2 1037.78 676.46 1039.3 676.46C1041.66 676.46 1042.74 677.98 1042.74 680.36V687H1040.54V680.8C1040.54 679.1 1039.92 678.28 1038.56 678.28C1037.08 678.28 1036.22 679.38 1036.22 681.28V687H1034.02V680.82C1034.02 679.14 1033.42 678.28 1032.06 678.28C1030.58 678.28 1029.66 679.36 1029.66 681.3V687ZM1049.59 687.26C1046.39 687.26 1044.49 685.12 1044.49 682V681.7C1044.49 678.58 1046.43 676.46 1049.59 676.46C1052.97 676.46 1054.61 678.82 1054.45 682.34H1046.75C1046.85 684.4 1047.85 685.5 1049.59 685.5C1051.03 685.5 1051.89 684.82 1052.19 683.78H1054.39C1053.89 685.94 1052.17 687.26 1049.59 687.26ZM1046.79 680.76H1052.19C1052.03 679.16 1051.19 678.2 1049.57 678.2C1047.97 678.2 1047.03 679.08 1046.79 680.76ZM878.982 707.34C877.902 707.34 876.902 706.66 876.902 705.3C876.902 703.9 877.902 703.24 878.982 703.24C880.082 703.24 881.082 703.9 881.082 705.3C881.082 706.66 880.082 707.34 878.982 707.34ZM901.44 711H895.2V696.8H901C903.8 696.8 905.62 697.94 905.62 700.44V700.66C905.62 701.88 904.98 702.96 903.8 703.5C905.34 703.98 906.26 705.26 906.26 706.8V707.04C906.26 709.56 904.24 711 901.44 711ZM897.48 698.72V702.8H900.88C902.54 702.8 903.28 702.08 903.28 700.84V700.62C903.28 699.24 902.42 698.72 900.82 698.72H897.48ZM897.48 704.72V709.08H901.26C902.86 709.08 903.9 708.38 903.9 707V706.74C903.9 705.42 903.02 704.72 901.36 704.72H897.48ZM911.471 711.26C909.071 711.26 907.911 709.74 907.911 707.32V700.7H910.131V706.9C910.131 708.48 910.711 709.42 912.191 709.42C913.711 709.42 914.611 708.26 914.611 706.42V700.7H916.831V711H914.691L914.651 709.44C914.051 710.44 912.951 711.26 911.471 711.26ZM921.286 696.2V699.2H918.986V696.2H921.286ZM919.026 700.7H921.226V711H919.026V700.7ZM923.42 696.2H925.62V711H923.42V696.2ZM931.855 711.26C929.155 711.26 927.415 709.08 927.415 706V705.7C927.415 702.64 929.095 700.46 931.815 700.46C933.455 700.46 934.575 701.24 935.175 702.2V696.2H937.375V711H935.335L935.275 709.28C934.775 710.26 933.615 711.26 931.855 711.26ZM932.415 709.48C934.255 709.48 935.255 708.22 935.255 706V705.7C935.255 703.48 934.235 702.2 932.415 702.2C930.655 702.2 929.655 703.48 929.655 705.7V706C929.655 708.2 930.635 709.48 932.415 709.48ZM945.544 696.2V699.2H943.244V696.2H945.544ZM943.284 700.7H945.484V711H943.284V700.7ZM949.878 711H947.678V700.7H949.798L949.878 702.34C950.418 701.32 951.498 700.46 953.158 700.46C955.658 700.46 956.718 702.02 956.718 704.36V711H954.538V704.9C954.538 703.22 953.918 702.28 952.418 702.28C950.898 702.28 949.878 703.4 949.878 705.24V711ZM964.981 711H962.661V696.8H971.961V698.74H964.981V703.02H971.301V704.96H964.981V711ZM975.327 711H973.127V700.7H975.247L975.307 702.7C975.867 701.38 976.947 700.5 978.427 700.5C978.587 700.5 978.807 700.52 978.987 700.56V702.7C978.787 702.68 978.547 702.66 978.307 702.66C976.447 702.66 975.327 703.72 975.327 705.76V711ZM984.78 711.26C981.7 711.26 979.7 709.14 979.7 706V705.7C979.7 702.56 981.7 700.46 984.78 700.46C987.88 700.46 989.88 702.56 989.88 705.7V706C989.88 709.14 987.88 711.26 984.78 711.26ZM984.78 709.48C986.66 709.48 987.64 708.22 987.64 706V705.7C987.64 703.48 986.66 702.24 984.78 702.24C982.92 702.24 981.94 703.48 981.94 705.7V706C981.94 708.22 982.92 709.48 984.78 709.48ZM993.882 711H991.682V700.7H993.802L993.882 702.34C994.422 701.32 995.502 700.46 997.162 700.46C999.662 700.46 1000.72 702.02 1000.72 704.36V711H998.542V704.9C998.542 703.22 997.922 702.28 996.422 702.28C994.902 702.28 993.882 703.4 993.882 705.24V711ZM1007.14 711.26C1004.88 711.26 1003.76 710.22 1003.76 708.22V702.36H1001.76V700.7H1003.76V697.48H1005.96V700.7H1008.76V702.36H1005.96V707.98C1005.96 709 1006.34 709.46 1007.56 709.46C1008 709.46 1008.52 709.36 1008.82 709.26V711.02C1008.36 711.16 1007.66 711.26 1007.14 711.26ZM1016.69 706.1H1010.49V704.2H1016.69V706.1ZM1023.59 711.26C1020.39 711.26 1018.49 709.12 1018.49 706V705.7C1018.49 702.58 1020.43 700.46 1023.59 700.46C1026.97 700.46 1028.61 702.82 1028.45 706.34H1020.75C1020.85 708.4 1021.85 709.5 1023.59 709.5C1025.03 709.5 1025.89 708.82 1026.19 707.78H1028.39C1027.89 709.94 1026.17 711.26 1023.59 711.26ZM1020.79 704.76H1026.19C1026.03 703.16 1025.19 702.2 1023.57 702.2C1021.97 702.2 1021.03 703.08 1020.79 704.76ZM1032.44 711H1030.24V700.7H1032.36L1032.44 702.34C1032.98 701.32 1034.06 700.46 1035.72 700.46C1038.22 700.46 1039.28 702.02 1039.28 704.36V711H1037.1V704.9C1037.1 703.22 1036.48 702.28 1034.98 702.28C1033.46 702.28 1032.44 703.4 1032.44 705.24V711ZM1045.45 711.26C1042.75 711.26 1041.01 709.08 1041.01 706V705.7C1041.01 702.64 1042.69 700.46 1045.41 700.46C1047.05 700.46 1048.17 701.24 1048.77 702.2V696.2H1050.97V711H1048.93L1048.87 709.28C1048.37 710.26 1047.21 711.26 1045.45 711.26ZM1046.01 709.48C1047.85 709.48 1048.85 708.22 1048.85 706V705.7C1048.85 703.48 1047.83 702.2 1046.01 702.2C1044.25 702.2 1043.25 703.48 1043.25 705.7V706C1043.25 708.2 1044.23 709.48 1046.01 709.48Z" fill="black"/>
<path d="M215.67 20.64V50.464C215.67 56.736 213.11 60.704 205.558 60.704H202.87V100H195.19V10.4H205.558C213.11 10.4 215.67 14.368 215.67 20.64ZM207.99 21.28C207.99 18.336 207.222 17.568 205.43 17.568H202.87V53.536H205.43C207.222 53.536 207.99 52.768 207.99 49.824V21.28ZM233.133 37.024C233.133 34.08 232.365 32.928 230.573 32.928C228.781 32.928 228.013 34.08 228.013 37.024V100H220.845V27.04H228.013V31.264H228.269C229.165 28.064 231.213 26.272 234.157 26.272C238.125 26.272 240.301 29.344 240.301 35.872V56.992H233.133V37.024ZM264.831 36.512V90.528C264.831 96.8 261.119 100.768 255.231 100.768C249.215 100.768 245.375 96.8 245.375 90.528V36.512C245.375 30.24 249.215 26.272 255.231 26.272C261.119 26.272 264.831 30.24 264.831 36.512ZM257.663 37.024C257.663 34.08 256.895 32.928 255.103 32.928C253.311 32.928 252.543 34.08 252.543 37.024V90.016C252.543 92.96 253.311 94.112 255.103 94.112C256.895 94.112 257.663 92.96 257.663 90.016V37.024ZM282.193 37.024C282.193 34.08 281.425 32.928 279.633 32.928C277.841 32.928 277.073 34.08 277.073 37.024V90.016C277.073 92.96 277.841 94.112 279.633 94.112C281.425 94.112 282.193 92.96 282.193 90.016V68.896H289.361V90.528C289.361 96.8 285.649 100.768 279.761 100.768C273.745 100.768 269.905 96.8 269.905 90.528V36.512C269.905 30.24 273.745 26.272 279.761 26.272C285.649 26.272 289.361 30.24 289.361 36.512V54.816H282.193V37.024ZM306.723 71.456H313.891V90.528C313.891 96.8 310.179 100.768 304.291 100.768C298.275 100.768 294.435 96.8 294.435 90.528V36.512C294.435 30.24 298.275 26.272 304.291 26.272C310.179 26.272 313.891 30.24 313.891 36.512V64.672H301.603V90.016C301.603 92.96 302.371 94.112 304.163 94.112C305.955 94.112 306.723 92.96 306.723 90.016V71.456ZM306.723 37.024C306.723 34.08 305.955 32.928 304.163 32.928C302.371 32.928 301.603 34.08 301.603 37.024V58.016H306.723V37.024ZM338.037 75.936V90.528C338.037 96.8 334.197 100.768 328.181 100.768C322.293 100.768 318.581 96.8 318.581 90.528V74.272H325.749V90.016C325.749 92.96 326.517 94.112 328.309 94.112C330.101 94.112 330.869 92.96 330.869 90.016V75.936C330.869 71.072 328.053 67.232 326.005 64.416L324.469 62.368C321.909 58.912 318.581 54.304 318.581 47.52V36.512C318.581 30.24 322.421 26.272 328.437 26.272C334.325 26.272 338.037 30.24 338.037 36.512V49.312H330.869V37.024C330.869 34.08 330.101 32.928 328.309 32.928C326.517 32.928 325.749 34.08 325.749 37.024V47.52C325.749 52.384 328.437 56.096 330.613 59.04L332.149 61.088C334.581 64.544 338.037 69.408 338.037 75.936ZM361.817 75.936V90.528C361.817 96.8 357.977 100.768 351.961 100.768C346.073 100.768 342.361 96.8 342.361 90.528V74.272H349.529V90.016C349.529 92.96 350.297 94.112 352.089 94.112C353.881 94.112 354.649 92.96 354.649 90.016V75.936C354.649 71.072 351.833 67.232 349.785 64.416L348.249 62.368C345.689 58.912 342.361 54.304 342.361 47.52V36.512C342.361 30.24 346.201 26.272 352.217 26.272C358.105 26.272 361.817 30.24 361.817 36.512V49.312H354.649V37.024C354.649 34.08 353.881 32.928 352.089 32.928C350.297 32.928 349.529 34.08 349.529 37.024V47.52C349.529 52.384 352.217 56.096 354.393 59.04L355.929 61.088C358.361 64.544 361.817 69.408 361.817 75.936ZM378.055 90.528V19.872C378.055 13.6 382.151 9.632 388.423 9.632C394.695 9.632 398.535 13.6 398.535 19.872V90.528C398.535 96.8 394.695 100.768 388.423 100.768C382.151 100.768 378.055 96.8 378.055 90.528ZM388.295 93.6C390.087 93.6 390.855 92.448 390.855 89.504V20.896C390.855 17.952 390.087 16.8 388.295 16.8C386.503 16.8 385.735 17.952 385.735 20.896V89.504C385.735 92.448 386.503 93.6 388.295 93.6ZM408.83 100L402.174 27.04H409.726L412.67 76.576L413.31 94.496H413.566L414.206 76.576L417.15 27.04H423.806L418.046 100H408.83ZM439.528 71.456H446.696V90.528C446.696 96.8 442.984 100.768 437.096 100.768C431.08 100.768 427.24 96.8 427.24 90.528V36.512C427.24 30.24 431.08 26.272 437.096 26.272C442.984 26.272 446.696 30.24 446.696 36.512V64.672H434.408V90.016C434.408 92.96 435.176 94.112 436.968 94.112C438.76 94.112 439.528 92.96 439.528 90.016V71.456ZM439.528 37.024C439.528 34.08 438.76 32.928 436.968 32.928C435.176 32.928 434.408 34.08 434.408 37.024V58.016H439.528V37.024ZM464.058 37.024C464.058 34.08 463.29 32.928 461.498 32.928C459.706 32.928 458.938 34.08 458.938 37.024V100H451.77V27.04H458.938V31.264H459.194C460.09 28.064 462.138 26.272 465.082 26.272C469.05 26.272 471.226 29.344 471.226 35.872V56.992H464.058V37.024ZM481.045 100L474.389 27.04H481.941L484.885 76.576L485.525 94.496H485.781L486.421 76.576L489.365 27.04H496.021L490.261 100H481.045ZM499.58 23.2V11.68H506.748V23.2H499.58ZM499.58 100V27.04H506.748V100H499.58ZM524.148 71.456H531.316V90.528C531.316 96.8 527.604 100.768 521.716 100.768C515.7 100.768 511.86 96.8 511.86 90.528V36.512C511.86 30.24 515.7 26.272 521.716 26.272C527.604 26.272 531.316 30.24 531.316 36.512V64.672H519.028V90.016C519.028 92.96 519.796 94.112 521.588 94.112C523.38 94.112 524.148 92.96 524.148 90.016V71.456ZM524.148 37.024C524.148 34.08 523.38 32.928 521.588 32.928C519.796 32.928 519.028 34.08 519.028 37.024V58.016H524.148V37.024ZM563.017 27.04H570.569L564.553 100H555.337L553.161 48.672L552.777 34.08H552.521L552.137 48.672L549.961 100H540.745L534.729 27.04H542.281L544.585 76.576L545.225 94.496H545.481L546.121 76.576L548.425 27.04H556.873L559.177 76.576L559.817 94.496H560.073L560.713 76.576L563.017 27.04ZM599.14 53.664V59.552H586.34V53.664H599.14ZM636.865 20.64V89.76C636.865 96.032 634.305 100 626.753 100H616.385V10.4H626.753C634.305 10.4 636.865 14.368 636.865 20.64ZM629.185 21.28C629.185 18.336 628.417 17.568 626.625 17.568H624.065V92.832H626.625C628.417 92.832 629.185 92.064 629.185 89.12V21.28ZM661.496 36.512V90.528C661.496 96.8 657.784 100.768 651.896 100.768C645.88 100.768 642.04 96.8 642.04 90.528V36.512C642.04 30.24 645.88 26.272 651.896 26.272C657.784 26.272 661.496 30.24 661.496 36.512ZM654.328 37.024C654.328 34.08 653.56 32.928 651.768 32.928C649.976 32.928 649.208 34.08 649.208 37.024V90.016C649.208 92.96 649.976 94.112 651.768 94.112C653.56 94.112 654.328 92.96 654.328 90.016V37.024ZM673.738 90.016C673.738 92.96 674.506 94.112 676.298 94.112C678.09 94.112 678.858 92.96 678.858 90.016V27.04H686.026V100H678.858V95.776H678.602C677.706 98.976 675.658 100.768 672.714 100.768C668.746 100.768 666.57 97.696 666.57 91.168V27.04H673.738V90.016ZM691.1 100V6.56H698.268V31.264H698.524C699.42 28.064 701.468 26.272 704.284 26.272C708.38 26.272 710.556 29.728 710.556 36.128V91.168C710.556 97.568 708.38 100.768 704.412 100.768C701.468 100.768 699.42 98.976 698.524 95.776H698.268V100H691.1ZM703.388 37.024C703.388 34.08 702.62 32.928 700.828 32.928C699.036 32.928 698.268 34.08 698.268 37.024V90.016C698.268 92.96 699.036 94.112 700.828 94.112C702.62 94.112 703.388 92.96 703.388 90.016V37.024ZM715.63 100V6.56H722.798V100H715.63ZM740.198 71.456H747.366V90.528C747.366 96.8 743.654 100.768 737.766 100.768C731.75 100.768 727.91 96.8 727.91 90.528V36.512C727.91 30.24 731.75 26.272 737.766 26.272C743.654 26.272 747.366 30.24 747.366 36.512V64.672H735.078V90.016C735.078 92.96 735.846 94.112 737.638 94.112C739.43 94.112 740.198 92.96 740.198 90.016V71.456ZM740.198 37.024C740.198 34.08 739.43 32.928 737.638 32.928C735.846 32.928 735.078 34.08 735.078 37.024V58.016H740.198V37.024ZM784.45 20.64V89.76C784.45 96.032 781.89 100 774.338 100H763.97V10.4H774.338C781.89 10.4 784.45 14.368 784.45 20.64ZM776.77 21.28C776.77 18.336 776.002 17.568 774.21 17.568H771.65V92.832H774.21C776.002 92.832 776.77 92.064 776.77 89.12V21.28ZM789.625 23.2V11.68H796.793V23.2H789.625ZM789.625 100V27.04H796.793V100H789.625ZM809.073 37.024V53.152H801.905V36.512C801.905 30.24 805.745 26.272 811.633 26.272C817.649 26.272 821.361 30.24 821.361 36.512V100H814.193V95.776H813.937C813.041 98.976 810.993 100.768 808.049 100.768C804.337 100.768 801.905 98.08 801.905 91.168V73.12C801.905 64.544 802.673 62.112 814.193 57.248V37.024C814.193 34.08 813.425 32.928 811.633 32.928C809.841 32.928 809.073 34.08 809.073 37.024ZM814.193 63.904C809.073 66.72 809.073 67.872 809.073 73.632V90.016C809.073 92.96 809.841 94.112 811.633 94.112C813.425 94.112 814.193 92.96 814.193 90.016V63.904ZM838.723 37.024C838.723 34.08 837.955 32.928 836.163 32.928C834.371 32.928 833.603 34.08 833.603 37.024V100H826.435V27.04H833.603V31.264H833.859C834.883 28.064 836.803 26.272 839.747 26.272C842.819 26.272 844.867 28.192 845.635 32.16H845.891C846.787 28.32 848.835 26.272 852.035 26.272C856.003 26.272 858.179 29.344 858.179 35.872V100H851.011V37.024C851.011 34.08 850.243 32.928 848.451 32.928C846.659 32.928 845.891 34.08 845.891 37.024V100H838.723V37.024ZM882.796 36.512V90.528C882.796 96.8 879.084 100.768 873.196 100.768C867.18 100.768 863.34 96.8 863.34 90.528V36.512C863.34 30.24 867.18 26.272 873.196 26.272C879.084 26.272 882.796 30.24 882.796 36.512ZM875.628 37.024C875.628 34.08 874.86 32.928 873.068 32.928C871.276 32.928 870.508 34.08 870.508 37.024V90.016C870.508 92.96 871.276 94.112 873.068 94.112C874.86 94.112 875.628 92.96 875.628 90.016V37.024ZM900.158 37.024C900.158 34.08 899.39 32.928 897.598 32.928C895.806 32.928 895.038 34.08 895.038 37.024V100H887.87V27.04H895.038V31.264H895.294C896.19 28.064 898.238 26.272 901.182 26.272C905.15 26.272 907.326 29.344 907.326 35.872V100H900.158V37.024ZM931.856 100H924.688V95.776H924.432C923.536 98.976 921.488 100.768 918.544 100.768C914.576 100.768 912.4 97.568 912.4 91.168V36.128C912.4 29.728 914.576 26.272 918.672 26.272C921.488 26.272 923.536 28.064 924.432 31.264H924.688V6.56H931.856V100ZM919.568 37.024V90.016C919.568 92.96 920.336 94.112 922.128 94.112C923.92 94.112 924.688 92.96 924.688 90.016V37.024C924.688 34.08 923.92 32.928 922.128 32.928C920.336 32.928 919.568 34.08 919.568 37.024Z" fill="#EB5B38"/>
<circle cx="17.5" cy="430.5" r="17.5" fill="#22C182"/>
<circle cx="567.5" cy="430.5" r="17.5" fill="#22C182"/>
<circle cx="1110.5" cy="430.5" r="17.5" fill="#22C182"/>
</svg>
