<svg width="1419" height="641" viewBox="0 0 1419 641" fill="none" xmlns="http://www.w3.org/2000/svg">
<rect width="1419" height="641" rx="11.212" fill="white"/>
<path d="M68.848 101.624C59.152 101.624 54.208 96.68 54.208 87.608V66.92H62.32V87.512C62.32 92.168 64.24 94.808 68.848 94.808C73.408 94.808 75.424 92.264 75.424 87.464V66.92H83.488V87.608C83.488 96.632 78.544 101.624 68.848 101.624ZM94.9671 109.16H87.2391V76.184H94.3911L94.6311 80.12C95.6871 77.816 98.3751 75.56 102.311 75.56C109.031 75.56 113.063 81.032 113.063 88.328V88.808C113.063 96.152 109.031 101.624 102.359 101.624C98.9031 101.624 96.2631 99.896 94.9671 97.592V109.16ZM100.007 95.816C103.559 95.816 105.287 93.368 105.287 88.808V88.328C105.287 83.72 103.559 81.32 100.007 81.32C96.4551 81.32 94.7271 83.72 94.7271 88.328V88.808C94.7271 93.368 96.4551 95.816 100.007 95.816ZM126.082 101.624C119.362 101.624 115.234 96.2 115.234 88.808V88.328C115.234 81.08 119.17 75.56 125.842 75.56C129.394 75.56 131.938 77.24 133.33 79.448V65.48H141.058V101H133.906L133.666 97.016C132.658 99.32 130.066 101.624 126.082 101.624ZM128.29 95.816C131.842 95.816 133.57 93.368 133.57 88.808V88.328C133.57 83.72 131.842 81.32 128.29 81.32C124.738 81.32 123.01 83.72 123.01 88.328V88.808C123.01 93.368 124.738 95.816 128.29 95.816ZM152.014 101.624C147.214 101.624 143.854 98.456 143.854 94.088C143.854 89.816 146.59 87.272 151.342 86.696L159.982 85.544V83.96C159.982 82.136 158.782 81.032 156.286 81.032C153.79 81.032 152.35 82.04 152.158 83.912H144.862C145.15 78.632 149.662 75.56 156.43 75.56C163.246 75.56 167.47 78.824 167.47 84.008V101H160.27L160.03 97.304C158.542 99.992 155.758 101.624 152.014 101.624ZM154.702 96.2C157.582 96.2 159.982 94.52 159.982 91.976V90.2L154.126 90.968C152.206 91.208 151.294 92.12 151.294 93.608C151.294 95.24 152.494 96.2 154.702 96.2ZM182.578 101.624C176.29 101.624 173.41 98.84 173.41 93.512V81.704H168.898V76.184H173.41V68.264H181.09V76.184H187.33V81.704H181.09V92.984C181.09 94.952 182.05 95.768 184.45 95.768C185.602 95.768 186.562 95.528 187.426 95.288V101C186.13 101.384 184.21 101.624 182.578 101.624ZM201.928 101.624C193.816 101.624 188.824 96.584 188.824 88.808V88.328C188.824 80.696 193.96 75.56 201.928 75.56C210.568 75.56 214.888 81.608 214.36 90.344H196.456C196.792 94.136 198.568 95.96 201.88 95.96C204.616 95.96 206.152 94.616 206.68 93.032H214.216C213.016 98.264 208.552 101.624 201.928 101.624ZM196.552 85.88H206.632C206.44 83.048 204.904 81.224 201.832 81.224C198.76 81.224 197.08 82.664 196.552 85.88ZM227.452 101.624C220.732 101.624 216.604 96.2 216.604 88.808V88.328C216.604 81.08 220.54 75.56 227.212 75.56C230.764 75.56 233.308 77.24 234.7 79.448V65.48H242.428V101H235.276L235.036 97.016C234.028 99.32 231.436 101.624 227.452 101.624ZM229.66 95.816C233.212 95.816 234.94 93.368 234.94 88.808V88.328C234.94 83.72 233.212 81.32 229.66 81.32C226.108 81.32 224.38 83.72 224.38 88.328V88.808C224.38 93.368 226.108 95.816 229.66 95.816ZM268.447 101.624C258.751 101.624 253.807 96.68 253.807 87.608V66.92H261.919V87.512C261.919 92.168 263.839 94.808 268.447 94.808C273.007 94.808 275.023 92.264 275.023 87.464V66.92H283.087V87.608C283.087 96.632 278.143 101.624 268.447 101.624ZM296.699 101.624C289.403 101.624 285.323 98.408 284.939 93.032H292.235C292.523 95.144 294.203 96.344 296.747 96.344C299.051 96.344 300.443 95.432 300.443 93.992C300.443 92.648 299.627 91.832 295.211 91.064C288.587 90.008 285.659 87.896 285.659 83.432C285.659 78.68 290.027 75.56 296.459 75.56C303.131 75.56 307.115 78.584 307.499 83.72H300.347C300.155 81.8 298.619 80.792 296.363 80.792C294.251 80.792 293.003 81.656 293.003 83C293.003 84.344 294.011 85.064 298.235 85.688C305.243 86.696 307.979 89.048 307.979 93.272C307.979 98.264 303.659 101.624 296.699 101.624ZM322.688 101.624C314.576 101.624 309.584 96.584 309.584 88.808V88.328C309.584 80.696 314.72 75.56 322.688 75.56C331.328 75.56 335.648 81.608 335.12 90.344H317.216C317.552 94.136 319.328 95.96 322.64 95.96C325.376 95.96 326.912 94.616 327.44 93.032H334.976C333.776 98.264 329.312 101.624 322.688 101.624ZM317.312 85.88H327.392C327.2 83.048 325.664 81.224 322.592 81.224C319.52 81.224 317.84 82.664 317.312 85.88ZM345.86 101H338.18V76.184H345.524L345.668 81.032C346.82 78.152 349.172 75.752 352.916 75.752C353.444 75.752 354.02 75.8 354.452 75.896V83.24C353.924 83.192 353.156 83.144 352.436 83.144C347.972 83.144 345.86 85.352 345.86 89.432V101ZM372.697 101H364.681V66.92H388.681V73.496H372.697V81.272H386.905V87.8H372.697V101ZM391.473 65.48H399.153V101H391.473V65.48ZM415.132 101.624C407.308 101.624 402.124 96.344 402.124 88.808V88.328C402.124 80.84 407.308 75.56 415.132 75.56C423.004 75.56 428.14 80.84 428.14 88.328V88.808C428.14 96.344 423.004 101.624 415.132 101.624ZM415.132 95.768C418.78 95.768 420.364 93.368 420.364 88.808V88.328C420.364 83.816 418.78 81.416 415.132 81.416C411.532 81.416 409.9 83.816 409.9 88.328V88.808C409.9 93.368 411.532 95.768 415.132 95.768ZM442.894 101H434.83L427.582 76.184H435.31L439.39 92.984L443.374 76.184H450.91L454.942 93.08L459.118 76.184H466.654L459.358 101H451.294L447.07 84.536L442.894 101Z" fill="#EB5B38"/>
<rect x="476" y="452" width="170.422" height="98.6656" rx="10" fill="#A29CFF"/>
<path d="M546.625 506.695C544.075 506.695 542.38 505.405 542.26 503.125H544C544.15 504.61 545.23 505.24 546.7 505.24C548.035 505.24 548.995 504.715 548.995 503.65V503.575C548.995 502.66 548.35 502.195 546.19 501.805C543.565 501.34 542.635 500.365 542.635 498.775V498.67C542.635 496.93 544.15 495.655 546.475 495.655C548.71 495.655 550.33 496.765 550.54 498.94H548.785C548.635 497.71 547.765 497.095 546.445 497.095C545.125 497.095 544.345 497.695 544.345 498.625V498.7C544.345 499.525 544.795 499.99 546.91 500.35C549.46 500.785 550.72 501.67 550.72 503.41V503.53C550.72 505.375 549.145 506.695 546.625 506.695ZM553.509 506.5H551.859V495.4H553.524V499.96C553.944 499.195 554.739 498.595 555.969 498.595C557.844 498.595 558.639 499.765 558.639 501.52V506.5H557.004V501.925C557.004 500.665 556.539 499.96 555.414 499.96C554.274 499.96 553.509 500.8 553.509 502.18V506.5ZM562.323 506.695C560.733 506.695 559.728 505.735 559.728 504.415C559.728 503.185 560.478 502.375 561.798 502.195L564.843 501.745V501.19C564.843 500.335 564.258 499.885 563.283 499.885C562.323 499.885 561.678 500.32 561.603 501.1H560.028C560.163 499.51 561.423 498.595 563.313 498.595C565.308 498.595 566.433 499.645 566.433 501.25V506.5H564.918L564.858 505.3C564.378 506.17 563.433 506.695 562.323 506.695ZM562.698 505.39C563.853 505.39 564.843 504.67 564.843 503.665V502.96L562.368 503.305C561.663 503.41 561.333 503.74 561.333 504.34C561.333 504.985 561.828 505.39 562.698 505.39ZM569.527 506.5H567.877V498.775H569.467L569.512 500.275C569.932 499.285 570.742 498.625 571.852 498.625C571.972 498.625 572.137 498.64 572.272 498.67V500.275C572.122 500.26 571.942 500.245 571.762 500.245C570.367 500.245 569.527 501.04 569.527 502.57V506.5ZM576.467 506.695C574.067 506.695 572.642 505.09 572.642 502.75V502.525C572.642 500.185 574.097 498.595 576.467 498.595C579.002 498.595 580.232 500.365 580.112 503.005H574.337C574.412 504.55 575.162 505.375 576.467 505.375C577.547 505.375 578.192 504.865 578.417 504.085H580.067C579.692 505.705 578.402 506.695 576.467 506.695ZM574.367 501.82H578.417C578.297 500.62 577.667 499.9 576.452 499.9C575.252 499.9 574.547 500.56 574.367 501.82Z" fill="black" fill-opacity="0.8"/>
<rect x="856.659" y="452.361" width="170.422" height="98.6656" rx="10" fill="#A29CFF"/>
<path d="M882.053 506.861H880.328V496.211H884.663C886.808 496.211 888.308 497.321 888.308 499.391V499.631C888.308 501.701 886.808 502.811 884.663 502.811H882.053V506.861ZM882.053 497.681V501.341H884.528C885.728 501.341 886.523 500.801 886.523 499.631V499.391C886.523 498.221 885.728 497.681 884.528 497.681H882.053ZM892.416 507.056C890.106 507.056 888.606 505.466 888.606 503.111V502.886C888.606 500.531 890.106 498.956 892.416 498.956C894.741 498.956 896.241 500.531 896.241 502.886V503.111C896.241 505.466 894.741 507.056 892.416 507.056ZM892.416 505.721C893.826 505.721 894.561 504.776 894.561 503.111V502.886C894.561 501.221 893.826 500.291 892.416 500.291C891.021 500.291 890.286 501.221 890.286 502.886V503.111C890.286 504.776 891.021 505.721 892.416 505.721ZM900.252 507.056C898.257 507.056 897.012 506.111 896.862 504.461H898.452C898.587 505.376 899.247 505.811 900.267 505.811C901.197 505.811 901.827 505.436 901.827 504.746C901.827 504.131 901.392 503.831 899.922 503.561C898.047 503.246 897.132 502.646 897.132 501.266C897.132 499.886 898.377 498.956 900.147 498.956C902.007 498.956 903.162 499.841 903.312 501.371H901.737C901.617 500.591 901.017 500.171 900.132 500.171C899.277 500.171 898.722 500.546 898.722 501.176C898.722 501.776 899.157 502.061 900.567 502.286C902.517 502.601 903.462 503.246 903.462 504.596C903.462 506.066 902.187 507.056 900.252 507.056ZM907.757 507.056C906.062 507.056 905.222 506.276 905.222 504.776V500.381H903.722V499.136H905.222V496.721H906.872V499.136H908.972V500.381H906.872V504.596C906.872 505.361 907.157 505.706 908.072 505.706C908.402 505.706 908.792 505.631 909.017 505.556V506.876C908.672 506.981 908.147 507.056 907.757 507.056ZM916.743 507.056C914.193 507.056 912.498 505.766 912.378 503.486H914.118C914.268 504.971 915.348 505.601 916.818 505.601C918.153 505.601 919.113 505.076 919.113 504.011V503.936C919.113 503.021 918.468 502.556 916.308 502.166C913.683 501.701 912.753 500.726 912.753 499.136V499.031C912.753 497.291 914.268 496.016 916.593 496.016C918.828 496.016 920.448 497.126 920.658 499.301H918.903C918.753 498.071 917.883 497.456 916.563 497.456C915.243 497.456 914.463 498.056 914.463 498.986V499.061C914.463 499.886 914.913 500.351 917.028 500.711C919.578 501.146 920.838 502.031 920.838 503.771V503.891C920.838 505.736 919.263 507.056 916.743 507.056ZM925.502 507.056C923.102 507.056 921.677 505.451 921.677 503.111V502.886C921.677 500.546 923.132 498.956 925.502 498.956C928.037 498.956 929.267 500.726 929.147 503.366H923.372C923.447 504.911 924.197 505.736 925.502 505.736C926.582 505.736 927.227 505.226 927.452 504.446H929.102C928.727 506.066 927.437 507.056 925.502 507.056ZM923.402 502.181H927.452C927.332 500.981 926.702 500.261 925.487 500.261C924.287 500.261 923.582 500.921 923.402 502.181ZM933.493 507.056C931.798 507.056 930.958 506.276 930.958 504.776V500.381H929.458V499.136H930.958V496.721H932.608V499.136H934.708V500.381H932.608V504.596C932.608 505.361 932.893 505.706 933.808 505.706C934.138 505.706 934.528 505.631 934.753 505.556V506.876C934.408 506.981 933.883 507.056 933.493 507.056ZM939.202 507.056C937.507 507.056 936.667 506.276 936.667 504.776V500.381H935.167V499.136H936.667V496.721H938.317V499.136H940.417V500.381H938.317V504.596C938.317 505.361 938.602 505.706 939.517 505.706C939.847 505.706 940.237 505.631 940.462 505.556V506.876C940.117 506.981 939.592 507.056 939.202 507.056ZM943.26 495.761V498.011H941.535V495.761H943.26ZM941.565 499.136H943.215V506.861H941.565V499.136ZM946.346 506.861H944.696V499.136H946.286L946.346 500.366C946.751 499.601 947.561 498.956 948.806 498.956C950.681 498.956 951.476 500.126 951.476 501.881V506.861H949.841V502.286C949.841 501.026 949.376 500.321 948.251 500.321C947.111 500.321 946.346 501.161 946.346 502.541V506.861ZM956.3 509.606C954.17 509.606 952.97 508.661 952.805 507.311H954.605C954.695 507.986 955.28 508.361 956.39 508.361C957.665 508.361 958.43 507.731 958.43 506.516V505.376C958.025 506.126 957.155 506.741 955.955 506.741C953.9 506.741 952.61 505.121 952.61 502.991V502.691C952.61 500.546 953.885 498.956 955.91 498.956C957.23 498.956 958.115 499.676 958.505 500.411L958.55 499.136H960.08V506.366C960.08 508.361 958.745 509.606 956.3 509.606ZM956.36 505.421C957.725 505.421 958.49 504.461 958.49 502.991V502.691C958.49 501.191 957.74 500.261 956.36 500.261C955.025 500.261 954.29 501.191 954.29 502.691V502.991C954.29 504.461 955.04 505.421 956.36 505.421ZM964.579 507.056C962.584 507.056 961.339 506.111 961.189 504.461H962.779C962.914 505.376 963.574 505.811 964.594 505.811C965.524 505.811 966.154 505.436 966.154 504.746C966.154 504.131 965.719 503.831 964.249 503.561C962.374 503.246 961.459 502.646 961.459 501.266C961.459 499.886 962.704 498.956 964.474 498.956C966.334 498.956 967.489 499.841 967.639 501.371H966.064C965.944 500.591 965.344 500.171 964.459 500.171C963.604 500.171 963.049 500.546 963.049 501.176C963.049 501.776 963.484 502.061 964.894 502.286C966.844 502.601 967.789 503.246 967.789 504.596C967.789 506.066 966.514 507.056 964.579 507.056ZM973.346 506.861H971.621V496.211H975.956C978.101 496.211 979.601 497.321 979.601 499.391V499.631C979.601 501.701 978.101 502.811 975.956 502.811H973.346V506.861ZM973.346 497.681V501.341H975.821C977.021 501.341 977.816 500.801 977.816 499.631V499.391C977.816 498.221 977.021 497.681 975.821 497.681H973.346ZM982.42 507.056C980.83 507.056 979.825 506.096 979.825 504.776C979.825 503.546 980.575 502.736 981.895 502.556L984.94 502.106V501.551C984.94 500.696 984.355 500.246 983.38 500.246C982.42 500.246 981.775 500.681 981.7 501.461H980.125C980.26 499.871 981.52 498.956 983.41 498.956C985.405 498.956 986.53 500.006 986.53 501.611V506.861H985.015L984.955 505.661C984.475 506.531 983.53 507.056 982.42 507.056ZM982.795 505.751C983.95 505.751 984.94 505.031 984.94 504.026V503.321L982.465 503.666C981.76 503.771 981.43 504.101 981.43 504.701C981.43 505.346 981.925 505.751 982.795 505.751ZM991.364 509.606C989.234 509.606 988.034 508.661 987.869 507.311H989.669C989.759 507.986 990.344 508.361 991.454 508.361C992.729 508.361 993.494 507.731 993.494 506.516V505.376C993.089 506.126 992.219 506.741 991.019 506.741C988.964 506.741 987.674 505.121 987.674 502.991V502.691C987.674 500.546 988.949 498.956 990.974 498.956C992.294 498.956 993.179 499.676 993.569 500.411L993.614 499.136H995.144V506.366C995.144 508.361 993.809 509.606 991.364 509.606ZM991.424 505.421C992.789 505.421 993.554 504.461 993.554 502.991V502.691C993.554 501.191 992.804 500.261 991.424 500.261C990.089 500.261 989.354 501.191 989.354 502.691V502.991C989.354 504.461 990.104 505.421 991.424 505.421ZM1000.15 507.056C997.752 507.056 996.327 505.451 996.327 503.111V502.886C996.327 500.546 997.782 498.956 1000.15 498.956C1002.69 498.956 1003.92 500.726 1003.8 503.366H998.022C998.097 504.911 998.847 505.736 1000.15 505.736C1001.23 505.736 1001.88 505.226 1002.1 504.446H1003.75C1003.38 506.066 1002.09 507.056 1000.15 507.056ZM998.052 502.181H1002.1C1001.98 500.981 1001.35 500.261 1000.14 500.261C998.937 500.261 998.232 500.921 998.052 502.181Z" fill="black" fill-opacity="0.8"/>
<rect x="1083.14" y="452.361" width="170.422" height="98.6656" rx="10" fill="#A29CFF"/>
<path d="M1126.1 506.861H1124.08L1121.23 496.211H1123.04L1125.14 504.686L1127.41 496.211H1129.3L1131.53 504.701L1133.62 496.211H1135.36L1132.49 506.861H1130.54L1128.32 498.551L1126.1 506.861ZM1137.57 506.861H1135.92V499.136H1137.51L1137.55 500.636C1137.97 499.646 1138.78 498.986 1139.89 498.986C1140.01 498.986 1140.18 499.001 1140.31 499.031V500.636C1140.16 500.621 1139.98 500.606 1139.8 500.606C1138.41 500.606 1137.57 501.401 1137.57 502.931V506.861ZM1142.94 495.761V498.011H1141.21V495.761H1142.94ZM1141.24 499.136H1142.89V506.861H1141.24V499.136ZM1147.75 507.056C1146.06 507.056 1145.22 506.276 1145.22 504.776V500.381H1143.72V499.136H1145.22V496.721H1146.87V499.136H1148.97V500.381H1146.87V504.596C1146.87 505.361 1147.15 505.706 1148.07 505.706C1148.4 505.706 1148.79 505.631 1149.01 505.556V506.876C1148.67 506.981 1148.14 507.056 1147.75 507.056ZM1153.46 507.056C1151.06 507.056 1149.64 505.451 1149.64 503.111V502.886C1149.64 500.546 1151.09 498.956 1153.46 498.956C1156 498.956 1157.23 500.726 1157.11 503.366H1151.33C1151.41 504.911 1152.16 505.736 1153.46 505.736C1154.54 505.736 1155.19 505.226 1155.41 504.446H1157.06C1156.69 506.066 1155.4 507.056 1153.46 507.056ZM1151.36 502.181H1155.41C1155.29 500.981 1154.66 500.261 1153.45 500.261C1152.25 500.261 1151.54 500.921 1151.36 502.181ZM1170.35 506.861H1168.51L1167.56 504.266H1162.99L1162.03 506.861H1160.26L1164.35 496.211H1166.26L1170.35 506.861ZM1165.28 498.071L1163.53 502.811H1167.02L1165.28 498.071ZM1177.48 506.861H1171.27V496.211H1173.03V505.406H1177.48V506.861ZM1181.12 506.861H1179.37V497.666H1176.23V496.211H1184.27V497.666H1181.12V506.861ZM1192.23 506.861H1190.48V497.666H1187.34V496.211H1195.38V497.666H1192.23V506.861ZM1198.58 507.056C1196.18 507.056 1194.76 505.451 1194.76 503.111V502.886C1194.76 500.546 1196.21 498.956 1198.58 498.956C1201.12 498.956 1202.35 500.726 1202.23 503.366H1196.45C1196.53 504.911 1197.28 505.736 1198.58 505.736C1199.66 505.736 1200.31 505.226 1200.53 504.446H1202.18C1201.81 506.066 1200.52 507.056 1198.58 507.056ZM1196.48 502.181H1200.53C1200.41 500.981 1199.78 500.261 1198.57 500.261C1197.37 500.261 1196.66 500.921 1196.48 502.181ZM1204.03 506.861H1202.23L1205.02 502.901L1202.37 499.136H1204.27L1206.03 501.716L1207.8 499.136H1209.6L1206.94 502.856L1209.76 506.861H1207.86L1205.92 504.041L1204.03 506.861ZM1213.95 507.056C1212.26 507.056 1211.42 506.276 1211.42 504.776V500.381H1209.92V499.136H1211.42V496.721H1213.07V499.136H1215.17V500.381H1213.07V504.596C1213.07 505.361 1213.35 505.706 1214.27 505.706C1214.6 505.706 1214.99 505.631 1215.21 505.556V506.876C1214.87 506.981 1214.34 507.056 1213.95 507.056Z" fill="black" fill-opacity="0.8"/>
<circle cx="215.333" cy="209.333" r="49.3328" fill="#EE7152"/>
<path d="M203.098 214.695C200.548 214.695 198.853 213.405 198.733 211.125H200.473C200.623 212.61 201.703 213.24 203.173 213.24C204.508 213.24 205.468 212.715 205.468 211.65V211.575C205.468 210.66 204.823 210.195 202.663 209.805C200.038 209.34 199.108 208.365 199.108 206.775V206.67C199.108 204.93 200.623 203.655 202.948 203.655C205.183 203.655 206.803 204.765 207.013 206.94H205.258C205.108 205.71 204.238 205.095 202.918 205.095C201.598 205.095 200.818 205.695 200.818 206.625V206.7C200.818 207.525 201.268 207.99 203.383 208.35C205.933 208.785 207.193 209.67 207.193 211.41V211.53C207.193 213.375 205.618 214.695 203.098 214.695ZM211.502 214.695C209.807 214.695 208.967 213.915 208.967 212.415V208.02H207.467V206.775H208.967V204.36H210.617V206.775H212.717V208.02H210.617V212.235C210.617 213 210.902 213.345 211.817 213.345C212.147 213.345 212.537 213.27 212.762 213.195V214.515C212.417 214.62 211.892 214.695 211.502 214.695ZM216.086 214.695C214.496 214.695 213.491 213.735 213.491 212.415C213.491 211.185 214.241 210.375 215.561 210.195L218.606 209.745V209.19C218.606 208.335 218.021 207.885 217.046 207.885C216.086 207.885 215.441 208.32 215.366 209.1H213.791C213.926 207.51 215.186 206.595 217.076 206.595C219.071 206.595 220.196 207.645 220.196 209.25V214.5H218.681L218.621 213.3C218.141 214.17 217.196 214.695 216.086 214.695ZM216.461 213.39C217.616 213.39 218.606 212.67 218.606 211.665V210.96L216.131 211.305C215.426 211.41 215.096 211.74 215.096 212.34C215.096 212.985 215.591 213.39 216.461 213.39ZM223.29 214.5H221.64V206.775H223.23L223.275 208.275C223.695 207.285 224.505 206.625 225.615 206.625C225.735 206.625 225.9 206.64 226.035 206.67V208.275C225.885 208.26 225.705 208.245 225.525 208.245C224.13 208.245 223.29 209.04 223.29 210.57V214.5ZM230.695 214.695C229 214.695 228.16 213.915 228.16 212.415V208.02H226.66V206.775H228.16V204.36H229.81V206.775H231.91V208.02H229.81V212.235C229.81 213 230.095 213.345 231.01 213.345C231.34 213.345 231.73 213.27 231.955 213.195V214.515C231.61 214.62 231.085 214.695 230.695 214.695Z" fill="black" fill-opacity="0.8"/>
<path d="M365.817 161.757C368.16 159.414 371.959 159.414 374.302 161.757L417.635 205.09C419.978 207.433 419.978 211.232 417.635 213.575L374.302 256.908C371.959 259.251 368.16 259.251 365.817 256.908L322.484 213.575C320.141 211.232 320.141 207.433 322.484 205.09L365.817 161.757Z" fill="#22C182"/>
<path d="M355.955 205.117C354.254 205.117 353.372 204.181 353.372 202.561V198.61H354.425V202.534C354.425 203.632 354.929 204.199 355.955 204.199C356.972 204.199 357.494 203.632 357.494 202.525V198.61H358.538V202.552C358.538 204.163 357.665 205.117 355.955 205.117ZM360.451 206.53H359.452V200.365H360.379L360.406 201.13C360.631 200.689 361.171 200.257 361.963 200.257C363.178 200.257 363.943 201.229 363.943 202.615V202.75C363.943 204.136 363.16 205.117 361.936 205.117C361.216 205.117 360.703 204.739 360.451 204.298V206.53ZM361.693 204.316C362.485 204.316 362.935 203.749 362.935 202.75V202.615C362.935 201.616 362.485 201.04 361.693 201.04C360.865 201.04 360.415 201.616 360.415 202.615V202.75C360.415 203.749 360.865 204.316 361.693 204.316ZM364.652 198.34H365.642V205H364.652V198.34ZM368.637 205.117C367.251 205.117 366.351 204.163 366.351 202.75V202.615C366.351 201.202 367.251 200.257 368.637 200.257C370.032 200.257 370.932 201.202 370.932 202.615V202.75C370.932 204.163 370.032 205.117 368.637 205.117ZM368.637 204.316C369.483 204.316 369.924 203.749 369.924 202.75V202.615C369.924 201.616 369.483 201.058 368.637 201.058C367.8 201.058 367.359 201.616 367.359 202.615V202.75C367.359 203.749 367.8 204.316 368.637 204.316ZM372.976 205.117C372.022 205.117 371.419 204.541 371.419 203.749C371.419 203.011 371.869 202.525 372.661 202.417L374.488 202.147V201.814C374.488 201.301 374.137 201.031 373.552 201.031C372.976 201.031 372.589 201.292 372.544 201.76H371.599C371.68 200.806 372.436 200.257 373.57 200.257C374.767 200.257 375.442 200.887 375.442 201.85V205H374.533L374.497 204.28C374.209 204.802 373.642 205.117 372.976 205.117ZM373.201 204.334C373.894 204.334 374.488 203.902 374.488 203.299V202.876L373.003 203.083C372.58 203.146 372.382 203.344 372.382 203.704C372.382 204.091 372.679 204.334 373.201 204.334ZM378.126 205.117C376.911 205.117 376.128 204.136 376.128 202.75V202.615C376.128 201.238 376.884 200.257 378.108 200.257C378.846 200.257 379.35 200.608 379.62 201.04V198.34H380.61V205H379.692L379.665 204.226C379.44 204.667 378.918 205.117 378.126 205.117ZM378.378 204.316C379.206 204.316 379.656 203.749 379.656 202.75V202.615C379.656 201.616 379.197 201.04 378.378 201.04C377.586 201.04 377.136 201.616 377.136 202.615V202.75C377.136 203.74 377.577 204.316 378.378 204.316ZM384.421 205.117C383.467 205.117 382.864 204.541 382.864 203.749C382.864 203.011 383.314 202.525 384.106 202.417L385.933 202.147V201.814C385.933 201.301 385.582 201.031 384.997 201.031C384.421 201.031 384.034 201.292 383.989 201.76H383.044C383.125 200.806 383.881 200.257 385.015 200.257C386.212 200.257 386.887 200.887 386.887 201.85V205H385.978L385.942 204.28C385.654 204.802 385.087 205.117 384.421 205.117ZM384.646 204.334C385.339 204.334 385.933 203.902 385.933 203.299V202.876L384.448 203.083C384.025 203.146 383.827 203.344 383.827 203.704C383.827 204.091 384.124 204.334 384.646 204.334ZM357.54 220.53H356.541V214.365H357.468L357.495 215.13C357.72 214.689 358.26 214.257 359.052 214.257C360.267 214.257 361.032 215.229 361.032 216.615V216.75C361.032 218.136 360.249 219.117 359.025 219.117C358.305 219.117 357.792 218.739 357.54 218.298V220.53ZM358.782 218.316C359.574 218.316 360.024 217.749 360.024 216.75V216.615C360.024 215.616 359.574 215.04 358.782 215.04C357.954 215.04 357.504 215.616 357.504 216.615V216.75C357.504 217.749 357.954 218.316 358.782 218.316ZM362.732 219H361.742V212.34H362.741V215.076C362.993 214.617 363.47 214.257 364.208 214.257C365.333 214.257 365.81 214.959 365.81 216.012V219H364.829V216.255C364.829 215.499 364.55 215.076 363.875 215.076C363.191 215.076 362.732 215.58 362.732 216.408V219ZM368.776 219.117C367.39 219.117 366.49 218.163 366.49 216.75V216.615C366.49 215.202 367.39 214.257 368.776 214.257C370.171 214.257 371.071 215.202 371.071 216.615V216.75C371.071 218.163 370.171 219.117 368.776 219.117ZM368.776 218.316C369.622 218.316 370.063 217.749 370.063 216.75V216.615C370.063 215.616 369.622 215.058 368.776 215.058C367.939 215.058 367.498 215.616 367.498 216.615V216.75C367.498 217.749 367.939 218.316 368.776 218.316ZM373.685 219.117C372.668 219.117 372.164 218.649 372.164 217.749V215.112H371.264V214.365H372.164V212.916H373.154V214.365H374.414V215.112H373.154V217.641C373.154 218.1 373.325 218.307 373.874 218.307C374.072 218.307 374.306 218.262 374.441 218.217V219.009C374.234 219.072 373.919 219.117 373.685 219.117ZM377.104 219.117C375.718 219.117 374.818 218.163 374.818 216.75V216.615C374.818 215.202 375.718 214.257 377.104 214.257C378.499 214.257 379.399 215.202 379.399 216.615V216.75C379.399 218.163 378.499 219.117 377.104 219.117ZM377.104 218.316C377.95 218.316 378.391 217.749 378.391 216.75V216.615C378.391 215.616 377.95 215.058 377.104 215.058C376.267 215.058 375.826 215.616 375.826 216.615V216.75C375.826 217.749 376.267 218.316 377.104 218.316ZM381.965 217.2H380.912V217.047C380.912 215.472 382.829 215.481 382.829 214.374V214.284C382.829 213.717 382.397 213.348 381.74 213.348C381.02 213.348 380.543 213.735 380.453 214.5H379.409C379.535 213.168 380.498 212.493 381.731 212.493C383.018 212.493 383.882 213.258 383.882 214.275V214.338C383.882 215.994 381.965 215.841 381.965 217.119V217.2ZM381.983 219H380.903V217.875H381.983V219Z" fill="black" fill-opacity="0.8"/>
<path d="M747.09 453.757C749.433 451.414 753.232 451.414 755.575 453.757L798.908 497.09C801.251 499.433 801.251 503.232 798.908 505.575L755.575 548.908C753.232 551.251 749.433 551.251 747.09 548.908L703.757 505.575C701.414 503.232 701.414 499.433 703.757 497.09L747.09 453.757Z" fill="#22C182"/>
<path d="M737.229 497.117C735.528 497.117 734.646 496.181 734.646 494.561V490.61H735.699V494.534C735.699 495.632 736.203 496.199 737.229 496.199C738.246 496.199 738.768 495.632 738.768 494.525V490.61H739.812V494.552C739.812 496.163 738.939 497.117 737.229 497.117ZM741.724 498.53H740.725V492.365H741.652L741.679 493.13C741.904 492.689 742.444 492.257 743.236 492.257C744.451 492.257 745.216 493.229 745.216 494.615V494.75C745.216 496.136 744.433 497.117 743.209 497.117C742.489 497.117 741.976 496.739 741.724 496.298V498.53ZM742.966 496.316C743.758 496.316 744.208 495.749 744.208 494.75V494.615C744.208 493.616 743.758 493.04 742.966 493.04C742.138 493.04 741.688 493.616 741.688 494.615V494.75C741.688 495.749 742.138 496.316 742.966 496.316ZM745.926 490.34H746.916V497H745.926V490.34ZM749.91 497.117C748.524 497.117 747.624 496.163 747.624 494.75V494.615C747.624 493.202 748.524 492.257 749.91 492.257C751.305 492.257 752.205 493.202 752.205 494.615V494.75C752.205 496.163 751.305 497.117 749.91 497.117ZM749.91 496.316C750.756 496.316 751.197 495.749 751.197 494.75V494.615C751.197 493.616 750.756 493.058 749.91 493.058C749.073 493.058 748.632 493.616 748.632 494.615V494.75C748.632 495.749 749.073 496.316 749.91 496.316ZM754.25 497.117C753.296 497.117 752.693 496.541 752.693 495.749C752.693 495.011 753.143 494.525 753.935 494.417L755.762 494.147V493.814C755.762 493.301 755.411 493.031 754.826 493.031C754.25 493.031 753.863 493.292 753.818 493.76H752.873C752.954 492.806 753.71 492.257 754.844 492.257C756.041 492.257 756.716 492.887 756.716 493.85V497H755.807L755.771 496.28C755.483 496.802 754.916 497.117 754.25 497.117ZM754.475 496.334C755.168 496.334 755.762 495.902 755.762 495.299V494.876L754.277 495.083C753.854 495.146 753.656 495.344 753.656 495.704C753.656 496.091 753.953 496.334 754.475 496.334ZM759.4 497.117C758.185 497.117 757.402 496.136 757.402 494.75V494.615C757.402 493.238 758.158 492.257 759.382 492.257C760.12 492.257 760.624 492.608 760.894 493.04V490.34H761.884V497H760.966L760.939 496.226C760.714 496.667 760.192 497.117 759.4 497.117ZM759.652 496.316C760.48 496.316 760.93 495.749 760.93 494.75V494.615C760.93 493.616 760.471 493.04 759.652 493.04C758.86 493.04 758.41 493.616 758.41 494.615V494.75C758.41 495.74 758.851 496.316 759.652 496.316ZM765.695 497.117C764.741 497.117 764.138 496.541 764.138 495.749C764.138 495.011 764.588 494.525 765.38 494.417L767.207 494.147V493.814C767.207 493.301 766.856 493.031 766.271 493.031C765.695 493.031 765.308 493.292 765.263 493.76H764.318C764.399 492.806 765.155 492.257 766.289 492.257C767.486 492.257 768.161 492.887 768.161 493.85V497H767.252L767.216 496.28C766.928 496.802 766.361 497.117 765.695 497.117ZM765.92 496.334C766.613 496.334 767.207 495.902 767.207 495.299V494.876L765.722 495.083C765.299 495.146 765.101 495.344 765.101 495.704C765.101 496.091 765.398 496.334 765.92 496.334ZM738.814 512.53H737.815V506.365H738.742L738.769 507.13C738.994 506.689 739.534 506.257 740.326 506.257C741.541 506.257 742.306 507.229 742.306 508.615V508.75C742.306 510.136 741.523 511.117 740.299 511.117C739.579 511.117 739.066 510.739 738.814 510.298V512.53ZM740.056 510.316C740.848 510.316 741.298 509.749 741.298 508.75V508.615C741.298 507.616 740.848 507.04 740.056 507.04C739.228 507.04 738.778 507.616 738.778 508.615V508.75C738.778 509.749 739.228 510.316 740.056 510.316ZM744.005 511H743.015V504.34H744.014V507.076C744.266 506.617 744.743 506.257 745.481 506.257C746.606 506.257 747.083 506.959 747.083 508.012V511H746.102V508.255C746.102 507.499 745.823 507.076 745.148 507.076C744.464 507.076 744.005 507.58 744.005 508.408V511ZM750.05 511.117C748.664 511.117 747.764 510.163 747.764 508.75V508.615C747.764 507.202 748.664 506.257 750.05 506.257C751.445 506.257 752.345 507.202 752.345 508.615V508.75C752.345 510.163 751.445 511.117 750.05 511.117ZM750.05 510.316C750.896 510.316 751.337 509.749 751.337 508.75V508.615C751.337 507.616 750.896 507.058 750.05 507.058C749.213 507.058 748.772 507.616 748.772 508.615V508.75C748.772 509.749 749.213 510.316 750.05 510.316ZM754.959 511.117C753.942 511.117 753.438 510.649 753.438 509.749V507.112H752.538V506.365H753.438V504.916H754.428V506.365H755.688V507.112H754.428V509.641C754.428 510.1 754.599 510.307 755.148 510.307C755.346 510.307 755.58 510.262 755.715 510.217V511.009C755.508 511.072 755.193 511.117 754.959 511.117ZM758.377 511.117C756.991 511.117 756.091 510.163 756.091 508.75V508.615C756.091 507.202 756.991 506.257 758.377 506.257C759.772 506.257 760.672 507.202 760.672 508.615V508.75C760.672 510.163 759.772 511.117 758.377 511.117ZM758.377 510.316C759.223 510.316 759.664 509.749 759.664 508.75V508.615C759.664 507.616 759.223 507.058 758.377 507.058C757.54 507.058 757.099 507.616 757.099 508.615V508.75C757.099 509.749 757.54 510.316 758.377 510.316ZM763.239 509.2H762.186V509.047C762.186 507.472 764.103 507.481 764.103 506.374V506.284C764.103 505.717 763.671 505.348 763.014 505.348C762.294 505.348 761.817 505.735 761.727 506.5H760.683C760.809 505.168 761.772 504.493 763.005 504.493C764.292 504.493 765.156 505.258 765.156 506.275V506.338C765.156 507.994 763.239 507.841 763.239 509.119V509.2ZM763.257 511H762.177V509.875H763.257V511Z" fill="black" fill-opacity="0.8"/>
<rect x="475.451" y="160" width="170.422" height="98.6656" rx="10" fill="#A29CFF"/>
<path d="M519.824 214.695C516.809 214.695 514.844 212.52 514.844 209.355V208.995C514.844 205.86 516.824 203.655 519.839 203.655C522.404 203.655 524.129 205.275 524.339 207.72H522.569C522.359 206.115 521.339 205.155 519.824 205.155C517.829 205.155 516.644 206.73 516.644 208.995V209.355C516.644 211.62 517.844 213.18 519.824 213.18C521.444 213.18 522.479 212.1 522.554 210.48H524.339C524.174 212.91 522.479 214.695 519.824 214.695ZM525.437 203.4H527.087V214.5H525.437V203.4ZM530.263 203.4V205.65H528.538V203.4H530.263ZM528.568 206.775H530.218V214.5H528.568V206.775ZM535.119 214.695C532.779 214.695 531.399 213.09 531.399 210.75V210.525C531.399 208.185 532.779 206.595 535.134 206.595C537.069 206.595 538.344 207.735 538.554 209.52H536.934C536.769 208.545 536.199 207.93 535.104 207.93C533.769 207.93 533.079 208.86 533.079 210.525V210.75C533.079 212.415 533.769 213.36 535.104 213.36C536.199 213.36 536.784 212.715 536.949 211.74H538.584C538.329 213.555 537.054 214.695 535.119 214.695ZM542.079 210.885L541.314 211.65V214.5H539.664V203.4H541.314V209.865L544.344 206.775H546.339L543.264 209.865L546.444 214.5H544.554L542.079 210.885ZM554.067 212.94H552.132V210.015H549.402V208.14H552.132V205.215H554.067V208.14H556.797V210.015H554.067V212.94ZM564.877 214.695C563.632 214.695 562.822 213.975 562.507 213.255L562.432 214.5H560.197V203.4H562.612V207.765C563.047 207.075 563.842 206.55 564.952 206.55C567.037 206.55 568.267 208.275 568.267 210.54V210.69C568.267 213 566.977 214.695 564.877 214.695ZM564.187 212.88C565.297 212.88 565.837 212.115 565.837 210.69V210.54C565.837 209.1 565.297 208.35 564.187 208.35C563.077 208.35 562.537 209.1 562.537 210.54V210.69C562.537 212.115 563.077 212.88 564.187 212.88ZM571.871 214.695C570.011 214.695 569.171 213.525 569.171 211.68V206.745H571.586V211.215C571.586 212.25 571.961 212.775 572.771 212.775C573.611 212.775 574.166 212.175 574.166 210.96V206.745H576.581V214.5H574.271L574.211 213.39C573.791 214.05 572.996 214.695 571.871 214.695ZM581.561 214.695C579.596 214.695 578.696 213.825 578.696 212.16V208.47H577.286V206.745H578.696V204.27H581.096V206.745H583.046V208.47H581.096V211.995C581.096 212.61 581.396 212.865 582.146 212.865C582.506 212.865 582.806 212.79 583.076 212.715V214.5C582.671 214.62 582.071 214.695 581.561 214.695ZM587.753 214.695C585.788 214.695 584.888 213.825 584.888 212.16V208.47H583.478V206.745H584.888V204.27H587.288V206.745H589.238V208.47H587.288V211.995C587.288 212.61 587.588 212.865 588.338 212.865C588.698 212.865 588.998 212.79 589.268 212.715V214.5C588.863 214.62 588.263 214.695 587.753 214.695ZM593.83 214.695C591.385 214.695 589.765 213.045 589.765 210.69V210.54C589.765 208.2 591.385 206.55 593.83 206.55C596.29 206.55 597.895 208.2 597.895 210.54V210.69C597.895 213.045 596.29 214.695 593.83 214.695ZM593.83 212.865C594.97 212.865 595.465 212.115 595.465 210.69V210.54C595.465 209.13 594.97 208.38 593.83 208.38C592.705 208.38 592.195 209.13 592.195 210.54V210.69C592.195 212.115 592.705 212.865 593.83 212.865ZM601.293 214.5H598.893V206.745H601.188L601.248 207.93C601.623 207.24 602.388 206.55 603.693 206.55C605.658 206.55 606.393 207.795 606.393 209.52V214.5H603.993V210.135C603.993 209.085 603.663 208.47 602.748 208.47C601.878 208.47 601.293 209.1 601.293 210.24V214.5Z" fill="black" fill-opacity="0.8"/>
<rect x="701.934" y="160" width="170.422" height="98.6656" rx="10" fill="#A29CFF"/>
<path d="M738.346 203H736.621V192.35H740.956C743.101 192.35 744.601 193.46 744.601 195.53V195.77C744.601 197.84 743.101 198.95 740.956 198.95H738.346V203ZM738.346 193.82V197.48H740.821C742.021 197.48 742.816 196.94 742.816 195.77V195.53C742.816 194.36 742.021 193.82 740.821 193.82H738.346ZM747.304 203H745.654V191.9H747.319V196.46C747.739 195.695 748.534 195.095 749.764 195.095C751.639 195.095 752.434 196.265 752.434 198.02V203H750.799V198.425C750.799 197.165 750.334 196.46 749.209 196.46C748.069 196.46 747.304 197.3 747.304 198.68V203ZM757.377 203.195C755.067 203.195 753.567 201.605 753.567 199.25V199.025C753.567 196.67 755.067 195.095 757.377 195.095C759.702 195.095 761.202 196.67 761.202 199.025V199.25C761.202 201.605 759.702 203.195 757.377 203.195ZM757.377 201.86C758.787 201.86 759.522 200.915 759.522 199.25V199.025C759.522 197.36 758.787 196.43 757.377 196.43C755.982 196.43 755.247 197.36 755.247 199.025V199.25C755.247 200.915 755.982 201.86 757.377 201.86ZM765.559 203.195C763.864 203.195 763.024 202.415 763.024 200.915V196.52H761.524V195.275H763.024V192.86H764.674V195.275H766.774V196.52H764.674V200.735C764.674 201.5 764.959 201.845 765.874 201.845C766.204 201.845 766.594 201.77 766.819 201.695V203.015C766.474 203.12 765.949 203.195 765.559 203.195ZM771.256 203.195C768.946 203.195 767.446 201.605 767.446 199.25V199.025C767.446 196.67 768.946 195.095 771.256 195.095C773.581 195.095 775.081 196.67 775.081 199.025V199.25C775.081 201.605 773.581 203.195 771.256 203.195ZM771.256 201.86C772.666 201.86 773.401 200.915 773.401 199.25V199.025C773.401 197.36 772.666 196.43 771.256 196.43C769.861 196.43 769.126 197.36 769.126 199.025V199.25C769.126 200.915 769.861 201.86 771.256 201.86ZM781.901 203.195C779.906 203.195 778.661 202.25 778.511 200.6H780.101C780.236 201.515 780.896 201.95 781.916 201.95C782.846 201.95 783.476 201.575 783.476 200.885C783.476 200.27 783.041 199.97 781.571 199.7C779.696 199.385 778.781 198.785 778.781 197.405C778.781 196.025 780.026 195.095 781.796 195.095C783.656 195.095 784.811 195.98 784.961 197.51H783.386C783.266 196.73 782.666 196.31 781.781 196.31C780.926 196.31 780.371 196.685 780.371 197.315C780.371 197.915 780.806 198.2 782.216 198.425C784.166 198.74 785.111 199.385 785.111 200.735C785.111 202.205 783.836 203.195 781.901 203.195ZM789.629 203.195C787.229 203.195 785.804 201.59 785.804 199.25V199.025C785.804 196.685 787.259 195.095 789.629 195.095C792.164 195.095 793.394 196.865 793.274 199.505H787.499C787.574 201.05 788.324 201.875 789.629 201.875C790.709 201.875 791.354 201.365 791.579 200.585H793.229C792.854 202.205 791.564 203.195 789.629 203.195ZM787.529 198.32H791.579C791.459 197.12 790.829 196.4 789.614 196.4C788.414 196.4 787.709 197.06 787.529 198.32ZM794.45 191.9H796.1V203H794.45V191.9ZM801.106 203.195C798.706 203.195 797.281 201.59 797.281 199.25V199.025C797.281 196.685 798.736 195.095 801.106 195.095C803.641 195.095 804.871 196.865 804.751 199.505H798.976C799.051 201.05 799.801 201.875 801.106 201.875C802.186 201.875 802.831 201.365 803.056 200.585H804.706C804.331 202.205 803.041 203.195 801.106 203.195ZM799.006 198.32H803.056C802.936 197.12 802.306 196.4 801.091 196.4C799.891 196.4 799.186 197.06 799.006 198.32ZM809.346 203.195C807.006 203.195 805.626 201.59 805.626 199.25V199.025C805.626 196.685 807.006 195.095 809.361 195.095C811.296 195.095 812.571 196.235 812.781 198.02H811.161C810.996 197.045 810.426 196.43 809.331 196.43C807.996 196.43 807.306 197.36 807.306 199.025V199.25C807.306 200.915 807.996 201.86 809.331 201.86C810.426 201.86 811.011 201.215 811.176 200.24H812.811C812.556 202.055 811.281 203.195 809.346 203.195ZM817.164 203.195C815.469 203.195 814.629 202.415 814.629 200.915V196.52H813.129V195.275H814.629V192.86H816.279V195.275H818.379V196.52H816.279V200.735C816.279 201.5 816.564 201.845 817.479 201.845C817.809 201.845 818.199 201.77 818.424 201.695V203.015C818.079 203.12 817.554 203.195 817.164 203.195ZM821.222 191.9V194.15H819.497V191.9H821.222ZM819.527 195.275H821.177V203H819.527V195.275ZM826.168 203.195C823.858 203.195 822.358 201.605 822.358 199.25V199.025C822.358 196.67 823.858 195.095 826.168 195.095C828.493 195.095 829.993 196.67 829.993 199.025V199.25C829.993 201.605 828.493 203.195 826.168 203.195ZM826.168 201.86C827.578 201.86 828.313 200.915 828.313 199.25V199.025C828.313 197.36 827.578 196.43 826.168 196.43C824.773 196.43 824.038 197.36 824.038 199.025V199.25C824.038 200.915 824.773 201.86 826.168 201.86ZM832.829 203H831.179V195.275H832.769L832.829 196.505C833.234 195.74 834.044 195.095 835.289 195.095C837.164 195.095 837.959 196.265 837.959 198.02V203H836.324V198.425C836.324 197.165 835.859 196.46 834.734 196.46C833.594 196.46 832.829 197.3 832.829 198.68V203ZM772.831 228.55H771.166V218.275H772.711L772.756 219.55C773.131 218.815 774.031 218.095 775.351 218.095C777.376 218.095 778.651 219.715 778.651 222.025V222.25C778.651 224.56 777.346 226.195 775.306 226.195C774.106 226.195 773.251 225.565 772.831 224.83V228.55ZM774.901 224.86C776.221 224.86 776.971 223.915 776.971 222.25V222.025C776.971 220.36 776.221 219.4 774.901 219.4C773.521 219.4 772.771 220.36 772.771 222.025V222.25C772.771 223.915 773.521 224.86 774.901 224.86ZM782.055 226.195C780.465 226.195 779.46 225.235 779.46 223.915C779.46 222.685 780.21 221.875 781.53 221.695L784.575 221.245V220.69C784.575 219.835 783.99 219.385 783.015 219.385C782.055 219.385 781.41 219.82 781.335 220.6H779.76C779.895 219.01 781.155 218.095 783.045 218.095C785.04 218.095 786.165 219.145 786.165 220.75V226H784.65L784.59 224.8C784.11 225.67 783.165 226.195 782.055 226.195ZM782.43 224.89C783.585 224.89 784.575 224.17 784.575 223.165V222.46L782.1 222.805C781.395 222.91 781.065 223.24 781.065 223.84C781.065 224.485 781.56 224.89 782.43 224.89ZM790.999 228.745C788.869 228.745 787.669 227.8 787.504 226.45H789.304C789.394 227.125 789.979 227.5 791.089 227.5C792.364 227.5 793.129 226.87 793.129 225.655V224.515C792.724 225.265 791.854 225.88 790.654 225.88C788.599 225.88 787.309 224.26 787.309 222.13V221.83C787.309 219.685 788.584 218.095 790.609 218.095C791.929 218.095 792.814 218.815 793.204 219.55L793.249 218.275H794.779V225.505C794.779 227.5 793.444 228.745 790.999 228.745ZM791.059 224.56C792.424 224.56 793.189 223.6 793.189 222.13V221.83C793.189 220.33 792.439 219.4 791.059 219.4C789.724 219.4 788.989 220.33 788.989 221.83V222.13C788.989 223.6 789.739 224.56 791.059 224.56ZM799.787 226.195C797.387 226.195 795.962 224.59 795.962 222.25V222.025C795.962 219.685 797.417 218.095 799.787 218.095C802.322 218.095 803.552 219.865 803.432 222.505H797.657C797.732 224.05 798.482 224.875 799.787 224.875C800.867 224.875 801.512 224.365 801.737 223.585H803.387C803.012 225.205 801.722 226.195 799.787 226.195ZM797.687 221.32H801.737C801.617 220.12 800.987 219.4 799.772 219.4C798.572 219.4 797.867 220.06 797.687 221.32Z" fill="black" fill-opacity="0.8"/>
<path d="M973.506 161.757C975.849 159.414 979.648 159.414 981.991 161.757L1025.32 205.09C1027.67 207.433 1027.67 211.232 1025.32 213.575L981.991 256.908C979.648 259.251 975.849 259.251 973.506 256.908L930.173 213.575C927.83 211.232 927.83 207.433 930.173 205.09L973.506 161.757Z" fill="#22C182"/>
<path d="M965.934 205H963.702V198.61H965.934C967.806 198.61 969.093 199.699 969.093 201.697V201.913C969.093 203.893 967.815 205 965.934 205ZM964.746 199.492V204.118H965.862C967.176 204.118 968.013 203.443 968.013 201.913V201.697C968.013 200.176 967.185 199.492 965.844 199.492H964.746ZM970.842 198.34V199.69H969.807V198.34H970.842ZM969.825 200.365H970.815V205H969.825V200.365ZM973.521 205.117C972.306 205.117 971.523 204.136 971.523 202.75V202.615C971.523 201.238 972.279 200.257 973.503 200.257C974.241 200.257 974.745 200.608 975.015 201.04V198.34H976.005V205H975.087L975.06 204.226C974.835 204.667 974.313 205.117 973.521 205.117ZM973.773 204.316C974.601 204.316 975.051 203.749 975.051 202.75V202.615C975.051 201.616 974.592 201.04 973.773 201.04C972.981 201.04 972.531 201.616 972.531 202.615V202.75C972.531 203.74 972.972 204.316 973.773 204.316ZM980.284 206.53H979.267L979.861 204.973L978.079 200.365H979.132L980.383 203.884L981.589 200.365H982.606L980.284 206.53ZM984.991 205.117C983.605 205.117 982.705 204.163 982.705 202.75V202.615C982.705 201.202 983.605 200.257 984.991 200.257C986.386 200.257 987.286 201.202 987.286 202.615V202.75C987.286 204.163 986.386 205.117 984.991 205.117ZM984.991 204.316C985.837 204.316 986.278 203.749 986.278 202.75V202.615C986.278 201.616 985.837 201.058 984.991 201.058C984.154 201.058 983.713 201.616 983.713 202.615V202.75C983.713 203.749 984.154 204.316 984.991 204.316ZM989.529 205.117C988.449 205.117 987.927 204.433 987.927 203.344V200.365H988.926V203.155C988.926 203.866 989.187 204.289 989.853 204.289C990.537 204.289 990.942 203.767 990.942 202.939V200.365H991.941V205H990.978L990.96 204.298C990.69 204.748 990.195 205.117 989.529 205.117ZM959.845 219.117C958.441 219.117 957.613 218.154 957.613 216.75V216.615C957.613 215.211 958.441 214.257 959.854 214.257C961.015 214.257 961.78 214.941 961.906 216.012H960.934C960.835 215.427 960.493 215.058 959.836 215.058C959.035 215.058 958.621 215.616 958.621 216.615V216.75C958.621 217.749 959.035 218.316 959.836 218.316C960.493 218.316 960.844 217.929 960.943 217.344H961.924C961.771 218.433 961.006 219.117 959.845 219.117ZM963.562 219H962.572V212.34H963.571V215.076C963.823 214.617 964.3 214.257 965.038 214.257C966.163 214.257 966.64 214.959 966.64 216.012V219H965.659V216.255C965.659 215.499 965.38 215.076 964.705 215.076C964.021 215.076 963.562 215.58 963.562 216.408V219ZM969.606 219.117C968.22 219.117 967.32 218.163 967.32 216.75V216.615C967.32 215.202 968.22 214.257 969.606 214.257C971.001 214.257 971.901 215.202 971.901 216.615V216.75C971.901 218.163 971.001 219.117 969.606 219.117ZM969.606 218.316C970.452 218.316 970.893 217.749 970.893 216.75V216.615C970.893 215.616 970.452 215.058 969.606 215.058C968.769 215.058 968.328 215.616 968.328 216.615V216.75C968.328 217.749 968.769 218.316 969.606 218.316ZM974.719 219.117C973.333 219.117 972.433 218.163 972.433 216.75V216.615C972.433 215.202 973.333 214.257 974.719 214.257C976.114 214.257 977.014 215.202 977.014 216.615V216.75C977.014 218.163 976.114 219.117 974.719 219.117ZM974.719 218.316C975.565 218.316 976.006 217.749 976.006 216.75V216.615C976.006 215.616 975.565 215.058 974.719 215.058C973.882 215.058 973.441 215.616 973.441 216.615V216.75C973.441 217.749 973.882 218.316 974.719 218.316ZM979.421 219.117C978.224 219.117 977.477 218.55 977.387 217.56H978.341C978.422 218.109 978.818 218.37 979.43 218.37C979.988 218.37 980.366 218.145 980.366 217.731C980.366 217.362 980.105 217.182 979.223 217.02C978.098 216.831 977.549 216.471 977.549 215.643C977.549 214.815 978.296 214.257 979.358 214.257C980.474 214.257 981.167 214.788 981.257 215.706H980.312C980.24 215.238 979.88 214.986 979.349 214.986C978.836 214.986 978.503 215.211 978.503 215.589C978.503 215.949 978.764 216.12 979.61 216.255C980.78 216.444 981.347 216.831 981.347 217.641C981.347 218.523 980.582 219.117 979.421 219.117ZM984.057 219.117C982.617 219.117 981.762 218.154 981.762 216.75V216.615C981.762 215.211 982.635 214.257 984.057 214.257C985.578 214.257 986.316 215.319 986.244 216.903H982.779C982.824 217.83 983.274 218.325 984.057 218.325C984.705 218.325 985.092 218.019 985.227 217.551H986.217C985.992 218.523 985.218 219.117 984.057 219.117ZM982.797 216.192H985.227C985.155 215.472 984.777 215.04 984.048 215.04C983.328 215.04 982.905 215.436 982.797 216.192ZM989.538 212.34V213.69H988.503V212.34H989.538ZM988.521 214.365H989.511V219H988.521V214.365ZM992.424 219.117C991.407 219.117 990.903 218.649 990.903 217.749V215.112H990.003V214.365H990.903V212.916H991.893V214.365H993.153V215.112H991.893V217.641C991.893 218.1 992.064 218.307 992.613 218.307C992.811 218.307 993.045 218.262 993.18 218.217V219.009C992.973 219.072 992.658 219.117 992.424 219.117ZM996.092 217.2H995.039V217.047C995.039 215.472 996.956 215.481 996.956 214.374V214.284C996.956 213.717 996.524 213.348 995.867 213.348C995.147 213.348 994.67 213.735 994.58 214.5H993.536C993.662 213.168 994.625 212.493 995.858 212.493C997.145 212.493 998.009 213.258 998.009 214.275V214.338C998.009 215.994 996.092 215.841 996.092 217.119V217.2ZM996.11 219H995.03V217.875H996.11V219Z" fill="black" fill-opacity="0.8"/>
<rect x="1083.14" y="160" width="170.422" height="98.6656" rx="10" fill="#A29CFF"/>
<path d="M1116.94 214.5H1115.2V203.85H1122.17V205.305H1116.94V208.515H1121.68V209.97H1116.94V214.5ZM1124.99 203.4V205.65H1123.26V203.4H1124.99ZM1123.29 206.775H1124.94V214.5H1123.29V206.775ZM1126.42 203.4H1128.07V214.5H1126.42V203.4ZM1132.96 214.695C1131.26 214.695 1130.42 213.915 1130.42 212.415V208.02H1128.92V206.775H1130.42V204.36H1132.07V206.775H1134.17V208.02H1132.07V212.235C1132.07 213 1132.36 213.345 1133.27 213.345C1133.6 213.345 1133.99 213.27 1134.22 213.195V214.515C1133.87 214.62 1133.35 214.695 1132.96 214.695ZM1138.67 214.695C1136.27 214.695 1134.85 213.09 1134.85 210.75V210.525C1134.85 208.185 1136.3 206.595 1138.67 206.595C1141.21 206.595 1142.44 208.365 1142.32 211.005H1136.54C1136.62 212.55 1137.37 213.375 1138.67 213.375C1139.75 213.375 1140.4 212.865 1140.62 212.085H1142.27C1141.9 213.705 1140.61 214.695 1138.67 214.695ZM1136.57 209.82H1140.62C1140.5 208.62 1139.87 207.9 1138.66 207.9C1137.46 207.9 1136.75 208.56 1136.57 209.82ZM1145.14 214.5H1143.49V206.775H1145.08L1145.13 208.275C1145.55 207.285 1146.36 206.625 1147.47 206.625C1147.59 206.625 1147.75 206.64 1147.89 206.67V208.275C1147.74 208.26 1147.56 208.245 1147.38 208.245C1145.98 208.245 1145.14 209.04 1145.14 210.57V214.5ZM1152.89 216H1151.36L1155.23 203.4H1156.76L1152.89 216ZM1168.29 214.5H1160.87V203.85H1168.2V205.305H1162.61V208.335H1167.74V209.79H1162.61V213.045H1168.29V214.5ZM1172.27 214.695C1170.24 214.695 1168.94 213.06 1168.94 210.75V210.525C1168.94 208.23 1170.2 206.595 1172.24 206.595C1173.47 206.595 1174.31 207.18 1174.76 207.9V203.4H1176.41V214.5H1174.88L1174.83 213.21C1174.46 213.945 1173.59 214.695 1172.27 214.695ZM1172.69 213.36C1174.07 213.36 1174.82 212.415 1174.82 210.75V210.525C1174.82 208.86 1174.05 207.9 1172.69 207.9C1171.37 207.9 1170.62 208.86 1170.62 210.525V210.75C1170.62 212.4 1171.35 213.36 1172.69 213.36ZM1179.59 203.4V205.65H1177.86V203.4H1179.59ZM1177.89 206.775H1179.54V214.5H1177.89V206.775ZM1184.4 214.695C1182.7 214.695 1181.86 213.915 1181.86 212.415V208.02H1180.36V206.775H1181.86V204.36H1183.51V206.775H1185.61V208.02H1183.51V212.235C1183.51 213 1183.8 213.345 1184.71 213.345C1185.04 213.345 1185.43 213.27 1185.66 213.195V214.515C1185.31 214.62 1184.79 214.695 1184.4 214.695ZM1190.83 216H1189.3L1193.17 203.4H1194.7L1190.83 216ZM1208.18 214.5H1206.34L1205.39 211.905H1200.82L1199.86 214.5H1198.09L1202.18 203.85H1204.09L1208.18 214.5ZM1203.11 205.71L1201.36 210.45H1204.85L1203.11 205.71ZM1215.31 214.5H1209.1V203.85H1210.86V213.045H1215.31V214.5ZM1218.95 214.5H1217.2V205.305H1214.06V203.85H1222.1V205.305H1218.95V214.5Z" fill="black" fill-opacity="0.8"/>
<path d="M1164.11 307.802C1166.45 305.459 1170.25 305.459 1172.59 307.802L1215.93 351.135C1218.27 353.478 1218.27 357.277 1215.93 359.62L1172.59 402.953C1170.25 405.296 1166.45 405.296 1164.11 402.953L1120.78 359.62C1118.43 357.277 1118.43 353.478 1120.78 351.135L1164.11 307.802Z" fill="#22C182"/>
<path d="M1158.86 351.162C1157.15 351.162 1156.27 350.226 1156.27 348.606V344.655H1157.33V348.579C1157.33 349.677 1157.83 350.244 1158.86 350.244C1159.87 350.244 1160.39 349.677 1160.39 348.57V344.655H1161.44V348.597C1161.44 350.208 1160.57 351.162 1158.86 351.162ZM1164.02 351.162C1162.82 351.162 1162.08 350.595 1161.99 349.605H1162.94C1163.02 350.154 1163.42 350.415 1164.03 350.415C1164.59 350.415 1164.97 350.19 1164.97 349.776C1164.97 349.407 1164.7 349.227 1163.82 349.065C1162.7 348.876 1162.15 348.516 1162.15 347.688C1162.15 346.86 1162.9 346.302 1163.96 346.302C1165.07 346.302 1165.77 346.833 1165.86 347.751H1164.91C1164.84 347.283 1164.48 347.031 1163.95 347.031C1163.44 347.031 1163.1 347.256 1163.1 347.634C1163.1 347.994 1163.36 348.165 1164.21 348.3C1165.38 348.489 1165.95 348.876 1165.95 349.686C1165.95 350.568 1165.18 351.162 1164.02 351.162ZM1168.66 351.162C1167.22 351.162 1166.36 350.199 1166.36 348.795V348.66C1166.36 347.256 1167.24 346.302 1168.66 346.302C1170.18 346.302 1170.92 347.364 1170.84 348.948H1167.38C1167.42 349.875 1167.87 350.37 1168.66 350.37C1169.31 350.37 1169.69 350.064 1169.83 349.596H1170.82C1170.59 350.568 1169.82 351.162 1168.66 351.162ZM1167.4 348.237H1169.83C1169.76 347.517 1169.38 347.085 1168.65 347.085C1167.93 347.085 1167.51 347.481 1167.4 348.237ZM1178.79 351.045H1177.68L1177.12 349.488H1174.37L1173.8 351.045H1172.73L1175.19 344.655H1176.33L1178.79 351.045ZM1175.75 345.771L1174.7 348.615H1176.79L1175.75 345.771ZM1180.45 351.045H1179.4V344.655H1180.45V351.045ZM1155.47 365.045H1154.36L1153.79 363.488H1151.05L1150.47 365.045H1149.41L1151.87 358.655H1153.01L1155.47 365.045ZM1152.43 359.771L1151.37 362.615H1153.47L1152.43 359.771ZM1159.74 365.045H1156.02V358.655H1157.07V364.172H1159.74V365.045ZM1161.93 365.045H1160.88V359.528H1159V358.655H1163.82V359.528H1161.93V365.045ZM1168.6 365.045H1167.54V359.528H1165.66V358.655H1170.49V359.528H1168.6V365.045ZM1172.41 365.162C1170.97 365.162 1170.11 364.199 1170.11 362.795V362.66C1170.11 361.256 1170.98 360.302 1172.41 360.302C1173.93 360.302 1174.66 361.364 1174.59 362.948H1171.13C1171.17 363.875 1171.62 364.37 1172.41 364.37C1173.05 364.37 1173.44 364.064 1173.58 363.596H1174.57C1174.34 364.568 1173.57 365.162 1172.41 365.162ZM1171.15 362.237H1173.58C1173.5 361.517 1173.13 361.085 1172.4 361.085C1171.68 361.085 1171.25 361.481 1171.15 362.237ZM1175.67 365.045H1174.59L1176.27 362.669L1174.68 360.41H1175.82L1176.87 361.958L1177.93 360.41H1179.01L1177.42 362.642L1179.11 365.045H1177.97L1176.81 363.353L1175.67 365.045ZM1181.63 365.162C1180.61 365.162 1180.11 364.694 1180.11 363.794V361.157H1179.21V360.41H1180.11V358.961H1181.1V360.41H1182.36V361.157H1181.1V363.686C1181.1 364.145 1181.27 364.352 1181.82 364.352C1182.01 364.352 1182.25 364.307 1182.38 364.262V365.054C1182.18 365.117 1181.86 365.162 1181.63 365.162ZM1185.3 363.245H1184.24V363.092C1184.24 361.517 1186.16 361.526 1186.16 360.419V360.329C1186.16 359.762 1185.73 359.393 1185.07 359.393C1184.35 359.393 1183.87 359.78 1183.78 360.545H1182.74C1182.87 359.213 1183.83 358.538 1185.06 358.538C1186.35 358.538 1187.21 359.303 1187.21 360.32V360.383C1187.21 362.039 1185.3 361.886 1185.3 363.164V363.245ZM1185.31 365.045H1184.23V363.92H1185.31V365.045Z" fill="black" fill-opacity="0.8"/>
<path d="M311.592 209.728C311.811 209.51 311.811 209.155 311.592 208.936L308.025 205.368C307.806 205.149 307.451 205.149 307.232 205.368C307.013 205.587 307.013 205.942 307.232 206.161L310.403 209.332L307.232 212.503C307.013 212.722 307.013 213.077 307.232 213.296C307.451 213.515 307.806 213.515 308.025 213.296L311.592 209.728ZM274.757 209.893H311.196V208.771H274.757V209.893Z" fill="black"/>
<path d="M466.316 209.728C466.535 209.51 466.535 209.155 466.316 208.936L462.748 205.368C462.529 205.149 462.174 205.149 461.955 205.368C461.736 205.587 461.736 205.942 461.955 206.161L465.127 209.332L461.955 212.503C461.736 212.722 461.736 213.077 461.955 213.296C462.174 213.515 462.529 213.515 462.748 213.296L466.316 209.728ZM429.48 209.893H465.919V208.771H429.48V209.893Z" fill="black"/>
<path d="M692.799 209.728C693.018 209.51 693.018 209.155 692.799 208.936L689.232 205.368C689.013 205.149 688.658 205.149 688.439 205.368C688.22 205.587 688.22 205.942 688.439 206.161L691.61 209.332L688.439 212.503C688.22 212.722 688.22 213.077 688.439 213.296C688.658 213.515 689.013 213.515 689.232 213.296L692.799 209.728ZM655.964 209.893H692.403V208.771H655.964V209.893Z" fill="black"/>
<path d="M919.283 209.728C919.502 209.51 919.502 209.155 919.283 208.936L915.715 205.368C915.496 205.149 915.141 205.149 914.922 205.368C914.703 205.587 914.703 205.942 914.922 206.161L918.093 209.332L914.922 212.503C914.703 212.722 914.703 213.077 914.922 213.296C915.141 213.515 915.496 213.515 915.715 213.296L919.283 209.728ZM882.447 209.893H918.886V208.771H882.447V209.893Z" fill="black"/>
<path d="M1074.01 209.728C1074.23 209.51 1074.23 209.155 1074.01 208.936L1070.44 205.368C1070.22 205.149 1069.87 205.149 1069.65 205.368C1069.43 205.587 1069.43 205.942 1069.65 206.161L1072.82 209.332L1069.65 212.503C1069.43 212.722 1069.43 213.077 1069.65 213.296C1069.87 213.515 1070.22 213.515 1070.44 213.296L1074.01 209.728ZM1037.17 209.893H1073.61V208.771H1037.17V209.893Z" fill="black"/>
<path d="M1036.78 502.09C1036.56 501.871 1036.56 501.516 1036.78 501.297L1040.34 497.729C1040.56 497.51 1040.92 497.51 1041.14 497.729C1041.36 497.948 1041.36 498.303 1041.14 498.522L1037.97 501.693L1041.14 504.865C1041.36 505.084 1041.36 505.438 1041.14 505.657C1040.92 505.876 1040.56 505.876 1040.34 505.657L1036.78 502.09ZM1073.61 502.254H1037.17V501.133H1073.61V502.254Z" fill="black"/>
<path d="M655.604 502.09C655.385 501.871 655.385 501.516 655.604 501.297L659.172 497.729C659.391 497.51 659.746 497.51 659.965 497.729C660.183 497.948 660.183 498.303 659.965 498.522L656.793 501.693L659.965 504.865C660.183 505.084 660.183 505.438 659.965 505.657C659.746 505.876 659.391 505.876 659.172 505.657L655.604 502.09ZM692.439 502.254H656V501.133H692.439V502.254Z" fill="black"/>
<path d="M810.604 502.09C810.385 501.871 810.385 501.516 810.604 501.297L814.172 497.729C814.391 497.51 814.746 497.51 814.965 497.729C815.183 497.948 815.183 498.303 814.965 498.522L811.793 501.693L814.965 504.865C815.183 505.084 815.183 505.438 814.965 505.657C814.746 505.876 814.391 505.876 814.172 505.657L810.604 502.09ZM847.439 502.254H811V501.133H847.439V502.254Z" fill="black"/>
<path d="M786.748 263.874C786.967 263.655 787.322 263.655 787.541 263.874L791.109 267.441C791.327 267.66 791.327 268.015 791.109 268.234C790.89 268.453 790.535 268.453 790.316 268.234L787.145 265.063L783.973 268.234C783.754 268.453 783.399 268.453 783.18 268.234C782.962 268.015 782.962 267.66 783.18 267.441L786.748 263.874ZM786.584 300.709V264.27H787.705V300.709H786.584Z" fill="black"/>
<path d="M941.604 447.396C941.823 447.615 942.177 447.615 942.396 447.396L945.964 443.829C946.183 443.61 946.183 443.255 945.964 443.036C945.745 442.817 945.39 442.817 945.171 443.036L942 446.207L938.829 443.036C938.61 442.817 938.255 442.817 938.036 443.036C937.817 443.255 937.817 443.61 938.036 443.829L941.604 447.396ZM941.439 354L941.439 447L942.561 447L942.561 354L941.439 354Z" fill="black"/>
<path d="M1167.96 300.835C1168.18 301.054 1168.53 301.054 1168.75 300.835L1172.32 297.268C1172.54 297.049 1172.54 296.694 1172.32 296.475C1172.1 296.256 1171.74 296.256 1171.52 296.475L1168.35 299.646L1165.18 296.475C1164.96 296.256 1164.61 296.256 1164.39 296.475C1164.17 296.694 1164.17 297.049 1164.39 297.268L1167.96 300.835ZM1167.79 264V300.439H1168.91V264H1167.79Z" fill="black"/>
<path d="M1167.96 447.152C1168.18 447.371 1168.53 447.371 1168.75 447.152L1172.32 443.584C1172.54 443.365 1172.54 443.01 1172.32 442.791C1172.1 442.572 1171.74 442.572 1171.52 442.791L1168.35 445.963L1165.18 442.791C1164.96 442.572 1164.61 442.572 1164.39 442.791C1164.17 443.01 1164.17 443.365 1164.39 443.584L1167.96 447.152ZM1167.79 410.316V446.755H1168.91V410.316H1167.79Z" fill="black"/>
<line x1="787.145" y1="300.148" x2="977.748" y2="300.148" stroke="black" stroke-width="1.1212"/>
<line x1="942" y1="354.439" x2="1110" y2="354.439" stroke="black" stroke-width="1.1212"/>
<line x1="978.31" y1="264.273" x2="978.31" y2="300.712" stroke="black" stroke-width="1.1212"/>
<path d="M1051.84 199.711H1050.74V197.519L1048.35 192.944H1049.56L1051.31 196.461L1053.05 192.944H1054.22L1051.84 197.519V199.711ZM1056.18 199.835C1054.66 199.835 1053.75 198.815 1053.75 197.328V197.185C1053.75 195.699 1054.68 194.689 1056.18 194.689C1057.8 194.689 1058.58 195.813 1058.5 197.49H1054.83C1054.88 198.472 1055.36 198.996 1056.18 198.996C1056.87 198.996 1057.28 198.672 1057.42 198.177H1058.47C1058.23 199.206 1057.41 199.835 1056.18 199.835ZM1054.85 196.738H1057.42C1057.35 195.975 1056.95 195.518 1056.18 195.518C1055.41 195.518 1054.96 195.937 1054.85 196.738ZM1061.04 199.835C1059.77 199.835 1058.98 199.234 1058.89 198.186H1059.9C1059.98 198.767 1060.4 199.044 1061.05 199.044C1061.64 199.044 1062.04 198.806 1062.04 198.367C1062.04 197.976 1061.77 197.786 1060.83 197.614C1059.64 197.414 1059.06 197.033 1059.06 196.156C1059.06 195.279 1059.85 194.689 1060.98 194.689C1062.16 194.689 1062.89 195.251 1062.99 196.223H1061.99C1061.91 195.727 1061.53 195.46 1060.97 195.46C1060.42 195.46 1060.07 195.699 1060.07 196.099C1060.07 196.48 1060.35 196.661 1061.24 196.804C1062.48 197.004 1063.08 197.414 1063.08 198.272C1063.08 199.206 1062.27 199.835 1061.04 199.835Z" fill="black"/>
<path d="M670.019 497H668.914V494.808L666.531 490.234H667.742L669.486 493.75L671.23 490.234H672.402L670.019 494.808V497ZM674.363 497.124C672.838 497.124 671.932 496.104 671.932 494.617V494.474C671.932 492.988 672.857 491.978 674.363 491.978C675.973 491.978 676.755 493.102 676.678 494.779H673.009C673.057 495.761 673.533 496.285 674.363 496.285C675.049 496.285 675.459 495.961 675.602 495.466H676.65C676.412 496.495 675.592 497.124 674.363 497.124ZM673.028 494.027H675.602C675.525 493.264 675.125 492.807 674.353 492.807C673.591 492.807 673.143 493.226 673.028 494.027ZM679.22 497.124C677.952 497.124 677.161 496.523 677.066 495.475H678.076C678.162 496.057 678.581 496.333 679.23 496.333C679.82 496.333 680.221 496.095 680.221 495.656C680.221 495.266 679.944 495.075 679.01 494.903C677.819 494.703 677.238 494.322 677.238 493.445C677.238 492.568 678.029 491.978 679.153 491.978C680.335 491.978 681.069 492.54 681.164 493.512H680.164C680.087 493.016 679.706 492.75 679.144 492.75C678.601 492.75 678.248 492.988 678.248 493.388C678.248 493.769 678.524 493.95 679.42 494.093C680.659 494.293 681.259 494.703 681.259 495.561C681.259 496.495 680.449 497.124 679.22 497.124Z" fill="black"/>
<path d="M878.367 316.318H877.29V309.552H878.615L881.788 314.746V309.552H882.856V316.318H881.607L878.367 310.991V316.318ZM886.078 316.442C884.61 316.442 883.657 315.432 883.657 313.936V313.793C883.657 312.297 884.61 311.296 886.078 311.296C887.555 311.296 888.508 312.297 888.508 313.793V313.936C888.508 315.432 887.555 316.442 886.078 316.442ZM886.078 315.594C886.974 315.594 887.441 314.994 887.441 313.936V313.793C887.441 312.735 886.974 312.144 886.078 312.144C885.191 312.144 884.724 312.735 884.724 313.793V313.936C884.724 314.994 885.191 315.594 886.078 315.594Z" fill="black"/>
<path d="M1021.02 350H1019.91V347.808L1017.53 343.234H1018.74L1020.49 346.75L1022.23 343.234H1023.4L1021.02 347.808V350ZM1025.36 350.124C1023.84 350.124 1022.93 349.104 1022.93 347.617V347.474C1022.93 345.988 1023.86 344.978 1025.36 344.978C1026.97 344.978 1027.75 346.102 1027.68 347.779H1024.01C1024.06 348.761 1024.53 349.285 1025.36 349.285C1026.05 349.285 1026.46 348.961 1026.6 348.466H1027.65C1027.41 349.495 1026.59 350.124 1025.36 350.124ZM1024.03 347.027H1026.6C1026.53 346.264 1026.13 345.807 1025.35 345.807C1024.59 345.807 1024.14 346.226 1024.03 347.027ZM1030.22 350.124C1028.95 350.124 1028.16 349.523 1028.07 348.475H1029.08C1029.16 349.057 1029.58 349.333 1030.23 349.333C1030.82 349.333 1031.22 349.095 1031.22 348.656C1031.22 348.266 1030.94 348.075 1030.01 347.903C1028.82 347.703 1028.24 347.322 1028.24 346.445C1028.24 345.568 1029.03 344.978 1030.15 344.978C1031.34 344.978 1032.07 345.54 1032.16 346.512H1031.16C1031.09 346.016 1030.71 345.75 1030.14 345.75C1029.6 345.75 1029.25 345.988 1029.25 346.388C1029.25 346.769 1029.52 346.95 1030.42 347.093C1031.66 347.293 1032.26 347.703 1032.26 348.561C1032.26 349.495 1031.45 350.124 1030.22 350.124Z" fill="black"/>
<path d="M1176.05 431.527H1174.97V424.761H1176.29L1179.47 429.955V424.761H1180.53V431.527H1179.29L1176.05 426.2V431.527ZM1183.76 431.651C1182.29 431.651 1181.34 430.641 1181.34 429.145V429.002C1181.34 427.506 1182.29 426.505 1183.76 426.505C1185.23 426.505 1186.19 427.506 1186.19 429.002V429.145C1186.19 430.641 1185.23 431.651 1183.76 431.651ZM1183.76 430.803C1184.65 430.803 1185.12 430.203 1185.12 429.145V429.002C1185.12 427.944 1184.65 427.353 1183.76 427.353C1182.87 427.353 1182.4 427.944 1182.4 429.002V429.145C1182.4 430.203 1182.87 430.803 1183.76 430.803Z" fill="black"/>
</svg>
