<svg width="1207" height="465" viewBox="0 0 1207 465" fill="none" xmlns="http://www.w3.org/2000/svg">
<rect x="0.85" y="1.12246" width="1205.1" height="462.526" rx="16.15" fill="white" fill-opacity="0.5" stroke="#22C182" stroke-width="1.7"/>
<line x1="260.569" y1="464.152" x2="260.569" y2="0.271057" stroke="#119762" stroke-width="0.85"/>
<line x1="497.069" y1="464.152" x2="497.069" y2="0.271057" stroke="#119762" stroke-width="0.85"/>
<line x1="733.569" y1="464.152" x2="733.569" y2="0.271057" stroke="#119762" stroke-width="0.85"/>
<line x1="970.073" y1="464.152" x2="970.073" y2="0.271057" stroke="#119762" stroke-width="0.85"/>
<line x1="0.386719" y1="105.395" x2="1207" y2="105.395" stroke="#119762" stroke-width="0.85"/>
<line x1="0.386719" y1="177.06" x2="1207" y2="177.06" stroke="#119762" stroke-width="0.85"/>
<line x1="0.386719" y1="248.725" x2="1207" y2="248.725" stroke="#119762" stroke-width="0.85"/>
<line x1="0.386719" y1="320.395" x2="1207" y2="320.395" stroke="#119762" stroke-width="0.85"/>
<line x1="0.386719" y1="392.06" x2="1207" y2="392.06" stroke="#119762" stroke-width="0.85"/>
<path d="M65.8646 148.1H62.4254V131.6H65.8646V148.1ZM71.4542 148.1H68.1776V131.6H72.1978L79.0531 143.289V131.6H82.3065V148.1H78.4954L71.4542 136.016V148.1ZM90.8772 148.402C86.6711 148.402 84.0452 146.31 83.836 142.755H87.2521C87.4845 144.73 88.8788 145.66 90.9702 145.66C92.899 145.66 94.0609 144.962 94.0609 143.615V143.522C94.0609 142.29 93.1778 141.709 89.971 141.105C85.9507 140.361 84.3938 138.828 84.3938 136.248V136.109C84.3938 133.204 86.9035 131.298 90.6216 131.298C94.3165 131.298 96.896 133.134 97.1748 136.55H93.7588C93.5729 134.854 92.411 134.017 90.5519 134.017C88.6928 134.017 87.7866 134.854 87.7866 136.016V136.062C87.7866 137.108 88.2746 137.759 91.5279 138.316C95.4784 138.99 97.4537 140.408 97.4537 143.173V143.313C97.4537 146.38 94.7813 148.402 90.8772 148.402ZM105.552 148.1H102.135V134.412H97.4414V131.6H110.222V134.412H105.552V148.1ZM124.109 148.1H120.507L119.253 144.567H112.606L111.351 148.1H107.866L114.117 131.6H117.858L124.109 148.1ZM115.929 135.202L113.606 141.779H118.277L115.929 135.202ZM131.284 148.402C126.753 148.402 123.755 144.939 123.755 140.106V139.594C123.755 134.738 126.939 131.298 131.772 131.298C135.793 131.298 138.419 133.692 138.907 137.038H135.421C135.003 135.249 133.724 134.157 131.726 134.157C128.891 134.157 127.334 136.364 127.334 139.594V140.106C127.334 143.359 128.984 145.52 131.819 145.52C134.631 145.52 136.025 143.777 136.071 141.639H131.447V138.944H138.976V148.1H136.42L136.141 145.962C135.305 147.402 133.469 148.402 131.284 148.402ZM144.285 148.1H140.915V131.6H148.143C151.582 131.6 154.115 133.413 154.115 136.783V137.061C154.115 139.594 152.72 141.221 150.583 141.895L154.696 148.1H150.838L147.097 142.244H144.285V148.1ZM144.285 134.435V139.408H147.794C149.421 139.408 150.583 138.688 150.583 137.061V136.783C150.583 135.133 149.421 134.435 147.794 134.435H144.285ZM170.925 148.1H167.323L166.068 144.567H159.422L158.167 148.1H154.681L160.932 131.6H164.674L170.925 148.1ZM162.745 135.202L160.421 141.779H165.092L162.745 135.202ZM175.381 148.1H172.057V131.6H176.984L181.027 143.824L185.048 131.6H189.742V148.1H186.488V135.504L182.306 148.1H179.587L175.381 135.481V148.1Z" fill="black"/>
<path d="M294.168 46.4593C290.63 46.4593 288.39 43.9826 288.39 40.4446V40.0739C288.39 36.5528 290.698 34.0593 294.185 34.0593C297.201 34.0593 299.206 35.9631 299.408 38.7935H296.881C296.696 37.1424 295.701 36.1484 294.151 36.1484C292.13 36.1484 290.984 37.7321 290.984 40.0739V40.4446C290.984 42.7864 292.147 44.3533 294.151 44.3533C295.769 44.3533 296.78 43.2582 296.864 41.5902H299.391C299.206 44.4375 297.268 46.4593 294.168 46.4593ZM302.798 46.4593C301.046 46.4593 299.866 45.3473 299.866 43.8142C299.866 42.3315 300.81 41.4555 302.393 41.2364L305.594 40.7815V40.2761C305.594 39.5517 305.123 39.1136 304.095 39.1136C303.135 39.1136 302.528 39.4843 302.444 40.2256H300.22C300.355 38.3723 301.888 37.3277 304.146 37.3277C306.487 37.3277 307.869 38.4902 307.869 40.3098V46.2402H305.696L305.611 44.9093C305.089 45.8527 304.078 46.4593 302.798 46.4593ZM303.505 44.6902C304.651 44.6902 305.594 44.0163 305.594 43.056V42.3652L303.236 42.6853C302.511 42.7864 302.141 43.0897 302.141 43.6962C302.141 44.3196 302.646 44.6902 303.505 44.6902ZM311.589 46.2402H309.231V37.5468H311.505L311.573 38.8946C312.011 38.0859 312.87 37.3277 314.319 37.3277C316.475 37.3277 317.334 38.6924 317.334 40.6468V46.2402H314.993V41.2364C314.993 39.9729 314.555 39.2316 313.426 39.2316C312.331 39.2316 311.589 40.0402 311.589 41.4218V46.2402ZM324.408 46.4593C322.353 46.4593 321.392 45.162 321.392 43.1065V37.5468H323.768V42.6517C323.768 43.8815 324.223 44.5386 325.267 44.5386C326.346 44.5386 327.02 43.7468 327.02 42.2978V37.5468H329.395V46.2402H327.104L327.053 44.9766C326.565 45.7516 325.672 46.4593 324.408 46.4593ZM334.322 46.4593C331.896 46.4593 330.481 45.3641 330.329 43.4772H332.587C332.722 44.3364 333.379 44.7745 334.339 44.7745C335.232 44.7745 335.839 44.4375 335.839 43.8142C335.839 43.275 335.434 42.9549 333.867 42.6853C331.644 42.3147 330.616 41.6071 330.616 40.0402C330.616 38.406 332.115 37.3277 334.238 37.3277C336.479 37.3277 337.843 38.3555 337.978 40.1413H335.771C335.67 39.3832 335.08 38.9788 334.204 38.9788C333.396 38.9788 332.873 39.3158 332.873 39.8886C332.873 40.4277 333.311 40.7142 334.794 40.95C337.153 41.3207 338.147 42.0788 338.147 43.5951C338.147 45.3136 336.664 46.4593 334.322 46.4593ZM343.247 46.4593C340.451 46.4593 338.766 44.6734 338.766 41.9946V41.7756C338.766 39.1305 340.501 37.3277 343.247 37.3277C346.213 37.3277 347.678 39.4169 347.527 42.4495H341.175C341.293 43.9321 341.984 44.6565 343.247 44.6565C344.309 44.6565 344.915 44.1511 345.134 43.4772H347.476C347.055 45.3136 345.522 46.4593 343.247 46.4593ZM341.209 40.8995H345.117C345.016 39.8044 344.41 39.1305 343.23 39.1305C342.068 39.1305 341.411 39.7033 341.209 40.8995ZM351.03 46.2402H348.672V37.5468H350.946L350.997 39.2316C351.418 38.187 352.277 37.3951 353.557 37.3951C353.726 37.3951 353.945 37.412 354.08 37.4457V39.7033C353.911 39.6864 353.642 39.6696 353.423 39.6696C351.856 39.6696 351.03 40.512 351.03 42.0451V46.2402ZM358.359 46.4593C355.933 46.4593 354.517 45.3641 354.366 43.4772H356.623C356.758 44.3364 357.415 44.7745 358.376 44.7745C359.268 44.7745 359.875 44.4375 359.875 43.8142C359.875 43.275 359.471 42.9549 357.904 42.6853C355.68 42.3147 354.652 41.6071 354.652 40.0402C354.652 38.406 356.152 37.3277 358.274 37.3277C360.515 37.3277 361.88 38.3555 362.015 40.1413H359.808C359.707 39.3832 359.117 38.9788 358.241 38.9788C357.432 38.9788 356.91 39.3158 356.91 39.8886C356.91 40.4277 357.348 40.7142 358.83 40.95C361.189 41.3207 362.183 42.0788 362.183 43.5951C362.183 45.3136 360.701 46.4593 358.359 46.4593ZM370.19 46.4593C367.393 46.4593 365.708 44.6734 365.708 41.9946V41.7756C365.708 39.1305 367.444 37.3277 370.19 37.3277C373.155 37.3277 374.621 39.4169 374.469 42.4495H368.118C368.236 43.9321 368.926 44.6565 370.19 44.6565C371.251 44.6565 371.858 44.1511 372.077 43.4772H374.419C373.998 45.3136 372.464 46.4593 370.19 46.4593ZM368.151 40.8995H372.06C371.959 39.8044 371.352 39.1305 370.173 39.1305C369.011 39.1305 368.354 39.7033 368.151 40.8995ZM378.126 46.4593C376.374 46.4593 375.194 45.3473 375.194 43.8142C375.194 42.3315 376.138 41.4555 377.721 41.2364L380.923 40.7815V40.2761C380.923 39.5517 380.451 39.1136 379.423 39.1136C378.463 39.1136 377.856 39.4843 377.772 40.2256H375.548C375.683 38.3723 377.216 37.3277 379.474 37.3277C381.815 37.3277 383.197 38.4902 383.197 40.3098V46.2402H381.024L380.939 44.9093C380.417 45.8527 379.406 46.4593 378.126 46.4593ZM378.833 44.6902C379.979 44.6902 380.923 44.0163 380.923 43.056V42.3652L378.564 42.6853C377.839 42.7864 377.469 43.0897 377.469 43.6962C377.469 44.3196 377.974 44.6902 378.833 44.6902ZM388.164 46.4593C385.738 46.4593 384.323 45.3641 384.171 43.4772H386.429C386.564 44.3364 387.221 44.7745 388.181 44.7745C389.074 44.7745 389.68 44.4375 389.68 43.8142C389.68 43.275 389.276 42.9549 387.709 42.6853C385.485 42.3147 384.458 41.6071 384.458 40.0402C384.458 38.406 385.957 37.3277 388.08 37.3277C390.321 37.3277 391.685 38.3555 391.82 40.1413H389.613C389.512 39.3832 388.922 38.9788 388.046 38.9788C387.238 38.9788 386.715 39.3158 386.715 39.8886C386.715 40.4277 387.153 40.7142 388.636 40.95C390.995 41.3207 391.989 42.0788 391.989 43.5951C391.989 45.3136 390.506 46.4593 388.164 46.4593ZM395.468 33.7729V36.4011H393.008V33.7729H395.468ZM393.059 37.5468H395.418V46.2402H393.059V37.5468ZM396.854 33.7729H399.212V46.2402H396.854V33.7729ZM404.557 49.1044H402.131L403.26 46.156L399.958 37.5468H402.451L404.507 43.612L406.495 37.5468H408.904L404.557 49.1044ZM415.719 46.2402H413.361V39.2652H411.743V37.5468H413.361V36.2832C413.361 34.4973 414.355 33.5538 416.444 33.5538C416.949 33.5538 417.59 33.6549 418.011 33.756V35.5756C417.775 35.5082 417.387 35.4071 416.966 35.4071C416.04 35.4071 415.719 35.7272 415.719 36.4854V37.5468H417.977V39.2652H415.719V46.2402ZM421.515 36.4011H419.055V33.7729H421.515V36.4011ZM421.465 37.5468V46.2402H419.106V37.5468H421.465ZM425.25 46.2402H422.891V37.5468H425.166L425.233 38.8946C425.671 38.0859 426.531 37.3277 427.979 37.3277C430.136 37.3277 430.995 38.6924 430.995 40.6468V46.2402H428.653V41.2364C428.653 39.9729 428.215 39.2316 427.087 39.2316C425.991 39.2316 425.25 40.0402 425.25 41.4218V46.2402ZM435.85 46.4593C433.508 46.4593 432.059 44.5892 432.059 41.9946V41.7756C432.059 39.2147 433.458 37.3277 435.782 37.3277C437.063 37.3277 437.973 37.9343 438.478 38.7093V33.7729H440.854V46.2402H438.663L438.596 44.8756C438.192 45.6506 437.265 46.4593 435.85 46.4593ZM436.507 44.6397C437.855 44.6397 438.562 43.6962 438.562 41.9946V41.7756C438.562 40.0739 437.855 39.1305 436.507 39.1305C435.176 39.1305 434.452 40.0739 434.452 41.7756V41.9946C434.452 43.6962 435.176 44.6397 436.507 44.6397ZM449.112 46.4593C447.023 46.4593 446.029 45.5158 446.029 43.7299V39.2652H444.412V37.5468H446.029V34.7837H448.388V37.5468H450.645V39.2652H448.388V43.5277C448.388 44.2859 448.725 44.606 449.634 44.606C450.056 44.606 450.443 44.5049 450.679 44.4375V46.2402C450.275 46.375 449.618 46.4593 449.112 46.4593ZM454.118 46.2402H451.759V33.7729H454.135V38.8104C454.59 38.0354 455.466 37.3277 456.847 37.3277C459.004 37.3277 459.863 38.6924 459.863 40.6468V46.2402H457.521V41.2364C457.521 39.9729 457.083 39.2316 455.954 39.2316C454.859 39.2316 454.118 40.0402 454.118 41.4218V46.2402ZM465.408 46.4593C462.612 46.4593 460.927 44.6734 460.927 41.9946V41.7756C460.927 39.1305 462.662 37.3277 465.408 37.3277C468.374 37.3277 469.839 39.4169 469.688 42.4495H463.336C463.454 43.9321 464.145 44.6565 465.408 44.6565C466.47 44.6565 467.076 44.1511 467.295 43.4772H469.637C469.216 45.3136 467.683 46.4593 465.408 46.4593ZM463.37 40.8995H467.278C467.177 39.8044 466.571 39.1305 465.391 39.1305C464.229 39.1305 463.572 39.7033 463.37 40.8995ZM318.055 58.8946H315.662V56.5022C315.662 54.5479 316.589 53.7055 318.442 53.7055V54.9017C317.415 54.9017 317.01 55.2723 317.01 56.3506V56.5864H318.055V58.8946ZM329.129 66.2402H326.518L325.608 63.6794H320.789L319.88 66.2402H317.352L321.885 54.2783H324.597L329.129 66.2402ZM323.199 56.8897L321.514 61.6576H324.9L323.199 56.8897ZM329.883 53.7729H332.242V66.2402H329.883V53.7729ZM337.721 66.4593C335.632 66.4593 334.638 65.5158 334.638 63.7299V59.2652H333.021V57.5468H334.638V54.7837H336.997V57.5468H339.254V59.2652H336.997V63.5277C336.997 64.2859 337.334 64.606 338.244 64.606C338.665 64.606 339.052 64.5049 339.288 64.4375V66.2402C338.884 66.375 338.227 66.4593 337.721 66.4593ZM348.534 66.2402H346.058V56.3169H342.655V54.2783H351.921V56.3169H348.534V66.2402ZM355.706 66.4593C352.909 66.4593 351.225 64.6734 351.225 61.9946V61.7756C351.225 59.1305 352.96 57.3277 355.706 57.3277C358.671 57.3277 360.137 59.4169 359.985 62.4495H353.634C353.752 63.9321 354.443 64.6565 355.706 64.6565C356.768 64.6565 357.374 64.1511 357.593 63.4772H359.935C359.514 65.3136 357.981 66.4593 355.706 66.4593ZM353.668 60.8995H357.576C357.475 59.8044 356.869 59.1305 355.689 59.1305C354.527 59.1305 353.87 59.7033 353.668 60.8995ZM362.259 66.2402H359.732L362.832 61.7756L359.884 57.5468H362.563L364.264 60.1413L366 57.5468H368.527L365.578 61.7419L368.712 66.2402H366.016L364.129 63.3761L362.259 66.2402ZM373.427 66.4593C371.338 66.4593 370.344 65.5158 370.344 63.7299V59.2652H368.727V57.5468H370.344V54.7837H372.703V57.5468H374.961V59.2652H372.703V63.5277C372.703 64.2859 373.04 64.606 373.95 64.606C374.371 64.606 374.758 64.5049 374.994 64.4375V66.2402C374.59 66.375 373.933 66.4593 373.427 66.4593ZM376.147 58.962V57.7826C377.191 57.7826 377.579 57.3951 377.579 56.3337V56.0979H376.534V53.7729H378.927V56.1821C378.927 58.1196 378 58.962 376.147 58.962ZM388.816 66.4593C387.384 66.4593 386.457 65.6506 386.07 64.8756L386.002 66.2402H383.795V53.7729H386.171V58.7093C386.693 57.9343 387.603 57.3277 388.883 57.3277C391.192 57.3277 392.59 59.2147 392.59 61.7756V61.9946C392.59 64.5892 391.141 66.4593 388.816 66.4593ZM388.142 64.6397C389.49 64.6397 390.198 63.6962 390.198 61.9946V61.7756C390.198 60.0739 389.49 59.1305 388.142 59.1305C386.811 59.1305 386.087 60.0739 386.087 61.7756V61.9946C386.087 63.6962 386.811 64.6397 388.142 64.6397ZM396.642 66.4593C394.587 66.4593 393.627 65.162 393.627 63.1065V57.5468H396.002V62.6517C396.002 63.8815 396.457 64.5386 397.502 64.5386C398.58 64.5386 399.254 63.7468 399.254 62.2978V57.5468H401.629V66.2402H399.338L399.288 64.9766C398.799 65.7516 397.906 66.4593 396.642 66.4593ZM407.11 66.4593C405.021 66.4593 404.027 65.5158 404.027 63.7299V59.2652H402.409V57.5468H404.027V54.7837H406.385V57.5468H408.643V59.2652H406.385V63.5277C406.385 64.2859 406.722 64.606 407.632 64.606C408.053 64.606 408.441 64.5049 408.677 64.4375V66.2402C408.272 66.375 407.615 66.4593 407.11 66.4593ZM413.784 66.4593C411.695 66.4593 410.701 65.5158 410.701 63.7299V59.2652H409.083V57.5468H410.701V54.7837H413.059V57.5468H415.317V59.2652H413.059V63.5277C413.059 64.2859 413.396 64.606 414.306 64.606C414.727 64.606 415.115 64.5049 415.351 64.4375V66.2402C414.946 66.375 414.289 66.4593 413.784 66.4593ZM420.378 66.4593C417.683 66.4593 415.914 64.6397 415.914 61.9946V61.7756C415.914 59.1473 417.683 57.3277 420.378 57.3277C423.074 57.3277 424.843 59.1473 424.843 61.7924V61.9946C424.843 64.6397 423.074 66.4593 420.378 66.4593ZM420.378 64.6228C421.76 64.6228 422.45 63.6962 422.45 61.9946V61.7924C422.45 60.0908 421.76 59.1642 420.378 59.1642C418.997 59.1642 418.306 60.0908 418.306 61.7756V61.9946C418.306 63.6962 418.997 64.6228 420.378 64.6228ZM428.326 66.2402H425.967V57.5468H428.242L428.309 58.8946C428.747 58.0859 429.607 57.3277 431.056 57.3277C433.212 57.3277 434.071 58.6924 434.071 60.6468V66.2402H431.729V61.2364C431.729 59.9729 431.291 59.2316 430.163 59.2316C429.067 59.2316 428.326 60.0402 428.326 61.4218V66.2402ZM439.773 62.8538H437.331V62.5C437.331 59.5517 440.902 59.4674 440.902 57.6647V57.4962C440.902 56.637 440.279 56.0136 439.201 56.0136C438.038 56.0136 437.28 56.6707 437.128 57.8837H434.669C434.888 55.3903 436.741 54.0593 439.167 54.0593C441.694 54.0593 443.396 55.4745 443.396 57.4625V57.5468C443.396 60.6805 439.773 60.293 439.773 62.7359V62.8538ZM439.773 66.2402H437.331V63.9152H439.773V66.2402Z" fill="black"/>
<path d="M538.65 46.2402H536.038L535.129 43.6794H530.31L529.4 46.2402H526.873L531.405 34.2783H534.118L538.65 46.2402ZM532.719 36.8897L531.035 41.6576H534.421L532.719 36.8897ZM541.762 46.2402H539.404V37.5468H541.678L541.729 39.2316C542.15 38.187 543.009 37.3951 544.29 37.3951C544.458 37.3951 544.677 37.412 544.812 37.4457V39.7033C544.643 39.6864 544.374 39.6696 544.155 39.6696C542.588 39.6696 541.762 40.512 541.762 42.0451V46.2402ZM549.614 46.4593C546.818 46.4593 545.133 44.6734 545.133 41.9946V41.7756C545.133 39.1305 546.868 37.3277 549.614 37.3277C552.579 37.3277 554.045 39.4169 553.894 42.4495H547.542C547.66 43.9321 548.351 44.6565 549.614 44.6565C550.676 44.6565 551.282 44.1511 551.501 43.4772H553.843C553.422 45.3136 551.889 46.4593 549.614 46.4593ZM547.576 40.8995H551.484C551.383 39.8044 550.777 39.1305 549.597 39.1305C548.435 39.1305 547.778 39.7033 547.576 40.8995ZM561.84 46.4593C559.751 46.4593 558.757 45.5158 558.757 43.7299V39.2652H557.14V37.5468H558.757V34.7837H561.116V37.5468H563.373V39.2652H561.116V43.5277C561.116 44.2859 561.453 44.606 562.363 44.606C562.784 44.606 563.171 44.5049 563.407 44.4375V46.2402C563.003 46.375 562.346 46.4593 561.84 46.4593ZM566.846 46.2402H564.487V33.7729H566.863V38.8104C567.318 38.0354 568.194 37.3277 569.575 37.3277C571.732 37.3277 572.591 38.6924 572.591 40.6468V46.2402H570.249V41.2364C570.249 39.9729 569.811 39.2316 568.682 39.2316C567.587 39.2316 566.846 40.0402 566.846 41.4218V46.2402ZM578.136 46.4593C575.34 46.4593 573.655 44.6734 573.655 41.9946V41.7756C573.655 39.1305 575.39 37.3277 578.136 37.3277C581.102 37.3277 582.567 39.4169 582.416 42.4495H576.064C576.182 43.9321 576.873 44.6565 578.136 44.6565C579.198 44.6565 579.804 44.1511 580.023 43.4772H582.365C581.944 45.3136 580.411 46.4593 578.136 46.4593ZM576.098 40.8995H580.007C579.905 39.8044 579.299 39.1305 578.12 39.1305C576.957 39.1305 576.3 39.7033 576.098 40.8995ZM585.919 46.2402H583.561V37.5468H585.835L585.886 39.2316C586.307 38.187 587.166 37.3951 588.447 37.3951C588.615 37.3951 588.834 37.412 588.969 37.4457V39.7033C588.8 39.6864 588.531 39.6696 588.312 39.6696C586.745 39.6696 585.919 40.512 585.919 42.0451V46.2402ZM593.771 46.4593C590.975 46.4593 589.29 44.6734 589.29 41.9946V41.7756C589.29 39.1305 591.025 37.3277 593.771 37.3277C596.737 37.3277 598.202 39.4169 598.051 42.4495H591.699C591.817 43.9321 592.508 44.6565 593.771 44.6565C594.833 44.6565 595.439 44.1511 595.658 43.4772H598C597.579 45.3136 596.046 46.4593 593.771 46.4593ZM591.733 40.8995H595.641C595.54 39.8044 594.934 39.1305 593.754 39.1305C592.592 39.1305 591.935 39.7033 591.733 40.8995ZM604.515 46.4593C602.762 46.4593 601.583 45.3473 601.583 43.8142C601.583 42.3315 602.527 41.4555 604.11 41.2364L607.311 40.7815V40.2761C607.311 39.5517 606.84 39.1136 605.812 39.1136C604.852 39.1136 604.245 39.4843 604.161 40.2256H601.937C602.072 38.3723 603.605 37.3277 605.862 37.3277C608.204 37.3277 609.586 38.4902 609.586 40.3098V46.2402H607.412L607.328 44.9093C606.806 45.8527 605.795 46.4593 604.515 46.4593ZM605.222 44.6902C606.368 44.6902 607.311 44.0163 607.311 43.056V42.3652L604.953 42.6853C604.228 42.7864 603.858 43.0897 603.858 43.6962C603.858 44.3196 604.363 44.6902 605.222 44.6902ZM613.306 46.2402H610.948V37.5468H613.222L613.289 38.8946C613.728 38.0859 614.587 37.3277 616.036 37.3277C618.192 37.3277 619.051 38.6924 619.051 40.6468V46.2402H616.71V41.2364C616.71 39.9729 616.272 39.2316 615.143 39.2316C614.048 39.2316 613.306 40.0402 613.306 41.4218V46.2402ZM623.867 49.1044H621.441L622.569 46.156L619.267 37.5468H621.761L623.816 43.612L625.804 37.5468H628.213L623.867 49.1044ZM635.753 46.4593C633.041 46.4593 631.407 44.6565 631.407 41.9946V41.7756C631.407 39.1136 633.041 37.3277 635.753 37.3277C638.028 37.3277 639.544 38.6419 639.797 40.8152H637.472C637.32 39.8212 636.832 39.1642 635.72 39.1642C634.422 39.1642 633.799 40.1076 633.799 41.7756V41.9946C633.799 43.6794 634.422 44.6228 635.72 44.6228C636.832 44.6228 637.337 43.9489 637.489 42.9718H639.814C639.544 45.1451 638.028 46.4593 635.753 46.4593ZM643.178 46.2402H640.819V33.7729H643.194V38.8104C643.649 38.0354 644.525 37.3277 645.907 37.3277C648.063 37.3277 648.923 38.6924 648.923 40.6468V46.2402H646.581V41.2364C646.581 39.9729 646.143 39.2316 645.014 39.2316C643.919 39.2316 643.178 40.0402 643.178 41.4218V46.2402ZM652.851 46.4593C651.099 46.4593 649.919 45.3473 649.919 43.8142C649.919 42.3315 650.863 41.4555 652.446 41.2364L655.647 40.7815V40.2761C655.647 39.5517 655.176 39.1136 654.148 39.1136C653.188 39.1136 652.581 39.4843 652.497 40.2256H650.273C650.408 38.3723 651.941 37.3277 654.199 37.3277C656.54 37.3277 657.922 38.4902 657.922 40.3098V46.2402H655.749L655.664 44.9093C655.142 45.8527 654.131 46.4593 652.851 46.4593ZM653.558 44.6902C654.704 44.6902 655.647 44.0163 655.647 43.056V42.3652L653.289 42.6853C652.564 42.7864 652.194 43.0897 652.194 43.6962C652.194 44.3196 652.699 44.6902 653.558 44.6902ZM661.642 46.2402H659.284V37.5468H661.558L661.609 39.2316C662.03 38.187 662.889 37.3951 664.17 37.3951C664.338 37.3951 664.557 37.412 664.692 37.4457V39.7033C664.523 39.6864 664.254 39.6696 664.035 39.6696C662.468 39.6696 661.642 40.512 661.642 42.0451V46.2402ZM667.811 46.4593C666.059 46.4593 664.88 45.3473 664.88 43.8142C664.88 42.3315 665.823 41.4555 667.407 41.2364L670.608 40.7815V40.2761C670.608 39.5517 670.136 39.1136 669.108 39.1136C668.148 39.1136 667.541 39.4843 667.457 40.2256H665.233C665.368 38.3723 666.901 37.3277 669.159 37.3277C671.501 37.3277 672.882 38.4902 672.882 40.3098V46.2402H670.709L670.625 44.9093C670.102 45.8527 669.091 46.4593 667.811 46.4593ZM668.519 44.6902C669.664 44.6902 670.608 44.0163 670.608 43.056V42.3652L668.249 42.6853C667.525 42.7864 667.154 43.0897 667.154 43.6962C667.154 44.3196 667.659 44.6902 668.519 44.6902ZM678.287 46.4593C675.575 46.4593 673.941 44.6565 673.941 41.9946V41.7756C673.941 39.1136 675.575 37.3277 678.287 37.3277C680.562 37.3277 682.078 38.6419 682.331 40.8152H680.006C679.854 39.8212 679.366 39.1642 678.254 39.1642C676.956 39.1642 676.333 40.1076 676.333 41.7756V41.9946C676.333 43.6794 676.956 44.6228 678.254 44.6228C679.366 44.6228 679.871 43.9489 680.023 42.9718H682.348C682.078 45.1451 680.562 46.4593 678.287 46.4593ZM687.265 46.4593C685.176 46.4593 684.182 45.5158 684.182 43.7299V39.2652H682.564V37.5468H684.182V34.7837H686.54V37.5468H688.798V39.2652H686.54V43.5277C686.54 44.2859 686.877 44.606 687.787 44.606C688.208 44.606 688.596 44.5049 688.832 44.4375V46.2402C688.427 46.375 687.77 46.4593 687.265 46.4593ZM693.876 46.4593C691.079 46.4593 689.395 44.6734 689.395 41.9946V41.7756C689.395 39.1305 691.13 37.3277 693.876 37.3277C696.841 37.3277 698.307 39.4169 698.156 42.4495H691.804C691.922 43.9321 692.613 44.6565 693.876 44.6565C694.938 44.6565 695.544 44.1511 695.763 43.4772H698.105C697.684 45.3136 696.151 46.4593 693.876 46.4593ZM691.838 40.8995H695.746C695.645 39.8044 695.039 39.1305 693.859 39.1305C692.697 39.1305 692.04 39.7033 691.838 40.8995ZM701.659 46.2402H699.3V37.5468H701.575L701.625 39.2316C702.047 38.187 702.906 37.3951 704.186 37.3951C704.355 37.3951 704.574 37.412 704.709 37.4457V39.7033C704.54 39.6864 704.271 39.6696 704.052 39.6696C702.485 39.6696 701.659 40.512 701.659 42.0451V46.2402ZM572.181 53.7729H574.54V66.2402H572.181V53.7729ZM578.385 53.7729V56.4011H575.925V53.7729H578.385ZM575.976 57.5468H578.335V66.2402H575.976V57.5468ZM582.129 66.2402H579.771V57.5468H582.045L582.112 58.8777C582.534 58.0859 583.393 57.3277 584.741 57.3277C586.038 57.3277 586.931 57.8669 587.352 58.962C587.959 57.9511 588.919 57.3277 590.183 57.3277C592.255 57.3277 593.131 58.6587 593.131 60.6805V66.2402H590.772V61.1354C590.772 59.8549 590.284 59.2147 589.323 59.2147C588.262 59.2147 587.639 60.0065 587.639 61.506V66.2402H585.28V61.1522C585.28 59.8886 584.842 59.2147 583.865 59.2147C582.803 59.2147 582.129 59.9729 582.129 61.506V66.2402ZM596.899 53.7729V56.4011H594.44V53.7729H596.899ZM594.49 57.5468H596.849V66.2402H594.49V57.5468ZM602.328 66.4593C600.239 66.4593 599.245 65.5158 599.245 63.7299V59.2652H597.628V57.5468H599.245V54.7837H601.604V57.5468H603.861V59.2652H601.604V63.5277C601.604 64.2859 601.941 64.606 602.851 64.606C603.272 64.606 603.659 64.5049 603.895 64.4375V66.2402C603.491 66.375 602.834 66.4593 602.328 66.4593ZM607.52 66.4593C605.767 66.4593 604.588 65.3473 604.588 63.8142C604.588 62.3315 605.532 61.4555 607.115 61.2364L610.316 60.7815V60.2761C610.316 59.5517 609.845 59.1136 608.817 59.1136C607.857 59.1136 607.25 59.4843 607.166 60.2256H604.942C605.077 58.3723 606.61 57.3277 608.867 57.3277C611.209 57.3277 612.591 58.4902 612.591 60.3098V66.2402H610.417L610.333 64.9093C609.811 65.8527 608.8 66.4593 607.52 66.4593ZM608.227 64.6902C609.373 64.6902 610.316 64.0163 610.316 63.056V62.3652L607.958 62.6853C607.233 62.7864 606.863 63.0897 606.863 63.6962C606.863 64.3196 607.368 64.6902 608.227 64.6902ZM617.815 66.4593C615.726 66.4593 614.732 65.5158 614.732 63.7299V59.2652H613.115V57.5468H614.732V54.7837H617.091V57.5468H619.348V59.2652H617.091V63.5277C617.091 64.2859 617.428 64.606 618.337 64.606C618.759 64.606 619.146 64.5049 619.382 64.4375V66.2402C618.978 66.375 618.321 66.4593 617.815 66.4593ZM622.871 53.7729V56.4011H620.411V53.7729H622.871ZM620.462 57.5468H622.821V66.2402H620.462V57.5468ZM628.418 66.4593C625.722 66.4593 623.953 64.6397 623.953 61.9946V61.7756C623.953 59.1473 625.722 57.3277 628.418 57.3277C631.114 57.3277 632.883 59.1473 632.883 61.7924V61.9946C632.883 64.6397 631.114 66.4593 628.418 66.4593ZM628.418 64.6228C629.8 64.6228 630.49 63.6962 630.49 61.9946V61.7924C630.49 60.0908 629.8 59.1642 628.418 59.1642C627.037 59.1642 626.346 60.0908 626.346 61.7756V61.9946C626.346 63.6962 627.037 64.6228 628.418 64.6228ZM636.366 66.2402H634.007V57.5468H636.282L636.349 58.8946C636.787 58.0859 637.647 57.3277 639.095 57.3277C641.252 57.3277 642.111 58.6924 642.111 60.6468V66.2402H639.769V61.2364C639.769 59.9729 639.331 59.2316 638.202 59.2316C637.107 59.2316 636.366 60.0402 636.366 61.4218V66.2402ZM647.084 66.4593C644.658 66.4593 643.242 65.3641 643.091 63.4772H645.348C645.483 64.3364 646.14 64.7745 647.101 64.7745C647.994 64.7745 648.6 64.4375 648.6 63.8142C648.6 63.275 648.196 62.9549 646.629 62.6853C644.405 62.3147 643.377 61.6071 643.377 60.0402C643.377 58.406 644.877 57.3277 647 57.3277C649.24 57.3277 650.605 58.3555 650.74 60.1413H648.533C648.432 59.3832 647.842 58.9788 646.966 58.9788C646.157 58.9788 645.635 59.3158 645.635 59.8886C645.635 60.4277 646.073 60.7142 647.556 60.95C649.914 61.3207 650.908 62.0788 650.908 63.5951C650.908 65.3136 649.426 66.4593 647.084 66.4593ZM656.231 62.8538H653.788V62.5C653.788 59.5517 657.36 59.4674 657.36 57.6647V57.4962C657.36 56.637 656.737 56.0136 655.659 56.0136C654.496 56.0136 653.738 56.6707 653.586 57.8837H651.126C651.345 55.3903 653.199 54.0593 655.625 54.0593C658.152 54.0593 659.854 55.4745 659.854 57.4625V57.5468C659.854 60.6805 656.231 60.293 656.231 62.7359V62.8538ZM656.231 66.2402H653.788V63.9152H656.231V66.2402Z" fill="black"/>
<path d="M765.085 46.2402H762.591V34.2783H765.085V39.0631H770.307V34.2783H772.801V46.2402H770.307V41.1185H765.085V46.2402ZM778.459 46.4593C775.764 46.4593 773.995 44.6397 773.995 41.9946V41.7756C773.995 39.1473 775.764 37.3277 778.459 37.3277C781.155 37.3277 782.924 39.1473 782.924 41.7924V41.9946C782.924 44.6397 781.155 46.4593 778.459 46.4593ZM778.459 44.6228C779.841 44.6228 780.532 43.6962 780.532 41.9946V41.7924C780.532 40.0908 779.841 39.1642 778.459 39.1642C777.078 39.1642 776.387 40.0908 776.387 41.7756V41.9946C776.387 43.6962 777.078 44.6228 778.459 44.6228ZM787.869 46.2402H785.392L782.831 37.5468H785.207L786.774 43.7468L788.341 37.5468H790.683L792.249 43.7805L793.867 37.5468H796.192L793.597 46.2402H791.121L789.486 40.1582L787.869 46.2402ZM802.076 33.7729V36.4011H799.617V33.7729H802.076ZM799.667 37.5468H802.026V46.2402H799.667V37.5468ZM807.067 46.4593C804.641 46.4593 803.226 45.3641 803.074 43.4772H805.332C805.467 44.3364 806.124 44.7745 807.084 44.7745C807.977 44.7745 808.584 44.4375 808.584 43.8142C808.584 43.275 808.179 42.9549 806.612 42.6853C804.388 42.3147 803.361 41.6071 803.361 40.0402C803.361 38.406 804.86 37.3277 806.983 37.3277C809.224 37.3277 810.588 38.3555 810.723 40.1413H808.516C808.415 39.3832 807.825 38.9788 806.949 38.9788C806.141 38.9788 805.618 39.3158 805.618 39.8886C805.618 40.4277 806.056 40.7142 807.539 40.95C809.898 41.3207 810.892 42.0788 810.892 43.5951C810.892 45.3136 809.409 46.4593 807.067 46.4593ZM825.823 46.2402H823.212L822.302 43.6794H817.483L816.574 46.2402H814.046L818.578 34.2783H821.291L825.823 46.2402ZM819.893 36.8897L818.208 41.6576H821.594L819.893 36.8897ZM826.577 33.7729H828.936V46.2402H826.577V33.7729ZM834.415 46.4593C832.326 46.4593 831.332 45.5158 831.332 43.7299V39.2652H829.715V37.5468H831.332V34.7837H833.691V37.5468H835.948V39.2652H833.691V43.5277C833.691 44.2859 834.028 44.606 834.937 44.606C835.359 44.606 835.746 44.5049 835.982 44.4375V46.2402C835.578 46.375 834.921 46.4593 834.415 46.4593ZM845.228 46.2402H842.752V36.3169H839.348V34.2783H848.615V36.3169H845.228V46.2402ZM852.4 46.4593C849.603 46.4593 847.918 44.6734 847.918 41.9946V41.7756C847.918 39.1305 849.654 37.3277 852.4 37.3277C855.365 37.3277 856.831 39.4169 856.679 42.4495H850.328C850.446 43.9321 851.136 44.6565 852.4 44.6565C853.461 44.6565 854.068 44.1511 854.287 43.4772H856.629C856.208 45.3136 854.674 46.4593 852.4 46.4593ZM850.361 40.8995H854.27C854.169 39.8044 853.562 39.1305 852.383 39.1305C851.221 39.1305 850.564 39.7033 850.361 40.8995ZM858.953 46.2402H856.426L859.526 41.7756L856.578 37.5468H859.256L860.958 40.1413L862.693 37.5468H865.221L862.272 41.7419L865.406 46.2402H862.71L860.823 43.3761L858.953 46.2402ZM870.121 46.4593C868.032 46.4593 867.038 45.5158 867.038 43.7299V39.2652H865.421V37.5468H867.038V34.7837H869.397V37.5468H871.654V39.2652H869.397V43.5277C869.397 44.2859 869.734 44.606 870.643 44.606C871.065 44.606 871.452 44.5049 871.688 44.4375V46.2402C871.284 46.375 870.627 46.4593 870.121 46.4593ZM877.902 49.1044H875.526V37.5468H877.733L877.801 38.8777C878.205 38.1027 879.182 37.3277 880.598 37.3277C882.923 37.3277 884.321 39.2147 884.321 41.7756V41.9946C884.321 44.5723 882.889 46.4593 880.547 46.4593C879.317 46.4593 878.374 45.819 877.902 45.0103V49.1044ZM879.873 44.6397C881.221 44.6397 881.928 43.6962 881.928 41.9946V41.7756C881.928 40.0739 881.221 39.1305 879.873 39.1305C878.542 39.1305 877.818 40.0739 877.818 41.7756V41.9946C877.818 43.6962 878.542 44.6397 879.873 44.6397ZM887.833 46.2402H885.474V37.5468H887.749L887.799 39.2316C888.221 38.187 889.08 37.3951 890.36 37.3951C890.529 37.3951 890.748 37.412 890.883 37.4457V39.7033C890.714 39.6864 890.445 39.6696 890.226 39.6696C888.659 39.6696 887.833 40.512 887.833 42.0451V46.2402ZM895.668 46.4593C892.972 46.4593 891.203 44.6397 891.203 41.9946V41.7756C891.203 39.1473 892.972 37.3277 895.668 37.3277C898.364 37.3277 900.133 39.1473 900.133 41.7924V41.9946C900.133 44.6397 898.364 46.4593 895.668 46.4593ZM895.668 44.6228C897.05 44.6228 897.74 43.6962 897.74 41.9946V41.7924C897.74 40.0908 897.05 39.1642 895.668 39.1642C894.287 39.1642 893.596 40.0908 893.596 41.7756V41.9946C893.596 43.6962 894.287 44.6228 895.668 44.6228ZM905.819 46.2402H903.208L900.04 37.5468H902.534L904.555 43.8815L906.577 37.5468H908.969L905.819 46.2402ZM912.118 33.7729V36.4011H909.658V33.7729H912.118ZM909.708 37.5468H912.067V46.2402H909.708V37.5468ZM916.99 46.4593C914.649 46.4593 913.2 44.5892 913.2 41.9946V41.7756C913.2 39.2147 914.598 37.3277 916.923 37.3277C918.204 37.3277 919.113 37.9343 919.619 38.7093V33.7729H921.994V46.2402H919.804L919.737 44.8756C919.332 45.6506 918.406 46.4593 916.99 46.4593ZM917.648 44.6397C918.995 44.6397 919.703 43.6962 919.703 41.9946V41.7756C919.703 40.0739 918.995 39.1305 917.648 39.1305C916.317 39.1305 915.592 40.0739 915.592 41.7756V41.9946C915.592 43.6962 916.317 44.6397 917.648 44.6397ZM927.629 46.4593C924.833 46.4593 923.148 44.6734 923.148 41.9946V41.7756C923.148 39.1305 924.883 37.3277 927.629 37.3277C930.595 37.3277 932.06 39.4169 931.909 42.4495H925.557C925.675 43.9321 926.366 44.6565 927.629 44.6565C928.691 44.6565 929.297 44.1511 929.516 43.4772H931.858C931.437 45.3136 929.904 46.4593 927.629 46.4593ZM925.591 40.8995H929.499C929.398 39.8044 928.792 39.1305 927.612 39.1305C926.45 39.1305 925.793 39.7033 925.591 40.8995ZM936.541 46.4593C934.199 46.4593 932.75 44.5892 932.75 41.9946V41.7756C932.75 39.2147 934.149 37.3277 936.474 37.3277C937.754 37.3277 938.664 37.9343 939.169 38.7093V33.7729H941.545V46.2402H939.355L939.287 44.8756C938.883 45.6506 937.956 46.4593 936.541 46.4593ZM937.198 44.6397C938.546 44.6397 939.254 43.6962 939.254 41.9946V41.7756C939.254 40.0739 938.546 39.1305 937.198 39.1305C935.867 39.1305 935.143 40.0739 935.143 41.7756V41.9946C935.143 43.6962 935.867 44.6397 937.198 44.6397ZM814 66.2402H811.641V59.2652H810.024V57.5468H811.641V56.2832C811.641 54.4973 812.635 53.5538 814.725 53.5538C815.23 53.5538 815.87 53.6549 816.291 53.756V55.5756C816.056 55.5082 815.668 55.4071 815.247 55.4071C814.32 55.4071 814 55.7272 814 56.4854V57.5468H816.258V59.2652H814V66.2402ZM820.825 66.4593C818.13 66.4593 816.361 64.6397 816.361 61.9946V61.7756C816.361 59.1473 818.13 57.3277 820.825 57.3277C823.521 57.3277 825.29 59.1473 825.29 61.7924V61.9946C825.29 64.6397 823.521 66.4593 820.825 66.4593ZM820.825 64.6228C822.207 64.6228 822.898 63.6962 822.898 61.9946V61.7924C822.898 60.0908 822.207 59.1642 820.825 59.1642C819.444 59.1642 818.753 60.0908 818.753 61.7756V61.9946C818.753 63.6962 819.444 64.6228 820.825 64.6228ZM828.773 66.2402H826.415V57.5468H828.689L828.74 59.2316C829.161 58.187 830.02 57.3951 831.301 57.3951C831.469 57.3951 831.688 57.412 831.823 57.4457V59.7033C831.654 59.6864 831.385 59.6696 831.166 59.6696C829.599 59.6696 828.773 60.512 828.773 62.0451V66.2402ZM840.589 66.2402H837.978L834.811 57.5468H837.304L839.326 63.8815L841.347 57.5468H843.74L840.589 66.2402ZM846.888 53.7729V56.4011H844.428V53.7729H846.888ZM844.479 57.5468H846.837V66.2402H844.479V57.5468ZM851.761 66.4593C849.419 66.4593 847.97 64.5892 847.97 61.9946V61.7756C847.97 59.2147 849.368 57.3277 851.693 57.3277C852.974 57.3277 853.884 57.9343 854.389 58.7093V53.7729H856.765V66.2402H854.574L854.507 64.8756C854.103 65.6506 853.176 66.4593 851.761 66.4593ZM852.418 64.6397C853.766 64.6397 854.473 63.6962 854.473 61.9946V61.7756C854.473 60.0739 853.766 59.1305 852.418 59.1305C851.087 59.1305 850.363 60.0739 850.363 61.7756V61.9946C850.363 63.6962 851.087 64.6397 852.418 64.6397ZM862.4 66.4593C859.603 66.4593 857.918 64.6734 857.918 61.9946V61.7756C857.918 59.1305 859.654 57.3277 862.4 57.3277C865.365 57.3277 866.831 59.4169 866.679 62.4495H860.327C860.445 63.9321 861.136 64.6565 862.4 64.6565C863.461 64.6565 864.068 64.1511 864.287 63.4772H866.629C866.207 65.3136 864.674 66.4593 862.4 66.4593ZM860.361 60.8995H864.27C864.169 59.8044 863.562 59.1305 862.383 59.1305C861.22 59.1305 860.563 59.7033 860.361 60.8995ZM871.985 66.4593C869.29 66.4593 867.521 64.6397 867.521 61.9946V61.7756C867.521 59.1473 869.29 57.3277 871.985 57.3277C874.681 57.3277 876.45 59.1473 876.45 61.7924V61.9946C876.45 64.6397 874.681 66.4593 871.985 66.4593ZM871.985 64.6228C873.367 64.6228 874.058 63.6962 874.058 61.9946V61.7924C874.058 60.0908 873.367 59.1642 871.985 59.1642C870.604 59.1642 869.913 60.0908 869.913 61.7756V61.9946C869.913 63.6962 870.604 64.6228 871.985 64.6228ZM880.933 66.4593C878.507 66.4593 877.092 65.3641 876.94 63.4772H879.198C879.333 64.3364 879.99 64.7745 880.95 64.7745C881.843 64.7745 882.45 64.4375 882.45 63.8142C882.45 63.275 882.045 62.9549 880.478 62.6853C878.255 62.3147 877.227 61.6071 877.227 60.0402C877.227 58.406 878.726 57.3277 880.849 57.3277C883.09 57.3277 884.455 58.3555 884.589 60.1413H882.382C882.281 59.3832 881.692 58.9788 880.815 58.9788C880.007 58.9788 879.484 59.3158 879.484 59.8886C879.484 60.4277 879.922 60.7142 881.405 60.95C883.764 61.3207 884.758 62.0788 884.758 63.5951C884.758 65.3136 883.275 66.4593 880.933 66.4593ZM890.081 62.8538H887.638V62.5C887.638 59.5517 891.21 59.4674 891.21 57.6647V57.4962C891.21 56.637 890.586 56.0136 889.508 56.0136C888.346 56.0136 887.587 56.6707 887.436 57.8837H884.976C885.195 55.3903 887.048 54.0593 889.474 54.0593C892.002 54.0593 893.703 55.4745 893.703 57.4625V57.5468C893.703 60.6805 890.081 60.293 890.081 62.7359V62.8538ZM890.081 66.2402H887.638V63.9152H890.081V66.2402Z" fill="black"/>
<path d="M995.843 34.9326H991.412V22.9707H995.843C999.431 22.9707 1001.91 25.0261 1001.91 28.7663V29.137C1001.91 32.8603 999.431 34.9326 995.843 34.9326ZM993.872 25.0261V32.8772H995.674C997.915 32.8772 999.33 31.7989 999.33 29.137V28.7663C999.33 26.1044 997.915 25.0261 995.674 25.0261H993.872ZM1007.2 35.1516C1004.5 35.1516 1002.73 33.3321 1002.73 30.687V30.468C1002.73 27.8397 1004.5 26.0201 1007.2 26.0201C1009.89 26.0201 1011.66 27.8397 1011.66 30.4848V30.687C1011.66 33.3321 1009.89 35.1516 1007.2 35.1516ZM1007.2 33.3152C1008.58 33.3152 1009.27 32.3886 1009.27 30.687V30.4848C1009.27 28.7832 1008.58 27.8565 1007.2 27.8565C1005.82 27.8565 1005.13 28.7832 1005.13 30.468V30.687C1005.13 32.3886 1005.82 33.3152 1007.2 33.3152ZM1016.97 35.1516C1014.17 35.1516 1012.48 33.3658 1012.48 30.687V30.468C1012.48 27.8228 1014.22 26.0201 1016.97 26.0201C1019.93 26.0201 1021.4 28.1093 1021.24 31.1419H1014.89C1015.01 32.6245 1015.7 33.3489 1016.97 33.3489C1018.03 33.3489 1018.63 32.8435 1018.85 32.1696H1021.19C1020.77 34.006 1019.24 35.1516 1016.97 35.1516ZM1014.93 29.5919H1018.84C1018.73 28.4968 1018.13 27.8228 1016.95 27.8228C1015.79 27.8228 1015.13 28.3957 1014.93 29.5919ZM1025.75 35.1516C1023.32 35.1516 1021.91 34.0565 1021.76 32.1696H1024.01C1024.15 33.0288 1024.8 33.4669 1025.77 33.4669C1026.66 33.4669 1027.26 33.1299 1027.26 32.5065C1027.26 31.9674 1026.86 31.6473 1025.29 31.3777C1023.07 31.0071 1022.04 30.2995 1022.04 28.7326C1022.04 27.0984 1023.54 26.0201 1025.66 26.0201C1027.9 26.0201 1029.27 27.0478 1029.4 28.8337H1027.2C1027.1 28.0756 1026.51 27.6712 1025.63 27.6712C1024.82 27.6712 1024.3 28.0082 1024.3 28.581C1024.3 29.1201 1024.74 29.4065 1026.22 29.6424C1028.58 30.0131 1029.57 30.7712 1029.57 32.2875C1029.57 34.006 1028.09 35.1516 1025.75 35.1516ZM1037.44 35.1516C1035.36 35.1516 1034.36 34.2082 1034.36 32.4223V27.9576H1032.74V26.2392H1034.36V23.4761H1036.72V26.2392H1038.98V27.9576H1036.72V32.2201C1036.72 32.9783 1037.06 33.2984 1037.97 33.2984C1038.39 33.2984 1038.78 33.1973 1039.01 33.1299V34.9326C1038.61 35.0674 1037.95 35.1516 1037.44 35.1516ZM1042.45 34.9326H1040.09V22.4652H1042.47V27.5027C1042.92 26.7277 1043.8 26.0201 1045.18 26.0201C1047.34 26.0201 1048.2 27.3848 1048.2 29.3391V34.9326H1045.85V29.9288C1045.85 28.6652 1045.42 27.9239 1044.29 27.9239C1043.19 27.9239 1042.45 28.7326 1042.45 30.1141V34.9326ZM1053.74 35.1516C1050.94 35.1516 1049.26 33.3658 1049.26 30.687V30.468C1049.26 27.8228 1050.99 26.0201 1053.74 26.0201C1056.71 26.0201 1058.17 28.1093 1058.02 31.1419H1051.67C1051.79 32.6245 1052.48 33.3489 1053.74 33.3489C1054.8 33.3489 1055.41 32.8435 1055.63 32.1696H1057.97C1057.55 34.006 1056.02 35.1516 1053.74 35.1516ZM1051.7 29.5919H1055.61C1055.51 28.4968 1054.9 27.8228 1053.72 27.8228C1052.56 27.8228 1051.9 28.3957 1051.7 29.5919ZM1064.3 37.7967H1061.92V26.2392H1064.13L1064.2 27.5701C1064.6 26.7951 1065.58 26.0201 1066.99 26.0201C1069.32 26.0201 1070.72 27.9071 1070.72 30.468V30.687C1070.72 33.2647 1069.29 35.1516 1066.94 35.1516C1065.71 35.1516 1064.77 34.5114 1064.3 33.7027V37.7967ZM1066.27 33.3321C1067.62 33.3321 1068.33 32.3886 1068.33 30.687V30.468C1068.33 28.7663 1067.62 27.8228 1066.27 27.8228C1064.94 27.8228 1064.21 28.7663 1064.21 30.468V30.687C1064.21 32.3886 1064.94 33.3321 1066.27 33.3321ZM1071.87 22.4652H1074.23V34.9326H1071.87V22.4652ZM1078.23 35.1516C1076.48 35.1516 1075.3 34.0397 1075.3 32.5065C1075.3 31.0239 1076.24 30.1478 1077.82 29.9288L1081.02 29.4739V28.9685C1081.02 28.244 1080.55 27.806 1079.52 27.806C1078.56 27.806 1077.96 28.1767 1077.87 28.918H1075.65C1075.78 27.0647 1077.32 26.0201 1079.58 26.0201C1081.92 26.0201 1083.3 27.1826 1083.3 29.0022V34.9326H1081.13L1081.04 33.6016C1080.52 34.5451 1079.51 35.1516 1078.23 35.1516ZM1078.93 33.3826C1080.08 33.3826 1081.02 32.7087 1081.02 31.7484V31.0576L1078.67 31.3777C1077.94 31.4788 1077.57 31.7821 1077.57 32.3886C1077.57 33.012 1078.08 33.3826 1078.93 33.3826ZM1088.52 35.1516C1086.43 35.1516 1085.44 34.2082 1085.44 32.4223V27.9576H1083.82V26.2392H1085.44V23.4761H1087.8V26.2392H1090.06V27.9576H1087.8V32.2201C1087.8 32.9783 1088.14 33.2984 1089.04 33.2984C1089.47 33.2984 1089.85 33.1973 1090.09 33.1299V34.9326C1089.69 35.0674 1089.03 35.1516 1088.52 35.1516ZM1094.49 34.9326H1092.13V27.9576H1090.51V26.2392H1092.13V24.9756C1092.13 23.1897 1093.12 22.2462 1095.21 22.2462C1095.72 22.2462 1096.36 22.3473 1096.78 22.4484V24.268C1096.54 24.2006 1096.16 24.0995 1095.74 24.0995C1094.81 24.0995 1094.49 24.4196 1094.49 25.1777V26.2392H1096.75V27.9576H1094.49V34.9326ZM1101.31 35.1516C1098.62 35.1516 1096.85 33.3321 1096.85 30.687V30.468C1096.85 27.8397 1098.62 26.0201 1101.31 26.0201C1104.01 26.0201 1105.78 27.8397 1105.78 30.4848V30.687C1105.78 33.3321 1104.01 35.1516 1101.31 35.1516ZM1101.31 33.3152C1102.7 33.3152 1103.39 32.3886 1103.39 30.687V30.4848C1103.39 28.7832 1102.7 27.8565 1101.31 27.8565C1099.93 27.8565 1099.24 28.7832 1099.24 30.468V30.687C1099.24 32.3886 1099.93 33.3152 1101.31 33.3152ZM1109.26 34.9326H1106.9V26.2392H1109.18L1109.23 27.9239C1109.65 26.8794 1110.51 26.0875 1111.79 26.0875C1111.96 26.0875 1112.18 26.1044 1112.31 26.1381V28.3957C1112.14 28.3788 1111.87 28.362 1111.65 28.362C1110.09 28.362 1109.26 29.2044 1109.26 30.7375V34.9326ZM1115.59 34.9326H1113.23V26.2392H1115.51L1115.57 27.5701C1115.99 26.7783 1116.85 26.0201 1118.2 26.0201C1119.5 26.0201 1120.39 26.5593 1120.81 27.6544C1121.42 26.6435 1122.38 26.0201 1123.64 26.0201C1125.72 26.0201 1126.59 27.3511 1126.59 29.3728V34.9326H1124.23V29.8277C1124.23 28.5473 1123.74 27.9071 1122.78 27.9071C1121.72 27.9071 1121.1 28.6989 1121.1 30.1984V34.9326H1118.74V29.8446C1118.74 28.581 1118.3 27.9071 1117.33 27.9071C1116.26 27.9071 1115.59 28.6652 1115.59 30.1984V34.9326ZM1133.08 37.7967H1130.71V26.2392H1132.92L1132.98 27.5701C1133.39 26.7951 1134.37 26.0201 1135.78 26.0201C1138.11 26.0201 1139.5 27.9071 1139.5 30.468V30.687C1139.5 33.2647 1138.07 35.1516 1135.73 35.1516C1134.5 35.1516 1133.56 34.5114 1133.08 33.7027V37.7967ZM1135.06 33.3321C1136.4 33.3321 1137.11 32.3886 1137.11 30.687V30.468C1137.11 28.7663 1136.4 27.8228 1135.06 27.8228C1133.73 27.8228 1133 28.7663 1133 30.468V30.687C1133 32.3886 1133.73 33.3321 1135.06 33.3321ZM1143.02 34.9326H1140.66V26.2392H1142.93L1142.98 27.9239C1143.4 26.8794 1144.26 26.0875 1145.54 26.0875C1145.71 26.0875 1145.93 26.1044 1146.07 26.1381V28.3957C1145.9 28.3788 1145.63 28.362 1145.41 28.362C1143.84 28.362 1143.02 29.2044 1143.02 30.7375V34.9326ZM1150.85 35.1516C1148.16 35.1516 1146.39 33.3321 1146.39 30.687V30.468C1146.39 27.8397 1148.16 26.0201 1150.85 26.0201C1153.55 26.0201 1155.32 27.8397 1155.32 30.4848V30.687C1155.32 33.3321 1153.55 35.1516 1150.85 35.1516ZM1150.85 33.3152C1152.23 33.3152 1152.92 32.3886 1152.92 30.687V30.4848C1152.92 28.7832 1152.23 27.8565 1150.85 27.8565C1149.47 27.8565 1148.78 28.7832 1148.78 30.468V30.687C1148.78 32.3886 1149.47 33.3152 1150.85 33.3152ZM1161 34.9326H1158.39L1155.22 26.2392H1157.72L1159.74 32.5739L1161.76 26.2392H1164.15L1161 34.9326ZM1167.3 22.4652V25.0935H1164.84V22.4652H1167.3ZM1164.89 26.2392H1167.25V34.9326H1164.89V26.2392ZM1172.17 35.1516C1169.83 35.1516 1168.38 33.2815 1168.38 30.687V30.468C1168.38 27.9071 1169.78 26.0201 1172.11 26.0201C1173.39 26.0201 1174.3 26.6267 1174.8 27.4017V22.4652H1177.18V34.9326H1174.99L1174.92 33.5679C1174.52 34.3429 1173.59 35.1516 1172.17 35.1516ZM1172.83 33.3321C1174.18 33.3321 1174.89 32.3886 1174.89 30.687V30.468C1174.89 28.7663 1174.18 27.8228 1172.83 27.8228C1171.5 27.8228 1170.78 28.7663 1170.78 30.468V30.687C1170.78 32.3886 1171.5 33.3321 1172.83 33.3321ZM1182.81 35.1516C1180.02 35.1516 1178.33 33.3658 1178.33 30.687V30.468C1178.33 27.8228 1180.07 26.0201 1182.81 26.0201C1185.78 26.0201 1187.24 28.1093 1187.09 31.1419H1180.74C1180.86 32.6245 1181.55 33.3489 1182.81 33.3489C1183.87 33.3489 1184.48 32.8435 1184.7 32.1696H1187.04C1186.62 34.006 1185.09 35.1516 1182.81 35.1516ZM1180.77 29.5919H1184.68C1184.58 28.4968 1183.97 27.8228 1182.8 27.8228C1181.63 27.8228 1180.98 28.3957 1180.77 29.5919ZM996.943 55.1516C995.191 55.1516 994.012 54.0397 994.012 52.5065C994.012 51.0239 994.955 50.1478 996.539 49.9288L999.74 49.4739V48.9685C999.74 48.244 999.268 47.806 998.24 47.806C997.28 47.806 996.674 48.1767 996.589 48.918H994.365C994.5 47.0647 996.033 46.0201 998.291 46.0201C1000.63 46.0201 1002.01 47.1826 1002.01 49.0022V54.9326H999.841L999.757 53.6016C999.234 54.5451 998.224 55.1516 996.943 55.1516ZM997.651 53.3826C998.796 53.3826 999.74 52.7087 999.74 51.7484V51.0576L997.381 51.3777C996.657 51.4788 996.286 51.7821 996.286 52.3886C996.286 53.012 996.792 53.3826 997.651 53.3826ZM1006.32 55.1516C1004.27 55.1516 1003.31 53.8544 1003.31 51.7989V46.2392H1005.68V51.344C1005.68 52.5739 1006.14 53.231 1007.18 53.231C1008.26 53.231 1008.94 52.4391 1008.94 50.9902V46.2392H1011.31V54.9326H1009.02L1008.97 53.669C1008.48 54.444 1007.59 55.1516 1006.32 55.1516ZM1016.79 55.1516C1014.7 55.1516 1013.71 54.2082 1013.71 52.4223V47.9576H1012.09V46.2392H1013.71V43.4761H1016.07V46.2392H1018.33V47.9576H1016.07V52.2201C1016.07 52.9783 1016.4 53.2984 1017.31 53.2984C1017.74 53.2984 1018.12 53.1973 1018.36 53.1299V54.9326C1017.95 55.0674 1017.3 55.1516 1016.79 55.1516ZM1023.39 55.1516C1020.69 55.1516 1018.92 53.3321 1018.92 50.687V50.468C1018.92 47.8397 1020.69 46.0201 1023.39 46.0201C1026.08 46.0201 1027.85 47.8397 1027.85 50.4848V50.687C1027.85 53.3321 1026.08 55.1516 1023.39 55.1516ZM1023.39 53.3152C1024.77 53.3152 1025.46 52.3886 1025.46 50.687V50.4848C1025.46 48.7832 1024.77 47.8565 1023.39 47.8565C1022 47.8565 1021.31 48.7832 1021.31 50.468V50.687C1021.31 52.3886 1022 53.3152 1023.39 53.3152ZM1034.23 50.9228H1028.96V48.9853H1034.23V50.9228ZM1039.66 58.0158C1037.1 58.0158 1035.72 56.9207 1035.55 55.337H1038.08C1038.18 55.994 1038.7 56.331 1039.81 56.331C1041.14 56.331 1041.77 55.6571 1041.77 54.5283V53.3321C1041.31 54.1408 1040.4 54.781 1039.14 54.781C1036.8 54.781 1035.35 52.894 1035.35 50.4848V50.2995C1035.35 47.9071 1036.76 46.0201 1039.07 46.0201C1040.5 46.0201 1041.46 46.7951 1041.88 47.5701L1041.95 46.2392H1044.14V54.2587C1044.14 56.6679 1042.56 58.0158 1039.66 58.0158ZM1039.79 52.9614C1041.14 52.9614 1041.85 52.0179 1041.85 50.4848V50.2995C1041.85 48.7663 1041.14 47.8228 1039.79 47.8228C1038.46 47.8228 1037.74 48.7663 1037.74 50.2995V50.4848C1037.74 52.0179 1038.46 52.9614 1039.79 52.9614ZM1049.78 55.1516C1046.98 55.1516 1045.29 53.3658 1045.29 50.687V50.468C1045.29 47.8228 1047.03 46.0201 1049.78 46.0201C1052.74 46.0201 1054.21 48.1093 1054.06 51.1419H1047.7C1047.82 52.6245 1048.51 53.3489 1049.78 53.3489C1050.84 53.3489 1051.44 52.8435 1051.66 52.1696H1054C1053.58 54.006 1052.05 55.1516 1049.78 55.1516ZM1047.74 49.5919H1051.65C1051.54 48.4968 1050.94 47.8228 1049.76 47.8228C1048.6 47.8228 1047.94 48.3957 1047.74 49.5919ZM1057.56 54.9326H1055.2V46.2392H1057.47L1057.54 47.587C1057.98 46.7783 1058.84 46.0201 1060.29 46.0201C1062.44 46.0201 1063.3 47.3848 1063.3 49.3391V54.9326H1060.96V49.9288C1060.96 48.6652 1060.52 47.9239 1059.4 47.9239C1058.3 47.9239 1057.56 48.7326 1057.56 50.1141V54.9326ZM1068.85 55.1516C1066.05 55.1516 1064.37 53.3658 1064.37 50.687V50.468C1064.37 47.8228 1066.1 46.0201 1068.85 46.0201C1071.81 46.0201 1073.28 48.1093 1073.13 51.1419H1066.78C1066.9 52.6245 1067.59 53.3489 1068.85 53.3489C1069.91 53.3489 1070.52 52.8435 1070.74 52.1696H1073.08C1072.66 54.006 1071.12 55.1516 1068.85 55.1516ZM1066.81 49.5919H1070.72C1070.62 48.4968 1070.01 47.8228 1068.83 47.8228C1067.67 47.8228 1067.01 48.3957 1066.81 49.5919ZM1076.63 54.9326H1074.27V46.2392H1076.55L1076.6 47.9239C1077.02 46.8794 1077.88 46.0875 1079.16 46.0875C1079.33 46.0875 1079.55 46.1044 1079.68 46.1381V48.3957C1079.51 48.3788 1079.24 48.362 1079.02 48.362C1077.46 48.362 1076.63 49.2044 1076.63 50.7375V54.9326ZM1082.8 55.1516C1081.05 55.1516 1079.87 54.0397 1079.87 52.5065C1079.87 51.0239 1080.81 50.1478 1082.4 49.9288L1085.6 49.4739V48.9685C1085.6 48.244 1085.13 47.806 1084.1 47.806C1083.14 47.806 1082.53 48.1767 1082.45 48.918H1080.22C1080.36 47.0647 1081.89 46.0201 1084.15 46.0201C1086.49 46.0201 1087.87 47.1826 1087.87 49.0022V54.9326H1085.7L1085.61 53.6016C1085.09 54.5451 1084.08 55.1516 1082.8 55.1516ZM1083.51 53.3826C1084.65 53.3826 1085.6 52.7087 1085.6 51.7484V51.0576L1083.24 51.3777C1082.51 51.4788 1082.14 51.7821 1082.14 52.3886C1082.14 53.012 1082.65 53.3826 1083.51 53.3826ZM1093.1 55.1516C1091.01 55.1516 1090.01 54.2082 1090.01 52.4223V47.9576H1088.4V46.2392H1090.01V43.4761H1092.37V46.2392H1094.63V47.9576H1092.37V52.2201C1092.37 52.9783 1092.71 53.2984 1093.62 53.2984C1094.04 53.2984 1094.43 53.1973 1094.66 53.1299V54.9326C1094.26 55.0674 1093.6 55.1516 1093.1 55.1516ZM1099.71 55.1516C1096.91 55.1516 1095.23 53.3658 1095.23 50.687V50.468C1095.23 47.8228 1096.96 46.0201 1099.71 46.0201C1102.67 46.0201 1104.14 48.1093 1103.99 51.1419H1097.64C1097.75 52.6245 1098.44 53.3489 1099.71 53.3489C1100.77 53.3489 1101.38 52.8435 1101.59 52.1696H1103.94C1103.52 54.006 1101.98 55.1516 1099.71 55.1516ZM1097.67 49.5919H1101.58C1101.48 48.4968 1100.87 47.8228 1099.69 47.8228C1098.53 47.8228 1097.87 48.3957 1097.67 49.5919ZM1108.62 55.1516C1106.28 55.1516 1104.83 53.2815 1104.83 50.687V50.468C1104.83 47.9071 1106.23 46.0201 1108.55 46.0201C1109.83 46.0201 1110.74 46.6267 1111.25 47.4017V42.4652H1113.62V54.9326H1111.43L1111.37 53.5679C1110.96 54.3429 1110.03 55.1516 1108.62 55.1516ZM1109.28 53.3321C1110.62 53.3321 1111.33 52.3886 1111.33 50.687V50.468C1111.33 48.7663 1110.62 47.8228 1109.28 47.8228C1107.95 47.8228 1107.22 48.7663 1107.22 50.468V50.687C1107.22 52.3886 1107.95 53.3321 1109.28 53.3321ZM1128.94 54.9326H1126.33L1125.42 52.3718H1120.6L1119.69 54.9326H1117.16L1121.7 42.9707H1124.41L1128.94 54.9326ZM1123.01 45.5821L1121.33 50.35H1124.71L1123.01 45.5821ZM1129.7 42.4652H1132.05V54.9326H1129.7V42.4652ZM1137.53 55.1516C1135.44 55.1516 1134.45 54.2082 1134.45 52.4223V47.9576H1132.83V46.2392H1134.45V43.4761H1136.81V46.2392H1139.07V47.9576H1136.81V52.2201C1136.81 52.9783 1137.15 53.2984 1138.06 53.2984C1138.48 53.2984 1138.86 53.1973 1139.1 53.1299V54.9326C1138.7 55.0674 1138.04 55.1516 1137.53 55.1516ZM1148.35 54.9326H1145.87V45.0093H1142.47V42.9707H1151.73V45.0093H1148.35V54.9326ZM1155.52 55.1516C1152.72 55.1516 1151.04 53.3658 1151.04 50.687V50.468C1151.04 47.8228 1152.77 46.0201 1155.52 46.0201C1158.48 46.0201 1159.95 48.1093 1159.8 51.1419H1153.45C1153.56 52.6245 1154.25 53.3489 1155.52 53.3489C1156.58 53.3489 1157.19 52.8435 1157.41 52.1696H1159.75C1159.33 54.006 1157.79 55.1516 1155.52 55.1516ZM1153.48 49.5919H1157.39C1157.29 48.4968 1156.68 47.8228 1155.5 47.8228C1154.34 47.8228 1153.68 48.3957 1153.48 49.5919ZM1162.07 54.9326H1159.54L1162.64 50.468L1159.7 46.2392H1162.37L1164.08 48.8337L1165.81 46.2392H1168.34L1165.39 50.4343L1168.52 54.9326H1165.83L1163.94 52.0685L1162.07 54.9326ZM1173.24 55.1516C1171.15 55.1516 1170.16 54.2082 1170.16 52.4223V47.9576H1168.54V46.2392H1170.16V43.4761H1172.52V46.2392H1174.77V47.9576H1172.52V52.2201C1172.52 52.9783 1172.85 53.2984 1173.76 53.2984C1174.18 53.2984 1174.57 53.1973 1174.81 53.1299V54.9326C1174.4 55.0674 1173.74 55.1516 1173.24 55.1516ZM1180.44 51.5462H1177.99V51.1924C1177.99 48.244 1181.56 48.1598 1181.56 46.3571V46.1886C1181.56 45.3294 1180.94 44.706 1179.86 44.706C1178.7 44.706 1177.94 45.3631 1177.79 46.5761H1175.33C1175.55 44.0826 1177.4 42.7517 1179.83 42.7517C1182.36 42.7517 1184.06 44.1669 1184.06 46.1549V46.2392C1184.06 49.3728 1180.44 48.9853 1180.44 51.4283V51.5462ZM1180.44 54.9326H1177.99V52.6076H1180.44V54.9326Z" fill="black"/>
<path d="M89.392 219.342H85.976V205.654H81.2819V202.843H94.0629V205.654H89.392V219.342ZM98.9366 219.342H95.4974V202.843H98.9366V209.442H106.141V202.843H109.58V219.342H106.141V212.277H98.9366V219.342ZM115.107 219.342H111.738V202.843H118.965C122.404 202.843 124.937 204.655 124.937 208.025V208.304C124.937 210.837 123.543 212.463 121.405 213.137L125.518 219.342H121.661L117.919 213.486H115.107V219.342ZM115.107 205.678V210.651H118.616C120.243 210.651 121.405 209.93 121.405 208.304V208.025C121.405 206.375 120.243 205.678 118.616 205.678H115.107ZM138.608 219.342H126.594V202.843H138.446V205.654H129.987V209.535H137.679V212.324H129.987V216.53H138.608V219.342ZM155.582 219.342H151.98L150.725 215.81H144.079L142.824 219.342H139.338L145.59 202.843H149.331L155.582 219.342ZM147.402 206.445L145.078 213.021H149.749L147.402 206.445ZM162.827 219.342H156.715V202.843H162.827C167.776 202.843 171.192 205.678 171.192 210.837V211.348C171.192 216.483 167.776 219.342 162.827 219.342ZM160.108 205.678V216.507H162.594C165.685 216.507 167.637 215.019 167.637 211.348V210.837C167.637 207.165 165.685 205.678 162.594 205.678H160.108ZM178.915 219.644C174.709 219.644 172.083 217.552 171.874 213.997H175.29C175.523 215.972 176.917 216.902 179.008 216.902C180.937 216.902 182.099 216.205 182.099 214.857V214.764C182.099 213.532 181.216 212.951 178.009 212.347C173.989 211.603 172.432 210.07 172.432 207.49V207.351C172.432 204.446 174.942 202.54 178.66 202.54C182.355 202.54 184.934 204.376 185.213 207.792H181.797C181.611 206.096 180.449 205.259 178.59 205.259C176.731 205.259 175.825 206.096 175.825 207.258V207.304C175.825 208.35 176.313 209.001 179.566 209.558C183.517 210.232 185.492 211.65 185.492 214.415V214.555C185.492 217.622 182.819 219.644 178.915 219.644Z" fill="black"/>
<path d="M93.1607 291.431H89.7447V277.743H85.0505V274.931H97.8316V277.743H93.1607V291.431ZM106.47 291.431H102.543L98.2435 274.931H101.799L104.611 287.178L107.748 274.931H111.35L114.417 287.248L117.276 274.931H120.645L116.3 291.431H112.512L109.491 279.556L106.47 291.431ZM125.395 291.431H121.955V274.931H125.395V291.431ZM135.074 291.431H131.658V277.743H126.964V274.931H139.745V277.743H135.074V291.431ZM148.614 291.431H145.198V277.743H140.504V274.931H153.285V277.743H148.614V291.431ZM166.734 291.431H154.719V274.931H166.571V277.743H158.112V281.624H165.804V284.413H158.112V288.619H166.734V291.431ZM171.856 291.431H168.486V274.931H175.713C179.153 274.931 181.686 276.744 181.686 280.114V280.392C181.686 282.925 180.291 284.552 178.153 285.226L182.267 291.431H178.409L174.668 285.575H171.856V291.431ZM171.856 277.767V282.74H175.365C176.992 282.74 178.153 282.019 178.153 280.392V280.114C178.153 278.464 176.992 277.767 175.365 277.767H171.856Z" fill="black"/>
<path d="M77.7623 362.669H74.3695V346.17H85.6633V348.982H77.7623V353.234H84.8732V356.023H77.7623V362.669ZM100.521 362.669H96.9189L95.664 359.137H89.0178L87.7629 362.669H84.2772L90.5283 346.17H94.2697L100.521 362.669ZM92.3409 349.772L90.0171 356.348H94.688L92.3409 349.772ZM108.137 362.971C103.257 362.971 100.167 359.555 100.167 354.675V354.164C100.167 349.307 103.35 345.868 108.161 345.868C112.32 345.868 115.086 348.494 115.364 352.398H111.879C111.623 350.12 110.252 348.749 108.114 348.749C105.326 348.749 103.745 350.934 103.745 354.164V354.675C103.745 357.905 105.349 360.066 108.114 360.066C110.345 360.066 111.739 358.556 111.855 356.255H115.341C115.086 360.182 112.413 362.971 108.137 362.971ZM128.842 362.669H116.828V346.17H128.679V348.982H120.22V352.862H127.912V355.651H120.22V359.857H128.842V362.669ZM138.263 362.669H130.594V346.17H137.752C141.052 346.17 143.236 347.541 143.236 350.376V350.631C143.236 352.003 142.469 353.304 141.028 353.978C142.864 354.582 143.933 356.046 143.933 357.812V358.045C143.933 360.903 141.563 362.669 138.263 362.669ZM133.918 348.935V352.955H137.427C139.123 352.955 139.797 352.305 139.797 351.003V350.771C139.797 349.493 139.03 348.935 137.403 348.935H133.918ZM133.918 355.697V359.904H137.915C139.541 359.904 140.471 359.16 140.471 357.928V357.673C140.471 356.395 139.634 355.697 137.938 355.697H133.918ZM152.89 362.971C147.94 362.971 144.826 359.509 144.826 354.675V354.164C144.826 349.33 147.94 345.868 152.89 345.868C157.839 345.868 160.93 349.33 160.93 354.164V354.675C160.93 359.509 157.839 362.971 152.89 362.971ZM152.89 360.089C155.771 360.089 157.375 357.975 157.375 354.675V354.164C157.375 350.841 155.771 348.726 152.89 348.726C150.008 348.726 148.405 350.841 148.405 354.164V354.675C148.405 357.975 150.031 360.089 152.89 360.089ZM170.151 362.971C165.202 362.971 162.088 359.509 162.088 354.675V354.164C162.088 349.33 165.202 345.868 170.151 345.868C175.101 345.868 178.192 349.33 178.192 354.164V354.675C178.192 359.509 175.101 362.971 170.151 362.971ZM170.151 360.089C173.033 360.089 174.636 357.975 174.636 354.675V354.164C174.636 350.841 173.033 348.726 170.151 348.726C167.27 348.726 165.666 350.841 165.666 354.164V354.675C165.666 357.975 167.293 360.089 170.151 360.089ZM183.3 362.669H179.861V346.17H183.3V353.188L189.412 346.17H193.385L187.065 353.234L193.618 362.669H189.69L184.787 355.512L183.3 357.138V362.669Z" fill="black"/>
<path d="M94.0563 434.762H84.087V418.262H87.5263V431.95H94.0563V434.762ZM99.4588 434.762H96.0196V418.262H99.4588V434.762ZM105.048 434.762H101.772V418.262H105.792L112.647 429.951V418.262H115.901V434.762H112.09L105.048 422.678V434.762ZM121.497 434.762H118.058V418.262H121.497V425.28L127.609 418.262H131.582L125.262 425.327L131.815 434.762H127.887L122.984 427.604L121.497 429.231V434.762ZM144.905 434.762H132.891V418.262H144.743V421.074H136.284V424.955H143.976V427.744H136.284V431.95H144.905V434.762ZM152.77 434.762H146.658V418.262H152.77C157.72 418.262 161.136 421.098 161.136 426.256V426.768C161.136 431.903 157.72 434.762 152.77 434.762ZM150.051 421.098V431.927H152.537C155.628 431.927 157.58 430.439 157.58 426.768V426.256C157.58 422.585 155.628 421.098 152.537 421.098H150.051ZM166.387 434.762H162.948V418.262H166.387V434.762ZM171.977 434.762H168.7V418.262H172.72L179.576 429.951V418.262H182.829V434.762H179.018L171.977 422.678V434.762Z" fill="black"/>
<path d="M379.365 231.545C384.279 231.545 388.992 229.593 392.466 226.118C395.941 222.644 397.893 217.931 397.893 213.018C397.893 208.104 395.941 203.391 392.466 199.917C388.992 196.442 384.279 194.49 379.365 194.49C374.452 194.49 369.739 196.442 366.264 199.917C362.79 203.391 360.838 208.104 360.838 213.018C360.838 217.931 362.79 222.644 366.264 226.118C369.739 229.593 374.452 231.545 379.365 231.545ZM387.543 209.616L378.28 218.88C377.599 219.56 376.499 219.56 375.826 218.88L371.194 214.248C370.514 213.568 370.514 212.468 371.194 211.795C371.875 211.121 372.975 211.114 373.648 211.795L377.049 215.196L385.083 207.155C385.763 206.475 386.863 206.475 387.536 207.155C388.209 207.836 388.216 208.936 387.536 209.609L387.543 209.616Z" fill="#53EA4D"/>
<path d="M851.768 231.545C856.681 231.545 861.394 229.593 864.868 226.118C868.343 222.644 870.295 217.931 870.295 213.018C870.295 208.104 868.343 203.391 864.868 199.917C861.394 196.442 856.681 194.49 851.768 194.49C846.854 194.49 842.141 196.442 838.667 199.917C835.192 203.391 833.24 208.104 833.24 213.018C833.24 217.931 835.192 222.644 838.667 226.118C842.141 229.593 846.854 231.545 851.768 231.545ZM859.946 209.616L850.682 218.88C850.002 219.56 848.902 219.56 848.229 218.88L843.597 214.248C842.916 213.568 842.916 212.468 843.597 211.795C844.277 211.121 845.377 211.114 846.05 211.795L849.452 215.196L857.485 207.155C858.165 206.475 859.265 206.475 859.938 207.155C860.612 207.836 860.619 208.936 859.938 209.609L859.946 209.616Z" fill="#53EA4D"/>
<path d="M851.768 374.877C856.681 374.877 861.394 372.925 864.868 369.451C868.343 365.976 870.295 361.263 870.295 356.35C870.295 351.436 868.343 346.723 864.868 343.249C861.394 339.774 856.681 337.822 851.768 337.822C846.854 337.822 842.141 339.774 838.667 343.249C835.192 346.723 833.24 351.436 833.24 356.35C833.24 361.263 835.192 365.976 838.667 369.451C842.141 372.925 846.854 374.877 851.768 374.877ZM859.946 352.948L850.682 362.212C850.002 362.892 848.902 362.892 848.229 362.212L843.597 357.58C842.916 356.9 842.916 355.8 843.597 355.127C844.277 354.454 845.377 354.446 846.05 355.127L849.452 358.528L857.485 350.487C858.165 349.807 859.265 349.807 859.938 350.487C860.612 351.168 860.619 352.268 859.938 352.941L859.946 352.948Z" fill="#53EA4D"/>
<path d="M1088.39 374.877C1093.3 374.877 1098.02 372.925 1101.49 369.451C1104.97 365.976 1106.92 361.263 1106.92 356.35C1106.92 351.436 1104.97 346.723 1101.49 343.249C1098.02 339.774 1093.3 337.822 1088.39 337.822C1083.48 337.822 1078.76 339.774 1075.29 343.249C1071.82 346.723 1069.86 351.436 1069.86 356.35C1069.86 361.263 1071.82 365.976 1075.29 369.451C1078.76 372.925 1083.48 374.877 1088.39 374.877ZM1096.57 352.948L1087.31 362.212C1086.62 362.892 1085.52 362.892 1084.85 362.212L1080.22 357.58C1079.54 356.9 1079.54 355.8 1080.22 355.127C1080.9 354.454 1082 354.446 1082.67 355.127L1086.07 358.528L1094.11 350.487C1094.79 349.807 1095.89 349.807 1096.56 350.487C1097.23 351.168 1097.24 352.268 1096.56 352.941L1096.57 352.948Z" fill="#53EA4D"/>
<path d="M379.365 446.968C384.279 446.968 388.992 445.016 392.466 441.541C395.941 438.067 397.893 433.354 397.893 428.44C397.893 423.527 395.941 418.814 392.466 415.34C388.992 411.865 384.279 409.913 379.365 409.913C374.452 409.913 369.739 411.865 366.264 415.34C362.79 418.814 360.838 423.527 360.838 428.44C360.838 433.354 362.79 438.067 366.264 441.541C369.739 445.016 374.452 446.968 379.365 446.968ZM387.543 425.039L378.28 434.303C377.599 434.983 376.499 434.983 375.826 434.303L371.194 429.671C370.514 428.991 370.514 427.89 371.194 427.217C371.875 426.544 372.975 426.537 373.648 427.217L377.049 430.619L385.083 422.578C385.763 421.898 386.863 421.898 387.536 422.578C388.209 423.259 388.216 424.359 387.536 425.032L387.543 425.039Z" fill="#53EA4D"/>
<path d="M379.365 161.153C384.279 161.153 388.992 159.201 392.466 155.727C395.941 152.252 397.893 147.54 397.893 142.626C397.893 137.712 395.941 133 392.466 129.525C388.992 126.051 384.279 124.099 379.365 124.099C374.452 124.099 369.739 126.051 366.264 129.525C362.79 133 360.838 137.712 360.838 142.626C360.838 147.54 362.79 152.252 366.264 155.727C369.739 159.201 374.452 161.153 379.365 161.153ZM373.503 136.764C374.183 136.084 375.283 136.084 375.957 136.764L379.358 140.165L382.76 136.764C383.44 136.084 384.54 136.084 385.213 136.764C385.886 137.444 385.893 138.544 385.213 139.217L381.811 142.619L385.213 146.02C385.893 146.701 385.893 147.801 385.213 148.474C384.533 149.147 383.433 149.154 382.76 148.474L379.358 145.072L375.957 148.474C375.276 149.154 374.176 149.154 373.503 148.474C372.83 147.793 372.823 146.693 373.503 146.02L376.905 142.619L373.503 139.217C372.823 138.537 372.823 137.437 373.503 136.764Z" fill="#F45446"/>
<path d="M615.992 161.153C620.906 161.153 625.619 159.201 629.093 155.727C632.568 152.252 634.52 147.54 634.52 142.626C634.52 137.712 632.568 133 629.093 129.525C625.619 126.051 620.906 124.099 615.992 124.099C611.078 124.099 606.366 126.051 602.891 129.525C599.417 133 597.465 137.712 597.465 142.626C597.465 147.54 599.417 152.252 602.891 155.727C606.366 159.201 611.078 161.153 615.992 161.153ZM610.13 136.764C610.81 136.084 611.91 136.084 612.583 136.764L615.985 140.165L619.386 136.764C620.067 136.084 621.167 136.084 621.84 136.764C622.513 137.444 622.52 138.544 621.84 139.217L618.438 142.619L621.84 146.02C622.52 146.701 622.52 147.801 621.84 148.474C621.16 149.147 620.06 149.154 619.386 148.474L615.985 145.072L612.583 148.474C611.903 149.154 610.803 149.154 610.13 148.474C609.457 147.793 609.45 146.693 610.13 146.02L613.532 142.619L610.13 139.217C609.45 138.537 609.45 137.437 610.13 136.764Z" fill="#F45446"/>
<path d="M1088.39 161.153C1093.3 161.153 1098.02 159.201 1101.49 155.727C1104.97 152.252 1106.92 147.54 1106.92 142.626C1106.92 137.712 1104.97 133 1101.49 129.525C1098.02 126.051 1093.3 124.099 1088.39 124.099C1083.48 124.099 1078.76 126.051 1075.29 129.525C1071.82 133 1069.86 137.712 1069.86 142.626C1069.86 147.54 1071.82 152.252 1075.29 155.727C1078.76 159.201 1083.48 161.153 1088.39 161.153ZM1082.53 136.764C1083.21 136.084 1084.31 136.084 1084.98 136.764L1088.38 140.165L1091.78 136.764C1092.47 136.084 1093.57 136.084 1094.24 136.764C1094.91 137.444 1094.92 138.544 1094.24 139.217L1090.84 142.619L1094.24 146.02C1094.92 146.701 1094.92 147.801 1094.24 148.474C1093.56 149.147 1092.46 149.154 1091.78 148.474L1088.38 145.072L1084.98 148.474C1084.3 149.154 1083.2 149.154 1082.53 148.474C1081.86 147.793 1081.85 146.693 1082.53 146.02L1085.93 142.619L1082.53 139.217C1081.85 138.537 1081.85 137.437 1082.53 136.764Z" fill="#F45446"/>
<path d="M615.992 232.395C620.906 232.395 625.619 230.443 629.093 226.968C632.568 223.494 634.52 218.781 634.52 213.867C634.52 208.953 632.568 204.241 629.093 200.766C625.619 197.292 620.906 195.34 615.992 195.34C611.078 195.34 606.366 197.292 602.891 200.766C599.417 204.241 597.465 208.953 597.465 213.867C597.465 218.781 599.417 223.494 602.891 226.968C606.366 230.443 611.078 232.395 615.992 232.395ZM610.13 208.005C610.81 207.325 611.91 207.325 612.583 208.005L615.985 211.407L619.386 208.005C620.067 207.325 621.167 207.325 621.84 208.005C622.513 208.685 622.52 209.785 621.84 210.458L618.438 213.86L621.84 217.262C622.52 217.942 622.52 219.042 621.84 219.715C621.16 220.388 620.06 220.395 619.386 219.715L615.985 216.313L612.583 219.715C611.903 220.395 610.803 220.395 610.13 219.715C609.457 219.035 609.45 217.935 610.13 217.262L613.532 213.86L610.13 210.458C609.45 209.778 609.45 208.678 610.13 208.005Z" fill="#F45446"/>
<path d="M1088.39 232.396C1093.3 232.396 1098.02 230.444 1101.49 226.969C1104.97 223.495 1106.92 218.782 1106.92 213.868C1106.92 208.954 1104.97 204.242 1101.49 200.767C1098.02 197.293 1093.3 195.341 1088.39 195.341C1083.48 195.341 1078.76 197.293 1075.29 200.767C1071.82 204.242 1069.86 208.954 1069.86 213.868C1069.86 218.782 1071.82 223.495 1075.29 226.969C1078.76 230.444 1083.48 232.396 1088.39 232.396ZM1082.53 208.006C1083.21 207.326 1084.31 207.326 1084.98 208.006L1088.38 211.408L1091.78 208.006C1092.47 207.326 1093.57 207.326 1094.24 208.006C1094.91 208.686 1094.92 209.786 1094.24 210.459L1090.84 213.861L1094.24 217.263C1094.92 217.943 1094.92 219.043 1094.24 219.716C1093.56 220.389 1092.46 220.396 1091.78 219.716L1088.38 216.314L1084.98 219.716C1084.3 220.396 1083.2 220.396 1082.53 219.716C1081.86 219.036 1081.85 217.936 1082.53 217.263L1085.93 213.861L1082.53 210.459C1081.85 209.779 1081.85 208.679 1082.53 208.006Z" fill="#F45446"/>
<path d="M615.992 303.634C620.906 303.634 625.619 301.682 629.093 298.207C632.568 294.733 634.52 290.02 634.52 285.107C634.52 280.193 632.568 275.48 629.093 272.006C625.619 268.531 620.906 266.579 615.992 266.579C611.078 266.579 606.366 268.531 602.891 272.006C599.417 275.48 597.465 280.193 597.465 285.107C597.465 290.02 599.417 294.733 602.891 298.207C606.366 301.682 611.078 303.634 615.992 303.634ZM610.13 279.244C610.81 278.564 611.91 278.564 612.583 279.244L615.985 282.646L619.386 279.244C620.067 278.564 621.167 278.564 621.84 279.244C622.513 279.925 622.52 281.025 621.84 281.698L618.438 285.099L621.84 288.501C622.52 289.181 622.52 290.281 621.84 290.954C621.16 291.627 620.06 291.635 619.386 290.954L615.985 287.553L612.583 290.954C611.903 291.635 610.803 291.635 610.13 290.954C609.457 290.274 609.45 289.174 610.13 288.501L613.532 285.099L610.13 281.698C609.45 281.017 609.45 279.917 610.13 279.244Z" fill="#F45446"/>
<path d="M1088.39 303.634C1093.3 303.634 1098.02 301.682 1101.49 298.207C1104.97 294.733 1106.92 290.02 1106.92 285.107C1106.92 280.193 1104.97 275.48 1101.49 272.006C1098.02 268.531 1093.3 266.579 1088.39 266.579C1083.48 266.579 1078.76 268.531 1075.29 272.006C1071.82 275.48 1069.86 280.193 1069.86 285.107C1069.86 290.02 1071.82 294.733 1075.29 298.207C1078.76 301.682 1083.48 303.634 1088.39 303.634ZM1082.53 279.244C1083.21 278.564 1084.31 278.564 1084.98 279.244L1088.38 282.646L1091.78 279.244C1092.47 278.564 1093.57 278.564 1094.24 279.244C1094.91 279.925 1094.92 281.025 1094.24 281.698L1090.84 285.099L1094.24 288.501C1094.92 289.181 1094.92 290.281 1094.24 290.954C1093.56 291.627 1092.46 291.635 1091.78 290.954L1088.38 287.553L1084.98 290.954C1084.3 291.635 1083.2 291.635 1082.53 290.954C1081.86 290.274 1081.85 289.174 1082.53 288.501L1085.93 285.099L1082.53 281.698C1081.85 281.017 1081.85 279.917 1082.53 279.244Z" fill="#F45446"/>
<path d="M1088.39 446.969C1093.3 446.969 1098.02 445.017 1101.49 441.542C1104.97 438.068 1106.92 433.355 1106.92 428.441C1106.92 423.528 1104.97 418.815 1101.49 415.341C1098.02 411.866 1093.3 409.914 1088.39 409.914C1083.48 409.914 1078.76 411.866 1075.29 415.341C1071.82 418.815 1069.86 423.528 1069.86 428.441C1069.86 433.355 1071.82 438.068 1075.29 441.542C1078.76 445.017 1083.48 446.969 1088.39 446.969ZM1082.53 422.579C1083.21 421.899 1084.31 421.899 1084.98 422.579L1088.38 425.981L1091.78 422.579C1092.47 421.899 1093.57 421.899 1094.24 422.579C1094.91 423.26 1094.92 424.36 1094.24 425.033L1090.84 428.434L1094.24 431.836C1094.92 432.516 1094.92 433.616 1094.24 434.289C1093.56 434.962 1092.46 434.969 1091.78 434.289L1088.38 430.888L1084.98 434.289C1084.3 434.969 1083.2 434.969 1082.53 434.289C1081.86 433.609 1081.85 432.509 1082.53 431.836L1085.93 428.434L1082.53 425.033C1081.85 424.352 1081.85 423.252 1082.53 422.579Z" fill="#F45446"/>
<path d="M615.992 374.877C620.906 374.877 625.619 372.925 629.093 369.451C632.568 365.976 634.52 361.263 634.52 356.35C634.52 351.436 632.568 346.723 629.093 343.249C625.619 339.774 620.906 337.822 615.992 337.822C611.078 337.822 606.366 339.774 602.891 343.249C599.417 346.723 597.465 351.436 597.465 356.35C597.465 361.263 599.417 365.976 602.891 369.451C606.366 372.925 611.078 374.877 615.992 374.877ZM610.13 350.487C610.81 349.807 611.91 349.807 612.583 350.487L615.985 353.889L619.386 350.487C620.067 349.807 621.167 349.807 621.84 350.487C622.513 351.168 622.52 352.268 621.84 352.941L618.438 356.342L621.84 359.744C622.52 360.424 622.52 361.524 621.84 362.197C621.16 362.87 620.06 362.878 619.386 362.197L615.985 358.796L612.583 362.197C611.903 362.878 610.803 362.878 610.13 362.197C609.457 361.517 609.45 360.417 610.13 359.744L613.532 356.342L610.13 352.941C609.45 352.261 609.45 351.161 610.13 350.487Z" fill="#F45446"/>
<path d="M851.768 302.788C856.681 302.788 861.394 300.836 864.868 297.362C868.343 293.887 870.295 289.175 870.295 284.261C870.295 279.347 868.343 274.635 864.868 271.16C861.394 267.685 856.681 265.733 851.768 265.733C846.854 265.733 842.141 267.685 838.667 271.16C835.192 274.635 833.24 279.347 833.24 284.261C833.24 289.175 835.192 293.887 838.667 297.362C842.141 300.836 846.854 302.788 851.768 302.788ZM845.905 278.399C846.586 277.718 847.686 277.718 848.359 278.399L851.76 281.8L855.162 278.399C855.842 277.718 856.942 277.718 857.615 278.399C858.288 279.079 858.296 280.179 857.615 280.852L854.214 284.254L857.615 287.655C858.296 288.335 858.296 289.435 857.615 290.109C856.935 290.782 855.835 290.789 855.162 290.109L851.76 286.707L848.359 290.109C847.679 290.789 846.579 290.789 845.905 290.109C845.232 289.428 845.225 288.328 845.905 287.655L849.307 284.254L845.905 280.852C845.225 280.172 845.225 279.072 845.905 278.399Z" fill="#F45446"/>
<path d="M851.768 446.969C856.681 446.969 861.394 445.017 864.868 441.542C868.343 438.068 870.295 433.355 870.295 428.441C870.295 423.528 868.343 418.815 864.868 415.341C861.394 411.866 856.681 409.914 851.768 409.914C846.854 409.914 842.141 411.866 838.667 415.341C835.192 418.815 833.24 423.528 833.24 428.441C833.24 433.355 835.192 438.068 838.667 441.542C842.141 445.017 846.854 446.969 851.768 446.969ZM845.905 422.579C846.586 421.899 847.686 421.899 848.359 422.579L851.76 425.981L855.162 422.579C855.842 421.899 856.942 421.899 857.615 422.579C858.288 423.26 858.296 424.36 857.615 425.033L854.214 428.434L857.615 431.836C858.296 432.516 858.296 433.616 857.615 434.289C856.935 434.962 855.835 434.969 855.162 434.289L851.76 430.888L848.359 434.289C847.679 434.969 846.579 434.969 845.905 434.289C845.232 433.609 845.225 432.509 845.905 431.836L849.307 428.434L845.905 425.033C845.225 424.352 845.225 423.252 845.905 422.579Z" fill="#F45446"/>
<path d="M379.365 374.877C384.279 374.877 388.992 372.925 392.466 369.451C395.941 365.976 397.893 361.263 397.893 356.35C397.893 351.436 395.941 346.723 392.466 343.249C388.992 339.774 384.279 337.822 379.365 337.822C374.452 337.822 369.739 339.774 366.264 343.249C362.79 346.723 360.838 351.436 360.838 356.35C360.838 361.263 362.79 365.976 366.264 369.451C369.739 372.925 374.452 374.877 379.365 374.877ZM373.503 350.487C374.183 349.807 375.283 349.807 375.957 350.487L379.358 353.889L382.76 350.487C383.44 349.807 384.54 349.807 385.213 350.487C385.886 351.168 385.893 352.268 385.213 352.941L381.811 356.342L385.213 359.744C385.893 360.424 385.893 361.524 385.213 362.197C384.533 362.87 383.433 362.878 382.76 362.197L379.358 358.796L375.957 362.197C375.276 362.878 374.176 362.878 373.503 362.197C372.83 361.517 372.823 360.417 373.503 359.744L376.905 356.342L373.503 352.941C372.823 352.261 372.823 351.161 373.503 350.487Z" fill="#F45446"/>
<path fill-rule="evenodd" clip-rule="evenodd" d="M864.863 155.725C861.388 159.2 856.676 161.151 851.762 161.151C846.848 161.151 842.135 159.2 838.661 155.725C835.186 152.25 833.234 147.538 833.234 142.624C833.234 137.71 835.186 132.998 838.661 129.523C842.135 126.049 846.848 124.097 851.762 124.097C856.676 124.097 861.388 126.049 864.863 129.523C868.337 132.998 870.289 137.71 870.289 142.624C870.289 147.538 868.337 152.25 864.863 155.725ZM852.118 135.04C851.856 134.587 851.201 134.587 850.939 135.04L844.186 146.738C843.924 147.192 844.251 147.759 844.775 147.759H858.282C858.806 147.759 859.134 147.192 858.872 146.738L852.118 135.04Z" fill="#FAA754"/>
<path fill-rule="evenodd" clip-rule="evenodd" d="M392.466 298.207C388.992 301.682 384.279 303.634 379.365 303.634C374.452 303.634 369.739 301.682 366.264 298.207C362.79 294.733 360.838 290.02 360.838 285.107C360.838 280.193 362.79 275.48 366.264 272.006C369.739 268.531 374.452 266.579 379.365 266.579C384.279 266.579 388.992 268.531 392.466 272.006C395.941 275.48 397.893 280.193 397.893 285.107C397.893 290.02 395.941 294.733 392.466 298.207ZM379.722 277.524C379.46 277.07 378.805 277.07 378.543 277.524L371.789 289.221C371.527 289.675 371.855 290.242 372.379 290.242H385.886C386.41 290.242 386.737 289.675 386.475 289.221L379.722 277.524Z" fill="#FAA754"/>
<path d="M555.884 433.305H553.216V423.794C552.508 424.357 551.637 424.756 550.638 424.937V422.596C551.981 422.324 553.071 421.616 553.924 420.418H555.884V433.305ZM557.469 436.408V435.12C558.594 435.12 559.012 434.72 559.012 433.559V433.305H557.886V430.8H560.464V433.395C560.464 435.501 559.465 436.408 557.469 436.408ZM566.214 433.541C562.984 433.541 561.368 430.909 561.368 427.043V426.68C561.368 422.832 562.984 420.182 566.214 420.182C569.554 420.182 571.079 422.832 571.079 426.68V427.043C571.079 430.909 569.554 433.541 566.214 433.541ZM566.214 431.381C567.884 431.381 568.32 430.019 568.32 427.097V426.662C568.32 423.721 567.884 422.342 566.214 422.342C564.653 422.342 564.127 423.721 564.127 426.662V427.097C564.127 430.019 564.653 431.381 566.214 431.381ZM577.109 433.541C573.878 433.541 572.263 430.909 572.263 427.043V426.68C572.263 422.832 573.878 420.182 577.109 420.182C580.448 420.182 581.973 422.832 581.973 426.68V427.043C581.973 430.909 580.448 433.541 577.109 433.541ZM577.109 431.381C578.779 431.381 579.214 430.019 579.214 427.097V426.662C579.214 423.721 578.779 422.342 577.109 422.342C575.548 422.342 575.022 423.721 575.022 426.662V427.097C575.022 430.019 575.548 431.381 577.109 431.381ZM588.003 433.541C584.773 433.541 583.157 430.909 583.157 427.043V426.68C583.157 422.832 584.773 420.182 588.003 420.182C591.343 420.182 592.868 422.832 592.868 426.68V427.043C592.868 430.909 591.343 433.541 588.003 433.541ZM588.003 431.381C589.673 431.381 590.109 430.019 590.109 427.097V426.662C590.109 423.721 589.673 422.342 588.003 422.342C586.442 422.342 585.916 423.721 585.916 426.662V427.097C585.916 430.019 586.442 431.381 588.003 431.381ZM601.561 433.541C598.638 433.541 596.878 431.599 596.878 428.731V428.495C596.878 425.627 598.638 423.703 601.561 423.703C604.011 423.703 605.644 425.119 605.917 427.46H603.412C603.249 426.389 602.722 425.682 601.524 425.682C600.127 425.682 599.455 426.698 599.455 428.495V428.731C599.455 430.546 600.127 431.562 601.524 431.562C602.722 431.562 603.267 430.836 603.43 429.784H605.935C605.644 432.125 604.011 433.541 601.561 433.541ZM609.559 433.305H607.018V419.873H609.577V425.3C610.067 424.465 611.011 423.703 612.499 423.703C614.822 423.703 615.748 425.173 615.748 427.279V433.305H613.225V427.914C613.225 426.553 612.753 425.754 611.537 425.754C610.357 425.754 609.559 426.625 609.559 428.114V433.305ZM619.98 433.541C618.092 433.541 616.822 432.343 616.822 430.691C616.822 429.094 617.838 428.15 619.544 427.914L622.993 427.424V426.879C622.993 426.099 622.485 425.627 621.377 425.627C620.343 425.627 619.689 426.026 619.599 426.825H617.203C617.348 424.828 619 423.703 621.432 423.703C623.955 423.703 625.443 424.956 625.443 426.916V433.305H623.102L623.011 431.871C622.448 432.887 621.359 433.541 619.98 433.541ZM620.742 431.635C621.976 431.635 622.993 430.909 622.993 429.874V429.13L620.452 429.475C619.671 429.584 619.272 429.911 619.272 430.564C619.272 431.236 619.816 431.635 620.742 431.635ZM629.451 433.305H626.91V423.939H629.36L629.415 425.754C629.869 424.629 630.794 423.776 632.174 423.776C632.355 423.776 632.591 423.794 632.736 423.83V426.262C632.555 426.244 632.265 426.226 632.029 426.226C630.341 426.226 629.451 427.134 629.451 428.785V433.305ZM636.097 433.541C634.209 433.541 632.939 432.343 632.939 430.691C632.939 429.094 633.955 428.15 635.661 427.914L639.11 427.424V426.879C639.11 426.099 638.602 425.627 637.494 425.627C636.46 425.627 635.806 426.026 635.716 426.825H633.32C633.465 424.828 635.117 423.703 637.549 423.703C640.072 423.703 641.56 424.956 641.56 426.916V433.305H639.219L639.128 431.871C638.565 432.887 637.476 433.541 636.097 433.541ZM636.859 431.635C638.093 431.635 639.11 430.909 639.11 429.874V429.13L636.569 429.475C635.788 429.584 635.389 429.911 635.389 430.564C635.389 431.236 635.933 431.635 636.859 431.635ZM647.383 433.541C644.461 433.541 642.7 431.599 642.7 428.731V428.495C642.7 425.627 644.461 423.703 647.383 423.703C649.834 423.703 651.467 425.119 651.739 427.46H649.235C649.071 426.389 648.545 425.682 647.347 425.682C645.949 425.682 645.278 426.698 645.278 428.495V428.731C645.278 430.546 645.949 431.562 647.347 431.562C648.545 431.562 649.089 430.836 649.253 429.784H651.757C651.467 432.125 649.834 433.541 647.383 433.541ZM657.055 433.541C654.804 433.541 653.733 432.524 653.733 430.6V425.79H651.991V423.939H653.733V420.962H656.274V423.939H658.706V425.79H656.274V430.382C656.274 431.199 656.637 431.544 657.617 431.544C658.071 431.544 658.489 431.435 658.743 431.363V433.305C658.307 433.45 657.599 433.541 657.055 433.541ZM664.177 433.541C661.164 433.541 659.349 431.617 659.349 428.731V428.495C659.349 425.645 661.219 423.703 664.177 423.703C667.372 423.703 668.951 425.954 668.787 429.221H661.945C662.072 430.818 662.816 431.599 664.177 431.599C665.321 431.599 665.974 431.054 666.21 430.328H668.733C668.279 432.306 666.627 433.541 664.177 433.541ZM661.981 427.551H666.192C666.083 426.371 665.43 425.645 664.159 425.645C662.907 425.645 662.199 426.262 661.981 427.551ZM672.562 433.305H670.021V423.939H672.471L672.526 425.754C672.979 424.629 673.905 423.776 675.284 423.776C675.466 423.776 675.702 423.794 675.847 423.83V426.262C675.666 426.244 675.375 426.226 675.139 426.226C673.451 426.226 672.562 427.134 672.562 428.785V433.305Z" fill="black"/>
</svg>
