<svg width="1206" height="634" viewBox="0 0 1206 634" fill="none" xmlns="http://www.w3.org/2000/svg">
<rect x="841.729" y="230.653" width="156.41" height="90.5529" rx="36.2212" fill="#A29CFF"/>
<path d="M878.221 269.653H876.496V259.003H880.831C882.976 259.003 884.476 260.113 884.476 262.183V262.423C884.476 264.493 882.976 265.603 880.831 265.603H878.221V269.653ZM878.221 260.473V264.133H880.696C881.896 264.133 882.691 263.593 882.691 262.423V262.183C882.691 261.013 881.896 260.473 880.696 260.473H878.221ZM888.584 269.848C886.274 269.848 884.774 268.258 884.774 265.903V265.678C884.774 263.323 886.274 261.748 888.584 261.748C890.909 261.748 892.409 263.323 892.409 265.678V265.903C892.409 268.258 890.909 269.848 888.584 269.848ZM888.584 268.513C889.994 268.513 890.729 267.568 890.729 265.903V265.678C890.729 264.013 889.994 263.083 888.584 263.083C887.189 263.083 886.454 264.013 886.454 265.678V265.903C886.454 267.568 887.189 268.513 888.584 268.513ZM896.42 269.848C894.425 269.848 893.18 268.903 893.03 267.253H894.62C894.755 268.168 895.415 268.603 896.435 268.603C897.365 268.603 897.995 268.228 897.995 267.538C897.995 266.923 897.56 266.623 896.09 266.353C894.215 266.038 893.3 265.438 893.3 264.058C893.3 262.678 894.545 261.748 896.315 261.748C898.175 261.748 899.33 262.633 899.48 264.163H897.905C897.785 263.383 897.185 262.963 896.3 262.963C895.445 262.963 894.89 263.338 894.89 263.968C894.89 264.568 895.325 264.853 896.735 265.078C898.685 265.393 899.63 266.038 899.63 267.388C899.63 268.858 898.355 269.848 896.42 269.848ZM903.925 269.848C902.23 269.848 901.39 269.068 901.39 267.568V263.173H899.89V261.928H901.39V259.513H903.04V261.928H905.14V263.173H903.04V267.388C903.04 268.153 903.325 268.498 904.24 268.498C904.57 268.498 904.96 268.423 905.185 268.348V269.668C904.84 269.773 904.315 269.848 903.925 269.848ZM912.911 269.848C910.361 269.848 908.666 268.558 908.546 266.278H910.286C910.436 267.763 911.516 268.393 912.986 268.393C914.321 268.393 915.281 267.868 915.281 266.803V266.728C915.281 265.813 914.636 265.348 912.476 264.958C909.851 264.493 908.921 263.518 908.921 261.928V261.823C908.921 260.083 910.436 258.808 912.761 258.808C914.996 258.808 916.616 259.918 916.826 262.093H915.071C914.921 260.863 914.051 260.248 912.731 260.248C911.411 260.248 910.631 260.848 910.631 261.778V261.853C910.631 262.678 911.081 263.143 913.196 263.503C915.746 263.938 917.006 264.823 917.006 266.563V266.683C917.006 268.528 915.431 269.848 912.911 269.848ZM921.67 269.848C919.27 269.848 917.845 268.243 917.845 265.903V265.678C917.845 263.338 919.3 261.748 921.67 261.748C924.205 261.748 925.435 263.518 925.315 266.158H919.54C919.615 267.703 920.365 268.528 921.67 268.528C922.75 268.528 923.395 268.018 923.62 267.238H925.27C924.895 268.858 923.605 269.848 921.67 269.848ZM919.57 264.973H923.62C923.5 263.773 922.87 263.053 921.655 263.053C920.455 263.053 919.75 263.713 919.57 264.973ZM929.661 269.848C927.966 269.848 927.126 269.068 927.126 267.568V263.173H925.626V261.928H927.126V259.513H928.776V261.928H930.876V263.173H928.776V267.388C928.776 268.153 929.061 268.498 929.976 268.498C930.306 268.498 930.696 268.423 930.921 268.348V269.668C930.576 269.773 930.051 269.848 929.661 269.848ZM935.37 269.848C933.675 269.848 932.835 269.068 932.835 267.568V263.173H931.335V261.928H932.835V259.513H934.485V261.928H936.585V263.173H934.485V267.388C934.485 268.153 934.77 268.498 935.685 268.498C936.015 268.498 936.405 268.423 936.63 268.348V269.668C936.285 269.773 935.76 269.848 935.37 269.848ZM939.428 258.553V260.803H937.703V258.553H939.428ZM937.733 261.928H939.383V269.653H937.733V261.928ZM942.514 269.653H940.864V261.928H942.454L942.514 263.158C942.919 262.393 943.729 261.748 944.974 261.748C946.849 261.748 947.644 262.918 947.644 264.673V269.653H946.009V265.078C946.009 263.818 945.544 263.113 944.419 263.113C943.279 263.113 942.514 263.953 942.514 265.333V269.653ZM952.468 272.398C950.338 272.398 949.138 271.453 948.973 270.103H950.773C950.863 270.778 951.448 271.153 952.558 271.153C953.833 271.153 954.598 270.523 954.598 269.308V268.168C954.193 268.918 953.323 269.533 952.123 269.533C950.068 269.533 948.778 267.913 948.778 265.783V265.483C948.778 263.338 950.053 261.748 952.078 261.748C953.398 261.748 954.283 262.468 954.673 263.203L954.718 261.928H956.248V269.158C956.248 271.153 954.913 272.398 952.468 272.398ZM952.528 268.213C953.893 268.213 954.658 267.253 954.658 265.783V265.483C954.658 263.983 953.908 263.053 952.528 263.053C951.193 263.053 950.458 263.983 950.458 265.483V265.783C950.458 267.253 951.208 268.213 952.528 268.213ZM960.747 269.848C958.752 269.848 957.507 268.903 957.357 267.253H958.947C959.082 268.168 959.742 268.603 960.762 268.603C961.692 268.603 962.322 268.228 962.322 267.538C962.322 266.923 961.887 266.623 960.417 266.353C958.542 266.038 957.627 265.438 957.627 264.058C957.627 262.678 958.872 261.748 960.642 261.748C962.502 261.748 963.657 262.633 963.807 264.163H962.232C962.112 263.383 961.512 262.963 960.627 262.963C959.772 262.963 959.217 263.338 959.217 263.968C959.217 264.568 959.652 264.853 961.062 265.078C963.012 265.393 963.957 266.038 963.957 267.388C963.957 268.858 962.682 269.848 960.747 269.848ZM905.762 292.653H904.037V282.003H908.372C910.517 282.003 912.017 283.113 912.017 285.183V285.423C912.017 287.493 910.517 288.603 908.372 288.603H905.762V292.653ZM905.762 283.473V287.133H908.237C909.437 287.133 910.232 286.593 910.232 285.423V285.183C910.232 284.013 909.437 283.473 908.237 283.473H905.762ZM914.836 292.848C913.246 292.848 912.241 291.888 912.241 290.568C912.241 289.338 912.991 288.528 914.311 288.348L917.356 287.898V287.343C917.356 286.488 916.771 286.038 915.796 286.038C914.836 286.038 914.191 286.473 914.116 287.253H912.541C912.676 285.663 913.936 284.748 915.826 284.748C917.821 284.748 918.946 285.798 918.946 287.403V292.653H917.431L917.371 291.453C916.891 292.323 915.946 292.848 914.836 292.848ZM915.211 291.543C916.366 291.543 917.356 290.823 917.356 289.818V289.113L914.881 289.458C914.176 289.563 913.846 289.893 913.846 290.493C913.846 291.138 914.341 291.543 915.211 291.543ZM923.78 295.398C921.65 295.398 920.45 294.453 920.285 293.103H922.085C922.175 293.778 922.76 294.153 923.87 294.153C925.145 294.153 925.91 293.523 925.91 292.308V291.168C925.505 291.918 924.635 292.533 923.435 292.533C921.38 292.533 920.09 290.913 920.09 288.783V288.483C920.09 286.338 921.365 284.748 923.39 284.748C924.71 284.748 925.595 285.468 925.985 286.203L926.03 284.928H927.56V292.158C927.56 294.153 926.225 295.398 923.78 295.398ZM923.84 291.213C925.205 291.213 925.97 290.253 925.97 288.783V288.483C925.97 286.983 925.22 286.053 923.84 286.053C922.505 286.053 921.77 286.983 921.77 288.483V288.783C921.77 290.253 922.52 291.213 923.84 291.213ZM932.568 292.848C930.168 292.848 928.743 291.243 928.743 288.903V288.678C928.743 286.338 930.198 284.748 932.568 284.748C935.103 284.748 936.333 286.518 936.213 289.158H930.438C930.513 290.703 931.263 291.528 932.568 291.528C933.648 291.528 934.293 291.018 934.518 290.238H936.168C935.793 291.858 934.503 292.848 932.568 292.848ZM930.468 287.973H934.518C934.398 286.773 933.768 286.053 932.553 286.053C931.353 286.053 930.648 286.713 930.468 287.973Z" fill="black" fill-opacity="0.8"/>
<rect x="1049.59" y="364.938" width="156.41" height="90.5529" rx="36.2212" fill="#A29CFF"/>
<path d="M1113.21 415.633C1110.66 415.633 1108.96 414.343 1108.84 412.063H1110.58C1110.73 413.548 1111.81 414.178 1113.28 414.178C1114.62 414.178 1115.58 413.653 1115.58 412.588V412.513C1115.58 411.598 1114.93 411.133 1112.77 410.743C1110.15 410.278 1109.22 409.303 1109.22 407.713V407.608C1109.22 405.868 1110.73 404.593 1113.06 404.593C1115.29 404.593 1116.91 405.703 1117.12 407.878H1115.37C1115.22 406.648 1114.35 406.033 1113.03 406.033C1111.71 406.033 1110.93 406.633 1110.93 407.563V407.638C1110.93 408.463 1111.38 408.928 1113.49 409.288C1116.04 409.723 1117.3 410.608 1117.3 412.348V412.468C1117.3 414.313 1115.73 415.633 1113.21 415.633ZM1120.09 415.438H1118.44V404.338H1120.11V408.898C1120.53 408.133 1121.32 407.533 1122.55 407.533C1124.43 407.533 1125.22 408.703 1125.22 410.458V415.438H1123.59V410.863C1123.59 409.603 1123.12 408.898 1122 408.898C1120.86 408.898 1120.09 409.738 1120.09 411.118V415.438ZM1128.91 415.633C1127.32 415.633 1126.31 414.673 1126.31 413.353C1126.31 412.123 1127.06 411.313 1128.38 411.133L1131.43 410.683V410.128C1131.43 409.273 1130.84 408.823 1129.87 408.823C1128.91 408.823 1128.26 409.258 1128.19 410.038H1126.61C1126.75 408.448 1128.01 407.533 1129.9 407.533C1131.89 407.533 1133.02 408.583 1133.02 410.188V415.438H1131.5L1131.44 414.238C1130.96 415.108 1130.02 415.633 1128.91 415.633ZM1129.28 414.328C1130.44 414.328 1131.43 413.608 1131.43 412.603V411.898L1128.95 412.243C1128.25 412.348 1127.92 412.678 1127.92 413.278C1127.92 413.923 1128.41 414.328 1129.28 414.328ZM1136.11 415.438H1134.46V407.713H1136.05L1136.1 409.213C1136.52 408.223 1137.33 407.563 1138.44 407.563C1138.56 407.563 1138.72 407.578 1138.86 407.608V409.213C1138.71 409.198 1138.53 409.183 1138.35 409.183C1136.95 409.183 1136.11 409.978 1136.11 411.508V415.438ZM1143.05 415.633C1140.65 415.633 1139.22 414.028 1139.22 411.688V411.463C1139.22 409.123 1140.68 407.533 1143.05 407.533C1145.58 407.533 1146.81 409.303 1146.69 411.943H1140.92C1140.99 413.488 1141.74 414.313 1143.05 414.313C1144.13 414.313 1144.77 413.803 1145 413.023H1146.65C1146.27 414.643 1144.98 415.633 1143.05 415.633ZM1140.95 410.758H1145C1144.88 409.558 1144.25 408.838 1143.03 408.838C1141.83 408.838 1141.13 409.498 1140.95 410.758Z" fill="black" fill-opacity="0.8"/>
<rect x="218.152" y="499.225" width="156.41" height="90.5529" rx="36.2212" fill="#A29CFF"/>
<path d="M252.061 538.225H250.336V527.575H254.821C256.966 527.575 258.466 528.685 258.466 530.755V530.995C258.466 532.675 257.491 533.71 255.961 534.04L258.691 538.225H256.696L254.116 534.175H252.061V538.225ZM252.061 529.045V532.705H254.686C255.886 532.705 256.681 532.165 256.681 530.995V530.755C256.681 529.585 255.886 529.045 254.686 529.045H252.061ZM262.849 538.42C260.449 538.42 259.024 536.815 259.024 534.475V534.25C259.024 531.91 260.479 530.32 262.849 530.32C265.384 530.32 266.614 532.09 266.494 534.73H260.719C260.794 536.275 261.544 537.1 262.849 537.1C263.929 537.1 264.574 536.59 264.799 535.81H266.449C266.074 537.43 264.784 538.42 262.849 538.42ZM260.749 533.545H264.799C264.679 532.345 264.049 531.625 262.834 531.625C261.634 531.625 260.929 532.285 260.749 533.545ZM270.84 538.42C269.145 538.42 268.305 537.64 268.305 536.14V531.745H266.805V530.5H268.305V528.085H269.955V530.5H272.055V531.745H269.955V535.96C269.955 536.725 270.24 537.07 271.155 537.07C271.485 537.07 271.875 536.995 272.1 536.92V538.24C271.755 538.345 271.23 538.42 270.84 538.42ZM275.813 538.42C274.013 538.42 273.143 537.28 273.143 535.465V530.5H274.808V535.15C274.808 536.335 275.243 537.04 276.353 537.04C277.493 537.04 278.168 536.17 278.168 534.79V530.5H279.833V538.225H278.228L278.198 537.055C277.748 537.805 276.923 538.42 275.813 538.42ZM282.965 538.225H281.315V530.5H282.905L282.95 532C283.37 531.01 284.18 530.35 285.29 530.35C285.41 530.35 285.575 530.365 285.71 530.395V532C285.56 531.985 285.38 531.97 285.2 531.97C283.805 531.97 282.965 532.765 282.965 534.295V538.225ZM288.352 538.225H286.702V530.5H288.292L288.352 531.73C288.757 530.965 289.567 530.32 290.812 530.32C292.687 530.32 293.482 531.49 293.482 533.245V538.225H291.847V533.65C291.847 532.39 291.382 531.685 290.257 531.685C289.117 531.685 288.352 532.525 288.352 533.905V538.225ZM300.909 538.42C299.214 538.42 298.374 537.64 298.374 536.14V531.745H296.874V530.5H298.374V528.085H300.024V530.5H302.124V531.745H300.024V535.96C300.024 536.725 300.309 537.07 301.224 537.07C301.554 537.07 301.944 536.995 302.169 536.92V538.24C301.824 538.345 301.299 538.42 300.909 538.42ZM306.606 538.42C304.296 538.42 302.796 536.83 302.796 534.475V534.25C302.796 531.895 304.296 530.32 306.606 530.32C308.931 530.32 310.431 531.895 310.431 534.25V534.475C310.431 536.83 308.931 538.42 306.606 538.42ZM306.606 537.085C308.016 537.085 308.751 536.14 308.751 534.475V534.25C308.751 532.585 308.016 531.655 306.606 531.655C305.211 531.655 304.476 532.585 304.476 534.25V534.475C304.476 536.14 305.211 537.085 306.606 537.085ZM316.036 538.225H314.311V527.575H318.646C320.791 527.575 322.291 528.685 322.291 530.755V530.995C322.291 533.065 320.791 534.175 318.646 534.175H316.036V538.225ZM316.036 529.045V532.705H318.511C319.711 532.705 320.506 532.165 320.506 530.995V530.755C320.506 529.585 319.711 529.045 318.511 529.045H316.036ZM326.399 538.42C324.089 538.42 322.589 536.83 322.589 534.475V534.25C322.589 531.895 324.089 530.32 326.399 530.32C328.724 530.32 330.224 531.895 330.224 534.25V534.475C330.224 536.83 328.724 538.42 326.399 538.42ZM326.399 537.085C327.809 537.085 328.544 536.14 328.544 534.475V534.25C328.544 532.585 327.809 531.655 326.399 531.655C325.004 531.655 324.269 532.585 324.269 534.25V534.475C324.269 536.14 325.004 537.085 326.399 537.085ZM334.235 538.42C332.24 538.42 330.995 537.475 330.845 535.825H332.435C332.57 536.74 333.23 537.175 334.25 537.175C335.18 537.175 335.81 536.8 335.81 536.11C335.81 535.495 335.375 535.195 333.905 534.925C332.03 534.61 331.115 534.01 331.115 532.63C331.115 531.25 332.36 530.32 334.13 530.32C335.99 530.32 337.145 531.205 337.295 532.735H335.72C335.6 531.955 335 531.535 334.115 531.535C333.26 531.535 332.705 531.91 332.705 532.54C332.705 533.14 333.14 533.425 334.55 533.65C336.5 533.965 337.445 534.61 337.445 535.96C337.445 537.43 336.17 538.42 334.235 538.42ZM341.74 538.42C340.045 538.42 339.205 537.64 339.205 536.14V531.745H337.705V530.5H339.205V528.085H340.855V530.5H342.955V531.745H340.855V535.96C340.855 536.725 341.14 537.07 342.055 537.07C342.385 537.07 342.775 536.995 343 536.92V538.24C342.655 538.345 342.13 538.42 341.74 538.42ZM254.987 561.42C252.437 561.42 250.742 560.13 250.622 557.85H252.362C252.512 559.335 253.592 559.965 255.062 559.965C256.397 559.965 257.357 559.44 257.357 558.375V558.3C257.357 557.385 256.712 556.92 254.552 556.53C251.927 556.065 250.997 555.09 250.997 553.5V553.395C250.997 551.655 252.512 550.38 254.837 550.38C257.072 550.38 258.692 551.49 258.902 553.665H257.147C256.997 552.435 256.127 551.82 254.807 551.82C253.487 551.82 252.707 552.42 252.707 553.35V553.425C252.707 554.25 253.157 554.715 255.272 555.075C257.822 555.51 259.082 556.395 259.082 558.135V558.255C259.082 560.1 257.507 561.42 254.987 561.42ZM263.746 561.42C261.346 561.42 259.921 559.815 259.921 557.475V557.25C259.921 554.91 261.376 553.32 263.746 553.32C266.281 553.32 267.511 555.09 267.391 557.73H261.616C261.691 559.275 262.441 560.1 263.746 560.1C264.826 560.1 265.471 559.59 265.696 558.81H267.346C266.971 560.43 265.681 561.42 263.746 561.42ZM261.646 556.545H265.696C265.576 555.345 264.946 554.625 263.731 554.625C262.531 554.625 261.826 555.285 261.646 556.545ZM271.737 561.42C270.042 561.42 269.202 560.64 269.202 559.14V554.745H267.702V553.5H269.202V551.085H270.852V553.5H272.952V554.745H270.852V558.96C270.852 559.725 271.137 560.07 272.052 560.07C272.382 560.07 272.772 559.995 272.997 559.92V561.24C272.652 561.345 272.127 561.42 271.737 561.42ZM277.446 561.42C275.751 561.42 274.911 560.64 274.911 559.14V554.745H273.411V553.5H274.911V551.085H276.561V553.5H278.661V554.745H276.561V558.96C276.561 559.725 276.846 560.07 277.761 560.07C278.091 560.07 278.481 559.995 278.706 559.92V561.24C278.361 561.345 277.836 561.42 277.446 561.42ZM281.504 550.125V552.375H279.779V550.125H281.504ZM279.809 553.5H281.459V561.225H279.809V553.5ZM284.59 561.225H282.94V553.5H284.53L284.59 554.73C284.995 553.965 285.805 553.32 287.05 553.32C288.925 553.32 289.72 554.49 289.72 556.245V561.225H288.085V556.65C288.085 555.39 287.62 554.685 286.495 554.685C285.355 554.685 284.59 555.525 284.59 556.905V561.225ZM294.544 563.97C292.414 563.97 291.214 563.025 291.049 561.675H292.849C292.939 562.35 293.524 562.725 294.634 562.725C295.909 562.725 296.674 562.095 296.674 560.88V559.74C296.269 560.49 295.399 561.105 294.199 561.105C292.144 561.105 290.854 559.485 290.854 557.355V557.055C290.854 554.91 292.129 553.32 294.154 553.32C295.474 553.32 296.359 554.04 296.749 554.775L296.794 553.5H298.324V560.73C298.324 562.725 296.989 563.97 294.544 563.97ZM294.604 559.785C295.969 559.785 296.734 558.825 296.734 557.355V557.055C296.734 555.555 295.984 554.625 294.604 554.625C293.269 554.625 292.534 555.555 292.534 557.055V557.355C292.534 558.825 293.284 559.785 294.604 559.785ZM302.823 561.42C300.828 561.42 299.583 560.475 299.433 558.825H301.023C301.158 559.74 301.818 560.175 302.838 560.175C303.768 560.175 304.398 559.8 304.398 559.11C304.398 558.495 303.963 558.195 302.493 557.925C300.618 557.61 299.703 557.01 299.703 555.63C299.703 554.25 300.948 553.32 302.718 553.32C304.578 553.32 305.733 554.205 305.883 555.735H304.308C304.188 554.955 303.588 554.535 302.703 554.535C301.848 554.535 301.293 554.91 301.293 555.54C301.293 556.14 301.728 556.425 303.138 556.65C305.088 556.965 306.033 557.61 306.033 558.96C306.033 560.43 304.758 561.42 302.823 561.42ZM311.59 561.225H309.865V550.575H314.2C316.345 550.575 317.845 551.685 317.845 553.755V553.995C317.845 556.065 316.345 557.175 314.2 557.175H311.59V561.225ZM311.59 552.045V555.705H314.065C315.265 555.705 316.06 555.165 316.06 553.995V553.755C316.06 552.585 315.265 552.045 314.065 552.045H311.59ZM320.664 561.42C319.074 561.42 318.069 560.46 318.069 559.14C318.069 557.91 318.819 557.1 320.139 556.92L323.184 556.47V555.915C323.184 555.06 322.599 554.61 321.624 554.61C320.664 554.61 320.019 555.045 319.944 555.825H318.369C318.504 554.235 319.764 553.32 321.654 553.32C323.649 553.32 324.774 554.37 324.774 555.975V561.225H323.259L323.199 560.025C322.719 560.895 321.774 561.42 320.664 561.42ZM321.039 560.115C322.194 560.115 323.184 559.395 323.184 558.39V557.685L320.709 558.03C320.004 558.135 319.674 558.465 319.674 559.065C319.674 559.71 320.169 560.115 321.039 560.115ZM329.608 563.97C327.478 563.97 326.278 563.025 326.113 561.675H327.913C328.003 562.35 328.588 562.725 329.698 562.725C330.973 562.725 331.738 562.095 331.738 560.88V559.74C331.333 560.49 330.463 561.105 329.263 561.105C327.208 561.105 325.918 559.485 325.918 557.355V557.055C325.918 554.91 327.193 553.32 329.218 553.32C330.538 553.32 331.423 554.04 331.813 554.775L331.858 553.5H333.388V560.73C333.388 562.725 332.053 563.97 329.608 563.97ZM329.668 559.785C331.033 559.785 331.798 558.825 331.798 557.355V557.055C331.798 555.555 331.048 554.625 329.668 554.625C328.333 554.625 327.598 555.555 327.598 557.055V557.355C327.598 558.825 328.348 559.785 329.668 559.785ZM338.396 561.42C335.996 561.42 334.571 559.815 334.571 557.475V557.25C334.571 554.91 336.026 553.32 338.396 553.32C340.931 553.32 342.161 555.09 342.041 557.73H336.266C336.341 559.275 337.091 560.1 338.396 560.1C339.476 560.1 340.121 559.59 340.346 558.81H341.996C341.621 560.43 340.331 561.42 338.396 561.42ZM336.296 556.545H340.346C340.226 555.345 339.596 554.625 338.381 554.625C337.181 554.625 336.476 555.285 336.296 556.545Z" fill="black" fill-opacity="0.8"/>
<rect x="426.008" y="499.225" width="156.41" height="90.5529" rx="36.2212" fill="#A29CFF"/>
<path d="M466.77 549.725H465.015V540.53H461.88V539.075H469.92V540.53H466.77V549.725ZM472.916 552.275H471.221L472.211 549.68L469.241 542H470.996L473.081 547.865L475.091 542H476.786L472.916 552.275ZM479.282 552.275H477.617V542H479.162L479.207 543.275C479.582 542.54 480.482 541.82 481.802 541.82C483.827 541.82 485.102 543.44 485.102 545.75V545.975C485.102 548.285 483.797 549.92 481.757 549.92C480.557 549.92 479.702 549.29 479.282 548.555V552.275ZM481.352 548.585C482.672 548.585 483.422 547.64 483.422 545.975V545.75C483.422 544.085 482.672 543.125 481.352 543.125C479.972 543.125 479.222 544.085 479.222 545.75V545.975C479.222 547.64 479.972 548.585 481.352 548.585ZM489.81 549.92C487.41 549.92 485.985 548.315 485.985 545.975V545.75C485.985 543.41 487.44 541.82 489.81 541.82C492.345 541.82 493.575 543.59 493.455 546.23H487.68C487.755 547.775 488.505 548.6 489.81 548.6C490.89 548.6 491.535 548.09 491.76 547.31H493.41C493.035 548.93 491.745 549.92 489.81 549.92ZM487.71 545.045H491.76C491.64 543.845 491.01 543.125 489.795 543.125C488.595 543.125 487.89 543.785 487.71 545.045ZM506.698 549.725H504.853L503.908 547.13H499.333L498.373 549.725H496.603L500.698 539.075H502.603L506.698 549.725ZM501.628 540.935L499.873 545.675H503.368L501.628 540.935ZM507.542 538.625H509.192V549.725H507.542V538.625ZM514.078 549.92C512.383 549.92 511.543 549.14 511.543 547.64V543.245H510.043V542H511.543V539.585H513.193V542H515.293V543.245H513.193V547.46C513.193 548.225 513.478 548.57 514.393 548.57C514.723 548.57 515.113 548.495 515.338 548.42V549.74C514.993 549.845 514.468 549.92 514.078 549.92ZM523.439 549.725H521.684V540.53H518.549V539.075H526.589V540.53H523.439V549.725ZM529.787 549.92C527.387 549.92 525.962 548.315 525.962 545.975V545.75C525.962 543.41 527.417 541.82 529.787 541.82C532.322 541.82 533.552 543.59 533.432 546.23H527.657C527.732 547.775 528.482 548.6 529.787 548.6C530.867 548.6 531.512 548.09 531.737 547.31H533.387C533.012 548.93 531.722 549.92 529.787 549.92ZM527.687 545.045H531.737C531.617 543.845 530.987 543.125 529.772 543.125C528.572 543.125 527.867 543.785 527.687 545.045ZM535.236 549.725H533.436L536.226 545.765L533.571 542H535.476L537.231 544.58L539.001 542H540.801L538.146 545.72L540.966 549.725H539.061L537.126 546.905L535.236 549.725ZM545.157 549.92C543.462 549.92 542.622 549.14 542.622 547.64V543.245H541.122V542H542.622V539.585H544.272V542H546.372V543.245H544.272V547.46C544.272 548.225 544.557 548.57 545.472 548.57C545.802 548.57 546.192 548.495 546.417 548.42V549.74C546.072 549.845 545.547 549.92 545.157 549.92Z" fill="black" fill-opacity="0.8"/>
<rect x="633.869" y="499.225" width="156.41" height="90.5529" rx="36.2212" fill="#A29CFF"/>
<path d="M669.342 538.42C666.327 538.42 664.362 536.245 664.362 533.08V532.72C664.362 529.585 666.342 527.38 669.357 527.38C671.922 527.38 673.647 529 673.857 531.445H672.087C671.877 529.84 670.857 528.88 669.342 528.88C667.347 528.88 666.162 530.455 666.162 532.72V533.08C666.162 535.345 667.362 536.905 669.342 536.905C670.962 536.905 671.997 535.825 672.072 534.205H673.857C673.692 536.635 671.997 538.42 669.342 538.42ZM674.955 527.125H676.605V538.225H674.955V527.125ZM679.781 527.125V529.375H678.056V527.125H679.781ZM678.086 530.5H679.736V538.225H678.086V530.5ZM684.637 538.42C682.297 538.42 680.917 536.815 680.917 534.475V534.25C680.917 531.91 682.297 530.32 684.652 530.32C686.587 530.32 687.862 531.46 688.072 533.245H686.452C686.287 532.27 685.717 531.655 684.622 531.655C683.287 531.655 682.597 532.585 682.597 534.25V534.475C682.597 536.14 683.287 537.085 684.622 537.085C685.717 537.085 686.302 536.44 686.467 535.465H688.102C687.847 537.28 686.572 538.42 684.637 538.42ZM691.597 534.61L690.832 535.375V538.225H689.182V527.125H690.832V533.59L693.862 530.5H695.857L692.782 533.59L695.962 538.225H694.072L691.597 534.61ZM704.216 538.225H701.351L698.606 527.575H701.231L702.866 535.045L704.741 527.575H707.336L709.166 535.105L710.831 527.575H713.306L710.531 538.225H707.756L705.986 531.04L704.216 538.225ZM715.986 538.225H713.586V530.47H715.881L715.926 531.985C716.286 531.085 717.021 530.335 718.191 530.335C718.356 530.335 718.536 530.35 718.671 530.38V532.675C718.506 532.66 718.266 532.645 718.041 532.645C716.646 532.645 715.986 533.335 715.986 534.61V538.225ZM721.946 527.125V529.54H719.456V527.125H721.946ZM719.501 530.47H721.901V538.225H719.501V530.47ZM726.879 538.42C724.914 538.42 724.014 537.55 724.014 535.885V532.195H722.604V530.47H724.014V527.995H726.414V530.47H728.364V532.195H726.414V535.72C726.414 536.335 726.714 536.59 727.464 536.59C727.824 536.59 728.124 536.515 728.394 536.44V538.225C727.989 538.345 727.389 538.42 726.879 538.42ZM732.986 538.42C730.451 538.42 728.891 536.845 728.891 534.415V534.265C728.891 531.88 730.496 530.275 732.986 530.275C735.686 530.275 737.036 532.165 736.871 534.895H731.276C731.381 536.08 731.936 536.65 732.971 536.65C733.826 536.65 734.306 536.23 734.471 535.735H736.826C736.451 537.37 735.056 538.42 732.986 538.42ZM731.306 533.5H734.456C734.396 532.615 733.916 532.045 732.956 532.045C731.996 532.045 731.471 532.495 731.306 533.5ZM750.515 538.225H747.86L747.125 536.11H743.045L742.31 538.225H739.745L743.75 527.575H746.51L750.515 538.225ZM745.085 530.2L743.735 534.13H746.45L745.085 530.2ZM751.166 527.125H753.566V538.225H751.166V527.125ZM758.574 538.42C756.609 538.42 755.709 537.55 755.709 535.885V532.195H754.299V530.47H755.709V527.995H758.109V530.47H760.059V532.195H758.109V535.72C758.109 536.335 758.409 536.59 759.159 536.59C759.519 536.59 759.819 536.515 760.089 536.44V538.225C759.684 538.345 759.084 538.42 758.574 538.42ZM677.74 561.225H675.205V552.63H672.265V550.575H680.665V552.63H677.74V561.225ZM684.21 561.42C681.675 561.42 680.115 559.845 680.115 557.415V557.265C680.115 554.88 681.72 553.275 684.21 553.275C686.91 553.275 688.26 555.165 688.095 557.895H682.5C682.605 559.08 683.16 559.65 684.195 559.65C685.05 559.65 685.53 559.23 685.695 558.735H688.05C687.675 560.37 686.28 561.42 684.21 561.42ZM682.53 556.5H685.68C685.62 555.615 685.14 555.045 684.18 555.045C683.22 555.045 682.695 555.495 682.53 556.5ZM690.373 561.225H687.823L690.583 557.25L687.958 553.47H690.673L692.038 555.585L693.418 553.47H695.968L693.358 557.22L696.133 561.225H693.418L691.903 558.885L690.373 561.225ZM700.46 561.42C698.495 561.42 697.595 560.55 697.595 558.885V555.195H696.185V553.47H697.595V550.995H699.995V553.47H701.945V555.195H699.995V558.72C699.995 559.335 700.295 559.59 701.045 559.59C701.405 559.59 701.705 559.515 701.975 559.44V561.225C701.57 561.345 700.97 561.42 700.46 561.42ZM710.054 561.42C708.809 561.42 707.999 560.7 707.684 559.98L707.609 561.225H705.374V550.125H707.789V554.49C708.224 553.8 709.019 553.275 710.129 553.275C712.214 553.275 713.444 555 713.444 557.265V557.415C713.444 559.725 712.154 561.42 710.054 561.42ZM709.364 559.605C710.474 559.605 711.014 558.84 711.014 557.415V557.265C711.014 555.825 710.474 555.075 709.364 555.075C708.254 555.075 707.714 555.825 707.714 557.265V557.415C707.714 558.84 708.254 559.605 709.364 559.605ZM717.048 561.42C715.188 561.42 714.348 560.25 714.348 558.405V553.47H716.763V557.94C716.763 558.975 717.138 559.5 717.948 559.5C718.788 559.5 719.343 558.9 719.343 557.685V553.47H721.758V561.225H719.448L719.388 560.115C718.968 560.775 718.173 561.42 717.048 561.42ZM726.738 561.42C724.773 561.42 723.873 560.55 723.873 558.885V555.195H722.463V553.47H723.873V550.995H726.273V553.47H728.223V555.195H726.273V558.72C726.273 559.335 726.573 559.59 727.323 559.59C727.683 559.59 727.983 559.515 728.253 559.44V561.225C727.848 561.345 727.248 561.42 726.738 561.42ZM732.931 561.42C730.966 561.42 730.066 560.55 730.066 558.885V555.195H728.656V553.47H730.066V550.995H732.466V553.47H734.416V555.195H732.466V558.72C732.466 559.335 732.766 559.59 733.516 559.59C733.876 559.59 734.176 559.515 734.446 559.44V561.225C734.041 561.345 733.441 561.42 732.931 561.42ZM739.008 561.42C736.563 561.42 734.943 559.77 734.943 557.415V557.265C734.943 554.925 736.563 553.275 739.008 553.275C741.468 553.275 743.073 554.925 743.073 557.265V557.415C743.073 559.77 741.468 561.42 739.008 561.42ZM739.008 559.59C740.148 559.59 740.643 558.84 740.643 557.415V557.265C740.643 555.855 740.148 555.105 739.008 555.105C737.883 555.105 737.373 555.855 737.373 557.265V557.415C737.373 558.84 737.883 559.59 739.008 559.59ZM746.471 561.225H744.071V553.47H746.366L746.426 554.655C746.801 553.965 747.566 553.275 748.871 553.275C750.836 553.275 751.571 554.52 751.571 556.245V561.225H749.171V556.86C749.171 555.81 748.841 555.195 747.926 555.195C747.056 555.195 746.471 555.825 746.471 556.965V561.225Z" fill="black" fill-opacity="0.8"/>
<rect x="841.729" y="499.225" width="156.41" height="90.5529" rx="36.2212" fill="#A29CFF"/>
<path d="M896.701 538.225H894.856L893.911 535.63H889.336L888.376 538.225H886.606L890.701 527.575H892.606L896.701 538.225ZM891.631 529.435L889.876 534.175H893.371L891.631 529.435ZM900.326 538.42C898.301 538.42 896.996 536.785 896.996 534.475V534.25C896.996 531.955 898.256 530.32 900.296 530.32C901.526 530.32 902.366 530.905 902.816 531.625V527.125H904.466V538.225H902.936L902.891 536.935C902.516 537.67 901.646 538.42 900.326 538.42ZM900.746 537.085C902.126 537.085 902.876 536.14 902.876 534.475V534.25C902.876 532.585 902.111 531.625 900.746 531.625C899.426 531.625 898.676 532.585 898.676 534.25V534.475C898.676 536.125 899.411 537.085 900.746 537.085ZM909.999 538.225H908.169L905.304 530.5H907.044L909.114 536.545L911.154 530.5H912.849L909.999 538.225ZM915.563 538.42C913.973 538.42 912.968 537.46 912.968 536.14C912.968 534.91 913.718 534.1 915.038 533.92L918.083 533.47V532.915C918.083 532.06 917.498 531.61 916.523 531.61C915.563 531.61 914.918 532.045 914.843 532.825H913.268C913.403 531.235 914.663 530.32 916.553 530.32C918.548 530.32 919.673 531.37 919.673 532.975V538.225H918.158L918.098 537.025C917.618 537.895 916.673 538.42 915.563 538.42ZM915.938 537.115C917.093 537.115 918.083 536.395 918.083 535.39V534.685L915.608 535.03C914.903 535.135 914.573 535.465 914.573 536.065C914.573 536.71 915.068 537.115 915.938 537.115ZM922.767 538.225H921.117V530.5H922.707L922.767 531.73C923.172 530.965 923.982 530.32 925.227 530.32C927.102 530.32 927.897 531.49 927.897 533.245V538.225H926.262V533.65C926.262 532.39 925.797 531.685 924.672 531.685C923.532 531.685 922.767 532.525 922.767 533.905V538.225ZM932.751 538.42C930.411 538.42 929.031 536.815 929.031 534.475V534.25C929.031 531.91 930.411 530.32 932.766 530.32C934.701 530.32 935.976 531.46 936.186 533.245H934.566C934.401 532.27 933.831 531.655 932.736 531.655C931.401 531.655 930.711 532.585 930.711 534.25V534.475C930.711 536.14 931.401 537.085 932.736 537.085C933.831 537.085 934.416 536.44 934.581 535.465H936.216C935.961 537.28 934.686 538.42 932.751 538.42ZM940.792 538.42C938.392 538.42 936.967 536.815 936.967 534.475V534.25C936.967 531.91 938.422 530.32 940.792 530.32C943.327 530.32 944.557 532.09 944.437 534.73H938.662C938.737 536.275 939.487 537.1 940.792 537.1C941.872 537.1 942.517 536.59 942.742 535.81H944.392C944.017 537.43 942.727 538.42 940.792 538.42ZM938.692 533.545H942.742C942.622 532.345 941.992 531.625 940.777 531.625C939.577 531.625 938.872 532.285 938.692 533.545ZM948.642 538.42C946.617 538.42 945.312 536.785 945.312 534.475V534.25C945.312 531.955 946.572 530.32 948.612 530.32C949.842 530.32 950.682 530.905 951.132 531.625V527.125H952.782V538.225H951.252L951.207 536.935C950.832 537.67 949.962 538.42 948.642 538.42ZM949.062 537.085C950.442 537.085 951.192 536.14 951.192 534.475V534.25C951.192 532.585 950.427 531.625 949.062 531.625C947.742 531.625 946.992 532.585 946.992 534.25V534.475C946.992 536.125 947.727 537.085 949.062 537.085ZM896.586 561.42C894.036 561.42 892.341 560.13 892.221 557.85H893.961C894.111 559.335 895.191 559.965 896.661 559.965C897.996 559.965 898.956 559.44 898.956 558.375V558.3C898.956 557.385 898.311 556.92 896.151 556.53C893.526 556.065 892.596 555.09 892.596 553.5V553.395C892.596 551.655 894.111 550.38 896.436 550.38C898.671 550.38 900.291 551.49 900.501 553.665H898.746C898.596 552.435 897.726 551.82 896.406 551.82C895.086 551.82 894.306 552.42 894.306 553.35V553.425C894.306 554.25 894.756 554.715 896.871 555.075C899.421 555.51 900.681 556.395 900.681 558.135V558.255C900.681 560.1 899.106 561.42 896.586 561.42ZM905.345 561.42C902.945 561.42 901.52 559.815 901.52 557.475V557.25C901.52 554.91 902.975 553.32 905.345 553.32C907.88 553.32 909.11 555.09 908.99 557.73H903.215C903.29 559.275 904.04 560.1 905.345 560.1C906.425 560.1 907.07 559.59 907.295 558.81H908.945C908.57 560.43 907.28 561.42 905.345 561.42ZM903.245 556.545H907.295C907.175 555.345 906.545 554.625 905.33 554.625C904.13 554.625 903.425 555.285 903.245 556.545ZM913.336 561.42C911.641 561.42 910.801 560.64 910.801 559.14V554.745H909.301V553.5H910.801V551.085H912.451V553.5H914.551V554.745H912.451V558.96C912.451 559.725 912.736 560.07 913.651 560.07C913.981 560.07 914.371 559.995 914.596 559.92V561.24C914.251 561.345 913.726 561.42 913.336 561.42ZM919.045 561.42C917.35 561.42 916.51 560.64 916.51 559.14V554.745H915.01V553.5H916.51V551.085H918.16V553.5H920.26V554.745H918.16V558.96C918.16 559.725 918.445 560.07 919.36 560.07C919.69 560.07 920.08 559.995 920.305 559.92V561.24C919.96 561.345 919.435 561.42 919.045 561.42ZM923.103 550.125V552.375H921.378V550.125H923.103ZM921.408 553.5H923.058V561.225H921.408V553.5ZM926.189 561.225H924.539V553.5H926.129L926.189 554.73C926.594 553.965 927.404 553.32 928.649 553.32C930.524 553.32 931.319 554.49 931.319 556.245V561.225H929.684V556.65C929.684 555.39 929.219 554.685 928.094 554.685C926.954 554.685 926.189 555.525 926.189 556.905V561.225ZM936.143 563.97C934.013 563.97 932.813 563.025 932.648 561.675H934.448C934.538 562.35 935.123 562.725 936.233 562.725C937.508 562.725 938.273 562.095 938.273 560.88V559.74C937.868 560.49 936.998 561.105 935.798 561.105C933.743 561.105 932.453 559.485 932.453 557.355V557.055C932.453 554.91 933.728 553.32 935.753 553.32C937.073 553.32 937.958 554.04 938.348 554.775L938.393 553.5H939.923V560.73C939.923 562.725 938.588 563.97 936.143 563.97ZM936.203 559.785C937.568 559.785 938.333 558.825 938.333 557.355V557.055C938.333 555.555 937.583 554.625 936.203 554.625C934.868 554.625 934.133 555.555 934.133 557.055V557.355C934.133 558.825 934.883 559.785 936.203 559.785ZM944.421 561.42C942.426 561.42 941.181 560.475 941.031 558.825H942.621C942.756 559.74 943.416 560.175 944.436 560.175C945.366 560.175 945.996 559.8 945.996 559.11C945.996 558.495 945.561 558.195 944.091 557.925C942.216 557.61 941.301 557.01 941.301 555.63C941.301 554.25 942.546 553.32 944.316 553.32C946.176 553.32 947.331 554.205 947.481 555.735H945.906C945.786 554.955 945.186 554.535 944.301 554.535C943.446 554.535 942.891 554.91 942.891 555.54C942.891 556.14 943.326 556.425 944.736 556.65C946.686 556.965 947.631 557.61 947.631 558.96C947.631 560.43 946.356 561.42 944.421 561.42Z" fill="black" fill-opacity="0.8"/>
<circle cx="45.2764" cy="141.644" r="45.2764" fill="#EE7152"/>
<path d="M33.0423 147.062C30.4923 147.062 28.7973 145.772 28.6773 143.492H30.4173C30.5673 144.977 31.6473 145.607 33.1173 145.607C34.4523 145.607 35.4123 145.082 35.4123 144.017V143.942C35.4123 143.027 34.7673 142.562 32.6073 142.172C29.9823 141.707 29.0523 140.732 29.0523 139.142V139.037C29.0523 137.297 30.5673 136.022 32.8923 136.022C35.1273 136.022 36.7473 137.132 36.9573 139.307H35.2023C35.0523 138.077 34.1823 137.462 32.8623 137.462C31.5423 137.462 30.7623 138.062 30.7623 138.992V139.067C30.7623 139.892 31.2123 140.357 33.3273 140.717C35.8773 141.152 37.1373 142.037 37.1373 143.777V143.897C37.1373 145.742 35.5623 147.062 33.0423 147.062ZM41.4465 147.062C39.7515 147.062 38.9115 146.282 38.9115 144.782V140.387H37.4115V139.142H38.9115V136.727H40.5615V139.142H42.6615V140.387H40.5615V144.602C40.5615 145.367 40.8465 145.712 41.7615 145.712C42.0915 145.712 42.4815 145.637 42.7065 145.562V146.882C42.3615 146.987 41.8365 147.062 41.4465 147.062ZM46.0306 147.062C44.4406 147.062 43.4356 146.102 43.4356 144.782C43.4356 143.552 44.1856 142.742 45.5056 142.562L48.5506 142.112V141.557C48.5506 140.702 47.9656 140.252 46.9906 140.252C46.0306 140.252 45.3856 140.687 45.3106 141.467H43.7356C43.8706 139.877 45.1306 138.962 47.0206 138.962C49.0156 138.962 50.1406 140.012 50.1406 141.617V146.867H48.6256L48.5656 145.667C48.0856 146.537 47.1406 147.062 46.0306 147.062ZM46.4056 145.757C47.5606 145.757 48.5506 145.037 48.5506 144.032V143.327L46.0756 143.672C45.3706 143.777 45.0406 144.107 45.0406 144.707C45.0406 145.352 45.5356 145.757 46.4056 145.757ZM53.2343 146.867H51.5843V139.142H53.1743L53.2193 140.642C53.6393 139.652 54.4493 138.992 55.5593 138.992C55.6793 138.992 55.8443 139.007 55.9793 139.037V140.642C55.8293 140.627 55.6493 140.612 55.4693 140.612C54.0743 140.612 53.2343 141.407 53.2343 142.937V146.867ZM60.639 147.062C58.944 147.062 58.104 146.282 58.104 144.782V140.387H56.604V139.142H58.104V136.727H59.754V139.142H61.854V140.387H59.754V144.602C59.754 145.367 60.039 145.712 60.954 145.712C61.284 145.712 61.674 145.637 61.899 145.562V146.882C61.554 146.987 61.029 147.062 60.639 147.062Z" fill="black" fill-opacity="0.8"/>
<path d="M183.036 98.1245C185.379 95.7814 189.178 95.7814 191.521 98.1245L230.797 137.401C233.141 139.744 233.141 143.543 230.797 145.886L191.521 185.163C189.178 187.506 185.379 187.506 183.036 185.163L143.759 145.886C141.416 143.543 141.416 139.744 143.759 137.401L183.036 98.1245Z" fill="#22C182"/>
<path d="M173.175 137.484C171.474 137.484 170.592 136.548 170.592 134.928V130.977H171.645V134.901C171.645 135.999 172.149 136.566 173.175 136.566C174.192 136.566 174.714 135.999 174.714 134.892V130.977H175.758V134.919C175.758 136.53 174.885 137.484 173.175 137.484ZM177.67 138.897H176.671V132.732H177.598L177.625 133.497C177.85 133.056 178.39 132.624 179.182 132.624C180.397 132.624 181.162 133.596 181.162 134.982V135.117C181.162 136.503 180.379 137.484 179.155 137.484C178.435 137.484 177.922 137.106 177.67 136.665V138.897ZM178.912 136.683C179.704 136.683 180.154 136.116 180.154 135.117V134.982C180.154 133.983 179.704 133.407 178.912 133.407C178.084 133.407 177.634 133.983 177.634 134.982V135.117C177.634 136.116 178.084 136.683 178.912 136.683ZM181.872 130.707H182.862V137.367H181.872V130.707ZM185.857 137.484C184.471 137.484 183.571 136.53 183.571 135.117V134.982C183.571 133.569 184.471 132.624 185.857 132.624C187.252 132.624 188.152 133.569 188.152 134.982V135.117C188.152 136.53 187.252 137.484 185.857 137.484ZM185.857 136.683C186.703 136.683 187.144 136.116 187.144 135.117V134.982C187.144 133.983 186.703 133.425 185.857 133.425C185.02 133.425 184.579 133.983 184.579 134.982V135.117C184.579 136.116 185.02 136.683 185.857 136.683ZM190.196 137.484C189.242 137.484 188.639 136.908 188.639 136.116C188.639 135.378 189.089 134.892 189.881 134.784L191.708 134.514V134.181C191.708 133.668 191.357 133.398 190.772 133.398C190.196 133.398 189.809 133.659 189.764 134.127H188.819C188.9 133.173 189.656 132.624 190.79 132.624C191.987 132.624 192.662 133.254 192.662 134.217V137.367H191.753L191.717 136.647C191.429 137.169 190.862 137.484 190.196 137.484ZM190.421 136.701C191.114 136.701 191.708 136.269 191.708 135.666V135.243L190.223 135.45C189.8 135.513 189.602 135.711 189.602 136.071C189.602 136.458 189.899 136.701 190.421 136.701ZM195.346 137.484C194.131 137.484 193.348 136.503 193.348 135.117V134.982C193.348 133.605 194.104 132.624 195.328 132.624C196.066 132.624 196.57 132.975 196.84 133.407V130.707H197.83V137.367H196.912L196.885 136.593C196.66 137.034 196.138 137.484 195.346 137.484ZM195.598 136.683C196.426 136.683 196.876 136.116 196.876 135.117V134.982C196.876 133.983 196.417 133.407 195.598 133.407C194.806 133.407 194.356 133.983 194.356 134.982V135.117C194.356 136.107 194.797 136.683 195.598 136.683ZM201.641 137.484C200.687 137.484 200.084 136.908 200.084 136.116C200.084 135.378 200.534 134.892 201.326 134.784L203.153 134.514V134.181C203.153 133.668 202.802 133.398 202.217 133.398C201.641 133.398 201.254 133.659 201.209 134.127H200.264C200.345 133.173 201.101 132.624 202.235 132.624C203.432 132.624 204.107 133.254 204.107 134.217V137.367H203.198L203.162 136.647C202.874 137.169 202.307 137.484 201.641 137.484ZM201.866 136.701C202.559 136.701 203.153 136.269 203.153 135.666V135.243L201.668 135.45C201.245 135.513 201.047 135.711 201.047 136.071C201.047 136.458 201.344 136.701 201.866 136.701ZM174.76 152.897H173.761V146.732H174.688L174.715 147.497C174.94 147.056 175.48 146.624 176.272 146.624C177.487 146.624 178.252 147.596 178.252 148.982V149.117C178.252 150.503 177.469 151.484 176.245 151.484C175.525 151.484 175.012 151.106 174.76 150.665V152.897ZM176.002 150.683C176.794 150.683 177.244 150.116 177.244 149.117V148.982C177.244 147.983 176.794 147.407 176.002 147.407C175.174 147.407 174.724 147.983 174.724 148.982V149.117C174.724 150.116 175.174 150.683 176.002 150.683ZM179.952 151.367H178.962V144.707H179.961V147.443C180.213 146.984 180.69 146.624 181.428 146.624C182.553 146.624 183.03 147.326 183.03 148.379V151.367H182.049V148.622C182.049 147.866 181.77 147.443 181.095 147.443C180.411 147.443 179.952 147.947 179.952 148.775V151.367ZM185.996 151.484C184.61 151.484 183.71 150.53 183.71 149.117V148.982C183.71 147.569 184.61 146.624 185.996 146.624C187.391 146.624 188.291 147.569 188.291 148.982V149.117C188.291 150.53 187.391 151.484 185.996 151.484ZM185.996 150.683C186.842 150.683 187.283 150.116 187.283 149.117V148.982C187.283 147.983 186.842 147.425 185.996 147.425C185.159 147.425 184.718 147.983 184.718 148.982V149.117C184.718 150.116 185.159 150.683 185.996 150.683ZM190.905 151.484C189.888 151.484 189.384 151.016 189.384 150.116V147.479H188.484V146.732H189.384V145.283H190.374V146.732H191.634V147.479H190.374V150.008C190.374 150.467 190.545 150.674 191.094 150.674C191.292 150.674 191.526 150.629 191.661 150.584V151.376C191.454 151.439 191.139 151.484 190.905 151.484ZM194.324 151.484C192.938 151.484 192.038 150.53 192.038 149.117V148.982C192.038 147.569 192.938 146.624 194.324 146.624C195.719 146.624 196.619 147.569 196.619 148.982V149.117C196.619 150.53 195.719 151.484 194.324 151.484ZM194.324 150.683C195.17 150.683 195.611 150.116 195.611 149.117V148.982C195.611 147.983 195.17 147.425 194.324 147.425C193.487 147.425 193.046 147.983 193.046 148.982V149.117C193.046 150.116 193.487 150.683 194.324 150.683ZM199.185 149.567H198.132V149.414C198.132 147.839 200.049 147.848 200.049 146.741V146.651C200.049 146.084 199.617 145.715 198.96 145.715C198.24 145.715 197.763 146.102 197.673 146.867H196.629C196.755 145.535 197.718 144.86 198.951 144.86C200.238 144.86 201.102 145.625 201.102 146.642V146.705C201.102 148.361 199.185 148.208 199.185 149.486V149.567ZM199.203 151.367H198.123V150.242H199.203V151.367Z" fill="black" fill-opacity="0.8"/>
<rect x="284.008" y="96.3672" width="156.41" height="90.5529" rx="36.2212" fill="#A29CFF"/>
<path d="M321.374 147.062C318.359 147.062 316.394 144.887 316.394 141.722V141.362C316.394 138.227 318.374 136.022 321.389 136.022C323.954 136.022 325.679 137.642 325.889 140.087H324.119C323.909 138.482 322.889 137.522 321.374 137.522C319.379 137.522 318.194 139.097 318.194 141.362V141.722C318.194 143.987 319.394 145.547 321.374 145.547C322.994 145.547 324.029 144.467 324.104 142.847H325.889C325.724 145.277 324.029 147.062 321.374 147.062ZM326.987 135.767H328.637V146.867H326.987V135.767ZM331.813 135.767V138.017H330.088V135.767H331.813ZM330.118 139.142H331.768V146.867H330.118V139.142ZM336.669 147.062C334.329 147.062 332.949 145.457 332.949 143.117V142.892C332.949 140.552 334.329 138.962 336.684 138.962C338.619 138.962 339.894 140.102 340.104 141.887H338.484C338.319 140.912 337.749 140.297 336.654 140.297C335.319 140.297 334.629 141.227 334.629 142.892V143.117C334.629 144.782 335.319 145.727 336.654 145.727C337.749 145.727 338.334 145.082 338.499 144.107H340.134C339.879 145.922 338.604 147.062 336.669 147.062ZM343.629 143.252L342.864 144.017V146.867H341.214V135.767H342.864V142.232L345.894 139.142H347.889L344.814 142.232L347.994 146.867H346.104L343.629 143.252ZM355.618 145.307H353.683V142.382H350.953V140.507H353.683V137.582H355.618V140.507H358.348V142.382H355.618V145.307ZM366.427 147.062C365.182 147.062 364.372 146.342 364.057 145.622L363.982 146.867H361.747V135.767H364.162V140.132C364.597 139.442 365.392 138.917 366.502 138.917C368.587 138.917 369.817 140.642 369.817 142.907V143.057C369.817 145.367 368.527 147.062 366.427 147.062ZM365.737 145.247C366.847 145.247 367.387 144.482 367.387 143.057V142.907C367.387 141.467 366.847 140.717 365.737 140.717C364.627 140.717 364.087 141.467 364.087 142.907V143.057C364.087 144.482 364.627 145.247 365.737 145.247ZM373.421 147.062C371.561 147.062 370.721 145.892 370.721 144.047V139.112H373.136V143.582C373.136 144.617 373.511 145.142 374.321 145.142C375.161 145.142 375.716 144.542 375.716 143.327V139.112H378.131V146.867H375.821L375.761 145.757C375.341 146.417 374.546 147.062 373.421 147.062ZM383.111 147.062C381.146 147.062 380.246 146.192 380.246 144.527V140.837H378.836V139.112H380.246V136.637H382.646V139.112H384.596V140.837H382.646V144.362C382.646 144.977 382.946 145.232 383.696 145.232C384.056 145.232 384.356 145.157 384.626 145.082V146.867C384.221 146.987 383.621 147.062 383.111 147.062ZM389.304 147.062C387.339 147.062 386.439 146.192 386.439 144.527V140.837H385.029V139.112H386.439V136.637H388.839V139.112H390.789V140.837H388.839V144.362C388.839 144.977 389.139 145.232 389.889 145.232C390.249 145.232 390.549 145.157 390.819 145.082V146.867C390.414 146.987 389.814 147.062 389.304 147.062ZM395.381 147.062C392.936 147.062 391.316 145.412 391.316 143.057V142.907C391.316 140.567 392.936 138.917 395.381 138.917C397.841 138.917 399.446 140.567 399.446 142.907V143.057C399.446 145.412 397.841 147.062 395.381 147.062ZM395.381 145.232C396.521 145.232 397.016 144.482 397.016 143.057V142.907C397.016 141.497 396.521 140.747 395.381 140.747C394.256 140.747 393.746 141.497 393.746 142.907V143.057C393.746 144.482 394.256 145.232 395.381 145.232ZM402.844 146.867H400.444V139.112H402.739L402.799 140.297C403.174 139.607 403.939 138.917 405.244 138.917C407.209 138.917 407.944 140.162 407.944 141.887V146.867H405.544V142.502C405.544 141.452 405.214 140.837 404.299 140.837C403.429 140.837 402.844 141.467 402.844 142.607V146.867Z" fill="black" fill-opacity="0.8"/>
<rect x="491.867" y="96.3672" width="156.41" height="90.5529" rx="36.2212" fill="#A29CFF"/>
<path d="M521.273 135.367H519.548V124.717H523.883C526.028 124.717 527.528 125.827 527.528 127.897V128.137C527.528 130.207 526.028 131.317 523.883 131.317H521.273V135.367ZM521.273 126.187V129.847H523.748C524.948 129.847 525.743 129.307 525.743 128.137V127.897C525.743 126.727 524.948 126.187 523.748 126.187H521.273ZM530.231 135.367H528.581V124.267H530.246V128.827C530.666 128.062 531.461 127.462 532.691 127.462C534.566 127.462 535.361 128.632 535.361 130.387V135.367H533.726V130.792C533.726 129.532 533.261 128.827 532.136 128.827C530.996 128.827 530.231 129.667 530.231 131.047V135.367ZM540.305 135.562C537.995 135.562 536.495 133.972 536.495 131.617V131.392C536.495 129.037 537.995 127.462 540.305 127.462C542.63 127.462 544.13 129.037 544.13 131.392V131.617C544.13 133.972 542.63 135.562 540.305 135.562ZM540.305 134.227C541.715 134.227 542.45 133.282 542.45 131.617V131.392C542.45 129.727 541.715 128.797 540.305 128.797C538.91 128.797 538.175 129.727 538.175 131.392V131.617C538.175 133.282 538.91 134.227 540.305 134.227ZM548.486 135.562C546.791 135.562 545.951 134.782 545.951 133.282V128.887H544.451V127.642H545.951V125.227H547.601V127.642H549.701V128.887H547.601V133.102C547.601 133.867 547.886 134.212 548.801 134.212C549.131 134.212 549.521 134.137 549.746 134.062V135.382C549.401 135.487 548.876 135.562 548.486 135.562ZM554.184 135.562C551.874 135.562 550.374 133.972 550.374 131.617V131.392C550.374 129.037 551.874 127.462 554.184 127.462C556.509 127.462 558.009 129.037 558.009 131.392V131.617C558.009 133.972 556.509 135.562 554.184 135.562ZM554.184 134.227C555.594 134.227 556.329 133.282 556.329 131.617V131.392C556.329 129.727 555.594 128.797 554.184 128.797C552.789 128.797 552.054 129.727 552.054 131.392V131.617C552.054 133.282 552.789 134.227 554.184 134.227ZM564.828 135.562C562.833 135.562 561.588 134.617 561.438 132.967H563.028C563.163 133.882 563.823 134.317 564.843 134.317C565.773 134.317 566.403 133.942 566.403 133.252C566.403 132.637 565.968 132.337 564.498 132.067C562.623 131.752 561.708 131.152 561.708 129.772C561.708 128.392 562.953 127.462 564.723 127.462C566.583 127.462 567.738 128.347 567.888 129.877H566.313C566.193 129.097 565.593 128.677 564.708 128.677C563.853 128.677 563.298 129.052 563.298 129.682C563.298 130.282 563.733 130.567 565.143 130.792C567.093 131.107 568.038 131.752 568.038 133.102C568.038 134.572 566.763 135.562 564.828 135.562ZM572.556 135.562C570.156 135.562 568.731 133.957 568.731 131.617V131.392C568.731 129.052 570.186 127.462 572.556 127.462C575.091 127.462 576.321 129.232 576.201 131.872H570.426C570.501 133.417 571.251 134.242 572.556 134.242C573.636 134.242 574.281 133.732 574.506 132.952H576.156C575.781 134.572 574.491 135.562 572.556 135.562ZM570.456 130.687H574.506C574.386 129.487 573.756 128.767 572.541 128.767C571.341 128.767 570.636 129.427 570.456 130.687ZM577.377 124.267H579.027V135.367H577.377V124.267ZM584.033 135.562C581.633 135.562 580.208 133.957 580.208 131.617V131.392C580.208 129.052 581.663 127.462 584.033 127.462C586.568 127.462 587.798 129.232 587.678 131.872H581.903C581.978 133.417 582.728 134.242 584.033 134.242C585.113 134.242 585.758 133.732 585.983 132.952H587.633C587.258 134.572 585.968 135.562 584.033 135.562ZM581.933 130.687H585.983C585.863 129.487 585.233 128.767 584.018 128.767C582.818 128.767 582.113 129.427 581.933 130.687ZM592.274 135.562C589.934 135.562 588.554 133.957 588.554 131.617V131.392C588.554 129.052 589.934 127.462 592.289 127.462C594.224 127.462 595.499 128.602 595.709 130.387H594.089C593.924 129.412 593.354 128.797 592.259 128.797C590.924 128.797 590.234 129.727 590.234 131.392V131.617C590.234 133.282 590.924 134.227 592.259 134.227C593.354 134.227 593.939 133.582 594.104 132.607H595.739C595.484 134.422 594.209 135.562 592.274 135.562ZM600.091 135.562C598.396 135.562 597.556 134.782 597.556 133.282V128.887H596.056V127.642H597.556V125.227H599.206V127.642H601.306V128.887H599.206V133.102C599.206 133.867 599.491 134.212 600.406 134.212C600.736 134.212 601.126 134.137 601.351 134.062V135.382C601.006 135.487 600.481 135.562 600.091 135.562ZM604.149 124.267V126.517H602.424V124.267H604.149ZM602.454 127.642H604.104V135.367H602.454V127.642ZM609.095 135.562C606.785 135.562 605.285 133.972 605.285 131.617V131.392C605.285 129.037 606.785 127.462 609.095 127.462C611.42 127.462 612.92 129.037 612.92 131.392V131.617C612.92 133.972 611.42 135.562 609.095 135.562ZM609.095 134.227C610.505 134.227 611.24 133.282 611.24 131.617V131.392C611.24 129.727 610.505 128.797 609.095 128.797C607.7 128.797 606.965 129.727 606.965 131.392V131.617C606.965 133.282 607.7 134.227 609.095 134.227ZM615.757 135.367H614.107V127.642H615.697L615.757 128.872C616.162 128.107 616.972 127.462 618.217 127.462C620.092 127.462 620.887 128.632 620.887 130.387V135.367H619.252V130.792C619.252 129.532 618.787 128.827 617.662 128.827C616.522 128.827 615.757 129.667 615.757 131.047V135.367ZM555.759 160.917H554.094V150.642H555.639L555.684 151.917C556.059 151.182 556.959 150.462 558.279 150.462C560.304 150.462 561.579 152.082 561.579 154.392V154.617C561.579 156.927 560.274 158.562 558.234 158.562C557.034 158.562 556.179 157.932 555.759 157.197V160.917ZM557.829 157.227C559.149 157.227 559.899 156.282 559.899 154.617V154.392C559.899 152.727 559.149 151.767 557.829 151.767C556.449 151.767 555.699 152.727 555.699 154.392V154.617C555.699 156.282 556.449 157.227 557.829 157.227ZM564.982 158.562C563.392 158.562 562.387 157.602 562.387 156.282C562.387 155.052 563.137 154.242 564.457 154.062L567.502 153.612V153.057C567.502 152.202 566.917 151.752 565.942 151.752C564.982 151.752 564.337 152.187 564.262 152.967H562.687C562.822 151.377 564.082 150.462 565.972 150.462C567.967 150.462 569.092 151.512 569.092 153.117V158.367H567.577L567.517 157.167C567.037 158.037 566.092 158.562 564.982 158.562ZM565.357 157.257C566.512 157.257 567.502 156.537 567.502 155.532V154.827L565.027 155.172C564.322 155.277 563.992 155.607 563.992 156.207C563.992 156.852 564.487 157.257 565.357 157.257ZM573.926 161.112C571.796 161.112 570.596 160.167 570.431 158.817H572.231C572.321 159.492 572.906 159.867 574.016 159.867C575.291 159.867 576.056 159.237 576.056 158.022V156.882C575.651 157.632 574.781 158.247 573.581 158.247C571.526 158.247 570.236 156.627 570.236 154.497V154.197C570.236 152.052 571.511 150.462 573.536 150.462C574.856 150.462 575.741 151.182 576.131 151.917L576.176 150.642H577.706V157.872C577.706 159.867 576.371 161.112 573.926 161.112ZM573.986 156.927C575.351 156.927 576.116 155.967 576.116 154.497V154.197C576.116 152.697 575.366 151.767 573.986 151.767C572.651 151.767 571.916 152.697 571.916 154.197V154.497C571.916 155.967 572.666 156.927 573.986 156.927ZM582.714 158.562C580.314 158.562 578.889 156.957 578.889 154.617V154.392C578.889 152.052 580.344 150.462 582.714 150.462C585.249 150.462 586.479 152.232 586.359 154.872H580.584C580.659 156.417 581.409 157.242 582.714 157.242C583.794 157.242 584.439 156.732 584.664 155.952H586.314C585.939 157.572 584.649 158.562 582.714 158.562ZM580.614 153.687H584.664C584.544 152.487 583.914 151.767 582.699 151.767C581.499 151.767 580.794 152.427 580.614 153.687Z" fill="black" fill-opacity="0.8"/>
<path d="M740.762 98.1245C743.105 95.7814 746.904 95.7814 749.248 98.1245L788.524 137.401C790.867 139.744 790.867 143.543 788.524 145.886L749.248 185.163C746.904 187.506 743.105 187.506 740.762 185.163L701.486 145.886C699.143 143.543 699.143 139.744 701.486 137.401L740.762 98.1245Z" fill="#22C182"/>
<path d="M733.191 137.367H730.959V130.977H733.191C735.063 130.977 736.35 132.066 736.35 134.064V134.28C736.35 136.26 735.072 137.367 733.191 137.367ZM732.003 131.859V136.485H733.119C734.433 136.485 735.27 135.81 735.27 134.28V134.064C735.27 132.543 734.442 131.859 733.101 131.859H732.003ZM738.099 130.707V132.057H737.064V130.707H738.099ZM737.082 132.732H738.072V137.367H737.082V132.732ZM740.778 137.484C739.563 137.484 738.78 136.503 738.78 135.117V134.982C738.78 133.605 739.536 132.624 740.76 132.624C741.498 132.624 742.002 132.975 742.272 133.407V130.707H743.262V137.367H742.344L742.317 136.593C742.092 137.034 741.57 137.484 740.778 137.484ZM741.03 136.683C741.858 136.683 742.308 136.116 742.308 135.117V134.982C742.308 133.983 741.849 133.407 741.03 133.407C740.238 133.407 739.788 133.983 739.788 134.982V135.117C739.788 136.107 740.229 136.683 741.03 136.683ZM747.541 138.897H746.524L747.118 137.34L745.336 132.732H746.389L747.64 136.251L748.846 132.732H749.863L747.541 138.897ZM752.248 137.484C750.862 137.484 749.962 136.53 749.962 135.117V134.982C749.962 133.569 750.862 132.624 752.248 132.624C753.643 132.624 754.543 133.569 754.543 134.982V135.117C754.543 136.53 753.643 137.484 752.248 137.484ZM752.248 136.683C753.094 136.683 753.535 136.116 753.535 135.117V134.982C753.535 133.983 753.094 133.425 752.248 133.425C751.411 133.425 750.97 133.983 750.97 134.982V135.117C750.97 136.116 751.411 136.683 752.248 136.683ZM756.786 137.484C755.706 137.484 755.184 136.8 755.184 135.711V132.732H756.183V135.522C756.183 136.233 756.444 136.656 757.11 136.656C757.794 136.656 758.199 136.134 758.199 135.306V132.732H759.198V137.367H758.235L758.217 136.665C757.947 137.115 757.452 137.484 756.786 137.484ZM729.478 151.484C728.074 151.484 727.246 150.521 727.246 149.117V148.982C727.246 147.578 728.074 146.624 729.487 146.624C730.648 146.624 731.413 147.308 731.539 148.379H730.567C730.468 147.794 730.126 147.425 729.469 147.425C728.668 147.425 728.254 147.983 728.254 148.982V149.117C728.254 150.116 728.668 150.683 729.469 150.683C730.126 150.683 730.477 150.296 730.576 149.711H731.557C731.404 150.8 730.639 151.484 729.478 151.484ZM733.195 151.367H732.205V144.707H733.204V147.443C733.456 146.984 733.933 146.624 734.671 146.624C735.796 146.624 736.273 147.326 736.273 148.379V151.367H735.292V148.622C735.292 147.866 735.013 147.443 734.338 147.443C733.654 147.443 733.195 147.947 733.195 148.775V151.367ZM739.239 151.484C737.853 151.484 736.953 150.53 736.953 149.117V148.982C736.953 147.569 737.853 146.624 739.239 146.624C740.634 146.624 741.534 147.569 741.534 148.982V149.117C741.534 150.53 740.634 151.484 739.239 151.484ZM739.239 150.683C740.085 150.683 740.526 150.116 740.526 149.117V148.982C740.526 147.983 740.085 147.425 739.239 147.425C738.402 147.425 737.961 147.983 737.961 148.982V149.117C737.961 150.116 738.402 150.683 739.239 150.683ZM744.352 151.484C742.966 151.484 742.066 150.53 742.066 149.117V148.982C742.066 147.569 742.966 146.624 744.352 146.624C745.747 146.624 746.647 147.569 746.647 148.982V149.117C746.647 150.53 745.747 151.484 744.352 151.484ZM744.352 150.683C745.198 150.683 745.639 150.116 745.639 149.117V148.982C745.639 147.983 745.198 147.425 744.352 147.425C743.515 147.425 743.074 147.983 743.074 148.982V149.117C743.074 150.116 743.515 150.683 744.352 150.683ZM749.054 151.484C747.857 151.484 747.11 150.917 747.02 149.927H747.974C748.055 150.476 748.451 150.737 749.063 150.737C749.621 150.737 749.999 150.512 749.999 150.098C749.999 149.729 749.738 149.549 748.856 149.387C747.731 149.198 747.182 148.838 747.182 148.01C747.182 147.182 747.929 146.624 748.991 146.624C750.107 146.624 750.8 147.155 750.89 148.073H749.945C749.873 147.605 749.513 147.353 748.982 147.353C748.469 147.353 748.136 147.578 748.136 147.956C748.136 148.316 748.397 148.487 749.243 148.622C750.413 148.811 750.98 149.198 750.98 150.008C750.98 150.89 750.215 151.484 749.054 151.484ZM753.691 151.484C752.251 151.484 751.396 150.521 751.396 149.117V148.982C751.396 147.578 752.269 146.624 753.691 146.624C755.212 146.624 755.95 147.686 755.878 149.27H752.413C752.458 150.197 752.908 150.692 753.691 150.692C754.339 150.692 754.726 150.386 754.861 149.918H755.851C755.626 150.89 754.852 151.484 753.691 151.484ZM752.431 148.559H754.861C754.789 147.839 754.411 147.407 753.682 147.407C752.962 147.407 752.539 147.803 752.431 148.559ZM758.005 151.367H756.934V150.287H758.005V151.367ZM759.796 151.367H758.725V150.287H759.796V151.367ZM761.578 151.367H760.507V150.287H761.578V151.367Z" fill="black" fill-opacity="0.8"/>
<rect x="841.729" y="96.3672" width="156.41" height="90.5529" rx="36.2212" fill="#A29CFF"/>
<path d="M886.671 146.867H884.931V136.217H891.906V137.672H886.671V140.882H891.411V142.337H886.671V146.867ZM894.721 135.767V138.017H892.996V135.767H894.721ZM893.026 139.142H894.676V146.867H893.026V139.142ZM896.157 135.767H897.807V146.867H896.157V135.767ZM902.692 147.062C900.997 147.062 900.157 146.282 900.157 144.782V140.387H898.657V139.142H900.157V136.727H901.807V139.142H903.907V140.387H901.807V144.602C901.807 145.367 902.092 145.712 903.007 145.712C903.337 145.712 903.727 145.637 903.952 145.562V146.882C903.607 146.987 903.082 147.062 902.692 147.062ZM908.405 147.062C906.005 147.062 904.58 145.457 904.58 143.117V142.892C904.58 140.552 906.035 138.962 908.405 138.962C910.94 138.962 912.17 140.732 912.05 143.372H906.275C906.35 144.917 907.1 145.742 908.405 145.742C909.485 145.742 910.13 145.232 910.355 144.452H912.005C911.63 146.072 910.34 147.062 908.405 147.062ZM906.305 142.187H910.355C910.235 140.987 909.605 140.267 908.39 140.267C907.19 140.267 906.485 140.927 906.305 142.187ZM914.876 146.867H913.226V139.142H914.816L914.861 140.642C915.281 139.652 916.091 138.992 917.201 138.992C917.321 138.992 917.486 139.007 917.621 139.037V140.642C917.471 140.627 917.291 140.612 917.111 140.612C915.716 140.612 914.876 141.407 914.876 142.937V146.867ZM922.627 148.367H921.097L924.967 135.767H926.497L922.627 148.367ZM938.025 146.867H930.6V136.217H937.935V137.672H932.34V140.702H937.47V142.157H932.34V145.412H938.025V146.867ZM942.003 147.062C939.978 147.062 938.673 145.427 938.673 143.117V142.892C938.673 140.597 939.933 138.962 941.973 138.962C943.203 138.962 944.043 139.547 944.493 140.267V135.767H946.143V146.867H944.613L944.568 145.577C944.193 146.312 943.323 147.062 942.003 147.062ZM942.423 145.727C943.803 145.727 944.553 144.782 944.553 143.117V142.892C944.553 141.227 943.788 140.267 942.423 140.267C941.103 140.267 940.353 141.227 940.353 142.892V143.117C940.353 144.767 941.088 145.727 942.423 145.727ZM949.321 135.767V138.017H947.596V135.767H949.321ZM947.626 139.142H949.276V146.867H947.626V139.142ZM954.132 147.062C952.437 147.062 951.597 146.282 951.597 144.782V140.387H950.097V139.142H951.597V136.727H953.247V139.142H955.347V140.387H953.247V144.602C953.247 145.367 953.532 145.712 954.447 145.712C954.777 145.712 955.167 145.637 955.392 145.562V146.882C955.047 146.987 954.522 147.062 954.132 147.062Z" fill="black" fill-opacity="0.8"/>
<path d="M915.692 366.696C918.035 364.353 921.834 364.353 924.177 366.696L963.454 405.972C965.797 408.315 965.797 412.114 963.454 414.458L924.177 453.734C921.834 456.077 918.035 456.077 915.692 453.734L876.416 414.458C874.072 412.114 874.072 408.315 876.416 405.972L915.692 366.696Z" fill="#22C182"/>
<path d="M908.121 405.938H905.889V399.548H908.121C909.993 399.548 911.28 400.637 911.28 402.635V402.851C911.28 404.831 910.002 405.938 908.121 405.938ZM906.933 400.43V405.056H908.049C909.363 405.056 910.2 404.381 910.2 402.851V402.635C910.2 401.114 909.372 400.43 908.031 400.43H906.933ZM913.029 399.278V400.628H911.994V399.278H913.029ZM912.012 401.303H913.002V405.938H912.012V401.303ZM915.708 406.055C914.493 406.055 913.71 405.074 913.71 403.688V403.553C913.71 402.176 914.466 401.195 915.69 401.195C916.428 401.195 916.932 401.546 917.202 401.978V399.278H918.192V405.938H917.274L917.247 405.164C917.022 405.605 916.5 406.055 915.708 406.055ZM915.96 405.254C916.788 405.254 917.238 404.687 917.238 403.688V403.553C917.238 402.554 916.779 401.978 915.96 401.978C915.168 401.978 914.718 402.554 914.718 403.553V403.688C914.718 404.678 915.159 405.254 915.96 405.254ZM922.471 407.468H921.454L922.048 405.911L920.266 401.303H921.319L922.57 404.822L923.776 401.303H924.793L922.471 407.468ZM927.178 406.055C925.792 406.055 924.892 405.101 924.892 403.688V403.553C924.892 402.14 925.792 401.195 927.178 401.195C928.573 401.195 929.473 402.14 929.473 403.553V403.688C929.473 405.101 928.573 406.055 927.178 406.055ZM927.178 405.254C928.024 405.254 928.465 404.687 928.465 403.688V403.553C928.465 402.554 928.024 401.996 927.178 401.996C926.341 401.996 925.9 402.554 925.9 403.553V403.688C925.9 404.687 926.341 405.254 927.178 405.254ZM931.715 406.055C930.635 406.055 930.113 405.371 930.113 404.282V401.303H931.112V404.093C931.112 404.804 931.373 405.227 932.039 405.227C932.723 405.227 933.128 404.705 933.128 403.877V401.303H934.127V405.938H933.164L933.146 405.236C932.876 405.686 932.381 406.055 931.715 406.055ZM904.708 420.055C903.754 420.055 903.151 419.479 903.151 418.687C903.151 417.949 903.601 417.463 904.393 417.355L906.22 417.085V416.752C906.22 416.239 905.869 415.969 905.284 415.969C904.708 415.969 904.321 416.23 904.276 416.698H903.331C903.412 415.744 904.168 415.195 905.302 415.195C906.499 415.195 907.174 415.825 907.174 416.788V419.938H906.265L906.229 419.218C905.941 419.74 905.374 420.055 904.708 420.055ZM904.933 419.272C905.626 419.272 906.22 418.84 906.22 418.237V417.814L904.735 418.021C904.312 418.084 904.114 418.282 904.114 418.642C904.114 419.029 904.411 419.272 904.933 419.272ZM909.858 420.055C908.643 420.055 907.86 419.074 907.86 417.688V417.553C907.86 416.176 908.616 415.195 909.84 415.195C910.578 415.195 911.082 415.546 911.352 415.978V413.278H912.342V419.938H911.424L911.397 419.164C911.172 419.605 910.65 420.055 909.858 420.055ZM910.11 419.254C910.938 419.254 911.388 418.687 911.388 417.688V417.553C911.388 416.554 910.929 415.978 910.11 415.978C909.318 415.978 908.868 416.554 908.868 417.553V417.688C908.868 418.678 909.309 419.254 910.11 419.254ZM915.05 420.055C913.835 420.055 913.052 419.074 913.052 417.688V417.553C913.052 416.176 913.808 415.195 915.032 415.195C915.77 415.195 916.274 415.546 916.544 415.978V413.278H917.534V419.938H916.616L916.589 419.164C916.364 419.605 915.842 420.055 915.05 420.055ZM915.302 419.254C916.13 419.254 916.58 418.687 916.58 417.688V417.553C916.58 416.554 916.121 415.978 915.302 415.978C914.51 415.978 914.06 416.554 914.06 417.553V417.688C914.06 418.678 914.501 419.254 915.302 419.254ZM925.665 419.938H924.558L923.991 418.381H921.246L920.67 419.938H919.608L922.065 413.548H923.208L925.665 419.938ZM922.623 414.664L921.57 417.508H923.667L922.623 414.664ZM926.171 413.278H927.161V419.938H926.171V413.278ZM930.093 420.055C929.076 420.055 928.572 419.587 928.572 418.687V416.05H927.672V415.303H928.572V413.854H929.562V415.303H930.822V416.05H929.562V418.579C929.562 419.038 929.733 419.245 930.282 419.245C930.48 419.245 930.714 419.2 930.849 419.155V419.947C930.642 420.01 930.327 420.055 930.093 420.055ZM932.933 419.938H931.862V418.858H932.933V419.938ZM934.724 419.938H933.653V418.858H934.724V419.938ZM936.506 419.938H935.435V418.858H936.506V419.938Z" fill="black" fill-opacity="0.8"/>
<path d="M133.621 142.006C133.822 141.805 133.822 141.48 133.621 141.279L130.347 138.004C130.146 137.804 129.82 137.804 129.619 138.004C129.418 138.205 129.418 138.531 129.619 138.732L132.53 141.643L129.619 144.553C129.418 144.754 129.418 145.08 129.619 145.281C129.82 145.482 130.146 145.482 130.347 145.281L133.621 142.006ZM99.8145 142.157H133.257V141.128H99.8145V142.157Z" fill="black"/>
<path d="M275.623 142.006C275.824 141.805 275.824 141.48 275.623 141.279L272.349 138.004C272.148 137.804 271.822 137.804 271.621 138.004C271.42 138.205 271.42 138.531 271.621 138.732L274.532 141.643L271.621 144.553C271.42 144.754 271.42 145.08 271.621 145.281C271.822 145.482 272.148 145.482 272.349 145.281L275.623 142.006ZM241.816 142.157H275.259V141.128H241.816V142.157Z" fill="black"/>
<path d="M483.486 142.006C483.687 141.805 483.687 141.48 483.486 141.279L480.212 138.004C480.011 137.804 479.685 137.804 479.484 138.004C479.283 138.205 479.283 138.531 479.484 138.732L482.395 141.643L479.484 144.553C479.283 144.754 479.283 145.08 479.484 145.281C479.685 145.482 480.011 145.482 480.212 145.281L483.486 142.006ZM449.68 142.157H483.123V141.128H449.68V142.157Z" fill="black"/>
<path d="M861.643 410.579C861.844 410.378 861.844 410.052 861.643 409.851L858.369 406.577C858.168 406.376 857.842 406.376 857.641 406.577C857.441 406.778 857.441 407.103 857.641 407.304L860.552 410.215L857.641 413.125C857.441 413.326 857.441 413.652 857.641 413.853C857.842 414.054 858.168 414.054 858.369 413.853L861.643 410.579ZM295.324 410.729L861.28 410.729L861.28 409.7L295.324 409.7L295.324 410.729Z" fill="black"/>
<path d="M691.346 142.006C691.547 141.805 691.547 141.48 691.346 141.279L688.071 138.004C687.87 137.804 687.545 137.804 687.344 138.004C687.143 138.205 687.143 138.531 687.344 138.732L690.254 141.643L687.344 144.553C687.143 144.754 687.143 145.08 687.344 145.281C687.545 145.482 687.87 145.482 688.071 145.281L691.346 142.006ZM657.539 142.157H690.982V141.128H657.539V142.157Z" fill="black"/>
<path d="M833.348 142.006C833.549 141.805 833.549 141.48 833.348 141.279L830.073 138.004C829.872 137.804 829.547 137.804 829.346 138.004C829.145 138.205 829.145 138.531 829.346 138.732L832.256 141.643L829.346 144.553C829.145 144.754 829.145 145.08 829.346 145.281C829.547 145.482 829.872 145.482 830.073 145.281L833.348 142.006ZM799.541 142.157H832.984V141.128H799.541V142.157Z" fill="black"/>
<path d="M1034.52 410.579C1034.72 410.378 1034.72 410.052 1034.52 409.851L1031.25 406.577C1031.05 406.376 1030.72 406.376 1030.52 406.577C1030.32 406.778 1030.32 407.103 1030.52 407.304L1033.43 410.215L1030.52 413.125C1030.32 413.326 1030.32 413.652 1030.52 413.853C1030.72 414.054 1031.05 414.054 1031.25 413.853L1034.52 410.579ZM980.648 410.729L1034.16 410.729L1034.16 409.7L980.648 409.7L980.648 410.729Z" fill="black"/>
<path d="M799.178 544.862C798.977 544.661 798.977 544.335 799.178 544.134L802.452 540.86C802.653 540.659 802.979 540.659 803.18 540.86C803.381 541.061 803.381 541.387 803.18 541.588L800.269 544.498L803.18 547.409C803.381 547.609 803.381 547.935 803.18 548.136C802.979 548.337 802.653 548.337 802.452 548.136L799.178 544.862ZM832.984 545.013H799.542V543.984H832.984V545.013Z" fill="black"/>
<path d="M591.318 544.862C591.117 544.661 591.117 544.335 591.318 544.134L594.593 540.86C594.794 540.659 595.119 540.659 595.32 540.86C595.521 541.061 595.521 541.387 595.32 541.588L592.41 544.498L595.32 547.409C595.521 547.609 595.521 547.935 595.32 548.136C595.119 548.337 594.794 548.337 594.593 548.136L591.318 544.862ZM625.125 545.013H591.682V543.984H625.125V545.013Z" fill="black"/>
<path d="M383.459 544.862C383.258 544.661 383.258 544.335 383.459 544.134L386.733 540.86C386.934 540.659 387.26 540.659 387.461 540.86C387.662 541.061 387.662 541.387 387.461 541.588L384.55 544.498L387.461 547.409C387.662 547.609 387.662 547.935 387.461 548.136C387.26 548.337 386.934 548.337 386.733 548.136L383.459 544.862ZM417.266 545.013H383.823V543.984H417.266V545.013Z" fill="black"/>
<path d="M919.572 225.872C919.773 226.073 920.098 226.073 920.299 225.872L923.574 222.598C923.775 222.397 923.775 222.071 923.574 221.87C923.373 221.669 923.047 221.669 922.846 221.87L919.936 224.781L917.025 221.87C916.824 221.669 916.498 221.669 916.297 221.87C916.097 222.071 916.097 222.397 916.297 222.598L919.572 225.872ZM919.421 192.065V225.508H920.45V192.065H919.421Z" fill="black"/>
<path d="M569.708 191.701C569.909 191.5 570.235 191.5 570.436 191.701L573.71 194.975C573.911 195.176 573.911 195.502 573.71 195.703C573.509 195.904 573.184 195.904 572.983 195.703L570.072 192.793L567.162 195.703C566.961 195.904 566.635 195.904 566.434 195.703C566.233 195.502 566.233 195.176 566.434 194.975L569.708 191.701ZM569.558 225.508V192.065H570.587V225.508H569.558Z" fill="black"/>
<path d="M919.572 360.157C919.773 360.358 920.098 360.358 920.299 360.157L923.574 356.883C923.775 356.682 923.775 356.356 923.574 356.155C923.373 355.954 923.047 355.954 922.846 356.155L919.936 359.066L917.025 356.155C916.824 355.954 916.498 355.954 916.297 356.155C916.097 356.356 916.097 356.682 916.297 356.883L919.572 360.157ZM919.421 326.351V359.793H920.45V326.351H919.421Z" fill="black"/>
<path d="M919.572 494.443C919.773 494.644 920.098 494.644 920.299 494.443L923.574 491.169C923.775 490.968 923.775 490.642 923.574 490.441C923.373 490.241 923.047 490.241 922.846 490.441L919.936 493.352L917.025 490.441C916.824 490.241 916.498 490.241 916.297 490.441C916.097 490.642 916.097 490.968 916.297 491.169L919.572 494.443ZM919.421 460.637V494.08H920.45V460.637H919.421Z" fill="black"/>
<line x1="570.072" y1="224.993" x2="745.004" y2="224.993" stroke="black" stroke-width="1.02901"/>
<line x1="745.516" y1="192.065" x2="745.516" y2="225.508" stroke="black" stroke-width="1.02901"/>
<line x1="295.843" y1="494.078" x2="295.843" y2="410.214" stroke="black" stroke-width="1.02901"/>
<path d="M812.663 133.637H811.648V131.625L809.462 127.427H810.573L812.173 130.654L813.774 127.427H814.85L812.663 131.625V133.637ZM816.649 133.75C815.25 133.75 814.419 132.815 814.419 131.45V131.319C814.419 129.954 815.267 129.027 816.649 129.027C818.127 129.027 818.845 130.059 818.775 131.599H815.407C815.451 132.5 815.888 132.981 816.649 132.981C817.279 132.981 817.655 132.683 817.786 132.229H818.748C818.53 133.173 817.777 133.75 816.649 133.75ZM815.425 130.908H817.786C817.716 130.208 817.349 129.788 816.64 129.788C815.941 129.788 815.53 130.173 815.425 130.908ZM821.107 133.75C819.944 133.75 819.218 133.199 819.13 132.237H820.058C820.136 132.771 820.521 133.024 821.116 133.024C821.658 133.024 822.026 132.806 822.026 132.403C822.026 132.045 821.772 131.87 820.915 131.712C819.821 131.529 819.288 131.179 819.288 130.374C819.288 129.57 820.014 129.027 821.046 129.027C822.131 129.027 822.804 129.543 822.892 130.435H821.973C821.903 129.981 821.553 129.736 821.037 129.736C820.539 129.736 820.215 129.954 820.215 130.322C820.215 130.672 820.469 130.838 821.291 130.969C822.428 131.153 822.979 131.529 822.979 132.316C822.979 133.173 822.236 133.75 821.107 133.75Z" fill="black"/>
<path d="M1004.06 404.266H1003.04V402.254L1000.86 398.056H1001.97L1003.57 401.283L1005.17 398.056H1006.25L1004.06 402.254V404.266ZM1008.05 404.379C1006.65 404.379 1005.82 403.443 1005.82 402.079V401.948C1005.82 400.583 1006.66 399.656 1008.05 399.656C1009.52 399.656 1010.24 400.688 1010.17 402.228H1006.8C1006.85 403.129 1007.28 403.61 1008.05 403.61C1008.68 403.61 1009.05 403.312 1009.18 402.857H1010.14C1009.93 403.802 1009.17 404.379 1008.05 404.379ZM1006.82 401.537H1009.18C1009.11 400.837 1008.75 400.417 1008.04 400.417C1007.34 400.417 1006.93 400.802 1006.82 401.537ZM1012.5 404.379C1011.34 404.379 1010.61 403.828 1010.53 402.866H1011.45C1011.53 403.4 1011.92 403.653 1012.51 403.653C1013.05 403.653 1013.42 403.435 1013.42 403.032C1013.42 402.674 1013.17 402.499 1012.31 402.341C1011.22 402.158 1010.68 401.808 1010.68 401.003C1010.68 400.198 1011.41 399.656 1012.44 399.656C1013.53 399.656 1014.2 400.172 1014.29 401.064H1013.37C1013.3 400.61 1012.95 400.365 1012.43 400.365C1011.94 400.365 1011.61 400.583 1011.61 400.951C1011.61 401.301 1011.87 401.467 1012.69 401.598C1013.82 401.782 1014.38 402.158 1014.38 402.945C1014.38 403.802 1013.63 404.379 1012.5 404.379Z" fill="black"/>
<path d="M653.828 240.653H652.84V234.443H654.056L656.968 239.21V234.443H657.948V240.653H656.802L653.828 235.764V240.653ZM660.905 240.767C659.558 240.767 658.684 239.84 658.684 238.467V238.335C658.684 236.962 659.558 236.044 660.905 236.044C662.261 236.044 663.136 236.962 663.136 238.335V238.467C663.136 239.84 662.261 240.767 660.905 240.767ZM660.905 239.989C661.727 239.989 662.156 239.438 662.156 238.467V238.335C662.156 237.365 661.727 236.822 660.905 236.822C660.092 236.822 659.663 237.365 659.663 238.335V238.467C659.663 239.438 660.092 239.989 660.905 239.989Z" fill="black"/>
<path d="M927.031 480.924H926.043V474.714H927.259L930.171 479.481V474.714H931.151V480.924H930.005L927.031 476.034V480.924ZM934.108 481.038C932.761 481.038 931.887 480.11 931.887 478.737V478.606C931.887 477.233 932.761 476.314 934.108 476.314C935.464 476.314 936.339 477.233 936.339 478.606V478.737C936.339 480.11 935.464 481.038 934.108 481.038ZM934.108 480.259C934.931 480.259 935.359 479.708 935.359 478.737V478.606C935.359 477.635 934.931 477.093 934.108 477.093C933.295 477.093 932.866 477.635 932.866 478.606V478.737C932.866 479.708 933.295 480.259 934.108 480.259Z" fill="black"/>
<path d="M474.105 628.674H469.841V614.301H474.105V616.491H472.541V626.484H474.105V628.674ZM483.816 626.484H481.034V617.05H477.807V614.795H487.027V617.05H483.816V626.484ZM490.886 626.698C488.202 626.698 486.424 624.887 486.424 622.302V622.138C486.424 619.569 488.202 617.758 490.886 617.758C493.586 617.758 495.347 619.569 495.347 622.138V622.302C495.347 624.887 493.586 626.698 490.886 626.698ZM490.886 624.69C492.137 624.69 492.68 623.867 492.68 622.302V622.138C492.68 620.59 492.137 619.767 490.886 619.767C489.651 619.767 489.091 620.59 489.091 622.138V622.302C489.091 623.867 489.651 624.69 490.886 624.69ZM500.625 626.698C497.941 626.698 496.163 624.887 496.163 622.302V622.138C496.163 619.569 497.941 617.758 500.625 617.758C503.325 617.758 505.087 619.569 505.087 622.138V622.302C505.087 624.887 503.325 626.698 500.625 626.698ZM500.625 624.69C501.876 624.69 502.419 623.867 502.419 622.302V622.138C502.419 620.59 501.876 619.767 500.625 619.767C499.39 619.767 498.83 620.59 498.83 622.138V622.302C498.83 623.867 499.39 624.69 500.625 624.69ZM511.497 626.484H508.863V617.972H511.382L511.448 619.273C511.843 618.516 512.683 617.758 514 617.758C515.267 617.758 516.14 618.269 516.568 619.339C517.161 618.351 518.083 617.758 519.318 617.758C521.409 617.758 522.232 619.108 522.232 621.084V626.484H519.597V621.578C519.597 620.409 519.153 619.849 518.33 619.849C517.408 619.849 516.864 620.508 516.864 621.907V626.484H514.23V621.595C514.23 620.442 513.835 619.849 512.995 619.849C512.09 619.849 511.497 620.475 511.497 621.891V626.484ZM525.991 626.698C524.345 626.698 523.192 625.612 523.192 624.114C523.192 622.648 524.131 621.776 525.761 621.578L528.724 621.183V620.64C528.724 620.014 528.313 619.635 527.457 619.635C526.6 619.635 526.106 619.981 526.041 620.623H523.538C523.637 618.812 525.184 617.758 527.506 617.758C529.844 617.758 531.293 618.878 531.293 620.656V626.484H528.823L528.741 625.217C528.23 626.139 527.275 626.698 525.991 626.698ZM526.913 624.838C527.901 624.838 528.724 624.262 528.724 623.389V622.78L526.716 623.043C526.057 623.126 525.744 623.439 525.744 623.949C525.744 624.509 526.156 624.838 526.913 624.838ZM535.22 626.484H532.586V617.972H535.105L535.171 619.273C535.582 618.516 536.422 617.758 537.854 617.758C540.011 617.758 540.818 619.125 540.818 621.018V626.484H538.184V621.693C538.184 620.541 537.821 619.866 536.817 619.866C535.862 619.866 535.22 620.557 535.22 621.809V626.484ZM545.799 629.283H543.083L544.202 626.386L540.975 617.972H543.758L545.585 623.554L547.363 617.972H550.047L545.799 629.283ZM557.114 626.698C554.612 626.698 553.212 625.595 553.081 623.751H555.583C555.682 624.476 556.258 624.887 557.131 624.887C557.921 624.887 558.398 624.575 558.398 624.081C558.398 623.62 558.119 623.34 556.604 623.076C554.332 622.714 553.328 621.99 553.328 620.458C553.328 618.829 554.826 617.758 557.032 617.758C559.32 617.758 560.687 618.796 560.819 620.557H558.366C558.3 619.899 557.773 619.553 556.999 619.553C556.275 619.553 555.847 619.849 555.847 620.31C555.847 620.771 556.192 621.018 557.641 621.232C560.045 621.578 560.983 622.385 560.983 623.834C560.983 625.546 559.502 626.698 557.114 626.698ZM565.851 626.698C563.694 626.698 562.706 625.743 562.706 623.916V619.866H561.158V617.972H562.706V615.256H565.34V617.972H567.481V619.866H565.34V623.735C565.34 624.41 565.669 624.69 566.493 624.69C566.888 624.69 567.217 624.607 567.513 624.525V626.484C567.069 626.616 566.41 626.698 565.851 626.698ZM572.554 626.698C569.771 626.698 568.059 624.97 568.059 622.302V622.138C568.059 619.52 569.821 617.758 572.554 617.758C575.517 617.758 576.999 619.833 576.818 622.829H570.677C570.792 624.13 571.401 624.756 572.537 624.756C573.476 624.756 574.003 624.295 574.184 623.751H576.768C576.357 625.546 574.826 626.698 572.554 626.698ZM570.71 621.298H574.167C574.101 620.327 573.574 619.701 572.521 619.701C571.467 619.701 570.891 620.195 570.71 621.298ZM580.584 629.283H577.933V617.972H580.386L580.469 619.322C580.831 618.532 581.753 617.758 583.103 617.758C585.408 617.758 586.791 619.635 586.791 622.138V622.302C586.791 624.821 585.408 626.698 583.12 626.698C581.934 626.698 581.029 626.106 580.584 625.315V629.283ZM582.313 624.706C583.531 624.706 584.124 623.867 584.124 622.302V622.138C584.124 620.557 583.531 619.734 582.313 619.734C581.094 619.734 580.502 620.557 580.502 622.138V622.302C580.502 623.867 581.094 624.706 582.313 624.706ZM591.328 626.698C588.825 626.698 587.426 625.595 587.294 623.751H589.797C589.896 624.476 590.472 624.887 591.344 624.887C592.135 624.887 592.612 624.575 592.612 624.081C592.612 623.62 592.332 623.34 590.818 623.076C588.545 622.714 587.541 621.99 587.541 620.458C587.541 618.829 589.039 617.758 591.246 617.758C593.534 617.758 594.901 618.796 595.032 620.557H592.579C592.513 619.899 591.987 619.553 591.213 619.553C590.488 619.553 590.06 619.849 590.06 620.31C590.06 620.771 590.406 621.018 591.855 621.232C594.259 621.578 595.197 622.385 595.197 623.834C595.197 625.546 593.715 626.698 591.328 626.698ZM602.476 626.484H599.842V619.866H598.294V617.972H599.842V616.869C599.842 615.042 600.829 614.087 602.986 614.087C603.53 614.087 604.188 614.186 604.633 614.301V616.26C604.386 616.194 604.04 616.095 603.628 616.095C602.789 616.095 602.476 616.375 602.476 617.05V617.972H604.6V619.866H602.476V626.484ZM609.174 626.698C606.49 626.698 604.712 624.887 604.712 622.302V622.138C604.712 619.569 606.49 617.758 609.174 617.758C611.874 617.758 613.636 619.569 613.636 622.138V622.302C613.636 624.887 611.874 626.698 609.174 626.698ZM609.174 624.69C610.425 624.69 610.969 623.867 610.969 622.302V622.138C610.969 620.59 610.425 619.767 609.174 619.767C607.939 619.767 607.379 620.59 607.379 622.138V622.302C607.379 623.867 607.939 624.69 609.174 624.69ZM617.366 626.484H614.731V617.972H617.25L617.3 619.635C617.695 618.647 618.502 617.824 619.786 617.824C619.967 617.824 620.165 617.841 620.313 617.874V620.393C620.132 620.376 619.868 620.36 619.621 620.36C618.09 620.36 617.366 621.117 617.366 622.517V626.484ZM627.575 626.698C625.073 626.698 623.673 625.595 623.541 623.751H626.044C626.143 624.476 626.719 624.887 627.592 624.887C628.382 624.887 628.859 624.575 628.859 624.081C628.859 623.62 628.579 623.34 627.065 623.076C624.793 622.714 623.788 621.99 623.788 620.458C623.788 618.829 625.287 617.758 627.493 617.758C629.781 617.758 631.148 618.796 631.279 620.557H628.826C628.76 619.899 628.234 619.553 627.46 619.553C626.735 619.553 626.307 619.849 626.307 620.31C626.307 620.771 626.653 621.018 628.102 621.232C630.506 621.578 631.444 622.385 631.444 623.834C631.444 625.546 629.962 626.698 627.575 626.698ZM636.555 626.698C633.773 626.698 632.061 624.97 632.061 622.302V622.138C632.061 619.52 633.822 617.758 636.555 617.758C639.519 617.758 641.001 619.833 640.819 622.829H634.678C634.794 624.13 635.403 624.756 636.539 624.756C637.477 624.756 638.004 624.295 638.185 623.751H640.77C640.358 625.546 638.827 626.698 636.555 626.698ZM634.711 621.298H638.169C638.103 620.327 637.576 619.701 636.522 619.701C635.469 619.701 634.892 620.195 634.711 621.298ZM645.745 626.698C643.588 626.698 642.6 625.743 642.6 623.916V619.866H641.053V617.972H642.6V615.256H645.235V617.972H647.375V619.866H645.235V623.735C645.235 624.41 645.564 624.69 646.387 624.69C646.782 624.69 647.112 624.607 647.408 624.525V626.484C646.963 626.616 646.305 626.698 645.745 626.698ZM652.542 626.698C650.385 626.698 649.397 625.743 649.397 623.916V619.866H647.85V617.972H649.397V615.256H652.032V617.972H654.172V619.866H652.032V623.735C652.032 624.41 652.361 624.69 653.184 624.69C653.579 624.69 653.908 624.607 654.205 624.525V626.484C653.76 626.616 653.102 626.698 652.542 626.698ZM657.939 614.301V616.952H655.206V614.301H657.939ZM655.255 617.972H657.89V626.484H655.255V617.972ZM661.889 626.484H659.255V617.972H661.774L661.839 619.273C662.251 618.516 663.091 617.758 664.523 617.758C666.68 617.758 667.487 619.125 667.487 621.018V626.484H664.852V621.693C664.852 620.541 664.49 619.866 663.486 619.866C662.531 619.866 661.889 620.557 661.889 621.809V626.484ZM672.884 629.497C670.349 629.497 668.9 628.411 668.768 626.797H671.468C671.567 627.373 672.028 627.686 673 627.686C674.168 627.686 674.712 627.126 674.712 626.155V624.887C674.267 625.678 673.378 626.254 672.193 626.254C669.888 626.254 668.505 624.377 668.505 622.088V621.924C668.505 619.635 669.888 617.758 672.193 617.758C673.543 617.758 674.465 618.532 674.827 619.322L674.909 617.972H677.363V625.826C677.363 628.213 675.683 629.497 672.884 629.497ZM672.983 624.262C674.201 624.262 674.794 623.439 674.794 622.072V621.924C674.794 620.557 674.201 619.734 672.983 619.734C671.765 619.734 671.172 620.557 671.172 621.924V622.072C671.172 623.439 671.765 624.262 672.983 624.262ZM692.593 626.484H689.679L688.872 624.163H684.394L683.587 626.484H680.772L685.168 614.795H688.197L692.593 626.484ZM686.633 617.676L685.151 621.99H688.131L686.633 617.676ZM693.307 614.301H695.942V626.484H693.307V614.301ZM701.438 626.698C699.282 626.698 698.294 625.743 698.294 623.916V619.866H696.746V617.972H698.294V615.256H700.928V617.972H703.068V619.866H700.928V623.735C700.928 624.41 701.257 624.69 702.081 624.69C702.476 624.69 702.805 624.607 703.101 624.525V626.484C702.657 626.616 701.998 626.698 701.438 626.698ZM712.43 626.484H709.648V617.05H706.421V614.795H715.641V617.05H712.43V626.484ZM719.533 626.698C716.75 626.698 715.038 624.97 715.038 622.302V622.138C715.038 619.52 716.799 617.758 719.533 617.758C722.496 617.758 723.978 619.833 723.797 622.829H717.656C717.771 624.13 718.38 624.756 719.516 624.756C720.455 624.756 720.981 624.295 721.162 623.751H723.747C723.336 625.546 721.805 626.698 719.533 626.698ZM717.689 621.298H721.146C721.08 620.327 720.553 619.701 719.5 619.701C718.446 619.701 717.87 620.195 717.689 621.298ZM726.297 626.484H723.498L726.527 622.121L723.646 617.972H726.626L728.124 620.294L729.639 617.972H732.438L729.573 622.088L732.619 626.484H729.639L727.976 623.916L726.297 626.484ZM737.368 626.698C735.211 626.698 734.224 625.743 734.224 623.916V619.866H732.676V617.972H734.224V615.256H736.858V617.972H738.998V619.866H736.858V623.735C736.858 624.41 737.187 624.69 738.01 624.69C738.405 624.69 738.735 624.607 739.031 624.525V626.484C738.587 626.616 737.928 626.698 737.368 626.698ZM747.092 628.674H742.828V626.484H744.392V616.491H742.828V614.301H747.092V628.674Z" fill="#EB5B38"/>
<line x1="295.326" y1="621.675" x2="466.656" y2="621.675" stroke="#EB5B38" stroke-width="1.02901"/>
<line x1="295.841" y1="601.609" x2="295.841" y2="622.19" stroke="#EB5B38" stroke-width="1.02901"/>
<line x1="919.421" y1="601.609" x2="919.421" y2="622.19" stroke="#EB5B38" stroke-width="1.02901"/>
<line x1="747.576" y1="621.673" x2="918.906" y2="621.673" stroke="#EB5B38" stroke-width="1.02901"/>
<path d="M16.6981 42.5727C7.18263 42.5727 1.32355 36.0088 1.32355 26.8016V25.9206C1.32355 16.7134 7.4029 10.1495 16.7422 10.1495C24.848 10.1495 30.2225 15.2156 30.663 22.8368H23.174C22.8656 18.6518 20.3986 16.2729 16.61 16.2729C11.7201 16.2729 9.03287 20.1496 9.03287 25.9206V26.8016C9.03287 32.5726 11.7642 36.4052 16.6541 36.4052C20.4427 36.4052 22.9537 33.9383 23.1299 29.577H30.619C30.2225 37.3744 25.0242 42.5727 16.6981 42.5727ZM40.8713 42.5727C35.4087 42.5727 32.9417 39.1365 32.9417 33.718V19.2245H40.0343V32.3523C40.0343 35.392 41.1356 36.9339 43.5145 36.9339C45.9815 36.9339 47.6115 35.1717 47.6115 31.6034V19.2245H54.704V42H47.9198L47.7436 38.7401C46.5101 40.6784 44.1753 42.5727 40.8713 42.5727ZM65.2321 42H58.1835V19.2245H64.9237L65.0559 23.6739C66.1131 21.0307 68.2717 18.828 71.7079 18.828C72.1925 18.828 72.7211 18.872 73.1176 18.9602V25.7003C72.633 25.6562 71.9282 25.6122 71.2674 25.6122C67.1704 25.6122 65.2321 27.6386 65.2321 31.3832V42ZM82.4249 42H75.3764V19.2245H82.1165L82.2487 23.6739C83.3059 21.0307 85.4645 18.828 88.9007 18.828C89.3853 18.828 89.9139 18.872 90.3104 18.9602V25.7003C89.8258 25.6562 89.121 25.6122 88.4602 25.6122C84.3632 25.6122 82.4249 27.6386 82.4249 31.3832V42ZM103.158 42.5727C95.7135 42.5727 91.1319 37.9471 91.1319 30.8105V30.3699C91.1319 23.3655 95.8456 18.6518 103.158 18.6518C111.088 18.6518 115.053 24.2025 114.568 32.2202H98.1364C98.4448 35.7004 100.075 37.3744 103.114 37.3744C105.625 37.3744 107.035 36.1409 107.52 34.6872H114.436C113.335 39.489 109.238 42.5727 103.158 42.5727ZM98.2245 28.1232H107.476C107.299 25.5241 105.89 23.8501 103.07 23.8501C100.251 23.8501 98.7091 25.1717 98.2245 28.1232ZM124.425 42H117.377V19.2245H124.117L124.293 22.7047C125.394 20.6782 127.641 18.6518 131.474 18.6518C137.245 18.6518 139.403 22.3082 139.403 27.3743V42H132.355V29.1805C132.355 26.0968 131.386 24.2906 128.698 24.2906C126.143 24.2906 124.425 26.1408 124.425 29.4889V42ZM153.282 42.5727C147.511 42.5727 144.868 40.0176 144.868 35.1277V24.2906H140.727V19.2245H144.868V11.9557H151.917V19.2245H157.644V24.2906H151.917V34.6431C151.917 36.4493 152.798 37.1982 155.001 37.1982C156.058 37.1982 156.939 36.9779 157.732 36.7577V42C156.542 42.3524 154.78 42.5727 153.282 42.5727ZM180.755 42.5727C171.857 42.5727 167.319 38.0352 167.319 29.7091V10.7222H174.764V29.621C174.764 33.8942 176.526 36.3171 180.755 36.3171C184.941 36.3171 186.791 33.9823 186.791 29.577V10.7222H194.192V29.7091C194.192 37.9912 189.654 42.5727 180.755 42.5727ZM206.684 42.5727C199.988 42.5727 196.243 39.6211 195.891 34.6872H202.587C202.851 36.6255 204.393 37.7268 206.728 37.7268C208.843 37.7268 210.12 36.8898 210.12 35.5682C210.12 34.3347 209.371 33.5858 205.318 32.881C199.239 31.9118 196.552 29.9735 196.552 25.8765C196.552 21.5152 200.561 18.6518 206.464 18.6518C212.587 18.6518 216.243 21.4271 216.596 26.1408H210.032C209.856 24.3787 208.446 23.4536 206.376 23.4536C204.437 23.4536 203.292 24.2465 203.292 25.48C203.292 26.7135 204.217 27.3743 208.094 27.947C214.525 28.8721 217.036 31.0307 217.036 34.9074C217.036 39.489 213.072 42.5727 206.684 42.5727ZM230.536 42.5727C223.091 42.5727 218.509 37.9471 218.509 30.8105V30.3699C218.509 23.3655 223.223 18.6518 230.536 18.6518C238.466 18.6518 242.43 24.2025 241.946 32.2202H225.514C225.822 35.7004 227.452 37.3744 230.492 37.3744C233.003 37.3744 234.413 36.1409 234.897 34.6872H241.814C240.712 39.489 236.615 42.5727 230.536 42.5727ZM225.602 28.1232H234.853C234.677 25.5241 233.267 23.8501 230.448 23.8501C227.628 23.8501 226.087 25.1717 225.602 28.1232ZM251.803 42H244.754V19.2245H251.494L251.626 23.6739C252.684 21.0307 254.842 18.828 258.279 18.828C258.763 18.828 259.292 18.872 259.688 18.9602V25.7003C259.204 25.6562 258.499 25.6122 257.838 25.6122C253.741 25.6122 251.803 27.6386 251.803 31.3832V42ZM276.433 42H269.076V10.7222H291.103V16.7575H276.433V23.8941H289.473V29.8854H276.433V42ZM293.665 9.4006H300.714V42H293.665V9.4006ZM315.379 42.5727C308.199 42.5727 303.441 37.7268 303.441 30.8105V30.3699C303.441 23.4976 308.199 18.6518 315.379 18.6518C322.604 18.6518 327.318 23.4976 327.318 30.3699V30.8105C327.318 37.7268 322.604 42.5727 315.379 42.5727ZM315.379 37.1982C318.727 37.1982 320.181 34.9955 320.181 30.8105V30.3699C320.181 26.2289 318.727 24.0263 315.379 24.0263C312.075 24.0263 310.578 26.2289 310.578 30.3699V30.8105C310.578 34.9955 312.075 37.1982 315.379 37.1982ZM340.858 42H333.457L326.805 19.2245H333.898L337.642 34.6431L341.299 19.2245H348.215L351.915 34.7312L355.748 19.2245H362.664L355.968 42H348.567L344.691 26.8897L340.858 42Z" fill="#EB5B38"/>
</svg>
