<svg width="585" height="236" viewBox="0 0 585 236" fill="none" xmlns="http://www.w3.org/2000/svg">
<rect y="0.874023" width="584.8" height="234.5" rx="9.35" fill="#22C182"/>
<path d="M46.0666 52.118H54.5122V53.9234H48.3616V80.2088H54.5122V82.0142H46.0666V52.118ZM71.881 68.3054C71.881 66.8162 71.4526 65.6738 70.5958 64.8782C69.7594 64.0826 68.5558 63.6848 66.985 63.6848C66.475 63.6848 66.0058 63.7256 65.5774 63.8072C65.1694 63.8684 64.8124 63.95 64.5064 64.052V62.3996L71.2384 54.719H60.9874L61.171 52.6994H74.3596L74.176 54.5048L67.444 61.9406C67.546 61.9406 67.6378 61.9406 67.7194 61.9406C69.943 61.9406 71.5954 62.5424 72.6766 63.746C73.7782 64.9292 74.329 66.4592 74.329 68.336C74.329 69.8456 73.9822 71.1614 73.2886 72.2834C72.6154 73.4054 71.6464 74.2724 70.3816 74.8844C69.1168 75.476 67.6276 75.7718 65.914 75.7718C64.8736 75.7718 63.8434 75.6494 62.8234 75.4046C61.8034 75.1598 60.8752 74.7824 60.0388 74.2724L60.2836 71.7938C61.0792 72.4262 61.9768 72.8954 62.9764 73.2014C63.976 73.5074 64.9756 73.6604 65.9752 73.6604C67.7704 73.6604 69.1984 73.2014 70.2592 72.2834C71.3404 71.3654 71.881 70.0394 71.881 68.3054ZM89.6783 68.0606C89.6783 66.3878 89.1989 65.0924 88.2401 64.1744C87.3017 63.2564 85.9145 62.7974 84.0785 62.7974C83.2829 62.7974 82.4975 62.8892 81.7223 63.0728C80.9471 63.236 80.2025 63.4604 79.4885 63.746L80.7125 52.6994H91.8815L91.6367 54.719H82.7627L82.0283 61.298C82.9055 60.992 83.9051 60.839 85.0271 60.839C87.2711 60.839 89.0255 61.4816 90.2903 62.7668C91.5551 64.052 92.1875 65.7962 92.1875 67.9994C92.1875 69.6518 91.8305 71.0594 91.1165 72.2222C90.4025 73.385 89.4131 74.2724 88.1483 74.8844C86.8835 75.476 85.4147 75.7718 83.7419 75.7718C82.6811 75.7718 81.6611 75.6392 80.6819 75.374C79.7027 75.1292 78.7643 74.7518 77.8667 74.2418L78.1421 71.7632C79.8149 73.028 81.7223 73.6604 83.8643 73.6604C85.6187 73.6604 87.0263 73.1912 88.0871 72.2528C89.1479 71.3144 89.6783 69.917 89.6783 68.0606ZM102.702 70.9676C102.702 69.4988 103.09 68.336 103.865 67.4792C104.66 66.6224 105.701 66.194 106.986 66.194C108.251 66.194 109.281 66.6224 110.077 67.4792C110.872 68.336 111.27 69.4988 111.27 70.9676C111.27 72.4568 110.872 73.6298 110.077 74.4866C109.281 75.3434 108.251 75.7718 106.986 75.7718C105.701 75.7718 104.66 75.3434 103.865 74.4866C103.09 73.6298 102.702 72.4568 102.702 70.9676ZM104.599 70.9676C104.599 71.9876 104.813 72.773 105.242 73.3238C105.67 73.8746 106.252 74.15 106.986 74.15C107.72 74.15 108.292 73.8746 108.7 73.3238C109.128 72.773 109.342 71.9876 109.342 70.9676C109.342 69.9476 109.128 69.1622 108.7 68.6114C108.292 68.0606 107.72 67.7852 106.986 67.7852C106.252 67.7852 105.67 68.0606 105.242 68.6114C104.813 69.1622 104.599 69.9476 104.599 70.9676ZM95.2049 57.0752C95.2049 55.6064 95.5925 54.4436 96.3677 53.5868C97.1633 52.73 98.2037 52.3016 99.4889 52.3016C100.754 52.3016 101.784 52.73 102.58 53.5868C103.375 54.4436 103.773 55.6064 103.773 57.0752C103.773 58.5644 103.375 59.7374 102.58 60.5942C101.784 61.451 100.754 61.8794 99.4889 61.8794C98.2037 61.8794 97.1633 61.451 96.3677 60.5942C95.5925 59.7374 95.2049 58.5644 95.2049 57.0752ZM97.1021 57.0752C97.1021 58.0952 97.3163 58.8806 97.7447 59.4314C98.1731 59.9822 98.7545 60.2576 99.4889 60.2576C100.223 60.2576 100.795 59.9822 101.203 59.4314C101.631 58.8806 101.845 58.0952 101.845 57.0752C101.845 56.0552 101.631 55.2698 101.203 54.719C100.795 54.1682 100.223 53.8928 99.4889 53.8928C98.7545 53.8928 98.1731 54.1682 97.7447 54.719C97.3163 55.2698 97.1021 56.0552 97.1021 57.0752ZM95.5721 67.7546L110.872 58.2686V60.3494L95.5721 69.8354V67.7546ZM136.338 75.374H134.043V59.156H136.277V62.0324C136.909 61.0124 137.725 60.2168 138.725 59.6456C139.745 59.054 140.897 58.7582 142.183 58.7582C142.897 58.7582 143.6 58.85 144.294 59.0336C145.008 59.1968 145.681 59.4518 146.314 59.7986L145.549 62.1242C144.284 61.3286 143.009 60.9308 141.724 60.9308C140.581 60.9308 139.541 61.2368 138.602 61.8488C137.664 62.4608 136.909 63.3278 136.338 64.4498V75.374ZM149.943 67.0814C149.943 65.4086 150.239 63.95 150.83 62.7056C151.442 61.4612 152.299 60.4922 153.401 59.7986C154.523 59.105 155.849 58.7582 157.379 58.7582C159.419 58.7582 161 59.4008 162.122 60.686C163.264 61.9508 163.835 63.7358 163.835 66.041C163.835 66.2654 163.825 66.5 163.805 66.7448C163.805 66.9692 163.795 67.1834 163.774 67.3874H152.238C152.34 69.4886 152.983 71.09 154.166 72.1916C155.349 73.2728 156.848 73.8134 158.664 73.8134C159.48 73.8134 160.327 73.7012 161.204 73.4768C162.081 73.2524 162.836 72.8852 163.468 72.3752L163.713 74.6702C163.06 74.9966 162.275 75.2618 161.357 75.4658C160.439 75.6698 159.511 75.7718 158.572 75.7718C156.797 75.7718 155.267 75.425 153.982 74.7314C152.697 74.0174 151.697 73.0076 150.983 71.702C150.29 70.3964 149.943 68.8562 149.943 67.0814ZM161.571 65.6432C161.53 63.9704 161.143 62.6954 160.408 61.8182C159.694 60.941 158.654 60.5024 157.287 60.5024C155.9 60.5024 154.768 60.9614 153.89 61.8794C153.013 62.777 152.483 64.0316 152.299 65.6432H161.571ZM170.525 61.6958C171.014 60.7982 171.698 60.0842 172.575 59.5538C173.452 59.0234 174.442 58.7582 175.543 58.7582C176.89 58.7582 178.052 59.105 179.032 59.7986C180.011 60.4922 180.766 61.4714 181.296 62.7362C181.847 64.001 182.122 65.5106 182.122 67.265C182.122 68.999 181.857 70.5086 181.327 71.7938C180.796 73.0586 180.041 74.0378 179.062 74.7314C178.083 75.425 176.92 75.7718 175.574 75.7718C174.493 75.7718 173.513 75.527 172.636 75.0374C171.779 74.5274 171.106 73.8542 170.617 73.0178V82.0142H168.322V59.156H170.525V61.6958ZM170.617 70.5086C171.004 71.5082 171.606 72.3242 172.422 72.9566C173.258 73.5686 174.197 73.8746 175.237 73.8746C176.624 73.8746 177.716 73.283 178.511 72.0998C179.327 70.8962 179.735 69.2846 179.735 67.265C179.735 65.2454 179.327 63.644 178.511 62.4608C177.695 61.2572 176.573 60.6554 175.145 60.6554C174.125 60.6554 173.207 60.9614 172.391 61.5734C171.596 62.1854 171.004 63.0014 170.617 64.0214V70.5086ZM185.385 67.265C185.385 64.5722 186.027 62.4812 187.312 60.992C188.598 59.5028 190.383 58.7582 192.667 58.7582C194.973 58.7582 196.758 59.5028 198.022 60.992C199.308 62.4812 199.95 64.5722 199.95 67.265C199.95 69.9578 199.308 72.0488 198.022 73.538C196.758 75.0272 194.973 75.7718 192.667 75.7718C190.383 75.7718 188.598 75.0272 187.312 73.538C186.027 72.0488 185.385 69.9578 185.385 67.265ZM187.771 67.265C187.771 69.3662 188.2 70.9982 189.057 72.161C189.913 73.3034 191.117 73.8746 192.667 73.8746C194.238 73.8746 195.442 73.3034 196.278 72.161C197.135 70.9982 197.563 69.3662 197.563 67.265C197.563 65.1434 197.135 63.5114 196.278 62.369C195.442 61.2266 194.238 60.6554 192.667 60.6554C191.117 60.6554 189.913 61.2266 189.057 62.369C188.2 63.5114 187.771 65.1434 187.771 67.265ZM207.894 75.374H205.599V59.156H207.833V62.0324C208.465 61.0124 209.281 60.2168 210.281 59.6456C211.301 59.054 212.454 58.7582 213.739 58.7582C214.453 58.7582 215.157 58.85 215.85 59.0336C216.564 59.1968 217.237 59.4518 217.87 59.7986L217.105 62.1242C215.84 61.3286 214.565 60.9308 213.28 60.9308C212.137 60.9308 211.097 61.2368 210.159 61.8488C209.22 62.4608 208.465 63.3278 207.894 64.4498V75.374ZM225.722 69.8966V60.9002H221.04V59.156H225.722V55.1474L228.017 54.1376V59.156H234.841V60.9002H228.017V69.6518C228.017 71.1002 228.364 72.161 229.057 72.8342C229.751 73.487 230.608 73.8134 231.628 73.8134C232.097 73.8134 232.617 73.7522 233.188 73.6298C233.78 73.5074 234.3 73.2932 234.749 72.9872L234.535 75.1598C234.168 75.3434 233.647 75.4862 232.974 75.5882C232.321 75.7106 231.699 75.7718 231.108 75.7718C229.516 75.7718 228.221 75.272 227.221 74.2724C226.222 73.2728 225.722 71.8142 225.722 69.8966ZM239.388 67.0814C239.388 65.4086 239.684 63.95 240.276 62.7056C240.888 61.4612 241.744 60.4922 242.846 59.7986C243.968 59.105 245.294 58.7582 246.824 58.7582C248.864 58.7582 250.445 59.4008 251.567 60.686C252.709 61.9508 253.281 63.7358 253.281 66.041C253.281 66.2654 253.27 66.5 253.25 66.7448C253.25 66.9692 253.24 67.1834 253.219 67.3874H241.683C241.785 69.4886 242.428 71.09 243.611 72.1916C244.794 73.2728 246.294 73.8134 248.109 73.8134C248.925 73.8134 249.772 73.7012 250.649 73.4768C251.526 73.2524 252.281 72.8852 252.913 72.3752L253.158 74.6702C252.505 74.9966 251.72 75.2618 250.802 75.4658C249.884 75.6698 248.956 75.7718 248.017 75.7718C246.243 75.7718 244.713 75.425 243.427 74.7314C242.142 74.0174 241.143 73.0076 240.429 71.702C239.735 70.3964 239.388 68.8562 239.388 67.0814ZM251.016 65.6432C250.975 63.9704 250.588 62.6954 249.853 61.8182C249.139 60.941 248.099 60.5024 246.732 60.5024C245.345 60.5024 244.213 60.9614 243.336 61.8794C242.458 62.777 241.928 64.0316 241.744 65.6432H251.016ZM268.477 72.8648C267.967 73.742 267.273 74.4458 266.396 74.9762C265.539 75.5066 264.56 75.7718 263.458 75.7718C262.132 75.7718 260.97 75.425 259.97 74.7314C258.991 74.0378 258.226 73.0586 257.675 71.7938C257.145 70.5086 256.879 68.999 256.879 67.265C256.879 65.5106 257.145 64.001 257.675 62.7362C258.205 61.4714 258.96 60.4922 259.939 59.7986C260.939 59.105 262.112 58.7582 263.458 58.7582C264.519 58.7582 265.478 59.003 266.335 59.4926C267.212 59.9822 267.895 60.6554 268.385 61.5122V52.118H270.68V75.374H268.477V72.8648ZM268.385 63.9908C267.997 62.9912 267.385 62.1854 266.549 61.5734C265.733 60.9614 264.815 60.6554 263.795 60.6554C262.408 60.6554 261.306 61.2572 260.49 62.4608C259.674 63.644 259.266 65.2454 259.266 67.265C259.266 69.2846 259.674 70.8962 260.49 72.0998C261.306 73.283 262.428 73.8746 263.856 73.8746C264.856 73.8746 265.753 73.5686 266.549 72.9566C267.365 72.3446 267.977 71.549 268.385 70.5698V63.9908ZM304.255 72.8648C303.745 73.742 303.051 74.4458 302.174 74.9762C301.317 75.5066 300.338 75.7718 299.237 75.7718C297.911 75.7718 296.748 75.425 295.748 74.7314C294.769 74.0378 294.004 73.0586 293.453 71.7938C292.923 70.5086 292.658 68.999 292.658 67.265C292.658 65.5106 292.923 64.001 293.453 62.7362C293.984 61.4714 294.738 60.4922 295.718 59.7986C296.717 59.105 297.89 58.7582 299.237 58.7582C300.297 58.7582 301.256 59.003 302.113 59.4926C302.99 59.9822 303.674 60.6554 304.163 61.5122V52.118H306.458V75.374H304.255V72.8648ZM304.163 63.9908C303.776 62.9912 303.164 62.1854 302.327 61.5734C301.511 60.9614 300.593 60.6554 299.573 60.6554C298.186 60.6554 297.084 61.2572 296.268 62.4608C295.452 63.644 295.044 65.2454 295.044 67.265C295.044 69.2846 295.452 70.8962 296.268 72.0998C297.084 73.283 298.206 73.8746 299.634 73.8746C300.634 73.8746 301.532 73.5686 302.327 72.9566C303.143 72.3446 303.755 71.549 304.163 70.5698V63.9908ZM311.342 73.6298H317.126V60.9002H311.679V59.156H319.421V73.6298H325.173V75.374H311.342V73.6298ZM315.871 54.107C315.871 53.5154 316.055 53.036 316.422 52.6688C316.809 52.3016 317.289 52.118 317.86 52.118C318.431 52.118 318.9 52.3016 319.268 52.6688C319.655 53.036 319.849 53.5154 319.849 54.107C319.849 54.6782 319.655 55.1474 319.268 55.5146C318.9 55.8818 318.431 56.0654 317.86 56.0654C317.289 56.0654 316.809 55.8818 316.422 55.5146C316.055 55.1474 315.871 54.6782 315.871 54.107ZM333.117 60.9002H328.527V59.156H333.117V58.2074C333.117 56.8406 333.393 55.6778 333.944 54.719C334.515 53.7602 335.29 53.0258 336.269 52.5158C337.269 51.9854 338.421 51.7202 339.727 51.7202C340.441 51.7202 341.114 51.8018 341.747 51.965C342.399 52.1282 343.042 52.3628 343.674 52.6688L343.032 54.6884C342.461 54.3212 341.91 54.0662 341.379 53.9234C340.849 53.7602 340.319 53.6786 339.788 53.6786C338.483 53.6786 337.422 54.056 336.606 54.8108C335.81 55.5656 335.412 56.6672 335.412 58.1156V59.156H342.634V60.9002H335.412V75.374H333.117V60.9002ZM351.006 60.9002H346.416V59.156H351.006V58.2074C351.006 56.8406 351.282 55.6778 351.833 54.719C352.404 53.7602 353.179 53.0258 354.158 52.5158C355.158 51.9854 356.31 51.7202 357.616 51.7202C358.33 51.7202 359.003 51.8018 359.636 51.965C360.288 52.1282 360.931 52.3628 361.563 52.6688L360.921 54.6884C360.35 54.3212 359.799 54.0662 359.268 53.9234C358.738 53.7602 358.208 53.6786 357.677 53.6786C356.372 53.6786 355.311 54.056 354.495 54.8108C353.699 55.5656 353.301 56.6672 353.301 58.1156V59.156H360.523V60.9002H353.301V75.374H351.006V60.9002ZM365.009 73.6298H370.793V60.9002H365.346V59.156H373.088V73.6298H378.841V75.374H365.009V73.6298ZM369.538 54.107C369.538 53.5154 369.722 53.036 370.089 52.6688C370.477 52.3016 370.956 52.118 371.527 52.118C372.098 52.118 372.568 52.3016 372.935 52.6688C373.322 53.036 373.516 53.5154 373.516 54.107C373.516 54.6782 373.322 55.1474 372.935 55.5146C372.568 55.8818 372.098 56.0654 371.527 56.0654C370.956 56.0654 370.477 55.8818 370.089 55.5146C369.722 55.1474 369.538 54.6782 369.538 54.107ZM383.266 67.265C383.266 65.5922 383.582 64.1234 384.214 62.8586C384.867 61.5734 385.785 60.5738 386.968 59.8598C388.151 59.1254 389.539 58.7582 391.13 58.7582C392.191 58.7582 393.119 58.8806 393.914 59.1254C394.73 59.3702 395.455 59.666 396.087 60.0128L395.414 62.0936C394.781 61.6448 394.129 61.298 393.455 61.0532C392.782 60.8084 392.038 60.686 391.222 60.686C389.467 60.686 388.1 61.2776 387.121 62.4608C386.142 63.644 385.652 65.2352 385.652 67.2344C385.652 69.2744 386.173 70.886 387.213 72.0692C388.253 73.232 389.702 73.8134 391.558 73.8134C393.211 73.8134 394.588 73.3442 395.689 72.4058L395.934 74.6396C395.424 74.9252 394.771 75.1802 393.976 75.4046C393.18 75.6494 392.282 75.7718 391.283 75.7718C389.63 75.7718 388.202 75.425 386.999 74.7314C385.795 74.0378 384.867 73.0586 384.214 71.7938C383.582 70.5086 383.266 68.999 383.266 67.265ZM400.512 69.7436V59.156H402.807V69.6824C402.807 70.9472 403.154 71.957 403.847 72.7118C404.541 73.4462 405.479 73.8134 406.663 73.8134C407.764 73.8134 408.754 73.5074 409.631 72.8954C410.508 72.263 411.14 71.4776 411.528 70.5392V59.156H413.823V75.374H411.589V72.8342C410.998 73.7726 410.222 74.4968 409.264 75.0068C408.305 75.5168 407.254 75.7718 406.112 75.7718C404.439 75.7718 403.082 75.2516 402.042 74.2112C401.022 73.1504 400.512 71.6612 400.512 69.7436ZM422.807 69.8966V53.8622H417.483V52.118H425.102V69.6518C425.102 71.0798 425.408 72.1304 426.02 72.8036C426.653 73.4768 427.54 73.8134 428.683 73.8134C429.172 73.8134 429.713 73.7522 430.304 73.6298C430.896 73.5074 431.406 73.2932 431.834 72.9872L431.59 75.1598C431.243 75.3434 430.743 75.4862 430.09 75.5882C429.437 75.7106 428.815 75.7718 428.224 75.7718C426.49 75.7718 425.153 75.272 424.215 74.2724C423.277 73.2524 422.807 71.7938 422.807 69.8966ZM440.39 69.8966V60.9002H435.709V59.156H440.39V55.1474L442.685 54.1376V59.156H449.509V60.9002H442.685V69.6518C442.685 71.1002 443.032 72.161 443.726 72.8342C444.419 73.487 445.276 73.8134 446.296 73.8134C446.765 73.8134 447.286 73.7522 447.857 73.6298C448.448 73.5074 448.969 73.2932 449.417 72.9872L449.203 75.1598C448.836 75.3434 448.316 75.4862 447.643 75.5882C446.99 75.7106 446.368 75.7718 445.776 75.7718C444.185 75.7718 442.889 75.272 441.89 74.2724C440.89 73.2728 440.39 71.8142 440.39 69.8966ZM452.098 79.7498C452.914 80.219 453.792 80.4536 454.73 80.4536C455.811 80.4536 456.729 80.0864 457.484 79.352C458.259 78.638 459.024 77.414 459.779 75.68L459.84 75.5576C459.065 73.9052 458.31 72.2528 457.576 70.6004C456.862 68.9276 456.127 67.163 455.373 65.3066C454.638 63.4502 453.863 61.4 453.047 59.156H455.464C456.444 62.012 457.382 64.5926 458.28 66.8978C459.198 69.1826 460.105 71.345 461.003 73.385C461.717 71.855 462.38 70.3556 462.992 68.8868C463.604 67.3976 464.206 65.8676 464.797 64.2968C465.389 62.726 466.001 61.0124 466.633 59.156H468.959C468.184 61.3184 467.439 63.2972 466.725 65.0924C466.032 66.8672 465.318 68.591 464.583 70.2638C463.849 71.9162 463.043 73.6298 462.166 75.4046C461.472 76.8326 460.84 77.9954 460.269 78.893C459.718 79.811 459.167 80.525 458.616 81.035C458.086 81.545 457.515 81.902 456.903 82.106C456.291 82.31 455.597 82.412 454.822 82.412C454.189 82.412 453.639 82.361 453.169 82.259C452.7 82.157 452.272 82.0244 451.884 81.8612L452.098 79.7498ZM482.411 82.0142H473.935V80.2088H480.085V53.9234H473.935V52.118H482.411V82.0142Z" fill="white"/>
<path d="M45.7041 129.04C43.2139 129.04 41.4375 127.695 41.3711 125.736H43.2305C43.2969 126.799 44.3428 127.463 45.6875 127.463C47.1318 127.463 48.1943 126.666 48.1943 125.504C48.1943 124.325 47.1982 123.462 45.4883 123.462H44.459V121.968H45.4883C46.8496 121.968 47.8125 121.204 47.8125 120.059C47.8125 118.963 46.999 118.216 45.7207 118.216C44.5088 118.216 43.4463 118.88 43.3965 119.976H41.6367C41.6865 118.017 43.4961 116.688 45.7373 116.688C48.0947 116.688 49.5889 118.183 49.5723 119.959C49.5889 121.32 48.7422 122.316 47.4473 122.632V122.715C49.0908 122.947 50.0371 124.043 50.0371 125.57C50.0371 127.579 48.1943 129.04 45.7041 129.04ZM56.1299 129.04C53.8555 129.04 52.1455 127.646 52.0625 125.736H53.8389C53.9385 126.766 54.918 127.513 56.1299 127.513C57.5908 127.513 58.6367 126.45 58.6367 125.022C58.6367 123.562 57.5576 122.499 56.0469 122.482C55.084 122.482 54.3535 122.798 53.9385 123.545H52.2119L52.9922 116.854H59.7988V118.415H54.5029L54.1045 121.785H54.2207C54.7187 121.304 55.5654 120.972 56.4785 120.972C58.7363 120.972 60.4131 122.648 60.4131 124.973C60.4131 127.347 58.6367 129.04 56.1299 129.04ZM65.1113 122.565C63.4678 122.582 62.5713 121.354 62.5879 119.577C62.5713 117.817 63.501 116.605 65.1113 116.605C66.7549 116.605 67.6348 117.817 67.6348 119.577C67.6348 121.37 66.7217 122.582 65.1113 122.565ZM65.1113 121.403C65.8916 121.403 66.2568 120.673 66.2568 119.577C66.2568 118.498 65.9082 117.768 65.1113 117.768C64.3476 117.784 63.9492 118.498 63.9492 119.577C63.9492 120.673 64.331 121.403 65.1113 121.403ZM72.6982 129.123C71.0547 129.123 70.1582 127.911 70.1748 126.135C70.1582 124.358 71.1045 123.146 72.6982 123.146C74.3418 123.146 75.2217 124.358 75.2217 126.135C75.2217 127.911 74.3086 129.123 72.6982 129.123ZM72.6982 127.944C73.4785 127.944 73.8437 127.214 73.8437 126.135C73.8437 125.039 73.4951 124.309 72.6982 124.309C71.9346 124.325 71.5361 125.056 71.5361 126.135C71.5361 127.214 71.9346 127.944 72.6982 127.944ZM63.9492 128.874L72.2002 116.854H73.7109L65.4599 128.874H63.9492ZM85.5478 129.057C82.9912 129.057 81.331 127.197 81.331 124.408C81.331 121.603 82.9912 119.743 85.5478 119.743C88.0879 119.743 89.748 121.603 89.748 124.408C89.748 127.197 88.0879 129.057 85.5478 129.057ZM85.5478 127.579C87.1748 127.579 87.9551 126.135 87.9551 124.408C87.9551 122.682 87.1748 121.204 85.5478 121.204C83.8877 121.204 83.1074 122.682 83.1074 124.408C83.1074 126.135 83.8877 127.579 85.5478 127.579ZM95.791 119.859V121.271H93.8486V128.874H92.0722V121.271H90.6777V119.859H92.0722V118.813C92.0722 117.203 93.1015 116.29 94.7617 116.29C95.1933 116.29 95.625 116.34 95.9736 116.406V117.884C95.6416 117.834 95.3926 117.817 95.2265 117.817C94.2802 117.817 93.8486 118.199 93.8486 119.079V119.859H95.791ZM105.337 132.443C103.062 132.443 101.568 131.431 101.402 129.754H103.212C103.378 130.601 104.175 131.016 105.353 131.016C106.765 131.016 107.661 130.418 107.661 129.007V127.23H107.545C107.229 127.812 106.582 128.741 104.922 128.741C102.797 128.741 101.153 127.147 101.153 124.275C101.153 121.403 102.764 119.743 104.938 119.743C106.615 119.743 107.229 120.756 107.561 121.32H107.678V119.859H109.404V129.073C109.404 131.381 107.661 132.443 105.337 132.443ZM105.32 127.28C106.831 127.28 107.678 126.168 107.678 124.309C107.678 122.482 106.848 121.254 105.32 121.254C103.743 121.254 102.963 122.582 102.963 124.309C102.963 126.068 103.776 127.28 105.32 127.28ZM115.447 129.057C112.791 129.057 111.164 127.23 111.164 124.425C111.164 121.652 112.824 119.743 115.331 119.743C117.39 119.743 119.332 121.021 119.332 124.275V124.906H112.924C112.974 126.616 113.978 127.596 115.464 127.596C116.477 127.596 117.124 127.164 117.423 126.616H119.216C118.817 128.077 117.423 129.057 115.447 129.057ZM112.94 123.578H117.589C117.589 122.2 116.709 121.204 115.348 121.204C113.928 121.204 113.007 122.3 112.94 123.578ZM122.868 123.528V128.874H121.092V119.859H122.802V121.337H122.901C123.333 120.374 124.213 119.743 125.558 119.743C127.417 119.743 128.629 120.905 128.629 123.146V128.874H126.869V123.362C126.869 122.051 126.155 121.271 124.96 121.271C123.748 121.271 122.868 122.084 122.868 123.528ZM134.672 129.057C132.016 129.057 130.389 127.23 130.389 124.425C130.389 121.652 132.049 119.743 134.556 119.743C136.614 119.743 138.557 121.021 138.557 124.275V124.906H132.148C132.198 126.616 133.203 127.596 134.688 127.596C135.701 127.596 136.349 127.164 136.647 126.616H138.44C138.042 128.077 136.647 129.057 134.672 129.057ZM132.165 123.578H136.813C136.813 122.2 135.934 121.204 134.572 121.204C133.153 121.204 132.231 122.3 132.165 123.578ZM140.316 128.874V119.859H142.026V121.287H142.126C142.458 120.324 143.354 119.727 144.417 119.727C144.633 119.727 144.981 119.743 145.164 119.76V121.453C145.015 121.42 144.6 121.354 144.234 121.354C143.006 121.354 142.093 122.2 142.093 123.379V128.874H140.316ZM145.977 126.334C145.977 124.275 147.721 123.744 149.348 123.628C149.945 123.586 151.298 123.512 151.722 123.495L151.705 122.781C151.705 121.769 151.091 121.171 149.879 121.171C148.833 121.171 148.202 121.652 148.019 122.316H146.26C146.426 120.822 147.82 119.743 149.945 119.743C151.373 119.743 153.481 120.274 153.481 122.881V128.874H151.755V127.646H151.688C151.34 128.326 150.51 129.073 149.016 129.073C147.306 129.073 145.977 128.094 145.977 126.334ZM147.704 126.351C147.704 127.214 148.418 127.662 149.414 127.662C150.858 127.662 151.722 126.699 151.722 125.62V124.79C151.307 124.823 150.012 124.915 149.597 124.939C148.435 125.022 147.704 125.454 147.704 126.351ZM157.399 116.854V128.874H155.623V116.854H157.399ZM169.435 125.122V119.859H171.195V128.874H169.469V127.313H169.369C168.954 128.276 168.024 128.99 166.68 128.99C164.936 128.99 163.708 127.828 163.708 125.587V119.859H165.484V125.371C165.484 126.6 166.231 127.38 167.31 127.38C168.29 127.38 169.435 126.666 169.435 125.122ZM178.417 122.316C178.251 121.603 177.686 121.138 176.707 121.138C175.694 121.138 174.964 121.669 174.98 122.35C174.964 122.881 175.395 123.263 176.392 123.495L177.819 123.827C179.479 124.192 180.276 124.989 180.293 126.268C180.276 127.895 178.915 129.057 176.607 129.057C174.449 129.057 173.154 128.094 172.938 126.417H174.748C174.897 127.23 175.528 127.629 176.591 127.629C177.736 127.629 178.467 127.164 178.483 126.4C178.467 125.819 178.035 125.438 177.089 125.222L175.678 124.923C174.051 124.558 173.204 123.694 173.204 122.449C173.204 120.839 174.599 119.743 176.69 119.743C178.699 119.743 179.944 120.772 180.127 122.316H178.417ZM185.904 129.057C183.248 129.057 181.621 127.23 181.621 124.425C181.621 121.652 183.281 119.743 185.788 119.743C187.847 119.743 189.789 121.021 189.789 124.275V124.906H183.381C183.431 126.616 184.435 127.596 185.921 127.596C186.934 127.596 187.581 127.164 187.88 126.616H189.673C189.274 128.077 187.88 129.057 185.904 129.057ZM183.397 123.578H188.046C188.046 122.2 187.166 121.204 185.805 121.204C184.385 121.204 183.464 122.3 183.397 123.578ZM191.549 128.874V119.859H193.259V121.287H193.358C193.69 120.324 194.587 119.727 195.649 119.727C195.865 119.727 196.214 119.743 196.396 119.76V121.453C196.247 121.42 195.832 121.354 195.467 121.354C194.238 121.354 193.325 122.2 193.325 123.379V128.874H191.549ZM202.788 122.316C202.622 121.603 202.058 121.138 201.078 121.138C200.065 121.138 199.335 121.669 199.351 122.35C199.335 122.881 199.767 123.263 200.763 123.495L202.19 123.827C203.851 124.192 204.647 124.989 204.664 126.268C204.647 127.895 203.286 129.057 200.978 129.057C198.82 129.057 197.525 128.094 197.309 126.417H199.119C199.268 127.23 199.899 127.629 200.962 127.629C202.107 127.629 202.838 127.164 202.854 126.4C202.838 125.819 202.406 125.438 201.46 125.222L200.049 124.923C198.422 124.558 197.575 123.694 197.575 122.449C197.575 120.839 198.97 119.743 201.061 119.743C203.07 119.743 204.315 120.772 204.498 122.316H202.788ZM210.541 128.874V119.859H212.251V121.287H212.351C212.683 120.324 213.579 119.727 214.642 119.727C214.857 119.727 215.206 119.743 215.389 119.76V121.453C215.239 121.42 214.824 121.354 214.459 121.354C213.23 121.354 212.317 122.2 212.317 123.379V128.874H210.541ZM220.303 129.057C217.646 129.057 216.019 127.23 216.019 124.425C216.019 121.652 217.68 119.743 220.186 119.743C222.245 119.743 224.187 121.021 224.187 124.275V124.906H217.779C217.829 126.616 218.833 127.596 220.319 127.596C221.332 127.596 221.979 127.164 222.278 126.616H224.071C223.673 128.077 222.278 129.057 220.303 129.057ZM217.796 123.578H222.444C222.444 122.2 221.564 121.204 220.203 121.204C218.784 121.204 217.862 122.3 217.796 123.578ZM225.947 132.261V119.859H227.674V121.32H227.823C228.139 120.756 228.753 119.743 230.413 119.743C232.588 119.743 234.198 121.453 234.198 124.392C234.198 127.297 232.621 129.057 230.43 129.057C228.786 129.057 228.139 128.061 227.823 127.463H227.724V132.261H225.947ZM227.69 124.358C227.69 126.251 228.52 127.546 230.031 127.546C231.592 127.546 232.405 126.168 232.405 124.358C232.405 122.582 231.608 121.254 230.031 121.254C228.504 121.254 227.69 122.482 227.69 124.358ZM239.776 129.057C237.22 129.057 235.559 127.197 235.559 124.408C235.559 121.603 237.22 119.743 239.776 119.743C242.316 119.743 243.976 121.603 243.976 124.408C243.976 127.197 242.316 129.057 239.776 129.057ZM239.776 127.579C241.403 127.579 242.183 126.135 242.183 124.408C242.183 122.682 241.403 121.204 239.776 121.204C238.116 121.204 237.336 122.682 237.336 124.408C237.336 126.135 238.116 127.579 239.776 127.579ZM245.72 128.874V119.859H247.43V121.287H247.529C247.861 120.324 248.758 119.727 249.82 119.727C250.036 119.727 250.385 119.743 250.567 119.76V121.453C250.418 121.42 250.003 121.354 249.638 121.354C248.409 121.354 247.496 122.2 247.496 123.379V128.874H245.72ZM256.643 119.859V121.271H254.801V126.218C254.801 127.23 255.315 127.413 255.88 127.43C256.129 127.43 256.527 127.396 256.776 127.38V128.924C256.527 128.957 256.145 128.99 255.664 128.99C254.269 128.99 253.024 128.227 253.041 126.583V121.271H251.713V119.859H253.041V117.701H254.801V119.859H256.643ZM262.155 129.057C259.499 129.057 257.872 127.23 257.872 124.425C257.872 121.652 259.532 119.743 262.039 119.743C264.098 119.743 266.04 121.021 266.04 124.275V124.906H259.632C259.682 126.616 260.686 127.596 262.172 127.596C263.184 127.596 263.832 127.164 264.131 126.616H265.924C265.525 128.077 264.131 129.057 262.155 129.057ZM259.648 123.578H264.297C264.297 122.2 263.417 121.204 262.056 121.204C260.636 121.204 259.715 122.3 259.648 123.578ZM271.17 129.057C268.995 129.057 267.401 127.297 267.401 124.392C267.401 121.453 269.012 119.743 271.186 119.743C272.863 119.743 273.477 120.756 273.793 121.32H273.876V116.854H275.652V128.874H273.926V127.463H273.793C273.461 128.061 272.813 129.057 271.17 129.057ZM271.568 127.546C273.079 127.546 273.926 126.251 273.926 124.358C273.926 122.482 273.096 121.254 271.568 121.254C269.991 121.254 269.211 122.582 269.211 124.358C269.211 126.168 270.024 127.546 271.568 127.546ZM285.48 129.057C283.306 129.057 281.712 127.297 281.712 124.392C281.712 121.453 283.322 119.743 285.497 119.743C287.174 119.743 287.788 120.756 288.103 121.32H288.186V116.854H289.963V128.874H288.236V127.463H288.103C287.771 128.061 287.124 129.057 285.48 129.057ZM285.879 127.546C287.39 127.546 288.236 126.251 288.236 124.358C288.236 122.482 287.406 121.254 285.879 121.254C284.302 121.254 283.521 122.582 283.521 124.358C283.521 126.168 284.335 127.546 285.879 127.546ZM292.27 128.874V119.859H294.047V128.874H292.27ZM293.167 118.465C292.553 118.465 292.038 118 292.038 117.419C292.038 116.838 292.553 116.373 293.167 116.373C293.765 116.373 294.279 116.838 294.279 117.419C294.279 118 293.765 118.465 293.167 118.465ZM300.505 119.859V121.271H298.562V128.874H296.786V121.271H295.391V119.859H296.786V118.813C296.786 117.203 297.815 116.29 299.475 116.29C299.907 116.29 300.339 116.34 300.687 116.406V117.884C300.355 117.834 300.106 117.817 299.94 117.817C298.994 117.817 298.562 118.199 298.562 119.079V119.859H300.505ZM306.415 119.859V121.271H304.473V128.874H302.696V121.271H301.302V119.859H302.696V118.813C302.696 117.203 303.725 116.29 305.386 116.29C305.817 116.29 306.249 116.34 306.598 116.406V117.884C306.266 117.834 306.016 117.817 305.85 117.817C304.904 117.817 304.473 118.199 304.473 119.079V119.859H306.415ZM308.025 128.874V119.859H309.802V128.874H308.025ZM308.922 118.465C308.307 118.465 307.793 118 307.793 117.419C307.793 116.838 308.307 116.373 308.922 116.373C309.519 116.373 310.034 116.838 310.034 117.419C310.034 118 309.519 118.465 308.922 118.465ZM315.778 129.057C313.155 129.057 311.561 127.114 311.561 124.408C311.561 121.652 313.205 119.743 315.745 119.743C317.804 119.743 319.298 120.955 319.48 122.781H317.754C317.571 121.935 316.891 121.221 315.778 121.221C314.317 121.221 313.338 122.433 313.338 124.358C313.338 126.334 314.301 127.546 315.778 127.546C316.774 127.546 317.538 126.998 317.754 126.019H319.48C319.281 127.762 317.903 129.057 315.778 129.057ZM326.885 125.122V119.859H328.644V128.874H326.918V127.313H326.818C326.403 128.276 325.474 128.99 324.129 128.99C322.386 128.99 321.157 127.828 321.157 125.587V119.859H322.933V125.371C322.933 126.6 323.681 127.38 324.76 127.38C325.739 127.38 326.885 126.666 326.885 125.122ZM332.579 116.854V128.874H330.803V116.854H332.579ZM338.954 119.859V121.271H337.111V126.218C337.111 127.23 337.626 127.413 338.19 127.43C338.439 127.43 338.838 127.396 339.087 127.38V128.924C338.838 128.957 338.456 128.99 337.974 128.99C336.58 128.99 335.335 128.227 335.351 126.583V121.271H334.023V119.859H335.351V117.701H337.111V119.859H338.954ZM341.776 132.261C341.411 132.261 341.062 132.244 340.83 132.211V130.733C341.029 130.75 341.378 130.767 341.627 130.767C342.175 130.767 342.64 130.717 343.055 129.588L343.27 128.99L339.967 119.859H341.859L344.134 126.849H344.233L346.508 119.859H348.417L344.698 130.069C344.183 131.497 343.254 132.261 341.776 132.261ZM358.311 119.859V121.271H356.369V128.874H354.593V121.271H353.198V119.859H354.593V118.813C354.593 117.203 355.622 116.29 357.282 116.29C357.714 116.29 358.145 116.34 358.494 116.406V117.884C358.162 117.834 357.913 117.817 357.747 117.817C356.801 117.817 356.369 118.199 356.369 119.079V119.859H358.311ZM359.922 128.874V119.859H361.698V128.874H359.922ZM360.818 118.465C360.204 118.465 359.689 118 359.689 117.419C359.689 116.838 360.204 116.373 360.818 116.373C361.416 116.373 361.931 116.838 361.931 117.419C361.931 118 361.416 118.465 360.818 118.465ZM365.633 123.528V128.874H363.856V119.859H365.566V121.337H365.666C366.098 120.374 366.977 119.743 368.322 119.743C370.181 119.743 371.393 120.905 371.393 123.146V128.874H369.634V123.362C369.634 122.051 368.92 121.271 367.724 121.271C366.513 121.271 365.633 122.084 365.633 123.528ZM376.922 129.057C374.747 129.057 373.153 127.297 373.153 124.392C373.153 121.453 374.764 119.743 376.938 119.743C378.615 119.743 379.229 120.756 379.545 121.32H379.628V116.854H381.404V128.874H379.678V127.463H379.545C379.213 128.061 378.565 129.057 376.922 129.057ZM377.32 127.546C378.831 127.546 379.678 126.251 379.678 124.358C379.678 122.482 378.848 121.254 377.32 121.254C375.743 121.254 374.963 122.582 374.963 124.358C374.963 126.168 375.776 127.546 377.32 127.546ZM383.712 128.874V119.859H385.488V128.874H383.712ZM384.608 118.465C383.994 118.465 383.479 118 383.479 117.419C383.479 116.838 383.994 116.373 384.608 116.373C385.206 116.373 385.721 116.838 385.721 117.419C385.721 118 385.206 118.465 384.608 118.465ZM389.423 123.528V128.874H387.646V119.859H389.356V121.337H389.456C389.888 120.374 390.767 119.743 392.112 119.743C393.972 119.743 395.183 120.905 395.183 123.146V128.874H393.424V123.362C393.424 122.051 392.71 121.271 391.514 121.271C390.303 121.271 389.423 122.084 389.423 123.528ZM401.127 132.443C398.852 132.443 397.358 131.431 397.192 129.754H399.002C399.168 130.601 399.965 131.016 401.143 131.016C402.555 131.016 403.451 130.418 403.451 129.007V127.23H403.335C403.019 127.812 402.372 128.741 400.712 128.741C398.587 128.741 396.943 127.147 396.943 124.275C396.943 121.403 398.554 119.743 400.728 119.743C402.405 119.743 403.019 120.756 403.351 121.32H403.468V119.859H405.194V129.073C405.194 131.381 403.451 132.443 401.127 132.443ZM401.11 127.28C402.621 127.28 403.468 126.168 403.468 124.309C403.468 122.482 402.638 121.254 401.11 121.254C399.533 121.254 398.753 122.582 398.753 124.309C398.753 126.068 399.566 127.28 401.11 127.28ZM413.478 116.854V128.874H411.652V116.854H413.478ZM417.546 123.528V128.874H415.769V119.859H417.479V121.337H417.579C418.011 120.374 418.89 119.743 420.235 119.743C422.095 119.743 423.306 120.905 423.306 123.146V128.874H421.547V123.362C421.547 122.051 420.833 121.271 419.638 121.271C418.426 121.271 417.546 122.084 417.546 123.528ZM430.528 122.316C430.362 121.603 429.798 121.138 428.818 121.138C427.805 121.138 427.075 121.669 427.092 122.35C427.075 122.881 427.507 123.263 428.503 123.495L429.93 123.827C431.591 124.192 432.388 124.989 432.404 126.268C432.388 127.895 431.026 129.057 428.719 129.057C426.56 129.057 425.265 128.094 425.05 126.417H426.859C427.009 127.23 427.639 127.629 428.702 127.629C429.847 127.629 430.578 127.164 430.595 126.4C430.578 125.819 430.146 125.438 429.2 125.222L427.789 124.923C426.162 124.558 425.315 123.694 425.315 122.449C425.315 120.839 426.71 119.743 428.802 119.743C430.81 119.743 432.055 120.772 432.238 122.316H430.528ZM438.347 119.859V121.271H436.505V126.218C436.505 127.23 437.019 127.413 437.584 127.43C437.833 127.43 438.231 127.396 438.48 127.38V128.924C438.231 128.957 437.849 128.99 437.368 128.99C435.973 128.99 434.728 128.227 434.745 126.583V121.271H433.417V119.859H434.745V117.701H436.505V119.859H438.347ZM439.659 126.334C439.659 124.275 441.402 123.744 443.029 123.628C443.627 123.586 444.98 123.512 445.403 123.495L445.387 122.781C445.387 121.769 444.772 121.171 443.56 121.171C442.514 121.171 441.884 121.652 441.701 122.316H439.941C440.107 120.822 441.502 119.743 443.627 119.743C445.055 119.743 447.163 120.274 447.163 122.881V128.874H445.436V127.646H445.37C445.021 128.326 444.191 129.073 442.697 129.073C440.987 129.073 439.659 128.094 439.659 126.334ZM441.386 126.351C441.386 127.214 442.099 127.662 443.096 127.662C444.54 127.662 445.403 126.699 445.403 125.62V124.79C444.988 124.823 443.693 124.915 443.278 124.939C442.116 125.022 441.386 125.454 441.386 126.351ZM453.09 132.443C450.815 132.443 449.321 131.431 449.155 129.754H450.965C451.131 130.601 451.928 131.016 453.106 131.016C454.517 131.016 455.414 130.418 455.414 129.007V127.23H455.298C454.982 127.812 454.335 128.741 452.675 128.741C450.55 128.741 448.906 127.147 448.906 124.275C448.906 121.403 450.516 119.743 452.691 119.743C454.368 119.743 454.982 120.756 455.314 121.32H455.43V119.859H457.157V129.073C457.157 131.381 455.414 132.443 453.09 132.443ZM453.073 127.28C454.584 127.28 455.43 126.168 455.43 124.309C455.43 122.482 454.6 121.254 453.073 121.254C451.496 121.254 450.716 122.582 450.716 124.309C450.716 126.068 451.529 127.28 453.073 127.28ZM459.315 128.874V119.859H461.025V121.287H461.125C461.457 120.324 462.353 119.727 463.416 119.727C463.632 119.727 463.98 119.743 464.163 119.76V121.453C464.013 121.42 463.598 121.354 463.233 121.354C462.005 121.354 461.092 122.2 461.092 123.379V128.874H459.315ZM464.976 126.334C464.976 124.275 466.72 123.744 468.346 123.628C468.944 123.586 470.297 123.512 470.721 123.495L470.704 122.781C470.704 121.769 470.09 121.171 468.878 121.171C467.832 121.171 467.201 121.652 467.018 122.316H465.259C465.425 120.822 466.819 119.743 468.944 119.743C470.372 119.743 472.48 120.274 472.48 122.881V128.874H470.754V127.646H470.687C470.339 128.326 469.509 129.073 468.014 129.073C466.305 129.073 464.976 128.094 464.976 126.334ZM466.703 126.351C466.703 127.214 467.417 127.662 468.413 127.662C469.857 127.662 470.721 126.699 470.721 125.62V124.79C470.305 124.823 469.011 124.915 468.596 124.939C467.433 125.022 466.703 125.454 466.703 126.351ZM474.622 128.874V119.859H476.332V121.337H476.431C476.813 120.324 477.693 119.743 478.888 119.743C480.084 119.743 480.93 120.341 481.312 121.337H481.412C481.844 120.357 482.806 119.743 484.118 119.743C485.745 119.743 486.907 120.772 486.907 122.831V128.874H485.131V122.997C485.131 121.785 484.367 121.271 483.437 121.271C482.292 121.271 481.644 122.051 481.644 123.13V128.874H479.885V122.897C479.885 121.918 479.204 121.271 478.241 121.271C477.245 121.271 476.398 122.101 476.398 123.313V128.874H474.622ZM491.34 116.871L490.012 121.453H488.6L489.48 116.871H491.34ZM496.885 122.316C496.719 121.603 496.154 121.138 495.175 121.138C494.162 121.138 493.431 121.669 493.448 122.35C493.431 122.881 493.863 123.263 494.859 123.495L496.287 123.827C497.947 124.192 498.744 124.989 498.761 126.268C498.744 127.895 497.383 129.057 495.075 129.057C492.917 129.057 491.622 128.094 491.406 126.417H493.216C493.365 127.23 493.996 127.629 495.058 127.629C496.204 127.629 496.934 127.164 496.951 126.4C496.934 125.819 496.503 125.438 495.556 125.222L494.145 124.923C492.518 124.558 491.672 123.694 491.672 122.449C491.672 120.839 493.066 119.743 495.158 119.743C497.167 119.743 498.412 120.772 498.595 122.316H496.885ZM505.816 128.874H503.874L508.19 116.854H510.299L514.632 128.874H512.689L511.594 125.703H506.912L505.816 128.874ZM507.443 124.176H511.062L509.286 119.046H509.203L507.443 124.176ZM517.786 116.854V128.874H516.01V116.854H517.786ZM524.161 119.859V121.271H522.318V126.218C522.318 127.23 522.833 127.413 523.397 127.43C523.646 127.43 524.045 127.396 524.294 127.38V128.924C524.045 128.957 523.663 128.99 523.181 128.99C521.787 128.99 520.542 128.227 520.558 126.583V121.271H519.23V119.859H520.558V117.701H522.318V119.859H524.161ZM41.0059 138.432V136.854H50.3193V138.432H46.584V148.874H44.7578V138.432H41.0059ZM54.6025 149.057C51.9463 149.057 50.3193 147.23 50.3193 144.425C50.3193 141.652 51.9795 139.743 54.4863 139.743C56.5449 139.743 58.4873 141.021 58.4873 144.275V144.906H52.0791C52.1289 146.616 53.1333 147.596 54.6191 147.596C55.6318 147.596 56.2793 147.164 56.5781 146.616H58.3711C57.9726 148.077 56.5781 149.057 54.6025 149.057ZM52.0957 143.578H56.7441C56.7441 142.2 55.8643 141.204 54.5029 141.204C53.0835 141.204 52.1621 142.3 52.0957 143.578ZM61.4424 139.859L63.418 143.362L65.4101 139.859H67.3525L64.5469 144.358L67.3691 148.874H65.4433L63.418 145.504L61.4092 148.874H59.4668L62.2559 144.358L59.4834 139.859H61.4424ZM73.1797 139.859V141.271H71.3369V146.218C71.3369 147.23 71.8515 147.413 72.416 147.43C72.665 147.43 73.0635 147.396 73.3125 147.38V148.924C73.0635 148.957 72.6816 148.99 72.2002 148.99C70.8057 148.99 69.5605 148.227 69.5771 146.583V141.271H68.249V139.859H69.5771V137.701H71.3369V139.859H73.1797ZM79.206 148.874V136.854H80.9658V141.32H81.0654C81.3974 140.756 81.9951 139.743 83.6553 139.743C85.8301 139.743 87.457 141.453 87.457 144.392C87.457 147.297 85.8633 149.057 83.6719 149.057C82.0283 149.057 81.3974 148.061 81.0654 147.463H80.9326V148.874H79.206ZM80.9326 144.358C80.9326 146.251 81.7793 147.546 83.2734 147.546C84.834 147.546 85.6474 146.168 85.6474 144.358C85.6474 142.582 84.8506 141.254 83.2734 141.254C81.7627 141.254 80.9326 142.482 80.9326 144.358ZM94.9443 145.122V139.859H96.7041V148.874H94.9775V147.313H94.8779C94.4629 148.276 93.5332 148.99 92.1885 148.99C90.4453 148.99 89.2168 147.828 89.2168 145.587V139.859H90.9931V145.371C90.9931 146.6 91.7402 147.38 92.8193 147.38C93.7988 147.38 94.9443 146.666 94.9443 145.122ZM103.079 139.859V141.271H101.236V146.218C101.236 147.23 101.751 147.413 102.315 147.43C102.564 147.43 102.963 147.396 103.212 147.38V148.924C102.963 148.957 102.581 148.99 102.1 148.99C100.705 148.99 99.4599 148.227 99.4765 146.583V141.271H98.1484V139.859H99.4765V137.701H101.236V139.859H103.079ZM109.022 139.859V141.271H107.18V146.218C107.18 147.23 107.694 147.413 108.259 147.43C108.508 147.43 108.906 147.396 109.155 147.38V148.924C108.906 148.957 108.524 148.99 108.043 148.99C106.648 148.99 105.403 148.227 105.42 146.583V141.271H104.092V139.859H105.42V137.701H107.18V139.859H109.022ZM114.468 149.057C111.911 149.057 110.251 147.197 110.251 144.408C110.251 141.603 111.911 139.743 114.468 139.743C117.008 139.743 118.668 141.603 118.668 144.408C118.668 147.197 117.008 149.057 114.468 149.057ZM114.468 147.579C116.095 147.579 116.875 146.135 116.875 144.408C116.875 142.682 116.095 141.204 114.468 141.204C112.808 141.204 112.027 142.682 112.027 144.408C112.027 146.135 112.808 147.579 114.468 147.579ZM122.187 143.528V148.874H120.411V139.859H122.121V141.337H122.221C122.652 140.374 123.532 139.743 124.877 139.743C126.736 139.743 127.948 140.905 127.948 143.146V148.874H126.188V143.362C126.188 142.051 125.475 141.271 124.279 141.271C123.067 141.271 122.187 142.084 122.187 143.528ZM132.248 147.729L130.92 152.311H129.509L130.389 147.729H132.248ZM138.191 146.334C138.191 144.275 139.935 143.744 141.561 143.628C142.159 143.586 143.512 143.512 143.935 143.495L143.919 142.781C143.919 141.769 143.305 141.171 142.093 141.171C141.047 141.171 140.416 141.652 140.233 142.316H138.474C138.64 140.822 140.034 139.743 142.159 139.743C143.587 139.743 145.695 140.274 145.695 142.881V148.874H143.969V147.646H143.902C143.554 148.326 142.724 149.073 141.229 149.073C139.519 149.073 138.191 148.094 138.191 146.334ZM139.918 146.351C139.918 147.214 140.632 147.662 141.628 147.662C143.072 147.662 143.935 146.699 143.935 145.62V144.79C143.52 144.823 142.226 144.915 141.81 144.939C140.648 145.022 139.918 145.454 139.918 146.351ZM149.613 143.528V148.874H147.837V139.859H149.547V141.337H149.646C150.078 140.374 150.958 139.743 152.303 139.743C154.162 139.743 155.374 140.905 155.374 143.146V148.874H153.614V143.362C153.614 142.051 152.9 141.271 151.705 141.271C150.493 141.271 149.613 142.084 149.613 143.528ZM160.902 149.057C158.727 149.057 157.134 147.297 157.134 144.392C157.134 141.453 158.744 139.743 160.919 139.743C162.596 139.743 163.21 140.756 163.525 141.32H163.608V136.854H165.385V148.874H163.658V147.463H163.525C163.193 148.061 162.546 149.057 160.902 149.057ZM161.301 147.546C162.811 147.546 163.658 146.251 163.658 144.358C163.658 142.482 162.828 141.254 161.301 141.254C159.724 141.254 158.943 142.582 158.943 144.358C158.943 146.168 159.757 147.546 161.301 147.546ZM176.392 136.854V148.874H174.549V138.681H174.482L171.61 140.557V138.813L174.599 136.854H176.392ZM183.53 149.04C181.256 149.04 179.546 147.646 179.463 145.736H181.239C181.339 146.766 182.318 147.513 183.53 147.513C184.991 147.513 186.037 146.45 186.037 145.022C186.037 143.562 184.958 142.499 183.447 142.482C182.484 142.482 181.754 142.798 181.339 143.545H179.612L180.393 136.854H187.199V138.415H181.903L181.505 141.785H181.621C182.119 141.304 182.966 140.972 183.879 140.972C186.137 140.972 187.813 142.648 187.813 144.973C187.813 147.347 186.037 149.04 183.53 149.04ZM192.512 142.565C190.868 142.582 189.972 141.354 189.988 139.577C189.972 137.817 190.901 136.605 192.512 136.605C194.155 136.605 195.035 137.817 195.035 139.577C195.035 141.37 194.122 142.582 192.512 142.565ZM192.512 141.403C193.292 141.403 193.657 140.673 193.657 139.577C193.657 138.498 193.309 137.768 192.512 137.768C191.748 137.784 191.35 138.498 191.35 139.577C191.35 140.673 191.731 141.403 192.512 141.403ZM200.099 149.123C198.455 149.123 197.559 147.911 197.575 146.135C197.559 144.358 198.505 143.146 200.099 143.146C201.742 143.146 202.622 144.358 202.622 146.135C202.622 147.911 201.709 149.123 200.099 149.123ZM200.099 147.944C200.879 147.944 201.244 147.214 201.244 146.135C201.244 145.039 200.895 144.309 200.099 144.309C199.335 144.325 198.936 145.056 198.936 146.135C198.936 147.214 199.335 147.944 200.099 147.944ZM191.35 148.874L199.601 136.854H201.111L192.86 148.874H191.35ZM214.193 142.316C214.027 141.603 213.463 141.138 212.483 141.138C211.471 141.138 210.74 141.669 210.757 142.35C210.74 142.881 211.172 143.263 212.168 143.495L213.596 143.827C215.256 144.192 216.053 144.989 216.069 146.268C216.053 147.895 214.691 149.057 212.384 149.057C210.226 149.057 208.931 148.094 208.715 146.417H210.524C210.674 147.23 211.305 147.629 212.367 147.629C213.513 147.629 214.243 147.164 214.26 146.4C214.243 145.819 213.811 145.438 212.865 145.222L211.454 144.923C209.827 144.558 208.98 143.694 208.98 142.449C208.98 140.839 210.375 139.743 212.467 139.743C214.476 139.743 215.721 140.772 215.903 142.316H214.193ZM217.381 146.334C217.381 144.275 219.124 143.744 220.751 143.628C221.349 143.586 222.702 143.512 223.125 143.495L223.108 142.781C223.108 141.769 222.494 141.171 221.282 141.171C220.236 141.171 219.605 141.652 219.423 142.316H217.663C217.829 140.822 219.224 139.743 221.349 139.743C222.776 139.743 224.885 140.274 224.885 142.881V148.874H223.158V147.646H223.092C222.743 148.326 221.913 149.073 220.419 149.073C218.709 149.073 217.381 148.094 217.381 146.334ZM219.107 146.351C219.107 147.214 219.821 147.662 220.817 147.662C222.262 147.662 223.125 146.699 223.125 145.62V144.79C222.71 144.823 221.415 144.915 221 144.939C219.838 145.022 219.107 145.454 219.107 146.351ZM227.026 148.874V139.859H228.803V148.874H227.026ZM227.923 138.465C227.309 138.465 226.794 138 226.794 137.419C226.794 136.838 227.309 136.373 227.923 136.373C228.52 136.373 229.035 136.838 229.035 137.419C229.035 138 228.52 138.465 227.923 138.465ZM234.331 149.057C232.156 149.057 230.562 147.297 230.562 144.392C230.562 141.453 232.173 139.743 234.348 139.743C236.024 139.743 236.639 140.756 236.954 141.32H237.037V136.854H238.813V148.874H237.087V147.463H236.954C236.622 148.061 235.975 149.057 234.331 149.057ZM234.729 147.546C236.24 147.546 237.087 146.251 237.087 144.358C237.087 142.482 236.257 141.254 234.729 141.254C233.152 141.254 232.372 142.582 232.372 144.358C232.372 146.168 233.185 147.546 234.729 147.546ZM249.488 139.859V141.271H247.645V146.218C247.645 147.23 248.16 147.413 248.725 147.43C248.974 147.43 249.372 147.396 249.621 147.38V148.924C249.372 148.957 248.99 148.99 248.509 148.99C247.114 148.99 245.869 148.227 245.886 146.583V141.271H244.558V139.859H245.886V137.701H247.645V139.859H249.488ZM253.19 143.528V148.874H251.414V136.854H253.157V141.337H253.273C253.705 140.357 254.535 139.743 255.946 139.743C257.806 139.743 259.034 140.889 259.034 143.146V148.874H257.258V143.362C257.258 142.034 256.544 141.271 255.349 141.271C254.103 141.271 253.19 142.084 253.19 143.528ZM265.06 149.057C262.404 149.057 260.777 147.23 260.777 144.425C260.777 141.652 262.437 139.743 264.944 139.743C267.003 139.743 268.945 141.021 268.945 144.275V144.906H262.537C262.587 146.616 263.591 147.596 265.077 147.596C266.09 147.596 266.737 147.164 267.036 146.616H268.829C268.431 148.077 267.036 149.057 265.06 149.057ZM262.554 143.578H267.202C267.202 142.2 266.322 141.204 264.961 141.204C263.541 141.204 262.62 142.3 262.554 143.578ZM271.518 152.261C271.153 152.261 270.805 152.244 270.572 152.211V150.733C270.771 150.75 271.12 150.767 271.369 150.767C271.917 150.767 272.382 150.717 272.797 149.588L273.013 148.99L269.709 139.859H271.601L273.876 146.849H273.975L276.25 139.859H278.159L274.44 150.069C273.926 151.497 272.996 152.261 271.518 152.261ZM285.696 148.874L283.057 139.859H284.883L286.642 146.467H286.742L288.502 139.859H290.328L292.071 146.434H292.171L293.914 139.859H295.74L293.1 148.874H291.291L289.465 142.383H289.332L287.522 148.874H285.696ZM300.804 149.057C298.147 149.057 296.52 147.23 296.52 144.425C296.52 141.652 298.181 139.743 300.687 139.743C302.746 139.743 304.688 141.021 304.688 144.275V144.906H298.28C298.33 146.616 299.334 147.596 300.82 147.596C301.833 147.596 302.48 147.164 302.779 146.616H304.572C304.174 148.077 302.779 149.057 300.804 149.057ZM298.297 143.578H302.945C302.945 142.2 302.065 141.204 300.704 141.204C299.285 141.204 298.363 142.3 298.297 143.578ZM306.448 148.874V139.859H308.158V141.287H308.258C308.59 140.324 309.486 139.727 310.549 139.727C310.765 139.727 311.113 139.743 311.296 139.76V141.453C311.146 141.42 310.731 141.354 310.366 141.354C309.138 141.354 308.224 142.2 308.224 143.379V148.874H306.448ZM316.21 149.057C313.554 149.057 311.927 147.23 311.927 144.425C311.927 141.652 313.587 139.743 316.094 139.743C318.152 139.743 320.095 141.021 320.095 144.275V144.906H313.686C313.736 146.616 314.741 147.596 316.226 147.596C317.239 147.596 317.887 147.164 318.185 146.616H319.978C319.58 148.077 318.185 149.057 316.21 149.057ZM313.703 143.578H318.351C318.351 142.2 317.472 141.204 316.11 141.204C314.691 141.204 313.769 142.3 313.703 143.578ZM329.823 149.057C327.2 149.057 325.606 147.114 325.606 144.408C325.606 141.652 327.25 139.743 329.79 139.743C331.849 139.743 333.343 140.955 333.525 142.781H331.799C331.616 141.935 330.935 141.221 329.823 141.221C328.362 141.221 327.383 142.433 327.383 144.358C327.383 146.334 328.346 147.546 329.823 147.546C330.819 147.546 331.583 146.998 331.799 146.019H333.525C333.326 147.762 331.948 149.057 329.823 149.057ZM339.02 149.057C336.464 149.057 334.804 147.197 334.804 144.408C334.804 141.603 336.464 139.743 339.02 139.743C341.56 139.743 343.221 141.603 343.221 144.408C343.221 147.197 341.56 149.057 339.02 149.057ZM339.02 147.579C340.647 147.579 341.428 146.135 341.428 144.408C341.428 142.682 340.647 141.204 339.02 141.204C337.36 141.204 336.58 142.682 336.58 144.408C336.58 146.135 337.36 147.579 339.02 147.579ZM346.74 143.528V148.874H344.964V139.859H346.674V141.337H346.773C347.205 140.374 348.085 139.743 349.43 139.743C351.289 139.743 352.501 140.905 352.501 143.146V148.874H350.741V143.362C350.741 142.051 350.027 141.271 348.832 141.271C347.62 141.271 346.74 142.084 346.74 143.528ZM358.959 139.859V141.271H357.016V148.874H355.24V141.271H353.846V139.859H355.24V138.813C355.24 137.203 356.269 136.29 357.93 136.29C358.361 136.29 358.793 136.34 359.141 136.406V137.884C358.809 137.834 358.56 137.817 358.394 137.817C357.448 137.817 357.016 138.199 357.016 139.079V139.859H358.959ZM366.297 145.122V139.859H368.056V148.874H366.33V147.313H366.23C365.815 148.276 364.886 148.99 363.541 148.99C361.798 148.99 360.569 147.828 360.569 145.587V139.859H362.346V145.371C362.346 146.6 363.093 147.38 364.172 147.38C365.151 147.38 366.297 146.666 366.297 145.122ZM375.278 142.316C375.112 141.603 374.548 141.138 373.568 141.138C372.556 141.138 371.825 141.669 371.842 142.35C371.825 142.881 372.257 143.263 373.253 143.495L374.681 143.827C376.341 144.192 377.138 144.989 377.154 146.268C377.138 147.895 375.776 149.057 373.469 149.057C371.31 149.057 370.015 148.094 369.8 146.417H371.609C371.759 147.23 372.389 147.629 373.452 147.629C374.598 147.629 375.328 147.164 375.345 146.4C375.328 145.819 374.896 145.438 373.95 145.222L372.539 144.923C370.912 144.558 370.065 143.694 370.065 142.449C370.065 140.839 371.46 139.743 373.552 139.743C375.56 139.743 376.806 140.772 376.988 142.316H375.278ZM382.765 149.057C380.109 149.057 378.482 147.23 378.482 144.425C378.482 141.652 380.142 139.743 382.649 139.743C384.708 139.743 386.65 141.021 386.65 144.275V144.906H380.242C380.292 146.616 381.296 147.596 382.782 147.596C383.795 147.596 384.442 147.164 384.741 146.616H386.534C386.136 148.077 384.741 149.057 382.765 149.057ZM380.259 143.578H384.907C384.907 142.2 384.027 141.204 382.666 141.204C381.246 141.204 380.325 142.3 380.259 143.578ZM391.78 149.057C389.605 149.057 388.012 147.297 388.012 144.392C388.012 141.453 389.622 139.743 391.797 139.743C393.473 139.743 394.088 140.756 394.403 141.32H394.486V136.854H396.263V148.874H394.536V147.463H394.403C394.071 148.061 393.424 149.057 391.78 149.057ZM392.179 147.546C393.689 147.546 394.536 146.251 394.536 144.358C394.536 142.482 393.706 141.254 392.179 141.254C390.601 141.254 389.821 142.582 389.821 144.358C389.821 146.168 390.635 147.546 392.179 147.546ZM402.306 146.334C402.306 144.275 404.049 143.744 405.676 143.628C406.273 143.586 407.626 143.512 408.05 143.495L408.033 142.781C408.033 141.769 407.419 141.171 406.207 141.171C405.161 141.171 404.53 141.652 404.348 142.316H402.588C402.754 140.822 404.148 139.743 406.273 139.743C407.701 139.743 409.809 140.274 409.809 142.881V148.874H408.083V147.646H408.016C407.668 148.326 406.838 149.073 405.344 149.073C403.634 149.073 402.306 148.094 402.306 146.334ZM404.032 146.351C404.032 147.214 404.746 147.662 405.742 147.662C407.186 147.662 408.05 146.699 408.05 145.62V144.79C407.635 144.823 406.34 144.915 405.925 144.939C404.763 145.022 404.032 145.454 404.032 146.351ZM412.1 148.874V136.854H413.86V141.32H413.96C414.292 140.756 414.889 139.743 416.55 139.743C418.724 139.743 420.351 141.453 420.351 144.392C420.351 147.297 418.758 149.057 416.566 149.057C414.923 149.057 414.292 148.061 413.96 147.463H413.827V148.874H412.1ZM413.827 144.358C413.827 146.251 414.674 147.546 416.168 147.546C417.728 147.546 418.542 146.168 418.542 144.358C418.542 142.582 417.745 141.254 416.168 141.254C414.657 141.254 413.827 142.482 413.827 144.358ZM425.93 149.057C423.373 149.057 421.713 147.197 421.713 144.408C421.713 141.603 423.373 139.743 425.93 139.743C428.47 139.743 430.13 141.603 430.13 144.408C430.13 147.197 428.47 149.057 425.93 149.057ZM425.93 147.579C427.556 147.579 428.337 146.135 428.337 144.408C428.337 142.682 427.556 141.204 425.93 141.204C424.269 141.204 423.489 142.682 423.489 144.408C423.489 146.135 424.269 147.579 425.93 147.579ZM437.6 145.122V139.859H439.36V148.874H437.634V147.313H437.534C437.119 148.276 436.189 148.99 434.845 148.99C433.101 148.99 431.873 147.828 431.873 145.587V139.859H433.649V145.371C433.649 146.6 434.396 147.38 435.475 147.38C436.455 147.38 437.6 146.666 437.6 145.122ZM445.735 139.859V141.271H443.892V146.218C443.892 147.23 444.407 147.413 444.971 147.43C445.221 147.43 445.619 147.396 445.868 147.38V148.924C445.619 148.957 445.237 148.99 444.756 148.99C443.361 148.99 442.116 148.227 442.133 146.583V141.271H440.805V139.859H442.133V137.701H443.892V139.859H445.735ZM453.388 143.528V148.874H451.612V136.854H453.355V141.337H453.471C453.903 140.357 454.733 139.743 456.144 139.743C458.004 139.743 459.232 140.889 459.232 143.146V148.874H457.456V143.362C457.456 142.034 456.742 141.271 455.547 141.271C454.302 141.271 453.388 142.084 453.388 143.528ZM465.192 149.057C462.636 149.057 460.975 147.197 460.975 144.408C460.975 141.603 462.636 139.743 465.192 139.743C467.732 139.743 469.392 141.603 469.392 144.408C469.392 147.197 467.732 149.057 465.192 149.057ZM465.192 147.579C466.819 147.579 467.599 146.135 467.599 144.408C467.599 142.682 466.819 141.204 465.192 141.204C463.532 141.204 462.752 142.682 462.752 144.408C462.752 146.135 463.532 147.579 465.192 147.579ZM472.796 148.874L470.156 139.859H471.982L473.742 146.467H473.842L475.601 139.859H477.428L479.171 146.434H479.27L481.013 139.859H482.84L480.2 148.874H478.39L476.564 142.383H476.431L474.622 148.874H472.796ZM492.668 139.859V141.271H490.825V146.218C490.825 147.23 491.34 147.413 491.904 147.43C492.153 147.43 492.552 147.396 492.801 147.38V148.924C492.552 148.957 492.17 148.99 491.688 148.99C490.294 148.99 489.049 148.227 489.065 146.583V141.271H487.737V139.859H489.065V137.701H490.825V139.859H492.668ZM498.113 149.057C495.556 149.057 493.896 147.197 493.896 144.408C493.896 141.603 495.556 139.743 498.113 139.743C500.653 139.743 502.313 141.603 502.313 144.408C502.313 147.197 500.653 149.057 498.113 149.057ZM498.113 147.579C499.74 147.579 500.52 146.135 500.52 144.408C500.52 142.682 499.74 141.204 498.113 141.204C496.453 141.204 495.673 142.682 495.673 144.408C495.673 146.135 496.453 147.579 498.113 147.579ZM41.4541 172.261V159.859H43.1807V161.32H43.3301C43.6455 160.756 44.2598 159.743 45.9199 159.743C48.0947 159.743 49.7051 161.453 49.7051 164.392C49.7051 167.297 48.1279 169.057 45.9365 169.057C44.293 169.057 43.6455 168.061 43.3301 167.463H43.2305V172.261H41.4541ZM43.1973 164.358C43.1973 166.251 44.0273 167.546 45.5381 167.546C47.0986 167.546 47.9121 166.168 47.9121 164.358C47.9121 162.582 47.1152 161.254 45.5381 161.254C44.0107 161.254 43.1973 162.482 43.1973 164.358ZM51.4648 168.874V159.859H53.1748V161.287H53.2744C53.6064 160.324 54.5029 159.727 55.5654 159.727C55.7812 159.727 56.1299 159.743 56.3125 159.76V161.453C56.1631 161.42 55.748 161.354 55.3828 161.354C54.1543 161.354 53.2412 162.2 53.2412 163.379V168.874H51.4648ZM61.1601 169.057C58.6035 169.057 56.9434 167.197 56.9434 164.408C56.9434 161.603 58.6035 159.743 61.1601 159.743C63.7002 159.743 65.3603 161.603 65.3603 164.408C65.3603 167.197 63.7002 169.057 61.1601 169.057ZM61.1601 167.579C62.7871 167.579 63.5674 166.135 63.5674 164.408C63.5674 162.682 62.7871 161.204 61.1601 161.204C59.5 161.204 58.7197 162.682 58.7197 164.408C58.7197 166.135 59.5 167.579 61.1601 167.579ZM67.1035 172.261V159.859H68.8301V161.32H68.9795C69.2949 160.756 69.9092 159.743 71.5693 159.743C73.7441 159.743 75.3545 161.453 75.3545 164.392C75.3545 167.297 73.7773 169.057 71.5859 169.057C69.9424 169.057 69.2949 168.061 68.9795 167.463H68.8799V172.261H67.1035ZM68.8467 164.358C68.8467 166.251 69.6767 167.546 71.1875 167.546C72.748 167.546 73.5615 166.168 73.5615 164.358C73.5615 162.582 72.7646 161.254 71.1875 161.254C69.6601 161.254 68.8467 162.482 68.8467 164.358ZM80.999 169.057C78.3428 169.057 76.7158 167.23 76.7158 164.425C76.7158 161.652 78.376 159.743 80.8828 159.743C82.9414 159.743 84.8838 161.021 84.8838 164.275V164.906H78.4756C78.5254 166.616 79.5298 167.596 81.0156 167.596C82.0283 167.596 82.6758 167.164 82.9746 166.616H84.7676C84.3691 168.077 82.9746 169.057 80.999 169.057ZM78.4922 163.578H83.1406C83.1406 162.2 82.2607 161.204 80.8994 161.204C79.48 161.204 78.5586 162.3 78.4922 163.578ZM86.6435 168.874V159.859H88.3535V161.287H88.4531C88.7851 160.324 89.6816 159.727 90.7441 159.727C90.9599 159.727 91.3086 159.743 91.4912 159.76V161.453C91.3418 161.42 90.9267 161.354 90.5615 161.354C89.333 161.354 88.4199 162.2 88.4199 163.379V168.874H86.6435ZM94.5957 156.854V168.874H92.8193V156.854H94.5957ZM97.8496 172.261C97.4843 172.261 97.1357 172.244 96.9033 172.211V170.733C97.1025 170.75 97.4511 170.767 97.7002 170.767C98.248 170.767 98.7129 170.717 99.1279 169.588L99.3437 168.99L96.04 159.859H97.9326L100.207 166.849H100.307L102.581 159.859H104.49L100.771 170.069C100.257 171.497 99.3271 172.261 97.8496 172.261ZM112.027 168.874L109.388 159.859H111.214L112.974 166.467H113.073L114.833 159.859H116.659L118.402 166.434H118.502L120.245 159.859H122.071L119.432 168.874H117.622L115.796 162.383H115.663L113.853 168.874H112.027ZM123.532 168.874V159.859H125.242V161.287H125.342C125.674 160.324 126.57 159.727 127.633 159.727C127.849 159.727 128.197 159.743 128.38 159.76V161.453C128.23 161.42 127.815 161.354 127.45 161.354C126.222 161.354 125.309 162.2 125.309 163.379V168.874H123.532ZM129.708 168.874V159.859H131.484V168.874H129.708ZM130.604 158.465C129.99 158.465 129.476 158 129.476 157.419C129.476 156.838 129.99 156.373 130.604 156.373C131.202 156.373 131.717 156.838 131.717 157.419C131.717 158 131.202 158.465 130.604 158.465ZM137.859 159.859V161.271H136.017V166.218C136.017 167.23 136.531 167.413 137.096 167.43C137.345 167.43 137.743 167.396 137.992 167.38V168.924C137.743 168.957 137.361 168.99 136.88 168.99C135.485 168.99 134.24 168.227 134.257 166.583V161.271H132.929V159.859H134.257V157.701H136.017V159.859H137.859ZM143.371 169.057C140.715 169.057 139.088 167.23 139.088 164.425C139.088 161.652 140.748 159.743 143.255 159.743C145.313 159.743 147.256 161.021 147.256 164.275V164.906H140.848C140.897 166.616 141.902 167.596 143.388 167.596C144.4 167.596 145.048 167.164 145.347 166.616H147.14C146.741 168.077 145.347 169.057 143.371 169.057ZM140.864 163.578H145.513C145.513 162.2 144.633 161.204 143.271 161.204C141.852 161.204 140.931 162.3 140.864 163.578ZM154.345 168.874H152.402L156.719 156.854H158.827L163.16 168.874H161.218L160.122 165.703H155.44L154.345 168.874ZM155.972 164.176H159.591L157.814 159.046H157.731L155.972 164.176ZM166.314 156.854V168.874H164.538V156.854H166.314ZM172.689 159.859V161.271H170.847V166.218C170.847 167.23 171.361 167.413 171.926 167.43C172.175 167.43 172.573 167.396 172.822 167.38V168.924C172.573 168.957 172.191 168.99 171.71 168.99C170.315 168.99 169.07 168.227 169.087 166.583V161.271H167.759V159.859H169.087V157.701H170.847V159.859H172.689ZM178.118 158.432V156.854H187.432V158.432H183.696V168.874H181.87V158.432H178.118ZM191.715 169.057C189.059 169.057 187.432 167.23 187.432 164.425C187.432 161.652 189.092 159.743 191.599 159.743C193.657 159.743 195.6 161.021 195.6 164.275V164.906H189.191C189.241 166.616 190.246 167.596 191.731 167.596C192.744 167.596 193.392 167.164 193.69 166.616H195.483C195.085 168.077 193.69 169.057 191.715 169.057ZM189.208 163.578H193.856C193.856 162.2 192.976 161.204 191.615 161.204C190.196 161.204 189.274 162.3 189.208 163.578ZM198.555 159.859L200.53 163.362L202.522 159.859H204.465L201.659 164.358L204.481 168.874H202.556L200.53 165.504L198.521 168.874H196.579L199.368 164.358L196.596 159.859H198.555ZM210.292 159.859V161.271H208.449V166.218C208.449 167.23 208.964 167.413 209.528 167.43C209.777 167.43 210.176 167.396 210.425 167.38V168.924C210.176 168.957 209.794 168.99 209.312 168.99C207.918 168.99 206.673 168.227 206.689 166.583V161.271H205.361V159.859H206.689V157.701H208.449V159.859H210.292ZM213.181 168.99C212.533 168.99 211.985 168.459 212.002 167.812C211.985 167.164 212.533 166.633 213.181 166.633C213.811 166.633 214.359 167.164 214.359 167.812C214.359 168.459 213.811 168.99 213.181 168.99Z" fill="white"/>
</svg>
