<svg width="585" height="236" viewBox="0 0 585 236" fill="none" xmlns="http://www.w3.org/2000/svg">
<rect x="0.197266" y="0.874023" width="584.8" height="234.5" rx="9.35" fill="#22C182"/>
<path d="M46.2639 52.118H54.7095V53.9234H48.5589V80.2088H54.7095V82.0142H46.2639V52.118ZM71.8335 58.391C71.8335 57.1874 71.3949 56.2184 70.5177 55.484C69.6405 54.7496 68.4879 54.3824 67.0599 54.3824C65.9991 54.3824 64.9179 54.6068 63.8163 55.0556C62.7147 55.5044 61.7253 56.1266 60.8481 56.9222L60.6033 54.3518C61.5213 53.7194 62.5617 53.2196 63.7245 52.8524C64.9077 52.4852 66.0909 52.3016 67.2741 52.3016C68.6613 52.3016 69.8751 52.5566 70.9155 53.0666C71.9763 53.5766 72.8025 54.2906 73.3941 55.2086C73.9857 56.1266 74.2815 57.1874 74.2815 58.391C74.2815 59.6762 73.8939 60.8798 73.1187 62.0018C72.3435 63.1238 71.0379 64.3478 69.2019 65.6738C67.8147 66.6734 66.7029 67.5812 65.8665 68.3972C65.0301 69.2132 64.3977 70.0088 63.9693 70.784C63.5409 71.5592 63.2553 72.3956 63.1125 73.2932H74.7099L74.4651 75.374H60.2667C60.3075 74.1908 60.4605 73.13 60.7257 72.1916C60.9909 71.2532 61.3887 70.376 61.9191 69.56C62.4699 68.7236 63.1941 67.877 64.0917 67.0202C65.0097 66.1634 66.1317 65.2352 67.4577 64.2356C69.0693 63.032 70.2015 61.9916 70.8543 61.1144C71.5071 60.2168 71.8335 59.309 71.8335 58.391ZM89.9673 68.3054C89.9673 66.8162 89.5389 65.6738 88.6821 64.8782C87.8457 64.0826 86.6421 63.6848 85.0713 63.6848C84.5613 63.6848 84.0921 63.7256 83.6637 63.8072C83.2557 63.8684 82.8987 63.95 82.5927 64.052V62.3996L89.3247 54.719H79.0737L79.2573 52.6994H92.4459L92.2623 54.5048L85.5303 61.9406C85.6323 61.9406 85.7241 61.9406 85.8057 61.9406C88.0293 61.9406 89.6817 62.5424 90.7629 63.746C91.8645 64.9292 92.4153 66.4592 92.4153 68.336C92.4153 69.8456 92.0685 71.1614 91.3749 72.2834C90.7017 73.4054 89.7327 74.2724 88.4679 74.8844C87.2031 75.476 85.7139 75.7718 84.0003 75.7718C82.9599 75.7718 81.9297 75.6494 80.9097 75.4046C79.8897 75.1598 78.9615 74.7824 78.1251 74.2724L78.3699 71.7938C79.1655 72.4262 80.0631 72.8954 81.0627 73.2014C82.0623 73.5074 83.0619 73.6604 84.0615 73.6604C85.8567 73.6604 87.2847 73.2014 88.3455 72.2834C89.4267 71.3654 89.9673 70.0394 89.9673 68.3054ZM102.899 70.9676C102.899 69.4988 103.287 68.336 104.062 67.4792C104.858 66.6224 105.898 66.194 107.183 66.194C108.448 66.194 109.478 66.6224 110.274 67.4792C111.069 68.336 111.467 69.4988 111.467 70.9676C111.467 72.4568 111.069 73.6298 110.274 74.4866C109.478 75.3434 108.448 75.7718 107.183 75.7718C105.898 75.7718 104.858 75.3434 104.062 74.4866C103.287 73.6298 102.899 72.4568 102.899 70.9676ZM104.796 70.9676C104.796 71.9876 105.011 72.773 105.439 73.3238C105.867 73.8746 106.449 74.15 107.183 74.15C107.918 74.15 108.489 73.8746 108.897 73.3238C109.325 72.773 109.539 71.9876 109.539 70.9676C109.539 69.9476 109.325 69.1622 108.897 68.6114C108.489 68.0606 107.918 67.7852 107.183 67.7852C106.449 67.7852 105.867 68.0606 105.439 68.6114C105.011 69.1622 104.796 69.9476 104.796 70.9676ZM95.4022 57.0752C95.4022 55.6064 95.7898 54.4436 96.565 53.5868C97.3606 52.73 98.401 52.3016 99.6862 52.3016C100.951 52.3016 101.981 52.73 102.777 53.5868C103.572 54.4436 103.97 55.6064 103.97 57.0752C103.97 58.5644 103.572 59.7374 102.777 60.5942C101.981 61.451 100.951 61.8794 99.6862 61.8794C98.401 61.8794 97.3606 61.451 96.565 60.5942C95.7898 59.7374 95.4022 58.5644 95.4022 57.0752ZM97.2994 57.0752C97.2994 58.0952 97.5136 58.8806 97.942 59.4314C98.3704 59.9822 98.9518 60.2576 99.6862 60.2576C100.421 60.2576 100.992 59.9822 101.4 59.4314C101.828 58.8806 102.042 58.0952 102.042 57.0752C102.042 56.0552 101.828 55.2698 101.4 54.719C100.992 54.1682 100.421 53.8928 99.6862 53.8928C98.9518 53.8928 98.3704 54.1682 97.942 54.719C97.5136 55.2698 97.2994 56.0552 97.2994 57.0752ZM95.7694 67.7546L111.069 58.2686V60.3494L95.7694 69.8354V67.7546ZM143.481 71.1206C143.481 70.3862 143.186 69.7844 142.594 69.3152C142.023 68.8256 140.982 68.4176 139.473 68.0912C137.168 67.5812 135.515 66.9692 134.516 66.2552C133.516 65.5208 133.016 64.562 133.016 63.3788C133.016 62.42 133.292 61.5938 133.842 60.9002C134.393 60.2066 135.148 59.6762 136.107 59.309C137.066 58.9418 138.157 58.7582 139.381 58.7582C140.462 58.7582 141.503 58.8704 142.502 59.0948C143.502 59.2988 144.338 59.5946 145.011 59.9822L144.369 61.9712C143.002 61.0736 141.35 60.6248 139.412 60.6248C138.045 60.6248 137.015 60.8492 136.321 61.298C135.627 61.7468 135.281 62.3282 135.281 63.0422C135.281 63.7154 135.607 64.256 136.26 64.664C136.913 65.072 138.106 65.48 139.84 65.888C141.982 66.398 143.502 67.0406 144.399 67.8158C145.317 68.5706 145.776 69.5702 145.776 70.8146C145.776 72.365 145.164 73.5788 143.94 74.456C142.737 75.3332 141.074 75.7718 138.953 75.7718C137.769 75.7718 136.627 75.6596 135.525 75.4352C134.424 75.2312 133.536 74.9354 132.863 74.5478L133.139 72.2222C133.893 72.7526 134.791 73.1606 135.831 73.4462C136.872 73.7318 137.984 73.8746 139.167 73.8746C140.493 73.8746 141.543 73.6298 142.319 73.1402C143.094 72.6506 143.481 71.9774 143.481 71.1206ZM154.363 69.8966V60.9002H149.681V59.156H154.363V55.1474L156.658 54.1376V59.156H163.482V60.9002H156.658V69.6518C156.658 71.1002 157.005 72.161 157.698 72.8342C158.392 73.487 159.249 73.8134 160.269 73.8134C160.738 73.8134 161.258 73.7522 161.829 73.6298C162.421 73.5074 162.941 73.2932 163.39 72.9872L163.176 75.1598C162.809 75.3434 162.288 75.4862 161.615 75.5882C160.962 75.7106 160.34 75.7718 159.749 75.7718C158.157 75.7718 156.862 75.272 155.862 74.2724C154.863 73.2728 154.363 71.8142 154.363 69.8966ZM172.313 75.374H170.018V59.156H172.252V62.0324C172.885 61.0124 173.701 60.2168 174.7 59.6456C175.72 59.054 176.873 58.7582 178.158 58.7582C178.872 58.7582 179.576 58.85 180.269 59.0336C180.983 59.1968 181.657 59.4518 182.289 59.7986L181.524 62.1242C180.259 61.3286 178.984 60.9308 177.699 60.9308C176.557 60.9308 175.516 61.2368 174.578 61.8488C173.639 62.4608 172.885 63.3278 172.313 64.4498V75.374ZM186.041 69.7436V59.156H188.336V69.6824C188.336 70.9472 188.683 71.957 189.376 72.7118C190.07 73.4462 191.008 73.8134 192.191 73.8134C193.293 73.8134 194.282 73.5074 195.16 72.8954C196.037 72.263 196.669 71.4776 197.057 70.5392V59.156H199.352V75.374H197.118V72.8342C196.526 73.7726 195.751 74.4968 194.792 75.0068C193.834 75.5168 192.783 75.7718 191.641 75.7718C189.968 75.7718 188.611 75.2516 187.571 74.2112C186.551 73.1504 186.041 71.6612 186.041 69.7436ZM214.915 73.0178C214.405 73.8542 213.712 74.5274 212.834 75.0374C211.978 75.527 210.998 75.7718 209.897 75.7718C208.571 75.7718 207.418 75.425 206.439 74.7314C205.48 74.0378 204.736 73.0586 204.205 71.7938C203.675 70.5086 203.41 68.999 203.41 67.265C203.41 65.5106 203.675 64.001 204.205 62.7362C204.736 61.4714 205.48 60.4922 206.439 59.7986C207.418 59.105 208.561 58.7582 209.866 58.7582C211.029 58.7582 212.049 59.0234 212.926 59.5538C213.824 60.0842 214.517 60.7982 215.007 61.6958V59.156H217.21V73.4768C217.21 76.3328 216.557 78.536 215.252 80.0864C213.946 81.6368 211.988 82.412 209.377 82.412C208.54 82.412 207.683 82.31 206.806 82.106C205.949 81.902 205.133 81.5858 204.358 81.1574L204.603 78.8012C205.317 79.4132 206.082 79.8416 206.898 80.0864C207.734 80.3312 208.53 80.4536 209.285 80.4536C211.141 80.4536 212.539 79.913 213.477 78.8318C214.436 77.771 214.915 76.2512 214.915 74.2724V73.0178ZM205.796 67.265C205.796 69.2846 206.204 70.8962 207.02 72.0998C207.836 73.283 208.928 73.8746 210.295 73.8746C211.335 73.8746 212.263 73.5686 213.079 72.9566C213.916 72.3242 214.528 71.5082 214.915 70.5086V64.0214C214.528 63.0218 213.916 62.216 213.079 61.604C212.263 60.9716 211.335 60.6554 210.295 60.6554C208.928 60.6554 207.836 61.2572 207.02 62.4608C206.204 63.644 205.796 65.2454 205.796 67.265ZM232.804 73.0178C232.294 73.8542 231.601 74.5274 230.723 75.0374C229.867 75.527 228.887 75.7718 227.786 75.7718C226.46 75.7718 225.307 75.425 224.328 74.7314C223.369 74.0378 222.625 73.0586 222.094 71.7938C221.564 70.5086 221.299 68.999 221.299 67.265C221.299 65.5106 221.564 64.001 222.094 62.7362C222.625 61.4714 223.369 60.4922 224.328 59.7986C225.307 59.105 226.45 58.7582 227.755 58.7582C228.918 58.7582 229.938 59.0234 230.815 59.5538C231.713 60.0842 232.406 60.7982 232.896 61.6958V59.156H235.099V73.4768C235.099 76.3328 234.446 78.536 233.141 80.0864C231.835 81.6368 229.877 82.412 227.266 82.412C226.429 82.412 225.572 82.31 224.695 82.106C223.838 81.902 223.022 81.5858 222.247 81.1574L222.492 78.8012C223.206 79.4132 223.971 79.8416 224.787 80.0864C225.623 80.3312 226.419 80.4536 227.174 80.4536C229.03 80.4536 230.428 79.913 231.366 78.8318C232.325 77.771 232.804 76.2512 232.804 74.2724V73.0178ZM223.685 67.265C223.685 69.2846 224.093 70.8962 224.909 72.0998C225.725 73.283 226.817 73.8746 228.184 73.8746C229.224 73.8746 230.152 73.5686 230.968 72.9566C231.805 72.3242 232.417 71.5082 232.804 70.5086V64.0214C232.417 63.0218 231.805 62.216 230.968 61.604C230.152 60.9716 229.224 60.6554 228.184 60.6554C226.817 60.6554 225.725 61.2572 224.909 62.4608C224.093 63.644 223.685 65.2454 223.685 67.265ZM244.114 69.8966V53.8622H238.79V52.118H246.409V69.6518C246.409 71.0798 246.715 72.1304 247.327 72.8036C247.96 73.4768 248.847 73.8134 249.989 73.8134C250.479 73.8134 251.02 73.7522 251.611 73.6298C252.203 73.5074 252.713 73.2932 253.141 72.9872L252.896 75.1598C252.55 75.3434 252.05 75.4862 251.397 75.5882C250.744 75.7106 250.122 75.7718 249.53 75.7718C247.796 75.7718 246.46 75.272 245.522 74.2724C244.583 73.2524 244.114 71.7938 244.114 69.8966ZM257.475 67.0814C257.475 65.4086 257.77 63.95 258.362 62.7056C258.974 61.4612 259.831 60.4922 260.932 59.7986C262.054 59.105 263.38 58.7582 264.91 58.7582C266.95 58.7582 268.531 59.4008 269.653 60.686C270.796 61.9508 271.367 63.7358 271.367 66.041C271.367 66.2654 271.357 66.5 271.336 66.7448C271.336 66.9692 271.326 67.1834 271.306 67.3874H259.77C259.872 69.4886 260.514 71.09 261.697 72.1916C262.881 73.2728 264.38 73.8134 266.196 73.8134C267.012 73.8134 267.858 73.7012 268.735 73.4768C269.613 73.2524 270.367 72.8852 271 72.3752L271.245 74.6702C270.592 74.9966 269.806 75.2618 268.888 75.4658C267.97 75.6698 267.042 75.7718 266.104 75.7718C264.329 75.7718 262.799 75.425 261.514 74.7314C260.229 74.0174 259.229 73.0076 258.515 71.702C257.821 70.3964 257.475 68.8562 257.475 67.0814ZM269.103 65.6432C269.062 63.9704 268.674 62.6954 267.94 61.8182C267.226 60.941 266.185 60.5024 264.819 60.5024C263.431 60.5024 262.299 60.9614 261.422 61.8794C260.545 62.777 260.014 64.0316 259.831 65.6432H269.103ZM294.201 52.6994H306.196V54.7496H301.423V73.3238H306.196V75.374H294.201V73.3238H298.975V54.7496H294.201V52.6994ZM322.617 64.8476C322.617 63.5624 322.27 62.5526 321.576 61.8182C320.883 61.0634 319.944 60.686 318.761 60.686C317.659 60.686 316.67 61.0022 315.793 61.6346C314.936 62.267 314.314 63.0524 313.926 63.9908V75.374H311.631V59.156H313.834V61.6958C314.426 60.737 315.201 60.0128 316.16 59.5232C317.119 59.0132 318.169 58.7582 319.312 58.7582C320.985 58.7582 322.331 59.2784 323.351 60.3188C324.391 61.3388 324.912 62.8178 324.912 64.7558V75.374H322.617V64.8476ZM340.261 71.1206C340.261 70.3862 339.965 69.7844 339.374 69.3152C338.802 68.8256 337.762 68.4176 336.252 68.0912C333.947 67.5812 332.295 66.9692 331.295 66.2552C330.296 65.5208 329.796 64.562 329.796 63.3788C329.796 62.42 330.071 61.5938 330.622 60.9002C331.173 60.2066 331.928 59.6762 332.886 59.309C333.845 58.9418 334.937 58.7582 336.161 58.7582C337.242 58.7582 338.282 58.8704 339.282 59.0948C340.281 59.2988 341.118 59.5946 341.791 59.9822L341.148 61.9712C339.782 61.0736 338.129 60.6248 336.191 60.6248C334.824 60.6248 333.794 60.8492 333.101 61.298C332.407 61.7468 332.06 62.3282 332.06 63.0422C332.06 63.7154 332.387 64.256 333.039 64.664C333.692 65.072 334.886 65.48 336.62 65.888C338.762 66.398 340.281 67.0406 341.179 67.8158C342.097 68.5706 342.556 69.5702 342.556 70.8146C342.556 72.365 341.944 73.5788 340.72 74.456C339.516 75.3332 337.854 75.7718 335.732 75.7718C334.549 75.7718 333.407 75.6596 332.305 75.4352C331.203 75.2312 330.316 74.9354 329.643 74.5478L329.918 72.2222C330.673 72.7526 331.571 73.1606 332.611 73.4462C333.651 73.7318 334.763 73.8746 335.946 73.8746C337.272 73.8746 338.323 73.6298 339.098 73.1402C339.873 72.6506 340.261 71.9774 340.261 71.1206ZM351.143 69.8966V60.9002H346.461V59.156H351.143V55.1474L353.438 54.1376V59.156H360.261V60.9002H353.438V69.6518C353.438 71.1002 353.784 72.161 354.478 72.8342C355.172 73.487 356.028 73.8134 357.048 73.8134C357.518 73.8134 358.038 73.7522 358.609 73.6298C359.201 73.5074 359.721 73.2932 360.17 72.9872L359.955 75.1598C359.588 75.3434 359.068 75.4862 358.395 75.5882C357.742 75.7106 357.12 75.7718 356.528 75.7718C354.937 75.7718 353.642 75.272 352.642 74.2724C351.642 73.2728 351.143 71.8142 351.143 69.8966ZM364.931 71.0288C364.931 69.4172 365.625 68.1218 367.012 67.1426C368.42 66.1634 370.511 65.5412 373.285 65.276L375.702 65.0618V64.9088C375.702 63.5828 375.315 62.5526 374.54 61.8182C373.764 61.0634 372.653 60.686 371.204 60.686C370.286 60.686 369.358 60.8492 368.42 61.1756C367.502 61.502 366.686 61.9304 365.972 62.4608L365.727 60.227C366.482 59.7782 367.379 59.4212 368.42 59.156C369.48 58.8908 370.511 58.7582 371.51 58.7582C373.632 58.7582 375.243 59.309 376.345 60.4106C377.447 61.4918 377.997 63.0626 377.997 65.123V72.467C377.997 72.9362 378.028 73.4564 378.089 74.0276C378.15 74.5784 378.222 75.0272 378.303 75.374H376.161C376.08 75.1292 375.998 74.7926 375.917 74.3642C375.855 73.9358 375.804 73.5074 375.764 73.079C375.111 73.9562 374.295 74.6294 373.316 75.0986C372.357 75.5474 371.316 75.7718 370.194 75.7718C368.644 75.7718 367.379 75.3434 366.4 74.4866C365.421 73.6094 364.931 72.4568 364.931 71.0288ZM367.257 70.937C367.257 71.8142 367.553 72.5282 368.144 73.079C368.756 73.6094 369.593 73.8746 370.653 73.8746C371.653 73.8746 372.602 73.6298 373.499 73.1402C374.397 72.6506 375.131 71.9468 375.702 71.0288V66.7448L373.285 66.9896C371.245 67.1936 369.725 67.6322 368.726 68.3054C367.746 68.9786 367.257 69.8558 367.257 70.937ZM393.806 73.0178C393.296 73.8542 392.602 74.5274 391.725 75.0374C390.868 75.527 389.889 75.7718 388.787 75.7718C387.461 75.7718 386.309 75.425 385.329 74.7314C384.371 74.0378 383.626 73.0586 383.096 71.7938C382.565 70.5086 382.3 68.999 382.3 67.265C382.3 65.5106 382.565 64.001 383.096 62.7362C383.626 61.4714 384.371 60.4922 385.329 59.7986C386.309 59.105 387.451 58.7582 388.757 58.7582C389.919 58.7582 390.939 59.0234 391.817 59.5538C392.714 60.0842 393.408 60.7982 393.897 61.6958V59.156H396.101V73.4768C396.101 76.3328 395.448 78.536 394.142 80.0864C392.837 81.6368 390.878 82.412 388.267 82.412C387.431 82.412 386.574 82.31 385.697 82.106C384.84 81.902 384.024 81.5858 383.249 81.1574L383.493 78.8012C384.207 79.4132 384.972 79.8416 385.788 80.0864C386.625 80.3312 387.42 80.4536 388.175 80.4536C390.032 80.4536 391.429 79.913 392.367 78.8318C393.326 77.771 393.806 76.2512 393.806 74.2724V73.0178ZM384.687 67.265C384.687 69.2846 385.095 70.8962 385.911 72.0998C386.727 73.283 387.818 73.8746 389.185 73.8746C390.225 73.8746 391.154 73.5686 391.97 72.9566C392.806 72.3242 393.418 71.5082 393.806 70.5086V64.0214C393.418 63.0218 392.806 62.216 391.97 61.604C391.154 60.9716 390.225 60.6554 389.185 60.6554C387.818 60.6554 386.727 61.2572 385.911 62.4608C385.095 63.644 384.687 65.2454 384.687 67.265ZM404.871 75.374H402.576V59.156H404.81V62.0324C405.442 61.0124 406.258 60.2168 407.258 59.6456C408.278 59.054 409.43 58.7582 410.715 58.7582C411.429 58.7582 412.133 58.85 412.827 59.0336C413.541 59.1968 414.214 59.4518 414.846 59.7986L414.081 62.1242C412.817 61.3286 411.542 60.9308 410.256 60.9308C409.114 60.9308 408.074 61.2368 407.135 61.8488C406.197 62.4608 405.442 63.3278 404.871 64.4498V75.374ZM418.598 71.0288C418.598 69.4172 419.292 68.1218 420.679 67.1426C422.087 66.1634 424.178 65.5412 426.952 65.276L429.369 65.0618V64.9088C429.369 63.5828 428.982 62.5526 428.207 61.8182C427.431 61.0634 426.32 60.686 424.871 60.686C423.953 60.686 423.025 60.8492 422.087 61.1756C421.169 61.502 420.353 61.9304 419.639 62.4608L419.394 60.227C420.149 59.7782 421.046 59.4212 422.087 59.156C423.147 58.8908 424.178 58.7582 425.177 58.7582C427.299 58.7582 428.91 59.309 430.012 60.4106C431.114 61.4918 431.664 63.0626 431.664 65.123V72.467C431.664 72.9362 431.695 73.4564 431.756 74.0276C431.817 74.5784 431.889 75.0272 431.97 75.374H429.828C429.747 75.1292 429.665 74.7926 429.584 74.3642C429.522 73.9358 429.471 73.5074 429.431 73.079C428.778 73.9562 427.962 74.6294 426.983 75.0986C426.024 75.5474 424.983 75.7718 423.861 75.7718C422.311 75.7718 421.046 75.3434 420.067 74.4866C419.088 73.6094 418.598 72.4568 418.598 71.0288ZM420.924 70.937C420.924 71.8142 421.22 72.5282 421.811 73.079C422.423 73.6094 423.26 73.8746 424.32 73.8746C425.32 73.8746 426.269 73.6298 427.166 73.1402C428.064 72.6506 428.798 71.9468 429.369 71.0288V66.7448L426.952 66.9896C424.912 67.1936 423.392 67.6322 422.393 68.3054C421.413 68.9786 420.924 69.8558 420.924 70.937ZM442.24 63.0116C442.24 62.2364 442.067 61.6346 441.72 61.2062C441.394 60.7778 440.935 60.5636 440.343 60.5636C439.751 60.5636 439.221 60.7676 438.752 61.1756C438.303 61.5836 437.946 62.1446 437.681 62.8586V75.374H435.539V59.156H437.65V60.9002C437.977 60.2474 438.436 59.7272 439.027 59.3396C439.639 58.952 440.312 58.7582 441.047 58.7582C441.802 58.7582 442.444 58.9622 442.975 59.3702C443.525 59.7782 443.913 60.3494 444.137 61.0838C444.443 60.3902 444.902 59.8292 445.514 59.4008C446.147 58.9724 446.861 58.7582 447.656 58.7582C448.697 58.7582 449.523 59.1356 450.135 59.8904C450.767 60.6248 451.084 61.6142 451.084 62.8586V75.374H448.942V63.0116C448.942 61.3796 448.289 60.5636 446.983 60.5636C445.78 60.5636 444.913 61.298 444.382 62.7668V75.374H442.24V63.0116ZM464.719 82.0142H456.243V80.2088H462.394V53.9234H456.243V52.118H464.719V82.0142Z" fill="white"/>
<path d="M41.6348 128.874V127.546L45.8018 123.346C47.1133 121.968 47.7773 121.204 47.7773 120.158C47.7773 118.979 46.8145 118.216 45.5527 118.216C44.2246 118.216 43.3613 119.063 43.3613 120.341H41.6348C41.6182 118.149 43.2949 116.688 45.5859 116.688C47.9102 116.688 49.5039 118.149 49.5205 120.108C49.5039 121.453 48.873 122.516 46.6152 124.74L44.1748 127.214V127.313H49.7197V128.874H41.6348ZM56.0117 129.04C53.5215 129.04 51.7451 127.695 51.6787 125.736H53.5381C53.6045 126.799 54.6504 127.463 55.9951 127.463C57.4394 127.463 58.5019 126.666 58.5019 125.504C58.5019 124.325 57.5059 123.462 55.7959 123.462H54.7666V121.968H55.7959C57.1572 121.968 58.1201 121.204 58.1201 120.059C58.1201 118.963 57.3066 118.216 56.0283 118.216C54.8164 118.216 53.7539 118.88 53.7041 119.976H51.9443C51.9941 118.017 53.8037 116.688 56.0449 116.688C58.4023 116.688 59.8965 118.183 59.8799 119.959C59.8965 121.32 59.0498 122.316 57.7549 122.632V122.715C59.3984 122.947 60.3447 124.043 60.3447 125.57C60.3447 127.579 58.5019 129.04 56.0117 129.04ZM63.167 128.99C62.5195 128.99 61.9717 128.459 61.9883 127.812C61.9717 127.164 62.5195 126.633 63.167 126.633C63.7978 126.633 64.3457 127.164 64.3457 127.812C64.3457 128.459 63.7978 128.99 63.167 128.99ZM69.5752 116.854V128.874H67.7324V118.681H67.666L64.7939 120.557V118.813L67.7822 116.854H69.5752ZM75.3857 122.565C73.7422 122.582 72.8457 121.354 72.8623 119.577C72.8457 117.817 73.7754 116.605 75.3857 116.605C77.0293 116.605 77.9092 117.817 77.9092 119.577C77.9092 121.37 76.9961 122.582 75.3857 122.565ZM75.3857 121.403C76.166 121.403 76.5312 120.673 76.5312 119.577C76.5312 118.498 76.1826 117.768 75.3857 117.768C74.6221 117.784 74.2236 118.498 74.2236 119.577C74.2236 120.673 74.6055 121.403 75.3857 121.403ZM82.9726 129.123C81.3291 129.123 80.4326 127.911 80.4492 126.135C80.4326 124.358 81.3789 123.146 82.9726 123.146C84.6162 123.146 85.4961 124.358 85.4961 126.135C85.4961 127.911 84.583 129.123 82.9726 129.123ZM82.9726 127.944C83.7529 127.944 84.1181 127.214 84.1181 126.135C84.1181 125.039 83.7695 124.309 82.9726 124.309C82.209 124.325 81.8105 125.056 81.8105 126.135C81.8105 127.214 82.209 127.944 82.9726 127.944ZM74.2236 128.874L82.4746 116.854H83.9853L75.7344 128.874H74.2236ZM95.8222 129.057C93.2656 129.057 91.6054 127.197 91.6054 124.408C91.6054 121.603 93.2656 119.743 95.8222 119.743C98.3623 119.743 100.022 121.603 100.022 124.408C100.022 127.197 98.3623 129.057 95.8222 129.057ZM95.8222 127.579C97.4492 127.579 98.2295 126.135 98.2295 124.408C98.2295 122.682 97.4492 121.204 95.8222 121.204C94.1621 121.204 93.3818 122.682 93.3818 124.408C93.3818 126.135 94.1621 127.579 95.8222 127.579ZM106.065 119.859V121.271H104.123V128.874H102.347V121.271H100.952V119.859H102.347V118.813C102.347 117.203 103.376 116.29 105.036 116.29C105.468 116.29 105.899 116.34 106.248 116.406V117.884C105.916 117.834 105.667 117.817 105.501 117.817C104.555 117.817 104.123 118.199 104.123 119.079V119.859H106.065ZM119.562 119.859L116.292 128.874H114.383L111.112 119.859H113.021L115.296 126.782H115.379L117.653 119.859H119.562ZM121.007 128.874V119.859H122.783V128.874H121.007ZM121.903 118.465C121.289 118.465 120.774 118 120.774 117.419C120.774 116.838 121.289 116.373 121.903 116.373C122.501 116.373 123.016 116.838 123.016 117.419C123.016 118 122.501 118.465 121.903 118.465ZM130.005 122.316C129.839 121.603 129.274 121.138 128.295 121.138C127.282 121.138 126.552 121.669 126.568 122.35C126.552 122.881 126.983 123.263 127.979 123.495L129.407 123.827C131.067 124.192 131.864 124.989 131.881 126.268C131.864 127.895 130.503 129.057 128.195 129.057C126.037 129.057 124.742 128.094 124.526 126.417H126.336C126.485 127.23 127.116 127.629 128.179 127.629C129.324 127.629 130.055 127.164 130.071 126.4C130.055 125.819 129.623 125.438 128.677 125.222L127.266 124.923C125.639 124.558 124.792 123.694 124.792 122.449C124.792 120.839 126.186 119.743 128.278 119.743C130.287 119.743 131.532 120.772 131.715 122.316H130.005ZM139.335 125.122V119.859H141.095V128.874H139.368V127.313H139.269C138.853 128.276 137.924 128.99 136.579 128.99C134.836 128.99 133.607 127.828 133.607 125.587V119.859H135.384V125.371C135.384 126.6 136.131 127.38 137.21 127.38C138.189 127.38 139.335 126.666 139.335 125.122ZM142.838 126.334C142.838 124.275 144.581 123.744 146.208 123.628C146.806 123.586 148.159 123.512 148.582 123.495L148.565 122.781C148.565 121.769 147.951 121.171 146.739 121.171C145.693 121.171 145.062 121.652 144.88 122.316H143.12C143.286 120.822 144.681 119.743 146.806 119.743C148.233 119.743 150.342 120.274 150.342 122.881V128.874H148.615V127.646H148.549C148.2 128.326 147.37 129.073 145.876 129.073C144.166 129.073 142.838 128.094 142.838 126.334ZM144.564 126.351C144.564 127.214 145.278 127.662 146.274 127.662C147.719 127.662 148.582 126.699 148.582 125.62V124.79C148.167 124.823 146.872 124.915 146.457 124.939C145.295 125.022 144.564 125.454 144.564 126.351ZM154.26 116.854V128.874H152.483V116.854H154.26ZM158.194 116.854V128.874H156.418V116.854H158.194ZM161.448 132.261C161.083 132.261 160.734 132.244 160.502 132.211V130.733C160.701 130.75 161.05 130.767 161.299 130.767C161.847 130.767 162.311 130.717 162.727 129.588L162.942 128.99L159.639 119.859H161.531L163.806 126.849H163.905L166.18 119.859H168.089L164.37 130.069C163.855 131.497 162.926 132.261 161.448 132.261ZM173.684 128.874V119.859H175.46V128.874H173.684ZM174.58 118.465C173.966 118.465 173.451 118 173.451 117.419C173.451 116.838 173.966 116.373 174.58 116.373C175.178 116.373 175.692 116.838 175.692 117.419C175.692 118 175.178 118.465 174.58 118.465ZM177.618 128.874V119.859H179.328V121.337H179.428C179.81 120.324 180.689 119.743 181.885 119.743C183.08 119.743 183.927 120.341 184.309 121.337H184.408C184.84 120.357 185.803 119.743 187.114 119.743C188.741 119.743 189.903 120.772 189.903 122.831V128.874H188.127V122.997C188.127 121.785 187.363 121.271 186.434 121.271C185.288 121.271 184.641 122.051 184.641 123.13V128.874H182.881V122.897C182.881 121.918 182.2 121.271 181.237 121.271C180.241 121.271 179.394 122.101 179.394 123.313V128.874H177.618ZM192.045 132.261V119.859H193.771V121.32H193.921C194.236 120.756 194.851 119.743 196.511 119.743C198.685 119.743 200.296 121.453 200.296 124.392C200.296 127.297 198.719 129.057 196.527 129.057C194.884 129.057 194.236 128.061 193.921 127.463H193.821V132.261H192.045ZM193.788 124.358C193.788 126.251 194.618 127.546 196.129 127.546C197.689 127.546 198.503 126.168 198.503 124.358C198.503 122.582 197.706 121.254 196.129 121.254C194.601 121.254 193.788 122.482 193.788 124.358ZM201.641 126.334C201.641 124.275 203.384 123.744 205.011 123.628C205.608 123.586 206.961 123.512 207.385 123.495L207.368 122.781C207.368 121.769 206.754 121.171 205.542 121.171C204.496 121.171 203.865 121.652 203.683 122.316H201.923C202.089 120.822 203.483 119.743 205.608 119.743C207.036 119.743 209.144 120.274 209.144 122.881V128.874H207.418V127.646H207.351C207.003 128.326 206.173 129.073 204.679 129.073C202.969 129.073 201.641 128.094 201.641 126.334ZM203.367 126.351C203.367 127.214 204.081 127.662 205.077 127.662C206.521 127.662 207.385 126.699 207.385 125.62V124.79C206.97 124.823 205.675 124.915 205.26 124.939C204.098 125.022 203.367 125.454 203.367 126.351ZM211.286 128.874V119.859H213.062V128.874H211.286ZM212.183 118.465C211.568 118.465 211.054 118 211.054 117.419C211.054 116.838 211.568 116.373 212.183 116.373C212.78 116.373 213.295 116.838 213.295 117.419C213.295 118 212.78 118.465 212.183 118.465ZM215.221 128.874V119.859H216.931V121.287H217.03C217.362 120.324 218.259 119.727 219.321 119.727C219.537 119.727 219.886 119.743 220.068 119.76V121.453C219.919 121.42 219.504 121.354 219.139 121.354C217.91 121.354 216.997 122.2 216.997 123.379V128.874H215.221ZM224.982 129.057C222.326 129.057 220.699 127.23 220.699 124.425C220.699 121.652 222.359 119.743 224.866 119.743C226.925 119.743 228.867 121.021 228.867 124.275V124.906H222.459C222.509 126.616 223.513 127.596 224.999 127.596C226.012 127.596 226.659 127.164 226.958 126.616H228.751C228.352 128.077 226.958 129.057 224.982 129.057ZM222.476 123.578H227.124C227.124 122.2 226.244 121.204 224.883 121.204C223.463 121.204 222.542 122.3 222.476 123.578ZM233.997 129.057C231.822 129.057 230.228 127.297 230.228 124.392C230.228 121.453 231.839 119.743 234.014 119.743C235.69 119.743 236.305 120.756 236.62 121.32H236.703V116.854H238.479V128.874H236.753V127.463H236.62C236.288 128.061 235.641 129.057 233.997 129.057ZM234.395 127.546C235.906 127.546 236.753 126.251 236.753 124.358C236.753 122.482 235.923 121.254 234.395 121.254C232.818 121.254 232.038 122.582 232.038 124.358C232.038 126.168 232.851 127.546 234.395 127.546ZM250.665 125.122V119.859H252.425V128.874H250.698V127.313H250.599C250.183 128.276 249.254 128.99 247.909 128.99C246.166 128.99 244.937 127.828 244.937 125.587V119.859H246.714V125.371C246.714 126.6 247.461 127.38 248.54 127.38C249.519 127.38 250.665 126.666 250.665 125.122ZM259.646 122.316C259.48 121.603 258.916 121.138 257.936 121.138C256.924 121.138 256.193 121.669 256.21 122.35C256.193 122.881 256.625 123.263 257.621 123.495L259.049 123.827C260.709 124.192 261.506 124.989 261.522 126.268C261.506 127.895 260.144 129.057 257.837 129.057C255.679 129.057 254.384 128.094 254.168 126.417H255.977C256.127 127.23 256.758 127.629 257.82 127.629C258.966 127.629 259.696 127.164 259.713 126.4C259.696 125.819 259.265 125.438 258.318 125.222L256.907 124.923C255.28 124.558 254.434 123.694 254.434 122.449C254.434 120.839 255.828 119.743 257.92 119.743C259.929 119.743 261.174 120.772 261.356 122.316H259.646ZM267.134 129.057C264.477 129.057 262.85 127.23 262.85 124.425C262.85 121.652 264.511 119.743 267.017 119.743C269.076 119.743 271.018 121.021 271.018 124.275V124.906H264.61C264.66 126.616 265.664 127.596 267.15 127.596C268.163 127.596 268.81 127.164 269.109 126.616H270.902C270.504 128.077 269.109 129.057 267.134 129.057ZM264.627 123.578H269.275C269.275 122.2 268.395 121.204 267.034 121.204C265.615 121.204 264.693 122.3 264.627 123.578ZM272.778 128.874V119.859H274.488V121.287H274.588C274.92 120.324 275.816 119.727 276.879 119.727C277.095 119.727 277.443 119.743 277.626 119.76V121.453C277.476 121.42 277.061 121.354 276.696 121.354C275.468 121.354 274.555 122.2 274.555 123.379V128.874H272.778ZM284.017 122.316C283.851 121.603 283.287 121.138 282.308 121.138C281.295 121.138 280.564 121.669 280.581 122.35C280.564 122.881 280.996 123.263 281.992 123.495L283.42 123.827C285.08 124.192 285.877 124.989 285.893 126.268C285.877 127.895 284.516 129.057 282.208 129.057C280.05 129.057 278.755 128.094 278.539 126.417H280.349C280.498 127.23 281.129 127.629 282.191 127.629C283.337 127.629 284.067 127.164 284.084 126.4C284.067 125.819 283.636 125.438 282.689 125.222L281.278 124.923C279.651 124.558 278.805 123.694 278.805 122.449C278.805 120.839 280.199 119.743 282.291 119.743C284.3 119.743 285.545 120.772 285.727 122.316H284.017ZM296.834 122.316C296.668 121.603 296.103 121.138 295.124 121.138C294.111 121.138 293.381 121.669 293.397 122.35C293.381 122.881 293.812 123.263 294.808 123.495L296.236 123.827C297.896 124.192 298.693 124.989 298.71 126.268C298.693 127.895 297.332 129.057 295.024 129.057C292.866 129.057 291.571 128.094 291.355 126.417H293.165C293.314 127.23 293.945 127.629 295.008 127.629C296.153 127.629 296.884 127.164 296.9 126.4C296.884 125.819 296.452 125.438 295.506 125.222L294.095 124.923C292.468 124.558 291.621 123.694 291.621 122.449C291.621 120.839 293.016 119.743 295.107 119.743C297.116 119.743 298.361 120.772 298.544 122.316H296.834ZM304.653 119.859V121.271H302.81V126.218C302.81 127.23 303.325 127.413 303.89 127.43C304.139 127.43 304.537 127.396 304.786 127.38V128.924C304.537 128.957 304.155 128.99 303.674 128.99C302.279 128.99 301.034 128.227 301.051 126.583V121.271H299.723V119.859H301.051V117.701H302.81V119.859H304.653ZM306.38 128.874V119.859H308.09V121.287H308.189C308.521 120.324 309.418 119.727 310.48 119.727C310.696 119.727 311.045 119.743 311.227 119.76V121.453C311.078 121.42 310.663 121.354 310.298 121.354C309.069 121.354 308.156 122.2 308.156 123.379V128.874H306.38ZM318.283 125.122V119.859H320.043V128.874H318.316V127.313H318.217C317.802 128.276 316.872 128.99 315.527 128.99C313.784 128.99 312.556 127.828 312.556 125.587V119.859H314.332V125.371C314.332 126.6 315.079 127.38 316.158 127.38C317.138 127.38 318.283 126.666 318.283 125.122ZM325.986 132.443C323.712 132.443 322.218 131.431 322.052 129.754H323.861C324.027 130.601 324.824 131.016 326.003 131.016C327.414 131.016 328.31 130.418 328.31 129.007V127.23H328.194C327.879 127.812 327.231 128.741 325.571 128.741C323.446 128.741 321.803 127.147 321.803 124.275C321.803 121.403 323.413 119.743 325.588 119.743C327.265 119.743 327.879 120.756 328.211 121.32H328.327V119.859H330.054V129.073C330.054 131.381 328.31 132.443 325.986 132.443ZM325.97 127.28C327.48 127.28 328.327 126.168 328.327 124.309C328.327 122.482 327.497 121.254 325.97 121.254C324.392 121.254 323.612 122.582 323.612 124.309C323.612 126.068 324.426 127.28 325.97 127.28ZM335.997 132.443C333.723 132.443 332.228 131.431 332.062 129.754H333.872C334.038 130.601 334.835 131.016 336.014 131.016C337.425 131.016 338.321 130.418 338.321 129.007V127.23H338.205C337.89 127.812 337.242 128.741 335.582 128.741C333.457 128.741 331.813 127.147 331.813 124.275C331.813 121.403 333.424 119.743 335.599 119.743C337.275 119.743 337.89 120.756 338.222 121.32H338.338V119.859H340.064V129.073C340.064 131.381 338.321 132.443 335.997 132.443ZM335.98 127.28C337.491 127.28 338.338 126.168 338.338 124.309C338.338 122.482 337.508 121.254 335.98 121.254C334.403 121.254 333.623 122.582 333.623 124.309C333.623 126.068 334.436 127.28 335.98 127.28ZM343.999 116.854V128.874H342.223V116.854H343.999ZM350.042 129.057C347.386 129.057 345.759 127.23 345.759 124.425C345.759 121.652 347.419 119.743 349.926 119.743C351.984 119.743 353.927 121.021 353.927 124.275V124.906H347.518C347.568 126.616 348.573 127.596 350.058 127.596C351.071 127.596 351.719 127.164 352.017 126.616H353.81C353.412 128.077 352.017 129.057 350.042 129.057ZM347.535 123.578H352.183C352.183 122.2 351.304 121.204 349.942 121.204C348.523 121.204 347.601 122.3 347.535 123.578ZM361.779 128.874L359.139 119.859H360.966L362.725 126.467H362.825L364.585 119.859H366.411L368.154 126.434H368.254L369.997 119.859H371.823L369.183 128.874H367.374L365.548 122.383H365.415L363.605 128.874H361.779ZM373.284 128.874V119.859H375.06V128.874H373.284ZM374.181 118.465C373.566 118.465 373.052 118 373.052 117.419C373.052 116.838 373.566 116.373 374.181 116.373C374.778 116.373 375.293 116.838 375.293 117.419C375.293 118 374.778 118.465 374.181 118.465ZM381.435 119.859V121.271H379.593V126.218C379.593 127.23 380.107 127.413 380.672 127.43C380.921 127.43 381.319 127.396 381.568 127.38V128.924C381.319 128.957 380.937 128.99 380.456 128.99C379.061 128.99 377.816 128.227 377.833 126.583V121.271H376.505V119.859H377.833V117.701H379.593V119.859H381.435ZM385.138 123.528V128.874H383.361V116.854H385.104V121.337H385.221C385.652 120.357 386.482 119.743 387.893 119.743C389.753 119.743 390.981 120.889 390.981 123.146V128.874H389.205V123.362C389.205 122.034 388.491 121.271 387.296 121.271C386.051 121.271 385.138 122.084 385.138 123.528ZM399.249 116.854V128.874H397.423V116.854H399.249ZM403.316 123.528V128.874H401.54V119.859H403.25V121.337H403.349C403.781 120.374 404.661 119.743 406.006 119.743C407.865 119.743 409.077 120.905 409.077 123.146V128.874H407.317V123.362C407.317 122.051 406.603 121.271 405.408 121.271C404.196 121.271 403.316 122.084 403.316 123.528ZM416.299 122.316C416.133 121.603 415.568 121.138 414.589 121.138C413.576 121.138 412.846 121.669 412.862 122.35C412.846 122.881 413.277 123.263 414.273 123.495L415.701 123.827C417.361 124.192 418.158 124.989 418.175 126.268C418.158 127.895 416.797 129.057 414.489 129.057C412.331 129.057 411.036 128.094 410.82 126.417H412.63C412.779 127.23 413.41 127.629 414.473 127.629C415.618 127.629 416.348 127.164 416.365 126.4C416.348 125.819 415.917 125.438 414.971 125.222L413.559 124.923C411.932 124.558 411.086 123.694 411.086 122.449C411.086 120.839 412.48 119.743 414.572 119.743C416.581 119.743 417.826 120.772 418.009 122.316H416.299ZM424.118 119.859V121.271H422.275V126.218C422.275 127.23 422.79 127.413 423.354 127.43C423.603 127.43 424.002 127.396 424.251 127.38V128.924C424.002 128.957 423.62 128.99 423.138 128.99C421.744 128.99 420.499 128.227 420.515 126.583V121.271H419.187V119.859H420.515V117.701H422.275V119.859H424.118ZM425.43 126.334C425.43 124.275 427.173 123.744 428.8 123.628C429.397 123.586 430.75 123.512 431.174 123.495L431.157 122.781C431.157 121.769 430.543 121.171 429.331 121.171C428.285 121.171 427.654 121.652 427.471 122.316H425.712C425.878 120.822 427.272 119.743 429.397 119.743C430.825 119.743 432.933 120.274 432.933 122.881V128.874H431.207V127.646H431.14C430.792 128.326 429.962 129.073 428.468 129.073C426.758 129.073 425.43 128.094 425.43 126.334ZM427.156 126.351C427.156 127.214 427.87 127.662 428.866 127.662C430.31 127.662 431.174 126.699 431.174 125.62V124.79C430.759 124.823 429.464 124.915 429.049 124.939C427.887 125.022 427.156 125.454 427.156 126.351ZM438.86 132.443C436.586 132.443 435.092 131.431 434.926 129.754H436.735C436.901 130.601 437.698 131.016 438.877 131.016C440.288 131.016 441.184 130.418 441.184 129.007V127.23H441.068C440.753 127.812 440.105 128.741 438.445 128.741C436.32 128.741 434.677 127.147 434.677 124.275C434.677 121.403 436.287 119.743 438.462 119.743C440.138 119.743 440.753 120.756 441.085 121.32H441.201V119.859H442.928V129.073C442.928 131.381 441.184 132.443 438.86 132.443ZM438.844 127.28C440.354 127.28 441.201 126.168 441.201 124.309C441.201 122.482 440.371 121.254 438.844 121.254C437.266 121.254 436.486 122.582 436.486 124.309C436.486 126.068 437.3 127.28 438.844 127.28ZM445.086 128.874V119.859H446.796V121.287H446.895C447.227 120.324 448.124 119.727 449.186 119.727C449.402 119.727 449.751 119.743 449.933 119.76V121.453C449.784 121.42 449.369 121.354 449.004 121.354C447.775 121.354 446.862 122.2 446.862 123.379V128.874H445.086ZM450.747 126.334C450.747 124.275 452.49 123.744 454.117 123.628C454.715 123.586 456.068 123.512 456.491 123.495L456.474 122.781C456.474 121.769 455.86 121.171 454.648 121.171C453.602 121.171 452.971 121.652 452.789 122.316H451.029C451.195 120.822 452.59 119.743 454.715 119.743C456.142 119.743 458.251 120.274 458.251 122.881V128.874H456.524V127.646H456.458C456.109 128.326 455.279 129.073 453.785 129.073C452.075 129.073 450.747 128.094 450.747 126.334ZM452.473 126.351C452.473 127.214 453.187 127.662 454.183 127.662C455.628 127.662 456.491 126.699 456.491 125.62V124.79C456.076 124.823 454.781 124.915 454.366 124.939C453.204 125.022 452.473 125.454 452.473 126.351ZM460.392 128.874V119.859H462.102V121.337H462.202C462.584 120.324 463.464 119.743 464.659 119.743C465.854 119.743 466.701 120.341 467.083 121.337H467.182C467.614 120.357 468.577 119.743 469.888 119.743C471.515 119.743 472.678 120.772 472.678 122.831V128.874H470.901V122.997C470.901 121.785 470.138 121.271 469.208 121.271C468.062 121.271 467.415 122.051 467.415 123.13V128.874H465.655V122.897C465.655 121.918 464.974 121.271 464.012 121.271C463.015 121.271 462.169 122.101 462.169 123.313V128.874H460.392ZM482.34 129.057C480.165 129.057 478.571 127.297 478.571 124.392C478.571 121.453 480.181 119.743 482.356 119.743C484.033 119.743 484.647 120.756 484.963 121.32H485.046V116.854H486.822V128.874H485.096V127.463H484.963C484.631 128.061 483.983 129.057 482.34 129.057ZM482.738 127.546C484.249 127.546 485.096 126.251 485.096 124.358C485.096 122.482 484.265 121.254 482.738 121.254C481.161 121.254 480.381 122.582 480.381 124.358C480.381 126.168 481.194 127.546 482.738 127.546ZM494.857 125.122V119.859H496.617V128.874H494.89V127.313H494.791C494.376 128.276 493.446 128.99 492.101 128.99C490.358 128.99 489.13 127.828 489.13 125.587V119.859H490.906V125.371C490.906 126.6 491.653 127.38 492.732 127.38C493.712 127.38 494.857 126.666 494.857 125.122ZM502.66 129.057C500.004 129.057 498.377 127.23 498.377 124.425C498.377 121.652 500.037 119.743 502.544 119.743C504.602 119.743 506.545 121.021 506.545 124.275V124.906H500.137C500.186 126.616 501.191 127.596 502.677 127.596C503.689 127.596 504.337 127.164 504.636 126.616H506.428C506.03 128.077 504.636 129.057 502.66 129.057ZM500.153 123.578H504.802C504.802 122.2 503.922 121.204 502.56 121.204C501.141 121.204 500.22 122.3 500.153 123.578ZM516.672 119.859V121.271H514.829V126.218C514.829 127.23 515.344 127.413 515.908 127.43C516.157 127.43 516.555 127.396 516.804 127.38V128.924C516.555 128.957 516.174 128.99 515.692 128.99C514.298 128.99 513.053 128.227 513.069 126.583V121.271H511.741V119.859H513.069V117.701H514.829V119.859H516.672ZM522.117 129.057C519.56 129.057 517.9 127.197 517.9 124.408C517.9 121.603 519.56 119.743 522.117 119.743C524.657 119.743 526.317 121.603 526.317 124.408C526.317 127.197 524.657 129.057 522.117 129.057ZM522.117 127.579C523.744 127.579 524.524 126.135 524.524 124.408C524.524 122.682 523.744 121.204 522.117 121.204C520.457 121.204 519.677 122.682 519.677 124.408C519.677 126.135 520.457 127.579 522.117 127.579ZM41.6514 148.874V139.859H43.3613V141.337H43.4609C43.8428 140.324 44.7227 139.743 45.918 139.743C47.1133 139.743 47.96 140.341 48.3418 141.337H48.4414C48.873 140.357 49.8359 139.743 51.1475 139.743C52.7744 139.743 53.9365 140.772 53.9365 142.831V148.874H52.1602V142.997C52.1602 141.785 51.3965 141.271 50.4668 141.271C49.3213 141.271 48.6738 142.051 48.6738 143.13V148.874H46.9141V142.897C46.9141 141.918 46.2334 141.271 45.2705 141.271C44.2744 141.271 43.4277 142.101 43.4277 143.313V148.874H41.6514ZM56.0781 148.874V139.859H57.8545V148.874H56.0781ZM56.9746 138.465C56.3603 138.465 55.8457 138 55.8457 137.419C55.8457 136.838 56.3603 136.373 56.9746 136.373C57.5723 136.373 58.0869 136.838 58.0869 137.419C58.0869 138 57.5723 138.465 56.9746 138.465ZM65.0762 142.316C64.9101 141.603 64.3457 141.138 63.3662 141.138C62.3535 141.138 61.623 141.669 61.6396 142.35C61.623 142.881 62.0547 143.263 63.0508 143.495L64.4785 143.827C66.1387 144.192 66.9355 144.989 66.9521 146.268C66.9355 147.895 65.5742 149.057 63.2666 149.057C61.1084 149.057 59.8135 148.094 59.5976 146.417H61.4072C61.5566 147.23 62.1875 147.629 63.25 147.629C64.3955 147.629 65.126 147.164 65.1426 146.4C65.126 145.819 64.6943 145.438 63.748 145.222L62.3369 144.923C60.71 144.558 59.8633 143.694 59.8633 142.449C59.8633 140.839 61.2578 139.743 63.3496 139.743C65.3584 139.743 66.6035 140.772 66.7861 142.316H65.0762ZM73.7422 142.316C73.5762 141.603 73.0117 141.138 72.0322 141.138C71.0195 141.138 70.289 141.669 70.3057 142.35C70.289 142.881 70.7207 143.263 71.7168 143.495L73.1445 143.827C74.8047 144.192 75.6015 144.989 75.6181 146.268C75.6015 147.895 74.2402 149.057 71.9326 149.057C69.7744 149.057 68.4795 148.094 68.2637 146.417H70.0732C70.2226 147.23 70.8535 147.629 71.916 147.629C73.0615 147.629 73.792 147.164 73.8086 146.4C73.792 145.819 73.3603 145.438 72.414 145.222L71.0029 144.923C69.376 144.558 68.5293 143.694 68.5293 142.449C68.5293 140.839 69.9238 139.743 72.0156 139.743C74.0244 139.743 75.2695 140.772 75.4521 142.316H73.7422ZM77.3447 148.874V139.859H79.1211V148.874H77.3447ZM78.2412 138.465C77.6269 138.465 77.1123 138 77.1123 137.419C77.1123 136.838 77.6269 136.373 78.2412 136.373C78.8389 136.373 79.3535 136.838 79.3535 137.419C79.3535 138 78.8389 138.465 78.2412 138.465ZM83.0556 143.528V148.874H81.2793V139.859H82.9892V141.337H83.0888C83.5205 140.374 84.4004 139.743 85.7451 139.743C87.6045 139.743 88.8164 140.905 88.8164 143.146V148.874H87.0566V143.362C87.0566 142.051 86.3428 141.271 85.1474 141.271C83.9355 141.271 83.0556 142.084 83.0556 143.528ZM94.7597 152.443C92.4853 152.443 90.9912 151.431 90.8252 149.754H92.6347C92.8008 150.601 93.5976 151.016 94.7763 151.016C96.1875 151.016 97.084 150.418 97.084 149.007V147.23H96.9677C96.6523 147.812 96.0049 148.741 94.3447 148.741C92.2197 148.741 90.5761 147.147 90.5761 144.275C90.5761 141.403 92.1865 139.743 94.3613 139.743C96.0381 139.743 96.6523 140.756 96.9843 141.32H97.1006V139.859H98.8271V149.073C98.8271 151.381 97.084 152.443 94.7597 152.443ZM94.7431 147.28C96.2539 147.28 97.1006 146.168 97.1006 144.309C97.1006 142.482 96.2705 141.254 94.7431 141.254C93.166 141.254 92.3857 142.582 92.3857 144.309C92.3857 146.068 93.1992 147.28 94.7431 147.28ZM110.863 145.122V139.859H112.623V148.874H110.896V147.313H110.797C110.382 148.276 109.452 148.99 108.107 148.99C106.364 148.99 105.136 147.828 105.136 145.587V139.859H106.912V145.371C106.912 146.6 107.659 147.38 108.738 147.38C109.718 147.38 110.863 146.666 110.863 145.122ZM119.845 142.316C119.679 141.603 119.114 141.138 118.135 141.138C117.122 141.138 116.392 141.669 116.408 142.35C116.392 142.881 116.823 143.263 117.819 143.495L119.247 143.827C120.907 144.192 121.704 144.989 121.721 146.268C121.704 147.895 120.343 149.057 118.035 149.057C115.877 149.057 114.582 148.094 114.366 146.417H116.176C116.325 147.23 116.956 147.629 118.019 147.629C119.164 147.629 119.894 147.164 119.911 146.4C119.894 145.819 119.463 145.438 118.517 145.222L117.105 144.923C115.478 144.558 114.632 143.694 114.632 142.449C114.632 140.839 116.026 139.743 118.118 139.743C120.127 139.743 121.372 140.772 121.555 142.316H119.845ZM127.332 149.057C124.676 149.057 123.049 147.23 123.049 144.425C123.049 141.652 124.709 139.743 127.216 139.743C129.274 139.743 131.217 141.021 131.217 144.275V144.906H124.809C124.858 146.616 125.863 147.596 127.349 147.596C128.361 147.596 129.009 147.164 129.308 146.616H131.101C130.702 148.077 129.308 149.057 127.332 149.057ZM124.825 143.578H129.474C129.474 142.2 128.594 141.204 127.232 141.204C125.813 141.204 124.892 142.3 124.825 143.578ZM132.977 148.874V139.859H134.686V141.287H134.786C135.118 140.324 136.015 139.727 137.077 139.727C137.293 139.727 137.642 139.743 137.824 139.76V141.453C137.675 141.42 137.26 141.354 136.894 141.354C135.666 141.354 134.753 142.2 134.753 143.379V148.874H132.977ZM143.95 143.03V144.558H138.621V143.03H143.95ZM149.877 152.443C147.602 152.443 146.108 151.431 145.942 149.754H147.752C147.918 150.601 148.715 151.016 149.894 151.016C151.305 151.016 152.201 150.418 152.201 149.007V147.23H152.085C151.769 147.812 151.122 148.741 149.462 148.741C147.337 148.741 145.693 147.147 145.693 144.275C145.693 141.403 147.304 139.743 149.478 139.743C151.155 139.743 151.769 140.756 152.102 141.32H152.218V139.859H153.944V149.073C153.944 151.381 152.201 152.443 149.877 152.443ZM149.86 147.28C151.371 147.28 152.218 146.168 152.218 144.309C152.218 142.482 151.388 141.254 149.86 141.254C148.283 141.254 147.503 142.582 147.503 144.309C147.503 146.068 148.316 147.28 149.86 147.28ZM159.987 149.057C157.331 149.057 155.704 147.23 155.704 144.425C155.704 141.652 157.364 139.743 159.871 139.743C161.93 139.743 163.872 141.021 163.872 144.275V144.906H157.464C157.514 146.616 158.518 147.596 160.004 147.596C161.017 147.596 161.664 147.164 161.963 146.616H163.756C163.357 148.077 161.963 149.057 159.987 149.057ZM157.48 143.578H162.129C162.129 142.2 161.249 141.204 159.888 141.204C158.468 141.204 157.547 142.3 157.48 143.578ZM167.408 143.528V148.874H165.632V139.859H167.342V141.337H167.441C167.873 140.374 168.753 139.743 170.098 139.743C171.957 139.743 173.169 140.905 173.169 143.146V148.874H171.409V143.362C171.409 142.051 170.695 141.271 169.5 141.271C168.288 141.271 167.408 142.084 167.408 143.528ZM179.212 149.057C176.556 149.057 174.929 147.23 174.929 144.425C174.929 141.652 176.589 139.743 179.096 139.743C181.154 139.743 183.097 141.021 183.097 144.275V144.906H176.688C176.738 146.616 177.743 147.596 179.228 147.596C180.241 147.596 180.889 147.164 181.187 146.616H182.98C182.582 148.077 181.187 149.057 179.212 149.057ZM176.705 143.578H181.353C181.353 142.2 180.474 141.204 179.112 141.204C177.693 141.204 176.771 142.3 176.705 143.578ZM184.856 148.874V139.859H186.566V141.287H186.666C186.998 140.324 187.894 139.727 188.957 139.727C189.173 139.727 189.521 139.743 189.704 139.76V141.453C189.555 141.42 189.14 141.354 188.774 141.354C187.546 141.354 186.633 142.2 186.633 143.379V148.874H184.856ZM190.518 146.334C190.518 144.275 192.261 143.744 193.888 143.628C194.485 143.586 195.838 143.512 196.262 143.495L196.245 142.781C196.245 141.769 195.631 141.171 194.419 141.171C193.373 141.171 192.742 141.652 192.56 142.316H190.8C190.966 140.822 192.36 139.743 194.485 139.743C195.913 139.743 198.021 140.274 198.021 142.881V148.874H196.295V147.646H196.228C195.88 148.326 195.05 149.073 193.556 149.073C191.846 149.073 190.518 148.094 190.518 146.334ZM192.244 146.351C192.244 147.214 192.958 147.662 193.954 147.662C195.398 147.662 196.262 146.699 196.262 145.62V144.79C195.847 144.823 194.552 144.915 194.137 144.939C192.975 145.022 192.244 145.454 192.244 146.351ZM204.38 139.859V141.271H202.537V146.218C202.537 147.23 203.052 147.413 203.616 147.43C203.865 147.43 204.264 147.396 204.513 147.38V148.924C204.264 148.957 203.882 148.99 203.4 148.99C202.006 148.99 200.761 148.227 200.777 146.583V141.271H199.449V139.859H200.777V137.701H202.537V139.859H204.38ZM209.892 149.057C207.235 149.057 205.608 147.23 205.608 144.425C205.608 141.652 207.268 139.743 209.775 139.743C211.834 139.743 213.776 141.021 213.776 144.275V144.906H207.368C207.418 146.616 208.422 147.596 209.908 147.596C210.921 147.596 211.568 147.164 211.867 146.616H213.66C213.262 148.077 211.867 149.057 209.892 149.057ZM207.385 143.578H212.033C212.033 142.2 211.153 141.204 209.792 141.204C208.372 141.204 207.451 142.3 207.385 143.578ZM218.906 149.057C216.731 149.057 215.138 147.297 215.138 144.392C215.138 141.453 216.748 139.743 218.923 139.743C220.6 139.743 221.214 140.756 221.529 141.32H221.612V136.854H223.389V148.874H221.662V147.463H221.529C221.197 148.061 220.55 149.057 218.906 149.057ZM219.305 147.546C220.815 147.546 221.662 146.251 221.662 144.358C221.662 142.482 220.832 141.254 219.305 141.254C217.727 141.254 216.947 142.582 216.947 144.358C216.947 146.168 217.761 147.546 219.305 147.546ZM231.025 148.874H229.083L233.399 136.854H235.508L239.841 148.874H237.898L236.803 145.703H232.121L231.025 148.874ZM232.652 144.176H236.271L234.495 139.046H234.412L232.652 144.176ZM242.995 136.854V148.874H241.219V136.854H242.995ZM249.37 139.859V141.271H247.527V146.218C247.527 147.23 248.042 147.413 248.606 147.43C248.855 147.43 249.254 147.396 249.503 147.38V148.924C249.254 148.957 248.872 148.99 248.391 148.99C246.996 148.99 245.751 148.227 245.767 146.583V141.271H244.439V139.859H245.767V137.701H247.527V139.859H249.37ZM254.799 138.432V136.854H264.112V138.432H260.377V148.874H258.551V138.432H254.799ZM268.395 149.057C265.739 149.057 264.112 147.23 264.112 144.425C264.112 141.652 265.772 139.743 268.279 139.743C270.338 139.743 272.28 141.021 272.28 144.275V144.906H265.872C265.922 146.616 266.926 147.596 268.412 147.596C269.425 147.596 270.072 147.164 270.371 146.616H272.164C271.766 148.077 270.371 149.057 268.395 149.057ZM265.889 143.578H270.537C270.537 142.2 269.657 141.204 268.296 141.204C266.876 141.204 265.955 142.3 265.889 143.578ZM275.235 139.859L277.211 143.362L279.203 139.859H281.145L278.34 144.358L281.162 148.874H279.236L277.211 145.504L275.202 148.874H273.26L276.049 144.358L273.276 139.859H275.235ZM286.973 139.859V141.271H285.13V146.218C285.13 147.23 285.644 147.413 286.209 147.43C286.458 147.43 286.856 147.396 287.105 147.38V148.924C286.856 148.957 286.475 148.99 285.993 148.99C284.599 148.99 283.353 148.227 283.37 146.583V141.271H282.042V139.859H283.37V137.701H285.13V139.859H286.973ZM290.841 147.729L289.513 152.311H288.101L288.981 147.729H290.841ZM299.141 148.874L296.502 139.859H298.328L300.088 146.467H300.187L301.947 139.859H303.773L305.516 146.434H305.616L307.359 139.859H309.185L306.546 148.874H304.736L302.91 142.383H302.777L300.968 148.874H299.141ZM312.423 143.528V148.874H310.646V136.854H312.39V141.337H312.506C312.937 140.357 313.767 139.743 315.179 139.743C317.038 139.743 318.266 140.889 318.266 143.146V148.874H316.49V143.362C316.49 142.034 315.776 141.271 314.581 141.271C313.336 141.271 312.423 142.084 312.423 143.528ZM320.408 148.874V139.859H322.184V148.874H320.408ZM321.305 138.465C320.69 138.465 320.176 138 320.176 137.419C320.176 136.838 320.69 136.373 321.305 136.373C321.902 136.373 322.417 136.838 322.417 137.419C322.417 138 321.902 138.465 321.305 138.465ZM326.119 136.854V148.874H324.343V136.854H326.119ZM332.162 149.057C329.506 149.057 327.879 147.23 327.879 144.425C327.879 141.652 329.539 139.743 332.046 139.743C334.104 139.743 336.047 141.021 336.047 144.275V144.906H329.639C329.688 146.616 330.693 147.596 332.179 147.596C333.191 147.596 333.839 147.164 334.138 146.616H335.931C335.532 148.077 334.138 149.057 332.162 149.057ZM329.655 143.578H334.304C334.304 142.2 333.424 141.204 332.062 141.204C330.643 141.204 329.722 142.3 329.655 143.578ZM346.207 149.04C343.717 149.04 341.94 147.695 341.874 145.736H343.733C343.8 146.799 344.846 147.463 346.19 147.463C347.635 147.463 348.697 146.666 348.697 145.504C348.697 144.325 347.701 143.462 345.991 143.462H344.962V141.968H345.991C347.352 141.968 348.315 141.204 348.315 140.059C348.315 138.963 347.502 138.216 346.224 138.216C345.012 138.216 343.949 138.88 343.899 139.976H342.14C342.189 138.017 343.999 136.688 346.24 136.688C348.598 136.688 350.092 138.183 350.075 139.959C350.092 141.32 349.245 142.316 347.95 142.632V142.715C349.594 142.947 350.54 144.043 350.54 145.57C350.54 147.579 348.697 149.04 346.207 149.04ZM352.283 146.533V145.056L357.596 136.854H359.853V144.989H361.497V146.533H359.853V148.874H358.127V146.533H352.283ZM354.209 144.989H358.127V139.029H357.994L354.209 144.89V144.989ZM364.07 148.99C363.423 148.99 362.875 148.459 362.891 147.812C362.875 147.164 363.423 146.633 364.07 146.633C364.701 146.633 365.249 147.164 365.249 147.812C365.249 148.459 364.701 148.99 364.07 148.99ZM371.275 149.04C369.051 149.023 366.726 147.712 366.726 143.263C366.726 139.079 368.536 136.688 371.425 136.688C373.633 136.688 375.177 138.066 375.459 139.976H373.649C373.417 138.996 372.637 138.282 371.425 138.282C369.565 138.282 368.486 139.909 368.486 142.615H368.619C369.266 141.603 370.395 140.988 371.707 140.988C373.848 140.988 375.575 142.632 375.575 144.939C375.575 147.264 373.865 149.057 371.275 149.04ZM371.259 147.513C372.72 147.513 373.799 146.384 373.799 144.973C373.799 143.595 372.753 142.482 371.308 142.482C369.831 142.482 368.719 143.645 368.702 144.989C368.719 146.317 369.781 147.513 371.259 147.513ZM380.273 142.565C378.63 142.582 377.733 141.354 377.75 139.577C377.733 137.817 378.663 136.605 380.273 136.605C381.917 136.605 382.797 137.817 382.797 139.577C382.797 141.37 381.884 142.582 380.273 142.565ZM380.273 141.403C381.054 141.403 381.419 140.673 381.419 139.577C381.419 138.498 381.07 137.768 380.273 137.768C379.51 137.784 379.111 138.498 379.111 139.577C379.111 140.673 379.493 141.403 380.273 141.403ZM387.86 149.123C386.217 149.123 385.32 147.911 385.337 146.135C385.32 144.358 386.266 143.146 387.86 143.146C389.504 143.146 390.384 144.358 390.384 146.135C390.384 147.911 389.471 149.123 387.86 149.123ZM387.86 147.944C388.64 147.944 389.006 147.214 389.006 146.135C389.006 145.039 388.657 144.309 387.86 144.309C387.097 144.325 386.698 145.056 386.698 146.135C386.698 147.214 387.097 147.944 387.86 147.944ZM379.111 148.874L387.362 136.854H388.873L380.622 148.874H379.111ZM396.476 146.334C396.476 144.275 398.22 143.744 399.847 143.628C400.444 143.586 401.797 143.512 402.221 143.495L402.204 142.781C402.204 141.769 401.59 141.171 400.378 141.171C399.332 141.171 398.701 141.652 398.518 142.316H396.759C396.925 140.822 398.319 139.743 400.444 139.743C401.872 139.743 403.98 140.274 403.98 142.881V148.874H402.254V147.646H402.187C401.839 148.326 401.009 149.073 399.514 149.073C397.805 149.073 396.476 148.094 396.476 146.334ZM398.203 146.351C398.203 147.214 398.917 147.662 399.913 147.662C401.357 147.662 402.221 146.699 402.221 145.62V144.79C401.806 144.823 400.511 144.915 400.096 144.939C398.933 145.022 398.203 145.454 398.203 146.351ZM406.122 148.874V139.859H407.832V141.287H407.931C408.264 140.324 409.16 139.727 410.223 139.727C410.438 139.727 410.787 139.743 410.97 139.76V141.453C410.82 141.42 410.405 141.354 410.04 141.354C408.811 141.354 407.898 142.2 407.898 143.379V148.874H406.122ZM415.884 149.057C413.227 149.057 411.6 147.23 411.6 144.425C411.6 141.652 413.261 139.743 415.767 139.743C417.826 139.743 419.768 141.021 419.768 144.275V144.906H413.36C413.41 146.616 414.414 147.596 415.9 147.596C416.913 147.596 417.56 147.164 417.859 146.616H419.652C419.254 148.077 417.859 149.057 415.884 149.057ZM413.377 143.578H418.025C418.025 142.2 417.145 141.204 415.784 141.204C414.365 141.204 413.443 142.3 413.377 143.578ZM429.049 149.057C426.874 149.057 425.28 147.297 425.28 144.392C425.28 141.453 426.89 139.743 429.065 139.743C430.742 139.743 431.356 140.756 431.672 141.32H431.755V136.854H433.531V148.874H431.805V147.463H431.672C431.34 148.061 430.692 149.057 429.049 149.057ZM429.447 147.546C430.958 147.546 431.805 146.251 431.805 144.358C431.805 142.482 430.974 141.254 429.447 141.254C427.87 141.254 427.09 142.582 427.09 144.358C427.09 146.168 427.903 147.546 429.447 147.546ZM435.839 148.874V139.859H437.615V148.874H435.839ZM436.735 138.465C436.121 138.465 435.606 138 435.606 137.419C435.606 136.838 436.121 136.373 436.735 136.373C437.333 136.373 437.847 136.838 437.847 137.419C437.847 138 437.333 138.465 436.735 138.465ZM444.837 142.316C444.671 141.603 444.106 141.138 443.127 141.138C442.114 141.138 441.384 141.669 441.4 142.35C441.384 142.881 441.815 143.263 442.811 143.495L444.239 143.827C445.899 144.192 446.696 144.989 446.713 146.268C446.696 147.895 445.335 149.057 443.027 149.057C440.869 149.057 439.574 148.094 439.358 146.417H441.168C441.317 147.23 441.948 147.629 443.011 147.629C444.156 147.629 444.887 147.164 444.903 146.4C444.887 145.819 444.455 145.438 443.509 145.222L442.097 144.923C440.471 144.558 439.624 143.694 439.624 142.449C439.624 140.839 441.018 139.743 443.11 139.743C445.119 139.743 446.364 140.772 446.547 142.316H444.837ZM453.503 142.316C453.337 141.603 452.772 141.138 451.793 141.138C450.78 141.138 450.05 141.669 450.066 142.35C450.05 142.881 450.481 143.263 451.477 143.495L452.905 143.827C454.565 144.192 455.362 144.989 455.379 146.268C455.362 147.895 454.001 149.057 451.693 149.057C449.535 149.057 448.24 148.094 448.024 146.417H449.834C449.983 147.23 450.614 147.629 451.677 147.629C452.822 147.629 453.553 147.164 453.569 146.4C453.553 145.819 453.121 145.438 452.175 145.222L450.763 144.923C449.137 144.558 448.29 143.694 448.29 142.449C448.29 140.839 449.684 139.743 451.776 139.743C453.785 139.743 455.03 140.772 455.213 142.316H453.503ZM456.69 146.334C456.69 144.275 458.433 143.744 460.06 143.628C460.658 143.586 462.011 143.512 462.434 143.495L462.418 142.781C462.418 141.769 461.804 141.171 460.592 141.171C459.546 141.171 458.915 141.652 458.732 142.316H456.972C457.138 140.822 458.533 139.743 460.658 139.743C462.086 139.743 464.194 140.274 464.194 142.881V148.874H462.468V147.646H462.401C462.053 148.326 461.222 149.073 459.728 149.073C458.018 149.073 456.69 148.094 456.69 146.334ZM458.417 146.351C458.417 147.214 459.131 147.662 460.127 147.662C461.571 147.662 462.434 146.699 462.434 145.62V144.79C462.019 144.823 460.724 144.915 460.309 144.939C459.147 145.022 458.417 145.454 458.417 146.351ZM470.553 139.859V141.271H468.71V146.218C468.71 147.23 469.224 147.413 469.789 147.43C470.038 147.43 470.436 147.396 470.685 147.38V148.924C470.436 148.957 470.055 148.99 469.573 148.99C468.179 148.99 466.933 148.227 466.95 146.583V141.271H465.622V139.859H466.95V137.701H468.71V139.859H470.553ZM472.279 148.874V139.859H474.055V148.874H472.279ZM473.176 138.465C472.561 138.465 472.047 138 472.047 137.419C472.047 136.838 472.561 136.373 473.176 136.373C473.773 136.373 474.288 136.838 474.288 137.419C474.288 138 473.773 138.465 473.176 138.465ZM481.277 142.316C481.111 141.603 480.547 141.138 479.567 141.138C478.555 141.138 477.824 141.669 477.841 142.35C477.824 142.881 478.256 143.263 479.252 143.495L480.68 143.827C482.34 144.192 483.137 144.989 483.153 146.268C483.137 147.895 481.775 149.057 479.468 149.057C477.309 149.057 476.014 148.094 475.799 146.417H477.608C477.758 147.23 478.388 147.629 479.451 147.629C480.596 147.629 481.327 147.164 481.344 146.4C481.327 145.819 480.895 145.438 479.949 145.222L478.538 144.923C476.911 144.558 476.064 143.694 476.064 142.449C476.064 140.839 477.459 139.743 479.551 139.743C481.559 139.743 482.805 140.772 482.987 142.316H481.277ZM489.18 139.859V141.271H487.237V148.874H485.461V141.271H484.066V139.859H485.461V138.813C485.461 137.203 486.49 136.29 488.15 136.29C488.582 136.29 489.013 136.34 489.362 136.406V137.884C489.03 137.834 488.781 137.817 488.615 137.817C487.669 137.817 487.237 138.199 487.237 139.079V139.859H489.18ZM490.79 148.874V139.859H492.566V148.874H490.79ZM491.686 138.465C491.072 138.465 490.557 138 490.557 137.419C490.557 136.838 491.072 136.373 491.686 136.373C492.284 136.373 492.799 136.838 492.799 137.419C492.799 138 492.284 138.465 491.686 138.465ZM498.609 149.057C495.953 149.057 494.326 147.23 494.326 144.425C494.326 141.652 495.986 139.743 498.493 139.743C500.552 139.743 502.494 141.021 502.494 144.275V144.906H496.086C496.136 146.616 497.14 147.596 498.626 147.596C499.638 147.596 500.286 147.164 500.585 146.616H502.378C501.979 148.077 500.585 149.057 498.609 149.057ZM496.102 143.578H500.751C500.751 142.2 499.871 141.204 498.51 141.204C497.09 141.204 496.169 142.3 496.102 143.578ZM507.624 149.057C505.449 149.057 503.855 147.297 503.855 144.392C503.855 141.453 505.466 139.743 507.64 139.743C509.317 139.743 509.931 140.756 510.247 141.32H510.33V136.854H512.106V148.874H510.38V147.463H510.247C509.915 148.061 509.267 149.057 507.624 149.057ZM508.022 147.546C509.533 147.546 510.38 146.251 510.38 144.358C510.38 142.482 509.55 141.254 508.022 141.254C506.445 141.254 505.665 142.582 505.665 144.358C505.665 146.168 506.478 147.546 508.022 147.546ZM43.5937 168.874L40.9541 159.859H42.7803L44.54 166.467H44.6396L46.3994 159.859H48.2256L49.9687 166.434H50.0684L51.8115 159.859H53.6377L50.998 168.874H49.1885L47.3623 162.383H47.2295L45.4199 168.874H43.5937ZM55.0986 168.874V159.859H56.875V168.874H55.0986ZM55.9951 158.465C55.3809 158.465 54.8662 158 54.8662 157.419C54.8662 156.838 55.3809 156.373 55.9951 156.373C56.5928 156.373 57.1074 156.838 57.1074 157.419C57.1074 158 56.5928 158.465 55.9951 158.465ZM63.25 159.859V161.271H61.4072V166.218C61.4072 167.23 61.9219 167.413 62.4863 167.43C62.7353 167.43 63.1338 167.396 63.3828 167.38V168.924C63.1338 168.957 62.7519 168.99 62.2705 168.99C60.876 168.99 59.6309 168.227 59.6475 166.583V161.271H58.3193V159.859H59.6475V157.701H61.4072V159.859H63.25ZM66.9521 163.528V168.874H65.1758V156.854H66.9189V161.337H67.0351C67.4668 160.357 68.2969 159.743 69.708 159.743C71.5674 159.743 72.7959 160.889 72.7959 163.146V168.874H71.0195V163.362C71.0195 162.034 70.3057 161.271 69.1103 161.271C67.8652 161.271 66.9521 162.084 66.9521 163.528ZM83.3047 159.859V161.271H81.4619V166.218C81.4619 167.23 81.9765 167.413 82.541 167.43C82.79 167.43 83.1885 167.396 83.4375 167.38V168.924C83.1885 168.957 82.8066 168.99 82.3252 168.99C80.9306 168.99 79.6855 168.227 79.7021 166.583V161.271H78.374V159.859H79.7021V157.701H81.4619V159.859H83.3047ZM87.0068 163.528V168.874H85.2304V156.854H86.9736V161.337H87.0898C87.5215 160.357 88.3515 159.743 89.7627 159.743C91.622 159.743 92.8506 160.889 92.8506 163.146V168.874H91.0742V163.362C91.0742 162.034 90.3603 161.271 89.165 161.271C87.9199 161.271 87.0068 162.084 87.0068 163.528ZM98.8769 169.057C96.2207 169.057 94.5937 167.23 94.5937 164.425C94.5937 161.652 96.2539 159.743 98.7607 159.743C100.819 159.743 102.762 161.021 102.762 164.275V164.906H96.3535C96.4033 166.616 97.4077 167.596 98.8935 167.596C99.9062 167.596 100.554 167.164 100.853 166.616H102.645C102.247 168.077 100.853 169.057 98.8769 169.057ZM96.3701 163.578H101.019C101.019 162.2 100.139 161.204 98.7773 161.204C97.3579 161.204 96.4365 162.3 96.3701 163.578ZM108.672 168.874V159.859H110.448V168.874H108.672ZM109.568 158.465C108.954 158.465 108.439 158 108.439 157.419C108.439 156.838 108.954 156.373 109.568 156.373C110.166 156.373 110.681 156.838 110.681 157.419C110.681 158 110.166 158.465 109.568 158.465ZM114.383 163.528V168.874H112.606V159.859H114.316V161.337H114.416C114.848 160.374 115.728 159.743 117.072 159.743C118.932 159.743 120.144 160.905 120.144 163.146V168.874H118.384V163.362C118.384 162.051 117.67 161.271 116.475 161.271C115.263 161.271 114.383 162.084 114.383 163.528ZM121.887 166.334C121.887 164.275 123.63 163.744 125.257 163.628C125.854 163.586 127.207 163.512 127.631 163.495L127.614 162.781C127.614 161.769 127 161.171 125.788 161.171C124.742 161.171 124.111 161.652 123.929 162.316H122.169C122.335 160.822 123.729 159.743 125.854 159.743C127.282 159.743 129.391 160.274 129.391 162.881V168.874H127.664V167.646H127.598C127.249 168.326 126.419 169.073 124.925 169.073C123.215 169.073 121.887 168.094 121.887 166.334ZM123.613 166.351C123.613 167.214 124.327 167.662 125.323 167.662C126.768 167.662 127.631 166.699 127.631 165.62V164.79C127.216 164.823 125.921 164.915 125.506 164.939C124.344 165.022 123.613 165.454 123.613 166.351ZM135.351 169.057C132.727 169.057 131.134 167.114 131.134 164.408C131.134 161.652 132.777 159.743 135.317 159.743C137.376 159.743 138.87 160.955 139.053 162.781H137.326C137.144 161.935 136.463 161.221 135.351 161.221C133.89 161.221 132.91 162.433 132.91 164.358C132.91 166.334 133.873 167.546 135.351 167.546C136.347 167.546 137.11 166.998 137.326 166.019H139.053C138.853 167.762 137.476 169.057 135.351 169.057ZM144.548 169.057C141.925 169.057 140.331 167.114 140.331 164.408C140.331 161.652 141.975 159.743 144.515 159.743C146.573 159.743 148.067 160.955 148.25 162.781H146.523C146.341 161.935 145.66 161.221 144.548 161.221C143.087 161.221 142.107 162.433 142.107 164.358C142.107 166.334 143.07 167.546 144.548 167.546C145.544 167.546 146.308 166.998 146.523 166.019H148.25C148.051 167.762 146.673 169.057 144.548 169.057ZM155.654 165.122V159.859H157.414V168.874H155.687V167.313H155.588C155.173 168.276 154.243 168.99 152.898 168.99C151.155 168.99 149.927 167.828 149.927 165.587V159.859H151.703V165.371C151.703 166.6 152.45 167.38 153.529 167.38C154.509 167.38 155.654 166.666 155.654 165.122ZM159.572 168.874V159.859H161.282V161.287H161.382C161.714 160.324 162.61 159.727 163.673 159.727C163.889 159.727 164.237 159.743 164.42 159.76V161.453C164.27 161.42 163.855 161.354 163.49 161.354C162.262 161.354 161.349 162.2 161.349 163.379V168.874H159.572ZM165.233 166.334C165.233 164.275 166.977 163.744 168.603 163.628C169.201 163.586 170.554 163.512 170.977 163.495L170.961 162.781C170.961 161.769 170.347 161.171 169.135 161.171C168.089 161.171 167.458 161.652 167.275 162.316H165.516C165.682 160.822 167.076 159.743 169.201 159.743C170.629 159.743 172.737 160.274 172.737 162.881V168.874H171.011V167.646H170.944C170.596 168.326 169.766 169.073 168.271 169.073C166.561 169.073 165.233 168.094 165.233 166.334ZM166.96 166.351C166.96 167.214 167.674 167.662 168.67 167.662C170.114 167.662 170.977 166.699 170.977 165.62V164.79C170.562 164.823 169.268 164.915 168.852 164.939C167.69 165.022 166.96 165.454 166.96 166.351ZM179.096 159.859V161.271H177.253V166.218C177.253 167.23 177.768 167.413 178.332 167.43C178.581 167.43 178.979 167.396 179.228 167.38V168.924C178.979 168.957 178.598 168.99 178.116 168.99C176.722 168.99 175.477 168.227 175.493 166.583V161.271H174.165V159.859H175.493V157.701H177.253V159.859H179.096ZM184.607 169.057C181.951 169.057 180.324 167.23 180.324 164.425C180.324 161.652 181.984 159.743 184.491 159.743C186.55 159.743 188.492 161.021 188.492 164.275V164.906H182.084C182.134 166.616 183.138 167.596 184.624 167.596C185.637 167.596 186.284 167.164 186.583 166.616H188.376C187.977 168.077 186.583 169.057 184.607 169.057ZM182.101 163.578H186.749C186.749 162.2 185.869 161.204 184.508 161.204C183.088 161.204 182.167 162.3 182.101 163.578ZM193.987 166.334C193.987 164.275 195.73 163.744 197.357 163.628C197.955 163.586 199.308 163.512 199.731 163.495L199.715 162.781C199.715 161.769 199.101 161.171 197.889 161.171C196.843 161.171 196.212 161.652 196.029 162.316H194.269C194.435 160.822 195.83 159.743 197.955 159.743C199.383 159.743 201.491 160.274 201.491 162.881V168.874H199.765V167.646H199.698C199.35 168.326 198.519 169.073 197.025 169.073C195.315 169.073 193.987 168.094 193.987 166.334ZM195.714 166.351C195.714 167.214 196.428 167.662 197.424 167.662C198.868 167.662 199.731 166.699 199.731 165.62V164.79C199.316 164.823 198.021 164.915 197.606 164.939C196.444 165.022 195.714 165.454 195.714 166.351ZM209.36 165.122V159.859H211.12V168.874H209.393V167.313H209.294C208.879 168.276 207.949 168.99 206.604 168.99C204.861 168.99 203.633 167.828 203.633 165.587V159.859H205.409V165.371C205.409 166.6 206.156 167.38 207.235 167.38C208.215 167.38 209.36 166.666 209.36 165.122ZM217.495 159.859V161.271H215.652V166.218C215.652 167.23 216.167 167.413 216.731 167.43C216.98 167.43 217.379 167.396 217.628 167.38V168.924C217.379 168.957 216.997 168.99 216.516 168.99C215.121 168.99 213.876 168.227 213.893 166.583V161.271H212.564V159.859H213.893V157.701H215.652V159.859H217.495ZM222.94 169.057C220.384 169.057 218.724 167.197 218.724 164.408C218.724 161.603 220.384 159.743 222.94 159.743C225.48 159.743 227.141 161.603 227.141 164.408C227.141 167.197 225.48 169.057 222.94 169.057ZM222.94 167.579C224.567 167.579 225.348 166.135 225.348 164.408C225.348 162.682 224.567 161.204 222.94 161.204C221.28 161.204 220.5 162.682 220.5 164.408C220.5 166.135 221.28 167.579 222.94 167.579ZM228.884 168.874V159.859H230.594V161.337H230.693C231.075 160.324 231.955 159.743 233.15 159.743C234.346 159.743 235.192 160.341 235.574 161.337H235.674C236.105 160.357 237.068 159.743 238.38 159.743C240.007 159.743 241.169 160.772 241.169 162.831V168.874H239.392V162.997C239.392 161.785 238.629 161.271 237.699 161.271C236.554 161.271 235.906 162.051 235.906 163.13V168.874H234.146V162.897C234.146 161.918 233.466 161.271 232.503 161.271C231.507 161.271 230.66 162.101 230.66 163.313V168.874H228.884ZM242.895 166.334C242.895 164.275 244.639 163.744 246.266 163.628C246.863 163.586 248.216 163.512 248.64 163.495L248.623 162.781C248.623 161.769 248.009 161.171 246.797 161.171C245.751 161.171 245.12 161.652 244.937 162.316H243.178C243.344 160.822 244.738 159.743 246.863 159.743C248.291 159.743 250.399 160.274 250.399 162.881V168.874H248.673V167.646H248.606C248.258 168.326 247.428 169.073 245.934 169.073C244.224 169.073 242.895 168.094 242.895 166.334ZM244.622 166.351C244.622 167.214 245.336 167.662 246.332 167.662C247.776 167.662 248.64 166.699 248.64 165.62V164.79C248.225 164.823 246.93 164.915 246.515 164.939C245.352 165.022 244.622 165.454 244.622 166.351ZM256.758 159.859V161.271H254.915V166.218C254.915 167.23 255.43 167.413 255.994 167.43C256.243 167.43 256.642 167.396 256.891 167.38V168.924C256.642 168.957 256.26 168.99 255.778 168.99C254.384 168.99 253.139 168.227 253.155 166.583V161.271H251.827V159.859H253.155V157.701H254.915V159.859H256.758ZM258.484 168.874V159.859H260.261V168.874H258.484ZM259.381 158.465C258.767 158.465 258.252 158 258.252 157.419C258.252 156.838 258.767 156.373 259.381 156.373C259.978 156.373 260.493 156.838 260.493 157.419C260.493 158 259.978 158.465 259.381 158.465ZM266.237 169.057C263.614 169.057 262.02 167.114 262.02 164.408C262.02 161.652 263.664 159.743 266.204 159.743C268.263 159.743 269.757 160.955 269.939 162.781H268.213C268.03 161.935 267.349 161.221 266.237 161.221C264.776 161.221 263.797 162.433 263.797 164.358C263.797 166.334 264.76 167.546 266.237 167.546C267.233 167.546 267.997 166.998 268.213 166.019H269.939C269.74 167.762 268.362 169.057 266.237 169.057ZM276.945 168.874H275.003L279.319 156.854H281.428L285.761 168.874H283.818L282.723 165.703H278.041L276.945 168.874ZM278.572 164.176H282.191L280.415 159.046H280.332L278.572 164.176ZM288.915 156.854V168.874H287.139V156.854H288.915ZM295.29 159.859V161.271H293.447V166.218C293.447 167.23 293.962 167.413 294.526 167.43C294.775 167.43 295.174 167.396 295.423 167.38V168.924C295.174 168.957 294.792 168.99 294.31 168.99C292.916 168.99 291.671 168.227 291.687 166.583V161.271H290.359V159.859H291.687V157.701H293.447V159.859H295.29ZM300.719 158.432V156.854H310.032V158.432H306.297V168.874H304.471V158.432H300.719ZM314.315 169.057C311.659 169.057 310.032 167.23 310.032 164.425C310.032 161.652 311.692 159.743 314.199 159.743C316.258 159.743 318.2 161.021 318.2 164.275V164.906H311.792C311.842 166.616 312.846 167.596 314.332 167.596C315.345 167.596 315.992 167.164 316.291 166.616H318.084C317.685 168.077 316.291 169.057 314.315 169.057ZM311.808 163.578H316.457C316.457 162.2 315.577 161.204 314.216 161.204C312.796 161.204 311.875 162.3 311.808 163.578ZM321.155 159.859L323.131 163.362L325.123 159.859H327.065L324.26 164.358L327.082 168.874H325.156L323.131 165.504L321.122 168.874H319.18L321.969 164.358L319.196 159.859H321.155ZM332.892 159.859V161.271H331.05V166.218C331.05 167.23 331.564 167.413 332.129 167.43C332.378 167.43 332.776 167.396 333.025 167.38V168.924C332.776 168.957 332.394 168.99 331.913 168.99C330.518 168.99 329.273 168.227 329.29 166.583V161.271H327.962V159.859H329.29V157.701H331.05V159.859H332.892ZM335.781 168.99C335.134 168.99 334.586 168.459 334.602 167.812C334.586 167.164 335.134 166.633 335.781 166.633C336.412 166.633 336.96 167.164 336.96 167.812C336.96 168.459 336.412 168.99 335.781 168.99Z" fill="white"/>
</svg>
